<svg xmlns="http://www.w3.org/2000/svg" xmlns:xlink="http://www.w3.org/1999/xlink" width="120" height="120" viewBox="0 0 120 120">
  <defs>
    <clipPath id="clip-path">
      <path id="Trazado_610742" data-name="Trazado 610742" d="M130,61.713a59.921,59.921,0,1,0,15.2-1.962A59.99,59.99,0,0,0,130,61.713" transform="translate(-85.163 -59.751)" fill="none" stroke="#624b7e" stroke-width="1"/>
    </clipPath>
    <clipPath id="clip-path-2">
      <rect id="Rectángulo_378828" data-name="Rectángulo 378828" width="46.12" height="67.623" fill="none"/>
    </clipPath>
  </defs>
  <g id="Grupo_1074726" data-name="Grupo 1074726" transform="translate(-757 -4900)">
    <g id="Grupo_1073765" data-name="Grupo 1073765" transform="translate(757 4900)">
      <g id="Grupo_1073704" data-name="Grupo 1073704">
        <g id="Grupo_1073463" data-name="Grupo 1073463" clip-path="url(#clip-path)">
          <line id="Línea_2945" data-name="Línea 2945" x1="141.717" y2="37.022" transform="translate(-26.188 -14.426)" fill="none" stroke="#624b7e" stroke-miterlimit="10" stroke-width="1.728"/>
          <line id="Línea_2946" data-name="Línea 2946" x1="141.716" y2="37.022" transform="translate(-23.944 -5.837)" fill="none" stroke="#624b7e" stroke-miterlimit="10" stroke-width="1.728"/>
          <line id="Línea_2947" data-name="Línea 2947" x1="141.716" y2="37.023" transform="translate(-21.7 2.751)" fill="none" stroke="#624b7e" stroke-miterlimit="10" stroke-width="1.728"/>
          <line id="Línea_2948" data-name="Línea 2948" x1="141.718" y2="37.023" transform="translate(-19.455 11.34)" fill="none" stroke="#624b7e" stroke-miterlimit="10" stroke-width="1.728"/>
          <line id="Línea_2949" data-name="Línea 2949" x1="141.716" y2="37.024" transform="translate(-17.211 19.929)" fill="none" stroke="#624b7e" stroke-miterlimit="10" stroke-width="1.728"/>
          <line id="Línea_2950" data-name="Línea 2950" x1="141.716" y2="37.023" transform="translate(-14.969 28.518)" fill="none" stroke="#624b7e" stroke-miterlimit="10" stroke-width="1.728"/>
          <line id="Línea_2951" data-name="Línea 2951" x1="141.717" y2="37.022" transform="translate(-12.724 37.108)" fill="none" stroke="#624b7e" stroke-miterlimit="10" stroke-width="1.728"/>
          <line id="Línea_2952" data-name="Línea 2952" x1="141.718" y2="37.022" transform="translate(-10.48 45.697)" fill="none" stroke="#624b7e" stroke-miterlimit="10" stroke-width="1.728"/>
          <line id="Línea_2953" data-name="Línea 2953" x1="141.716" y2="37.023" transform="translate(-8.237 54.285)" fill="none" stroke="#624b7e" stroke-miterlimit="10" stroke-width="1.728"/>
          <line id="Línea_2954" data-name="Línea 2954" x1="141.715" y2="37.023" transform="translate(-5.993 62.874)" fill="none" stroke="#624b7e" stroke-miterlimit="10" stroke-width="1.728"/>
          <line id="Línea_2955" data-name="Línea 2955" x1="141.716" y2="37.022" transform="translate(-3.749 71.464)" fill="none" stroke="#624b7e" stroke-miterlimit="10" stroke-width="1.728"/>
          <line id="Línea_2956" data-name="Línea 2956" x1="141.716" y2="37.022" transform="translate(-1.505 80.054)" fill="none" stroke="#624b7e" stroke-miterlimit="10" stroke-width="1.728"/>
          <line id="Línea_2957" data-name="Línea 2957" x1="141.718" y2="37.024" transform="translate(0.761 88.73)" fill="none" stroke="#624b7e" stroke-miterlimit="10" stroke-width="1.728"/>
          <line id="Línea_2958" data-name="Línea 2958" x1="141.717" y2="37.022" transform="translate(2.94 97.072)" fill="none" stroke="#624b7e" stroke-miterlimit="10" stroke-width="1.728"/>
          <line id="Línea_2959" data-name="Línea 2959" x1="141.717" y2="37.022" transform="translate(-27.38 -18.99)" fill="none" stroke="#624b7e" stroke-miterlimit="10" stroke-width="1.728"/>
          <line id="Línea_2960" data-name="Línea 2960" x1="141.716" y2="37.022" transform="translate(-25.136 -10.401)" fill="none" stroke="#624b7e" stroke-miterlimit="10" stroke-width="1.728"/>
          <line id="Línea_2961" data-name="Línea 2961" x1="141.716" y2="37.023" transform="translate(-22.892 -1.813)" fill="none" stroke="#624b7e" stroke-miterlimit="10" stroke-width="1.728"/>
          <line id="Línea_2962" data-name="Línea 2962" x1="141.718" y2="37.023" transform="translate(-20.648 6.776)" fill="none" stroke="#624b7e" stroke-miterlimit="10" stroke-width="1.728"/>
          <line id="Línea_2963" data-name="Línea 2963" x1="141.716" y2="37.023" transform="translate(-18.404 15.365)" fill="none" stroke="#624b7e" stroke-miterlimit="10" stroke-width="1.728"/>
          <line id="Línea_2964" data-name="Línea 2964" x1="141.716" y2="37.024" transform="translate(-16.162 23.954)" fill="none" stroke="#624b7e" stroke-miterlimit="10" stroke-width="1.728"/>
          <line id="Línea_2965" data-name="Línea 2965" x1="141.716" y2="37.021" transform="translate(-13.917 32.544)" fill="none" stroke="#624b7e" stroke-miterlimit="10" stroke-width="1.728"/>
          <line id="Línea_2966" data-name="Línea 2966" x1="141.718" y2="37.022" transform="translate(-11.673 41.132)" fill="none" stroke="#624b7e" stroke-miterlimit="10" stroke-width="1.728"/>
          <line id="Línea_2967" data-name="Línea 2967" x1="141.716" y2="37.022" transform="translate(-9.429 49.721)" fill="none" stroke="#624b7e" stroke-miterlimit="10" stroke-width="1.728"/>
          <line id="Línea_2968" data-name="Línea 2968" x1="141.715" y2="37.022" transform="translate(-7.186 58.31)" fill="none" stroke="#624b7e" stroke-miterlimit="10" stroke-width="1.728"/>
          <line id="Línea_2969" data-name="Línea 2969" x1="141.715" y2="37.022" transform="translate(-4.941 66.9)" fill="none" stroke="#624b7e" stroke-miterlimit="10" stroke-width="1.728"/>
          <line id="Línea_2970" data-name="Línea 2970" x1="141.716" y2="37.022" transform="translate(-2.698 75.489)" fill="none" stroke="#624b7e" stroke-miterlimit="10" stroke-width="1.728"/>
          <line id="Línea_2971" data-name="Línea 2971" x1="141.717" y2="37.023" transform="translate(-0.432 84.166)" fill="none" stroke="#624b7e" stroke-miterlimit="10" stroke-width="1.728"/>
          <line id="Línea_2972" data-name="Línea 2972" x1="141.716" y2="37.021" transform="translate(1.748 92.508)" fill="none" stroke="#624b7e" stroke-miterlimit="10" stroke-width="1.728"/>
        </g>
      </g>
      <g id="Grupo_1073705" data-name="Grupo 1073705" transform="translate(9.797 9.795)">
        <path id="Trazado_608385" data-name="Trazado 608385" d="M50.33,0A50.166,50.166,0,1,1,0,50.166,50.248,50.248,0,0,1,50.33,0Z" transform="translate(0 0)" fill="#fff"/>
      </g>
      <g id="Grupo_1073706" data-name="Grupo 1073706" transform="translate(97.541 39.055)">
        <path id="Trazado_611008" data-name="Trazado 611008" d="M7.807,23.89,20.6,10.78,0,5.99Z" transform="translate(0 -4.861)" fill="#474747"/>
        <path id="Trazado_611009" data-name="Trazado 611009" d="M15.041,16.829,28.765,3.886,7.771,0Z" transform="translate(-6.307 0)" fill="#79cbbf"/>
      </g>
      <g id="Grupo_1073707" data-name="Grupo 1073707" transform="translate(0 87.567)">
        <path id="Trazado_610799" data-name="Trazado 610799" d="M0,2.743,5.78,13.015l7.926-6.252,4.948,8.8,7.929-6.253,4.958,8.8,9.26-7.3L39.008,8.533l-6.6,5.2-4.958-8.8-7.927,6.251-4.948-8.8L6.644,8.645,2.524,1.323Z" transform="translate(0 -0.94)" fill="#474747"/>
        <path id="Trazado_610800" data-name="Trazado 610800" d="M12.91,0,10.387,1.42l5.779,10.272L24.092,5.44l4.947,8.8,7.93-6.253,4.957,8.8,9.26-7.3L49.394,7.211l-6.6,5.2-4.958-8.8L29.9,9.867l-4.948-8.8L17.03,7.323Z" transform="translate(-7.379 0)" fill="#fff4a9"/>
      </g>
      <path id="Trazado_611010" data-name="Trazado 611010" d="M19.556,9.623,5.175,2.789l-.329,8.785Z" transform="translate(5.712 13.709)" fill="none" stroke="#fd3cae" stroke-miterlimit="10" stroke-width="2"/>
    </g>
    <g id="Grupo_1074736" data-name="Grupo 1074736" transform="translate(792.88 4922.395)">
      <path id="Trazado_612653" data-name="Trazado 612653" d="M15.969,68.546,26.077,2.21h-2.6L13.368,68.546Z" transform="translate(-9.475 -1.566)" fill="#909295"/>
      <g id="Grupo_1074735" data-name="Grupo 1074735">
        <g id="Grupo_1074734" data-name="Grupo 1074734" clip-path="url(#clip-path-2)">
          <path id="Trazado_612654" data-name="Trazado 612654" d="M14.4,67.623H11.8a.643.643,0,0,1-.636-.741L21.273.547A.643.643,0,0,1,21.909,0h2.6a.643.643,0,0,1,.636.741L15.039,67.076a.643.643,0,0,1-.636.547m-1.851-1.287h1.3L23.762,1.287h-1.3Z" transform="translate(-7.909)" fill="#482080"/>
          <path id="Trazado_612655" data-name="Trazado 612655" d="M114.08,68.546,103.972,2.21h-2.6L111.48,68.546Z" transform="translate(-71.851 -1.566)" fill="#909295"/>
          <path id="Trazado_612656" data-name="Trazado 612656" d="M112.514,67.623h-2.6a.643.643,0,0,1-.636-.547L99.169.741A.643.643,0,0,1,99.805,0h2.6a.643.643,0,0,1,.636.547L113.15,66.883a.643.643,0,0,1-.636.741m-2.048-1.287h1.3L101.853,1.287h-1.3Z" transform="translate(-70.285 0)" fill="#482080"/>
          <path id="Trazado_612657" data-name="Trazado 612657" d="M55.785,11.477H28.544L26.952,21.92H57.376Z" transform="translate(-19.103 -8.135)" fill="#ffd45b"/>
          <path id="Trazado_612658" data-name="Trazado 612658" d="M55.81,21H25.385a.643.643,0,0,1-.636-.741L26.341,9.814a.643.643,0,0,1,.636-.547H54.218a.643.643,0,0,1,.636.547l1.592,10.443A.643.643,0,0,1,55.81,21M26.134,19.71H55.061l-1.4-9.156H27.53Z" transform="translate(-17.537 -6.568)" fill="#482080"/>
          <path id="Trazado_612659" data-name="Trazado 612659" d="M52.34,65.6H20.294L18.7,76.044H53.932Z" transform="translate(-13.257 -46.499)" fill="#eb7fb1"/>
          <path id="Trazado_612660" data-name="Trazado 612660" d="M52.365,75.121H17.136a.643.643,0,0,1-.636-.741L18.092,63.94a.643.643,0,0,1,.636-.547H50.774a.643.643,0,0,1,.636.547L53,74.381a.643.643,0,0,1-.636.741m-34.48-1.287H51.616l-1.4-9.154H19.281Z" transform="translate(-11.69 -44.933)" fill="#482080"/>
          <path id="Trazado_612661" data-name="Trazado 612661" d="M48.9,119.723H12.045l-1.591,10.441h40.03Z" transform="translate(-7.41 -84.859)" fill="#00b1f1"/>
          <path id="Trazado_612662" data-name="Trazado 612662" d="M48.918,129.242H8.888a.644.644,0,0,1-.637-.741L9.843,118.06a.643.643,0,0,1,.636-.546h36.85a.643.643,0,0,1,.636.547L49.554,128.5a.644.644,0,0,1-.636.741M9.636,127.955H48.168L46.776,118.8H11.032Z" transform="translate(-5.843 -83.293)" fill="#482080"/>
          <path id="Trazado_612663" data-name="Trazado 612663" d="M45.452,173.849H3.8L2.21,184.29H47.043Z" transform="translate(-1.567 -123.223)" fill="#3cb090"/>
          <path id="Trazado_612664" data-name="Trazado 612664" d="M45.476,183.368H.643a.643.643,0,0,1-.636-.741L1.6,172.186a.643.643,0,0,1,.636-.546h41.65a.644.644,0,0,1,.636.546l1.591,10.441a.643.643,0,0,1-.636.741M1.392,182.081H44.727l-1.4-9.154H2.788Z" transform="translate(0 -121.657)" fill="#482080"/>
          <path id="Trazado_612665" data-name="Trazado 612665" d="M38.262,77.689a2.617,2.617,0,0,1,.85,3.6l-1.851,2.995a2.622,2.622,0,0,1-2.405,1.232L17.781,113.136a1.219,1.219,0,0,1-2.075-1.281L32.782,84.235a2.615,2.615,0,0,1,.028-2.7l1.853-2.994a2.615,2.615,0,0,1,3.6-.85" transform="translate(-11.003 -54.789)" fill="#ffd45b"/>
          <path id="Trazado_612666" data-name="Trazado 612666" d="M15.172,112.787a1.861,1.861,0,0,1-1.58-2.842l16.885-27.31a3.254,3.254,0,0,1,.217-3.008l1.854-2.994a3.259,3.259,0,0,1,5.543,3.429L36.24,83.056a3.258,3.258,0,0,1-2.594,1.538L16.76,111.905a1.866,1.866,0,0,1-1.588.882M35.323,76.373a1.985,1.985,0,0,0-.456.054,1.955,1.955,0,0,0-1.224.882L31.789,80.3a1.969,1.969,0,0,0-.021,2.037.644.644,0,0,1-.007.665L14.686,110.624a.566.566,0,0,0-.072.432.576.576,0,0,0,1.051.172L32.741,83.611a.636.636,0,0,1,.59-.3,1.98,1.98,0,0,0,1.816-.929L37,79.385a1.973,1.973,0,0,0-.641-2.717h0a1.958,1.958,0,0,0-1.032-.295" transform="translate(-9.435 -53.22)" fill="#482080"/>
        </g>
      </g>
    </g>
  </g>
</svg>
