<svg xmlns="http://www.w3.org/2000/svg" xmlns:xlink="http://www.w3.org/1999/xlink" width="258" height="164.606" viewBox="0 0 258 164.606">
  <defs>
    <clipPath id="clip-path">
      <path id="Trazado_612633" data-name="Trazado 612633" d="M42.972,0C19.239,0,0,79.886,0,106.709H0c0,26.823,19.239,48.567,42.972,48.567H198.49c23.733,0,42.972-21.744,42.972-48.567h0C241.462,79.886,222.223,0,198.49,0Z" transform="translate(31.439 0.003)" fill="none"/>
    </clipPath>
  </defs>
  <g id="Grupo_1072927" data-name="Grupo 1072927" transform="translate(-285 -477.212)">
    <path id="Trazado_610811" data-name="Trazado 610811" d="M0,0H258V156.986H0Z" transform="translate(285 484.832)" fill="none"/>
    <rect id="Rectángulo_378093" data-name="Rectángulo 378093" width="258" height="91.831" rx="45.915" transform="translate(285 540.661)" fill="#fff"/>
    <g id="Grupo_1074717" data-name="Grupo 1074717" transform="translate(258.099 477.215)">
      <g id="Grupo_1074716" data-name="Grupo 1074716" transform="translate(0 -0.003)" clip-path="url(#clip-path)">
        <path id="Trazado_612576" data-name="Trazado 612576" d="M2160.14,2953.371c-1.515-5.357-2.076-11.138-.367-16.439a273.88,273.88,0,0,0-41.479-6.42,7.493,7.493,0,0,0-3.394.267,7.165,7.165,0,0,0-2.634,2.244q-1.243,1.487-2.43,3.018a108.929,108.929,0,0,0-8.778,13.211,111.287,111.287,0,0,0-13.941,44.876c-.217,2.473-.349,8.4-.394,14.525a135.849,135.849,0,0,0,26.029,9q4.968.837,9.877,1.5c-.028-6.808-.056-16.706-.084-18.969q-.007-.589-.014-1.177a6.987,6.987,0,0,0-.361-2.595,7.07,7.07,0,0,0-.872-1.427l-6.982-9.63,9.99,10.546a6.662,6.662,0,0,1,1.441,1.951,6.523,6.523,0,0,1,.367,1.971c.19,2.355.38,13.045.57,19.836,16.4,1.909,32.312,1.9,47.71-2.26-1.085-15.429-3.862-37.481-8.242-48.44-2.069-5.176-4.5-10.235-6.011-15.592" transform="translate(-1992.144 -2797.624)" fill="#92b5ae"/>
        <path id="Trazado_612577" data-name="Trazado 612577" d="M2094.081,947.951l-1.27-3.62-.32-.913a7.168,7.168,0,0,0-.311-.878c-.251-.491-.865.049-1.137.238q-1.538,1.066-3.085,2.121t-3.088,2.089q-1.555,1.043-3.118,2.073t-3.133,2.049q-1.571,1.019-3.149,2.025t-3.151,1.992q-1.586.994-3.18,1.977t-3.195,1.952l-.781.472a3.921,3.921,0,0,0-1.684,1.538,2.083,2.083,0,0,0,0,1.651,2.651,2.651,0,0,0,.83,1.1,2.429,2.429,0,0,0,.228.159,3.972,3.972,0,0,0,3.281.2,12.362,12.362,0,0,0,2.949-1.654A162.363,162.363,0,0,1,2093.4,949.6a1.072,1.072,0,0,0,.685-1.648" transform="translate(-1969.791 -899.629)" fill="#23203f"/>
        <path id="Trazado_612578" data-name="Trazado 612578" d="M2510.251,156.537a7.406,7.406,0,0,1-3.877-12.388c1.842-1.919,4.886-3.163,5.163-5.809.381-3.643-4.995-5.952-4.642-9.6.386-3.991,6.89-4.565,8.032-8.409.886-2.984-2.021-5.741-2.451-8.824-.524-3.753,2.7-6.981,6-8.838s7.119-3.171,9.433-6.172c2.379-3.084,2.628-7.239,3.12-11.1s1.593-8.1,4.88-10.191c3.838-2.441,9.024-.853,12.7,1.82s6.625,6.333,10.576,8.585c3.6,2.054,8.1,3,10.533,6.363,3.143,4.34,1.437,10.844,4.473,15.259,2.137,3.109,6.031,4.35,9.351,6.142s6.571,5.182,5.643,8.839c-.439,1.728-1.787,3.354-1.352,5.083.854,3.392,7.23,2.89,7.732,6.351.489,3.374-5.363,4.508-5.789,7.89-.294,2.334,2.151,3.989,4.27,5.01s4.6,2.549,4.468,4.9c-.254,4.476-9.067,4.252-9.193,8.733-.062,2.19,2.182,3.654,3.221,5.583,1.371,2.547.456,5.847-1.452,8.021s-4.613,3.456-7.269,4.6c-13.4,5.773-28.146,9.582-42.564,7.341s-28.354-11.523-33.013-25.351" transform="translate(-2390.821 -70.643)" fill="#3b355b"/>
        <path id="Trazado_612579" data-name="Trazado 612579" d="M3066.235,925.335a14.666,14.666,0,0,0-.181,6.1c.141.594.469,1.275,1.078,1.329a1.077,1.077,0,0,0,.925-.487,2.813,2.813,0,0,0,.4-1.012,18.051,18.051,0,0,0,.46-3.392,23.024,23.024,0,0,0-.118-3.413,30.968,30.968,0,0,0-.563-3.4c-.068-.307-.085-1.01-.573-.829a.513.513,0,0,0-.313.384q-.121.426-.233.854-.453,1.712-.8,3.451-.041.207-.081.414" transform="translate(-2926.847 -878.494)" fill="#d44f52"/>
        <path id="Trazado_612580" data-name="Trazado 612580" d="M2971.63,375.149c-.755-1.06-2.257-1.169-3.558-1.224-3.614-.151-7.572-.831-9.894-3.6-1.906-2.276-2.261-5.448-2.31-8.416a58.738,58.738,0,0,1,1.414-13.791,8.072,8.072,0,0,1,1.2-3.107c.861-1.16,2.256-1.831,3.124-2.987,1.325-1.766,2.7-4.78,2.18-6.926-.685-2.855-2.741.457-2.741-1.941,0-2.983.357-6.826.012-9.789-.159-1.366-.412-2.9-1.537-3.689-1.209-.85-2.871-.46-4.309-.8-3.266-.778-4.623-5.027-7.788-6.146a6.212,6.212,0,0,0-5.8,1.329,16.707,16.707,0,0,0-3.734,4.92,47.3,47.3,0,0,0-4.859,11.017,21.178,21.178,0,0,0-.008,11.909c.852,2.634,2.351,5.008,3.479,7.535a15.478,15.478,0,0,0,17.3-1.365c-2.563,6.377-5.161,12.819-9.119,18.439a15.04,15.04,0,0,1-4.484,4.529q-.3.173-.609.32a7.387,7.387,0,0,1-2.694.706,3.714,3.714,0,0,1-2.242-.391,6.718,6.718,0,0,1-2.044.393,16.2,16.2,0,0,1-5.15-.946l-2.286.619c2.924,7.793,11.026,12.849,19.29,13.849s16.6-1.5,24.063-5.2a7.694,7.694,0,0,0,2.812-2,2.813,2.813,0,0,0,.287-3.239" transform="translate(-2792.597 -298.296)" fill="#ffc8c2"/>
        <path id="Trazado_612581" data-name="Trazado 612581" d="M3136.579,1122.191a7.383,7.383,0,0,0,2.694-.706q.311-.147.609-.32a15.037,15.037,0,0,0,4.484-4.529c3.958-5.62,6.556-12.062,9.119-18.439a15.478,15.478,0,0,1-17.3,1.365c.244.547.472,1.1.67,1.666,1.675,4.762,1.273,9.971.85,15a8.123,8.123,0,0,1-.907,3.68,4.752,4.752,0,0,1-2.463,1.891,3.714,3.714,0,0,0,2.243.391" transform="translate(-2992.275 -1048.422)" fill="#fd978b"/>
        <path id="Trazado_612582" data-name="Trazado 612582" d="M5380.3,1545.959c0-.019-.011-.035-.016-.053a.507.507,0,0,1-.022.093l.038-.039" transform="translate(-5136.405 -1475.839)" fill="#ffc8c2"/>
        <path id="Trazado_612583" data-name="Trazado 612583" d="M5012.968,1525.52a1.093,1.093,0,0,1-.349.412c-.114.1-.23.191-.346.285q-4.346,4.46-8.9,8.713a1.77,1.77,0,0,1-.687.463,2.093,2.093,0,0,1-1.13-.145q-.112-.032-.224-.06a5.914,5.914,0,0,0-2-.131,6.347,6.347,0,0,0-1.948.523,6.059,6.059,0,0,0-1.67,1.109.416.416,0,0,0-.176.322c.017.168.181.044.275,0,.374-.167.752-.327,1.137-.467a7.248,7.248,0,0,1,2.35-.487,3.616,3.616,0,0,1,3.541,2.123l11.253-10.8-.124.035.053-.047a.624.624,0,0,1-.261.017c.022-.4.375-.694.63-1.006a2.414,2.414,0,0,0,.341-.552,2.55,2.55,0,0,0,.22-1.132.609.609,0,0,1,0-.256.77.77,0,0,0-.081-.013c-.579-.052-1.181.407-1.859,1.037l0-.014-.038.039c0,.008,0,.017-.007.025" transform="translate(-4769.12 -1455.336)" fill="#fe978b"/>
        <path id="Trazado_612584" data-name="Trazado 612584" d="M4881.791,1702.565c-2.619,1.393-5.606,2.417-8.525,1.891a4.442,4.442,0,0,0,3.8,2.2q-.049.206-.1.413-.414,1.669-.924,3.312t-1.115,3.253q-.151.4-.307.8c-.061.154-.131.309-.187.468a10.5,10.5,0,0,0,1.5.361l2.26-6.792a5.594,5.594,0,0,1,.9-1.886,7.139,7.139,0,0,1,2.7-1.594c3.656-1.658,6.332-4.867,8.875-7.973l4.952-6.047c-4.15,4.424-8.491,8.752-13.828,11.59" transform="translate(-4652.389 -1614.333)" fill="#fe978b"/>
        <path id="Trazado_612585" data-name="Trazado 612585" d="M5195.858,1535.361a6.3,6.3,0,0,1-.812.771q.122-.2.235-.4-1.135,1.274-2.268,2.549l-2.721,3.058-.329.37a7.443,7.443,0,0,1,.7-.6q.349-.3.69-.615.7-.632,1.366-1.291,1.337-1.315,2.564-2.734.612-.707,1.194-1.438c.053-.066.106-.122.082-.2a3.593,3.593,0,0,0-.471.258.735.735,0,0,0-.027-.106.521.521,0,0,1-.018.087.878.878,0,0,1-.19.291" transform="translate(-4954.733 -1465.267)" fill="#fe978b"/>
        <path id="Trazado_612586" data-name="Trazado 612586" d="M4771.8,1529.68l-.92.262-11.253,10.8a3.616,3.616,0,0,0-3.541-2.123,7.253,7.253,0,0,0-2.351.487c-.385.14-.763.3-1.137.467-.094.042-.258.165-.274,0a.416.416,0,0,1,.176-.322,6.053,6.053,0,0,1,1.67-1.109,6.344,6.344,0,0,1,1.948-.524,5.911,5.911,0,0,1,2,.131c.075.018.149.038.224.059a2.1,2.1,0,0,0,1.131.145,1.779,1.779,0,0,0,.687-.463q4.551-4.25,8.9-8.713c-.146.118-.292.234-.439.348a.914.914,0,0,1-.639.263,1.539,1.539,0,0,1,.454-.739,2.883,2.883,0,0,0,.555-.678.95.95,0,0,0,.094-.356.844.844,0,0,0-.044-.3.434.434,0,0,1-.019-.11,1.45,1.45,0,0,0-.618.026,3.678,3.678,0,0,0-.667.234c.024.077-.029.133-.082.2q-.583.731-1.194,1.438-1.227,1.418-2.564,2.734-.669.659-1.366,1.291-.343.311-.691.615a7.67,7.67,0,0,0-.7.6l.33-.37,2.72-3.058,2.268-2.549h0l.453-.509.294-.331a.741.741,0,0,0-1.054-.3,30.661,30.661,0,0,0-7.481,6.567,7.525,7.525,0,0,1-2.55,2.36c-1.019.448-2.333.439-3,1.331a25.14,25.14,0,0,0,1.521-4.641c.151-.679.239-1.5-.4-1.917a1.237,1.237,0,0,0-1.339.027c-.908.577-1.1,1.6-1.508,2.5-1.641,3.588-6.662,4.866-7.857,8.626-.488,1.532-.222,3.191-.352,4.794-.013.157-.029.313-.049.469a14.083,14.083,0,0,1-1.038,3.62c-.246.589-.518,1.167-.8,1.74a3.4,3.4,0,0,0-.521,1.354c0,.488.434.8.775,1.081q.687.56,1.427,1.049a18.071,18.071,0,0,0,3.1,1.642q.82.336,1.671.59l.189.054c.056-.159.126-.313.187-.468q.157-.4.307-.8.6-1.61,1.115-3.253t.924-3.312q.051-.206.1-.412a4.443,4.443,0,0,1-3.8-2.2c2.919.527,5.907-.5,8.526-1.89,5.336-2.838,9.677-7.167,13.828-11.59l1.68-2.051a2.9,2.9,0,0,1-.695.284,2.377,2.377,0,0,1,.634-1.072,6.641,6.641,0,0,0,.817-.957,1.833,1.833,0,0,0,.181-.385,1.307,1.307,0,0,0,.049-.672" transform="translate(-4525.902 -1457.891)" fill="#ffc8c2"/>
        <path id="Trazado_612587" data-name="Trazado 612587" d="M5302.78,1536.5l-.453.51q-.114.2-.235.4a6.3,6.3,0,0,0,.813-.772.855.855,0,0,0,.189-.291.435.435,0,0,0,.018-.086.8.8,0,0,0-.038-.092l-.294.331" transform="translate(-5061.779 -1466.547)" fill="#fe978b"/>
        <path id="Trazado_612588" data-name="Trazado 612588" d="M5342.042,1529.207a.843.843,0,0,1,.044.3.932.932,0,0,1-.095.356,2.868,2.868,0,0,1-.554.678,1.538,1.538,0,0,0-.455.739.914.914,0,0,0,.639-.263q.221-.171.44-.348l.7-.721a.558.558,0,0,0,.022-.093.971.971,0,0,0-.762-.762.394.394,0,0,0,.02.11" transform="translate(-5098.908 -1459.792)" fill="#dd5b58"/>
        <path id="Trazado_612589" data-name="Trazado 612589" d="M5365.471,1547.974c0-.008,0-.016.007-.025q-.35.362-.7.721c.116-.094.232-.189.347-.285a1.1,1.1,0,0,0,.348-.412" transform="translate(-5121.622 -1477.789)" fill="#dd5b58"/>
        <path id="Trazado_612590" data-name="Trazado 612590" d="M5398.866,1525.065a2.549,2.549,0,0,1-.219,1.132,2.43,2.43,0,0,1-.341.552c-.257.312-.609.6-.631,1.006a.62.62,0,0,0,.26-.018,10.112,10.112,0,0,0,1.378-1.655.8.8,0,0,0-.446-1.274.6.6,0,0,0,0,.256" transform="translate(-5153.03 -1455.698)" fill="#dd5b58"/>
        <path id="Trazado_612591" data-name="Trazado 612591" d="M5390.326,1584.282a.414.414,0,0,0-.44-.444l-.006,0a1.307,1.307,0,0,1-.05.672,1.818,1.818,0,0,1-.181.385,6.674,6.674,0,0,1-.817.957,2.373,2.373,0,0,0-.634,1.072,2.9,2.9,0,0,0,.694-.285l.535-.653a3.423,3.423,0,0,0,.9-1.706" transform="translate(-5143.983 -1512.051)" fill="#dd5b58"/>
        <path id="Trazado_612592" data-name="Trazado 612592" d="M5036.8,1579.01a1.08,1.08,0,0,0-.026-.481.4.4,0,0,0-.36-.277c-.2.009-.332.214-.408.4a4.38,4.38,0,0,0-.292,1.619,13.239,13.239,0,0,0,.124,1.649c.017.145.034.289.052.433,0,.036,0,.115.048.117a.1.1,0,0,0,.089-.066,1.957,1.957,0,0,0,.059-.2l.059-.2c.04-.135.078-.271.117-.407.077-.273.15-.547.218-.823s.128-.55.181-.827.1-.556.129-.836c0-.033.007-.066.011-.1" transform="translate(-4807.477 -1506.719)" fill="#dd5b58"/>
        <path id="Trazado_612593" data-name="Trazado 612593" d="M4343.339,2628.989a18.531,18.531,0,0,0-1.9,6.571,18.208,18.208,0,0,0-.01,3.434q.078.855.241,1.7.079.413.179.821a3.34,3.34,0,0,1,.22.812c.113-1.348.257-2.694.461-4.031a30.216,30.216,0,0,1,1.8-6.89,12.428,12.428,0,0,1,1.067-1.993l-.809-2.522c-.1.15-.195.3-.289.445a17.52,17.52,0,0,0-.954,1.653" transform="translate(-4144.581 -2507.829)" fill="#c46265"/>
        <path id="Trazado_612594" data-name="Trazado 612594" d="M3729.67,1803.68a49.653,49.653,0,0,1-1.437-6.432,50.736,50.736,0,0,1-.31-13.137,49.843,49.843,0,0,1,1.13-6.494,48.382,48.382,0,0,1,1.989-6.283q.294-.745.613-1.481a104.1,104.1,0,0,0-9.917,58.7l9.158-20.038.037.078a13.276,13.276,0,0,0-.471-2.327c-.38-1.027-.481-1.53-.792-2.58" transform="translate(-3552.304 -1689.635)" fill="#c46265"/>
        <path id="Trazado_612595" data-name="Trazado 612595" d="M3316.333,2321.584a50.455,50.455,0,0,1,3.965-14.19,26.968,26.968,0,0,1,2.731-4.5,22.19,22.19,0,0,1,3.635-3.819,18.82,18.82,0,0,1,2.125-1.512c.186-.114.374-.223.564-.33.142-.081.307-.156.079-.249-.275-.112-.889.323-1.133.449a17.115,17.115,0,0,0-4.181,3.1,21.747,21.747,0,0,0-3.24,4.164q-.169.28-.33.564a43.367,43.367,0,0,0-4.225,12.234,130.193,130.193,0,0,0-2.39,15.109q.968.2,1.933.418a37.883,37.883,0,0,1,.467-11.434" transform="translate(-3163.732 -2192.857)" fill="#c46265"/>
        <path id="Trazado_612596" data-name="Trazado 612596" d="M1848.506,2233.047q-1.032,1.585-2.2,3.076a13.925,13.925,0,0,0,5.636-4.651,9.113,9.113,0,0,0,1.563-3.409,6.049,6.049,0,0,0,.1-1.712,2.071,2.071,0,0,0-.242-1.06c-.322.121-.646.238-.975.349l.089-.236c-.285.646-.621,1.448-.766,1.77a43.246,43.246,0,0,1-3.205,5.873" transform="translate(-1762.623 -2124.432)" fill="#c46265"/>
        <path id="Trazado_612597" data-name="Trazado 612597" d="M2108.6,1756.863c2.078-2.893,4.961-5.191,6.7-8.3,1.552-2.773,2.107-6.041,3.38-8.926q-1.452,2.533-2.995,5.013-1.858,2.981-3.847,5.878t-4.115,5.719q-2.115,2.8-4.351,5.515t-4.59,5.318q-2.36,2.616-4.834,5.125t-5.057,4.906q-1.283,1.191-2.593,2.353-.155.137-.314.273a80.992,80.992,0,0,0,19.181-9.534c.089-.868.12-1.745.135-2.609a18.821,18.821,0,0,1,3.3-10.731" transform="translate(-1991.44 -1660.789)" fill="#c46265"/>
        <path id="Trazado_612598" data-name="Trazado 612598" d="M3671.469,816.712a.317.317,0,0,0,.012.28c.1.124.3.039.42-.057a7.3,7.3,0,0,0,2.805-5.161,2.017,2.017,0,0,0-.192-1.205c-.189-.313-2.979-.454-3.342-.265s1.872.648,1.775,1l-.95,3.471-.529,1.933" transform="translate(-3504.74 -773.496)" fill="#fd978b"/>
        <path id="Trazado_612599" data-name="Trazado 612599" d="M3645.769,990.848a14.666,14.666,0,0,0-.181,6.1c.141.594.469,1.275,1.078,1.329a1.077,1.077,0,0,0,.925-.487,2.812,2.812,0,0,0,.4-1.011,18.033,18.033,0,0,0,.46-3.392,23.025,23.025,0,0,0-.118-3.413,30.963,30.963,0,0,0-.563-3.4c-.068-.307-.085-1.01-.573-.829a.515.515,0,0,0-.313.384q-.12.426-.233.854-.452,1.713-.8,3.451c-.028.138-.054.276-.081.414" transform="translate(-3480.115 -941.038)" fill="#d44f52"/>
        <path id="Trazado_612600" data-name="Trazado 612600" d="M3207.535,758.928a6.651,6.651,0,0,0-1.664-2.05,4.658,4.658,0,0,0-3.289-.822,6.947,6.947,0,0,0-3.187,1.285,3.484,3.484,0,0,0-1.349,1.54,5.953,5.953,0,0,0,.078,2.8c.092.733.078,1.477.166,2.21a3.965,3.965,0,0,0,.756,2.053,3.3,3.3,0,0,0,1.189.887,5.372,5.372,0,0,0,4.341-.085,9.074,9.074,0,0,0,3.417-2.816,4.276,4.276,0,0,0,.987-1.914.473.473,0,0,0-.081-.34,3.675,3.675,0,0,1-.222-.473q-.234-.55-.5-1.086-.3-.6-.64-1.188" transform="translate(-3052.951 -721.758)" fill="#d44f52"/>
        <path id="Trazado_612601" data-name="Trazado 612601" d="M3216.666,838.484a.965.965,0,0,0-.409-.384,6.227,6.227,0,0,1-1.223-1.109q-4.008-.374-7.995-.945a4.632,4.632,0,0,0-.716,1.481,4.258,4.258,0,0,0,2.292,3.115,5.924,5.924,0,0,0,3.93.442,9.867,9.867,0,0,0,3.629-1.694,1.576,1.576,0,0,0,.409-.376.575.575,0,0,0,.083-.53" transform="translate(-3060.999 -798.153)" fill="#674757"/>
        <path id="Trazado_612602" data-name="Trazado 612602" d="M3227.672,794.974a4.031,4.031,0,0,0-2.215-.436,4.617,4.617,0,0,0-2.684,1.147,4.57,4.57,0,0,0-.651.721q3.985.571,7.995.945a9.771,9.771,0,0,0-2.445-2.377" transform="translate(-3076.082 -758.513)" fill="#fff"/>
        <path id="Trazado_612603" data-name="Trazado 612603" d="M3252.219,1024.341a1.422,1.422,0,0,1,.481.126.663.663,0,0,1,.335.354.257.257,0,0,1-.048.286.318.318,0,0,1-.291.012c-.282-.088-.548-.222-.827-.32a1.776,1.776,0,0,0-.679-.117,1.426,1.426,0,0,0-.347.072c-.051.016-.162.078-.207.022-.072-.089.034-.247.119-.279a2.911,2.911,0,0,1,.686-.153,3.383,3.383,0,0,1,.778,0" transform="translate(-3103.281 -977.893)" fill="#ff9c9d"/>
        <path id="Trazado_612604" data-name="Trazado 612604" d="M3309.643,663.279a9.679,9.679,0,0,0-2.436,1.623c-.1.091-.224.191-.354.157s-.187-.178-.226-.3q-.172-.554-.3-1.12c-.042-.19-.082-.382-.115-.574a.618.618,0,0,1,.021-.379c.066-.129.193-.108.314-.081l.589.129,1.179.258,1.179.258.147.032" transform="translate(-3156.344 -632.55)" fill="#fd978b"/>
        <path id="Trazado_612605" data-name="Trazado 612605" d="M3168.239,562.963a15.062,15.062,0,0,0-5.509.992,24.573,24.573,0,0,0,4.072.54,10.873,10.873,0,0,0,2.754-.253q.337-.078.668-.184a.378.378,0,0,0,.29-.277c.082-.392-.476-.468-.74-.544a7.518,7.518,0,0,0-1.535-.274" transform="translate(-3019.382 -537.428)" fill="#3b355b"/>
        <path id="Trazado_612606" data-name="Trazado 612606" d="M3494.714,601.432a25.562,25.562,0,0,1,3.6,1.676c-.047-.025-.223.027-.279.033q-.144.015-.287.026-.291.022-.583.028a10.641,10.641,0,0,1-1.152-.04,10.866,10.866,0,0,1-2.273-.451,10.733,10.733,0,0,1-2.124-.924.484.484,0,0,1-.268-.583c.084-.283.314-.349.58-.337a9.71,9.71,0,0,1,2.494.475c.1.031.2.064.293.1" transform="translate(-3333.083 -573.625)" fill="#3b355b"/>
        <path id="Trazado_612607" data-name="Trazado 612607" d="M3471.981,457.537a5.372,5.372,0,0,1-1.157.032,1.217,1.217,0,0,1-.942-.6,1.145,1.145,0,0,1,.5-1.385,2.6,2.6,0,0,1,1.556-.295,7.624,7.624,0,0,1,4.479,1.779,7.4,7.4,0,0,1,2.169,3.146q.053.151.1.305c.022.07.1.228.082.3-.042.163-.259-.073-.295-.125a7.153,7.153,0,0,0-1.677-1.728,7.548,7.548,0,0,0-2.136-1.1,7.089,7.089,0,0,0-2.382-.35q-.148,0-.295.015" transform="translate(-3312.531 -434.647)" fill="#3b355b"/>
        <path id="Trazado_612608" data-name="Trazado 612608" d="M3173.384,427.222a13.006,13.006,0,0,1,3.67-.173,3.524,3.524,0,0,0,1.037-.02,1.091,1.091,0,0,0,.794-.608,1.079,1.079,0,0,0-.677-1.285,2.7,2.7,0,0,0-1.584-.02,19.694,19.694,0,0,0-4.815,1.826,4.749,4.749,0,0,0-1.165.754,1.922,1.922,0,0,0-.515.8c-.032.1-.089.262.077.241.135-.017.249-.163.351-.242a6.444,6.444,0,0,1,1.746-.959,7.959,7.959,0,0,1,1.082-.313" transform="translate(-3026.412 -405.742)" fill="#3b355b"/>
        <path id="Trazado_612609" data-name="Trazado 612609" d="M2671.029,935.588a10.257,10.257,0,0,0,1.422,2.315.874.874,0,0,0,.367.277.961.961,0,0,0,.716-.168c.173-.093.366-.216.386-.412a.626.626,0,0,0-.182-.421,18.544,18.544,0,0,1-3-5.761c-.055-.178-.13-.38-.306-.442a.543.543,0,0,0-.384.053,2.924,2.924,0,0,0-.441.237c-.07.046-.138.095-.2.146a.607.607,0,0,0-.162.151.176.176,0,0,0,0,.152c.028.083.064.164.1.246q.1.254.211.506.218.509.453,1.011t.477,1q.243.5.49.99l.061.123" transform="translate(-2548.243 -888.765)" fill="#787989"/>
        <path id="Trazado_612610" data-name="Trazado 612610" d="M2708.36,765.349a11.621,11.621,0,0,0-4.9-7.1,8.1,8.1,0,0,0-3.752,2.527q-.092.11-.178.223a8.406,8.406,0,0,0-1.179,2.1,8.816,8.816,0,0,0-.553,2.352,3.927,3.927,0,0,0-.011,1.1c.069.348.155.7.241,1.043a10.9,10.9,0,0,0,.8,2.231,7.1,7.1,0,0,0,1.358,1.9,8.061,8.061,0,0,0,4.69,2.071,9.65,9.65,0,0,0,3.656-.243,20.762,20.762,0,0,0-.172-8.205" transform="translate(-2575.474 -723.878)" fill="#4e516d"/>
        <path id="Trazado_612611" data-name="Trazado 612611" d="M2832.47,763.76a7.351,7.351,0,0,0,1.4-3.027,8.819,8.819,0,0,0-1.684-7.363,8.086,8.086,0,0,0-6.9-2.95,7.546,7.546,0,0,0-1.569.323,11.625,11.625,0,0,1,4.9,7.1,20.753,20.753,0,0,1,.172,8.205,6.975,6.975,0,0,0,3.677-2.292" transform="translate(-2695.735 -716.376)" fill="#5d5f7e"/>
        <path id="Trazado_612612" data-name="Trazado 612612" d="M2827.041,760.02a9.038,9.038,0,0,1,3.61,4.109,8.719,8.719,0,0,1,.5,1.492c.051.214.382.124.331-.091a9.35,9.35,0,0,0-2.954-4.858,9.235,9.235,0,0,0-1.31-.948.172.172,0,0,0-.173.3" transform="translate(-2698.829 -725.266)" fill="#373756"/>
        <path id="Trazado_612613" data-name="Trazado 612613" d="M2927.233,903.564a15.354,15.354,0,0,1,.646,6.2,15.029,15.029,0,0,1-.29,1.774c-.048.215.282.306.33.091a15.7,15.7,0,0,0,.1-6.371,15.512,15.512,0,0,0-.455-1.786c-.067-.209-.4-.12-.331.091" transform="translate(-2794.55 -862.41)" fill="#373756"/>
        <path id="Trazado_612614" data-name="Trazado 612614" d="M2748.651,901.739a23.018,23.018,0,0,0-6.615,3.894,10.483,10.483,0,0,0-1.33,1.512c-.129.179.168.35.3.173a14.726,14.726,0,0,1,5.8-4.358c.668-.321,1.345-.623,2.023-.925.2-.09.027-.385-.173-.3" transform="translate(-2616.456 -860.852)" fill="#373756"/>
        <path id="Trazado_612615" data-name="Trazado 612615" d="M2935.437,873.224a14.062,14.062,0,0,1,4.321-.9c.219-.011.22-.353,0-.343a14.362,14.362,0,0,0-4.412.917c-.2.078-.116.409.091.33" transform="translate(-2802.194 -832.455)" fill="#373756"/>
        <path id="Trazado_612616" data-name="Trazado 612616" d="M2204.869,994.953a8.753,8.753,0,0,0-1.2-.784,8.91,8.91,0,0,0-1.3-.579,8.8,8.8,0,0,0-1.384-.364c-.115-.02-.231-.038-.347-.054a4.462,4.462,0,0,0-1.86.078,2.267,2.267,0,0,0-1.425,1.134,1.775,1.775,0,0,0-1.85-.069,4.932,4.932,0,0,1-.63.384,4.148,4.148,0,0,1-1,.131,2.721,2.721,0,0,0-1.582.893,8.089,8.089,0,0,0-1.042,1.527c-.018-.019-.038-.034-.056-.051-.02.195-.011.4-.011.595q0,.339.016.677a13.284,13.284,0,0,0,.819,3.975q.118.318.253.629.067.155.139.309c.022.049.07.108,0,.129-.145.045-.256-.183-.3-.273q-.142-.3-.266-.6a10.611,10.611,0,0,1-.671-2.549,10.45,10.45,0,0,1-.019-2.635c.01-.085.022-.17.035-.254a1.389,1.389,0,0,0-1.9.3,2.939,2.939,0,0,0-.462,2.125,14.805,14.805,0,0,0,2.035,5.449,2.456,2.456,0,0,0,1.184,1.3.651.651,0,0,0,.7-.112.791.791,0,0,0,.15-.493,4.384,4.384,0,0,0-.3-1.835,1.1,1.1,0,0,0,.929-.852c-.02-.076-.039-.151-.057-.227a9.4,9.4,0,0,1-.189-1.114,9.66,9.66,0,0,1-.056-1.124,9.875,9.875,0,0,1,.6-3.314,9.614,9.614,0,0,1,.449-1.032q.128-.253.272-.5c.035-.06.063-.144.14-.154s.07.037.038.091a8.366,8.366,0,0,0-.537,1.066,9.41,9.41,0,0,0-.392,1.135,10.471,10.471,0,0,0-.25,1.161,14.55,14.55,0,0,0-.019,3.993.949.949,0,0,0,.01-.35,10.865,10.865,0,0,1,.336,1.334,2.121,2.121,0,0,0,.661,1.179.991.991,0,0,0,1.261.018,1.529,1.529,0,0,0,.324-1.043l.165-3.013a.82.82,0,0,1,0-.332q.015-.248.031-.5a18.952,18.952,0,0,1,.223-1.965c.014-.08.029-.16.044-.239a8.186,8.186,0,0,1,1.141-2.963,2.732,2.732,0,0,0-.188.416q-.092.214-.178.431-.171.434-.312.879a14.138,14.138,0,0,0-.653,3.643q-.01.222-.013.444a.78.78,0,0,0,.89.249,2.475,2.475,0,0,0,.921-.849,7.808,7.808,0,0,1,.877-.9,11.5,11.5,0,0,1,1-.78c.351-.247.712-.479,1.076-.706s.736-.451,1.1-.678.73-.457,1.085-.7a12.381,12.381,0,0,0,1.015-.771q.244-.207.472-.431a.834.834,0,0,0,.217-.245c.042-.115-.088-.181-.165-.241m-5.359,1.991a7.386,7.386,0,0,0-.4,1.052,7.3,7.3,0,0,0-.236,1.106c-.013.1-.025.2-.041.3,0,.022-.007.137-.042.12s-.032-.111-.035-.135a.722.722,0,0,1,0-.2,10.241,10.241,0,0,1,.248-1.212q.019-.07.04-.14a4.572,4.572,0,0,1,1.023-1.874,7.3,7.3,0,0,0-.559.983" transform="translate(-2089.602 -948.1)" fill="#ffc7c0"/>
        <path id="Trazado_612617" data-name="Trazado 612617" d="M2239.033,1086.12a10.6,10.6,0,0,0,.671,2.549q.123.307.266.6c.043.089.154.318.3.273.068-.021.02-.08,0-.129q-.071-.153-.139-.309-.134-.311-.253-.629a13.293,13.293,0,0,1-.682-2.619,13.144,13.144,0,0,1-.137-1.355q-.017-.338-.016-.677c0-.193-.009-.4.011-.595l0,0c-.012.085-.025.169-.035.254a10.441,10.441,0,0,0,.02,2.635" transform="translate(-2137.461 -1034.133)" fill="#fc9589"/>
        <path id="Trazado_612618" data-name="Trazado 612618" d="M2292.856,1212.764c0-.018,0-.035-.006-.053,0,.005,0,.01,0,.015s.006.025.009.037" transform="translate(-2188.926 -1157.746)" fill="#fc9589"/>
        <path id="Trazado_612619" data-name="Trazado 612619" d="M2286.5,1051.83a10.411,10.411,0,0,1,.25-1.161,9.413,9.413,0,0,1,.392-1.136,8.417,8.417,0,0,1,.537-1.066c.033-.054.047-.1-.038-.091s-.105.094-.14.153q-.144.245-.272.5a9.65,9.65,0,0,0-.449,1.032,9.849,9.849,0,0,0-.6,3.314,9.607,9.607,0,0,0,.056,1.124,9.4,9.4,0,0,0,.19,1.114c.018.076.037.152.056.227l0-.015a14.541,14.541,0,0,1,.019-3.993" transform="translate(-2182.555 -1000.857)" fill="#fc9589"/>
        <path id="Trazado_612620" data-name="Trazado 612620" d="M2353.663,1042.582a14.226,14.226,0,0,1,.446-1.8q.141-.444.312-.879.085-.217.178-.431a2.66,2.66,0,0,1,.188-.416,8.176,8.176,0,0,0-1.141,2.963q-.023.119-.044.239a19.016,19.016,0,0,0-.223,1.965q-.017.248-.031.5a.825.825,0,0,0,0,.332q.011-.21.023-.421a.448.448,0,0,0,.073.239c0-.148.006-.3.013-.444a14.113,14.113,0,0,1,.207-1.843" transform="translate(-2246.666 -991.962)" fill="#fc9589"/>
        <path id="Trazado_612621" data-name="Trazado 612621" d="M2408.425,1057.993a10.242,10.242,0,0,0-.248,1.212.722.722,0,0,0,0,.2c0,.024.008.122.035.135s.039-.1.042-.12c.016-.1.027-.2.041-.3a7.358,7.358,0,0,1,.636-2.158,7.289,7.289,0,0,1,.559-.983,4.565,4.565,0,0,0-1.022,1.874c-.014.047-.027.093-.04.14" transform="translate(-2299.021 -1008.118)" fill="#fc9589"/>
        <path id="Trazado_612622" data-name="Trazado 612622" d="M2247.291,1241.9a1.23,1.23,0,0,0,.271.366.447.447,0,0,0,.427.1.578.578,0,0,0,.3-.488,1.887,1.887,0,0,0-.121-.971,2.026,2.026,0,0,0-.571-.8,1.811,1.811,0,0,0-.419-.266.613.613,0,0,0-.51-.062c-.249.136-.053.6.012.788a8.169,8.169,0,0,0,.533,1.192c.026.047.051.095.077.142" transform="translate(-2144.722 -1183.557)" fill="#db5956"/>
        <path id="Trazado_612623" data-name="Trazado 612623" d="M2265.249,1192.207c.083.141.21.3.372.274a.3.3,0,0,0,.223-.2.8.8,0,0,0,.035-.308,5.672,5.672,0,0,0-.352-1.806.557.557,0,0,0-.217-.315.4.4,0,0,0-.5.169.909.909,0,0,0-.129.434.368.368,0,0,0,.026.146,1.456,1.456,0,0,1,.039.215,4.03,4.03,0,0,0,.258.906,3.978,3.978,0,0,0,.24.483" transform="translate(-2162.04 -1135.891)" fill="#db5956"/>
        <path id="Trazado_612624" data-name="Trazado 612624" d="M2305.336,1197.678a1.577,1.577,0,0,0,.274.6.538.538,0,0,0,.958-.114,1.784,1.784,0,0,0,.126-.5,5.285,5.285,0,0,0,.089-1.265,1.776,1.776,0,0,0-.5-1.14,1.167,1.167,0,0,0-.723-.316.511.511,0,0,0-.466.178.887.887,0,0,0-.095.58q.031.468.106.932a9.67,9.67,0,0,0,.229,1.038" transform="translate(-2200.522 -1140.788)" fill="#db5956"/>
        <path id="Trazado_612625" data-name="Trazado 612625" d="M2355.291,1133.693a.488.488,0,0,0,.135.374.335.335,0,0,0,.353.013.782.782,0,0,0,.265-.258,4,4,0,0,0,.607-1.854.736.736,0,0,0-.078-.533.579.579,0,0,0-.575-.168.351.351,0,0,0-.262.25,5.943,5.943,0,0,0-.4,1.335,4.377,4.377,0,0,0-.042.842" transform="translate(-2248.535 -1079.978)" fill="#db5956"/>
        <path id="Trazado_612626" data-name="Trazado 612626" d="M2136.878,1101.9a21.272,21.272,0,0,0-1.229-4.7c-.24-.695-.593-1.493-1.312-1.641-.843-.173-1.542.686-1.813,1.5a5.473,5.473,0,0,0,.32,4.174c.3.581.714,1.236.45,1.833a1,1,0,0,1-.111.187l.067-.019a44.01,44.01,0,0,1-3.374,3.842,17.177,17.177,0,0,1-3.816,3.072,9.147,9.147,0,0,1-1.951.81,5.471,5.471,0,0,1-1.788.27.769.769,0,0,1-.54-.245,10.057,10.057,0,0,0-.7,1.024,17.041,17.041,0,0,0-.911,1.749c-.187.417-.319.875.087,1.206a5.612,5.612,0,0,0,1.888.84,10.947,10.947,0,0,0,2.062.4,26.464,26.464,0,0,0,5.087-.151,22.13,22.13,0,0,1,3.981-6.746,20.478,20.478,0,0,0,2.64-2.738,7.14,7.14,0,0,0,.959-4.671" transform="translate(-2023.908 -1045.882)" fill="#ffc8c2"/>
        <path id="Trazado_612627" data-name="Trazado 612627" d="M2159.968,1273.442a5.468,5.468,0,0,0,1.788-.27,9.145,9.145,0,0,0,1.951-.809,17.181,17.181,0,0,0,3.815-3.072,44.026,44.026,0,0,0,3.374-3.842l-.068.019a2.338,2.338,0,0,1-.685.557l-7.675,4.708a13.342,13.342,0,0,0-2.336,1.676,7.441,7.441,0,0,0-.7.788.769.769,0,0,0,.54.245" transform="translate(-2061.554 -1208.094)" fill="#fc978b"/>
        <path id="Trazado_612628" data-name="Trazado 612628" d="M2401.639,1075.046a2.809,2.809,0,0,0,.561,1.621.986.986,0,0,0,1.138.4,1.14,1.14,0,0,0,.469-.946,6.15,6.15,0,0,0-.693-3.518.776.776,0,0,0-.266-.324.568.568,0,0,0-.7.2,2.441,2.441,0,0,0-.325.827,5.871,5.871,0,0,0-.172,1.046,4.875,4.875,0,0,0-.017.7" transform="translate(-2292.781 -1023.625)" fill="#db5956"/>
        <path id="Trazado_612629" data-name="Trazado 612629" d="M1699.558,1533.854a213.678,213.678,0,0,1-14.342,25.816l-.007-.022a12.426,12.426,0,0,0-1.067,1.993,30.218,30.218,0,0,0-1.8,6.89c-.2,1.338-.348,2.683-.461,4.031a3.305,3.305,0,0,0-.219-.812q-.1-.408-.179-.821-.162-.844-.241-1.7a18.229,18.229,0,0,1,.01-3.434,18.516,18.516,0,0,1,1.9-6.571,17.6,17.6,0,0,1,.954-1.653c.094-.145.19-.294.289-.445l-10.344-32.264c-1.191-3.714-2.627-7.749-5.979-9.744-2.635-1.568-5.968-1.513-8.919-.68a57.24,57.24,0,0,0-8.425,3.66c-5.25,2.446-11.089,4.086-16.819,3.242q-.558-.082-1.11-.2a17.438,17.438,0,0,1-8-4.017,13.631,13.631,0,0,1-2.744-3.37,11.581,11.581,0,0,0-1.574-2.622,3.384,3.384,0,0,0-3-.611,24.25,24.25,0,0,0-4.579,1.112,35.788,35.788,0,0,0-8.538,4.451,66.486,66.486,0,0,0-7.572,6.176c-6.78,6.312-13.053,13.428-21.658,16.666a2.073,2.073,0,0,1,.242,1.06,6.052,6.052,0,0,1-.1,1.712,9.109,9.109,0,0,1-1.562,3.409,13.924,13.924,0,0,1-5.636,4.651q1.167-1.489,2.2-3.076a43.246,43.246,0,0,0,3.205-5.873c.144-.322.481-1.124.766-1.77a149.167,149.167,0,0,1,15.9-31.139,19.344,19.344,0,0,1-9.855-1.56,141.9,141.9,0,0,0-22.848,34.935c-2.391,5.194-4.232,11.971-.274,16.1,3.274,3.414,8.785,3.038,13.4,2a80.515,80.515,0,0,0,8.364-2.36q.159-.136.314-.273,1.31-1.162,2.594-2.353,2.583-2.4,5.057-4.906t4.834-5.125q2.353-2.608,4.59-5.318t4.351-5.515q2.121-2.813,4.115-5.719t3.847-5.878q1.544-2.478,2.995-5.013c-1.272,2.886-1.827,6.153-3.38,8.926-.215.385-.448.757-.695,1.119-.022.121-.044.226-.061.3-.238,1.088-.752,2.145-1.093,3.207-.376,1.173-.708,2.36-.972,3.564q-.093.421-.174.845a20.755,20.755,0,0,0,1.03,12.383c2.513,5.57,8.255,9.231,14.255,10.387s12.23.1,18.057-1.743l-.172,1.172a33.276,33.276,0,0,1,2.778-6.612q.161-.285.33-.564a21.745,21.745,0,0,1,3.24-4.164,17.112,17.112,0,0,1,4.182-3.1c.244-.126.857-.561,1.133-.449.229.093.064.168-.078.249-.189.108-.378.217-.564.33a18.9,18.9,0,0,0-2.125,1.512,22.2,22.2,0,0,0-3.635,3.819,26.953,26.953,0,0,0-2.732,4.5,49.29,49.29,0,0,0-3.877,13.643l-.444,3.022a32.73,32.73,0,0,0-.111,8.959,153.478,153.478,0,0,1,14.851,4.11l2.449-5.358a104.107,104.107,0,0,1,9.917-58.7q-.319.735-.613,1.481a48.249,48.249,0,0,0-1.989,6.283,49.859,49.859,0,0,0-1.13,6.494,50.742,50.742,0,0,0,.31,13.137,49.584,49.584,0,0,0,1.438,6.432c.31,1.051.411,1.553.792,2.58a13.291,13.291,0,0,1,.47,2.327l11.461,24.138c1.458,3.071,3.539,6.582,6.933,6.76,3.073.161,5.454-2.549,7.222-5.068a122.708,122.708,0,0,0,19.482-44.629l-8.567-4.363" transform="translate(-1484.399 -1438.063)" fill="#ff8478"/>
        <path id="Trazado_612630" data-name="Trazado 612630" d="M3359.383,2828.6c-.129.821-.25,1.646-.356,2.474q.223-1.511.445-3.022c-.03.182-.06.365-.088.547" transform="translate(-3206.782 -2699.876)" fill="#f47b76"/>
        <path id="Trazado_612631" data-name="Trazado 612631" d="M2509.314,1979.178c-.015.865-.045,1.742-.135,2.609l.024-.016a55.526,55.526,0,0,1,5.082,27.049,154.026,154.026,0,0,1,31.369,3.3,130.077,130.077,0,0,1,2.39-15.109c.414-1.887.874-3.775,1.447-5.622q.086-.586.173-1.172c-5.827,1.84-12.057,2.9-18.057,1.743s-11.742-4.817-14.255-10.387a20.754,20.754,0,0,1-1.03-12.384q.081-.424.174-.845c.264-1.2.6-2.391.972-3.564.341-1.062.855-2.119,1.093-3.207.017-.077.039-.182.062-.3-1.746,2.567-4.186,4.645-6.006,7.18a18.822,18.822,0,0,0-3.3,10.731" transform="translate(-2395.453 -1872.374)" fill="#f47b76"/>
        <path id="Trazado_612632" data-name="Trazado 612632" d="M1610.342,1394.49c.807-.483,1.62-.957,2.434-1.428a2.657,2.657,0,0,1-.83-1.1c-8.678,5.064-18.123,11.269-20.269,21.784-1.037,5.08.447,9.823,2.454,14.454,1.921,4.432,4.324,8.988,4.161,13.955s-2.875,9.364-4.971,13.712a32.294,32.294,0,0,0-2.526,6.657,19.448,19.448,0,0,0-.1,7.925,53.572,53.572,0,0,0,2.444,8.227,66.808,66.808,0,0,1,2.518,8.49,62,62,0,0,1,.95,17.8,91.682,91.682,0,0,1-4.8,22.731l1.142.8a104.843,104.843,0,0,0,4.447-18.377,71.029,71.029,0,0,0,.491-17.534,54.96,54.96,0,0,0-1.566-8.551c-.754-2.8-1.8-5.5-2.731-8.235a30.91,30.91,0,0,1-1.877-8.371,18.55,18.55,0,0,1,1.283-7.405c1.684-4.518,4.462-8.565,5.864-13.2a17.358,17.358,0,0,0,.708-7,26.632,26.632,0,0,0-1.9-6.9c-1.816-4.509-4.4-8.93-4.911-13.848-.542-5.237,1.6-10.363,4.842-14.391,3.446-4.286,8.07-7.4,12.746-10.2" transform="translate(-1518.256 -1328.87)" fill="#7f7d8f"/>
      </g>
    </g>
  </g>
</svg>
