<svg xmlns="http://www.w3.org/2000/svg" xmlns:xlink="http://www.w3.org/1999/xlink" width="377.261" height="299.168" viewBox="0 0 377.261 299.168">
  <defs>
    <clipPath id="clip-path">
      <rect id="Rectángulo_378820" data-name="Rectángulo 378820" width="377.261" height="299.168" fill="none"/>
    </clipPath>
  </defs>
  <g id="Grupo_1074715" data-name="Grupo 1074715" transform="translate(0 0)">
    <g id="Grupo_1074714" data-name="Grupo 1074714" transform="translate(0 0.001)" clip-path="url(#clip-path)">
      <path id="Trazado_612539" data-name="Trazado 612539" d="M0,299.168H58.121c.3-2.906.576-5.668.808-8.175.869-9.386,9.816-41.468,13.645-72.7-.47,10.924.719,18.913,5.1,25.121,4,5.668,4.62,44.01,5.847,52.652.147,1.036.266,2.071.4,3.107H292.83c.087-.751.173-1.5.264-2.252,2.144-17.731,3.987-35.666,4.814-53.507,7-6.3,6.973-15.8,6.78-25.121,3.828,31.236,12.777,63.318,13.646,72.7.232,2.507.51,5.269.808,8.175h58.121c-.216-.935-1.813-38.832-2.566-56.684-2.268-53.8-5.037-124.811-38.123-170.137-9.648-13.215-35.385-21.06-58.836-27.278s-43.971-9.764-51.611-22.588c-.072-.12-.349-.235-.8-.343l.581-.041c-1.4-3.583-2.19-17.554-2.215-22.1H151.911c0,7.652-1.94,18.846-4.5,22.913,0,.005-.015.012-.018.017-.412.692-.854,1.346-1.308,1.988-.156.223-.311.43-.468.642-8.056,10.793-27.973,14.808-49.733,20.579C72.428,52.357,49.9,61.271,40.254,74.487,9.994,115.94,5.087,180.986,2.98,230.883,1.573,264.222.217,298.233,0,299.168" fill="#727997"/>
      <path id="Trazado_612540" data-name="Trazado 612540" d="M476.579,48.288c0-6.6-.057-13.563-.1-18.876,0,0,.171-19,.314-29.412h-14c-.343,21.753-.636,52.9-.609,59.045.018.262.037.524.037.785,0,8.868-13.393,22.375-16.93,28.586-.168.288-.344.576-.515.864a55.988,55.988,0,0,1,2.38,11.013c2.156-3.292,4.357-6.539,6.592-9.651,4.377-6.1,9.99-12.572,19.044-10.215a17.448,17.448,0,0,1,4.827,2.039l6.622-7.034c-4.116-5.743-7.726-12.16-7.745-16.388.055-3.2.075-6.921.075-10.757" transform="translate(-282.018)" fill="#ff6e81"/>
      <path id="Trazado_612541" data-name="Trazado 612541" d="M221.792,339.331a4.307,4.307,0,0,1-4.121-3.069c-6.636-22.117-7.168-54.711-6.392-66.186,1.242-18.359,5.519-39.21,12.043-58.716,9.367-28.008,25.849-54.12,43.012-68.147a4.3,4.3,0,1,1,5.448,6.666c-15.733,12.857-31.55,38.062-40.3,64.212-6.3,18.83-10.424,38.919-11.617,56.567-.827,12.227.1,43.3,6.048,63.131a4.309,4.309,0,0,1-4.124,5.543" transform="translate(-133.791 -90.189)" fill="#f57a76"/>
      <path id="Trazado_612542" data-name="Trazado 612542" d="M699,339.678a4.31,4.31,0,0,1-4.173-5.371c3.244-12.706,7.932-51.914,5.817-72.158-2.534-24.25-6.324-42.79-11.266-55.106-6.881-17.15-22.961-42.841-39.207-56.673a4.3,4.3,0,1,1,5.582-6.554c17.482,14.884,34.167,41.461,41.615,60.021,5.239,13.056,9.222,32.375,11.838,57.418,2.208,21.129-2.663,61.966-6.038,75.183A4.307,4.307,0,0,1,699,339.678" transform="translate(-411.286 -90.536)" fill="#f57a76"/>
      <path id="Trazado_612543" data-name="Trazado 612543" d="M609.793,574.864a.08.08,0,0,0,.006-.026.115.115,0,0,0,.012-.028.158.158,0,0,1-.018.054" transform="translate(-386.644 -364.462)" fill="#ef6d6d"/>
      <path id="Trazado_612544" data-name="Trazado 612544" d="M534.106,201.828a22.827,22.827,0,0,1,3.962,3.8c2.75,2.807,5.408,5.707,8.272,8.4,3.3,3.109,10.863,10.616,11.472,11.466,2.118,2.966,1.906,16.524,1.543,17.868a15.054,15.054,0,0,1-5.245,7.964c4.336-1.045,5.828-6.022,6.216-5.633s.1,6.777,5.535,9.884c-2.541-4.024-3.343-8.868-3.812-11.015-.641-2.926-1.122-14.618-.424-14.618.582,0,8.54,12.282,10.169,15.89.088.2.176.389.262.579,2.829,6.218,10.839,16.742,12.073,23.324.582,3.1,1.783,8.226-5.291,12.778,7.839-1.06,7.711-7.723,9.071-6.751s4.277,16.919-2.079,23.91c9.322-5.931,5.225-17.619,6.78-18.008s2.966,6.356,12.5,4.662c-6.355-1.06-10.084-6.335-11.651-8.686-2.118-3.178-7.6-14.525-9.19-17.64-3.839-7.541-7.3-12.313-6.328-12.9s3.563.92,7.449,1.5c2.613.392,7.575-.195,10.684,3.3-1.564-4.77-5.856-4.334-6.245-5.306-.183-.454,7.624-5.483,13.108-6.954-4.681-.536-7.413,2.348-8.158,1.872-.726-.461,3.343-6.956-.134-11.637,1.738,8.294-4.013,13.643-7.224,14.313-3.333.694-7.469-1.06-9.771-2.914a7.574,7.574,0,0,1-1.193-1.171c-2.33-2.966-4.375-8.525-9.039-15.324-4.277-6.24-8.836-11.147-9.419-13.091s2.136-6.993,4.856-8.742,9.131-1.359,11.655-6.41c-2.913,3.109-6.023,2.264-7.769,2.331-2.863.109-5.634,1.748-6.412.972s-1.166-10.88,1.943-16.514c-4.661,3.692-3.108,8.936-4.078,8.936s-1.555-2.72-5.051-5.439c2.137,2.914,4.273,9.52,3.884,12.433s-3.873,8.71-4.932,8.221c-1.577-.728-6.789-6.3-11.375-12.7Z" transform="translate(-338.654 -116.248)" fill="#9696a8"/>
      <path id="Trazado_612545" data-name="Trazado 612545" d="M551.738,240.856a34.65,34.65,0,0,1,6.392-7.09.4.4,0,0,1,.518.12c.64.717,1.848,2.042,2.4,2.676a.387.387,0,0,1,.042.521,83.257,83.257,0,0,0-6.458,6.594.361.361,0,0,1-.535-.023c-.646-.6-1.7-1.736-2.252-2.329a.416.416,0,0,1-.106-.47" transform="translate(-349.81 -148.185)" fill="#ffe4d9"/>
      <path id="Trazado_612546" data-name="Trazado 612546" d="M536.91,224.071a23.788,23.788,0,0,1,6.339-7.039.4.4,0,0,1,.509.112c.626.7,1.806,1.988,2.344,2.606a.379.379,0,0,1,.037.512,84.054,84.054,0,0,0-6.4,6.552.355.355,0,0,1-.527-.017c-.632-.579-1.658-1.69-2.2-2.266a.421.421,0,0,1-.1-.461" transform="translate(-340.411 -137.578)" fill="#ffe4d9"/>
      <path id="Trazado_612547" data-name="Trazado 612547" d="M536.91,224.071a23.788,23.788,0,0,1,6.339-7.039.4.4,0,0,1,.509.112c.626.7,1.806,1.988,2.344,2.606a.379.379,0,0,1,.037.512,84.054,84.054,0,0,0-6.4,6.552.355.355,0,0,1-.527-.017c-.632-.579-1.658-1.69-2.2-2.266a.421.421,0,0,1-.1-.461" transform="translate(-340.411 -137.578)" fill="#ffe4d9"/>
      <path id="Trazado_612548" data-name="Trazado 612548" d="M453.338,246.919a31.842,31.842,0,0,0-6.914-5.99c-.141-.09-.36.007-.488.192-.546.792-1.577,2.257-2.045,2.956a.381.381,0,0,0,.014.514,76.416,76.416,0,0,1,6.927,5.5c.126.132.359.087.516-.1.563-.674,1.461-1.938,1.937-2.6a.419.419,0,0,0,.054-.474" transform="translate(-281.394 -152.741)" fill="#ffe4d9"/>
      <path id="Trazado_612549" data-name="Trazado 612549" d="M355.537,139.919c3.189-2.42,6.961-2.818,8.425-.89s.065,5.454-3.124,7.875-6.961,2.819-8.425.89-.065-5.455,3.124-7.875" transform="translate(-223.082 -87.378)" fill="#ffe4d9"/>
      <path id="Trazado_612550" data-name="Trazado 612550" d="M303.9,198.227c2.409-3.2,5.929-4.609,7.863-3.153s1.55,5.23-.859,8.428-5.929,4.609-7.863,3.153-1.55-5.23.859-8.428" transform="translate(-191.362 -123.324)" fill="#ffe4d9"/>
      <path id="Trazado_612551" data-name="Trazado 612551" d="M261.7,272.079c1.909-3.519,5.182-5.435,7.311-4.281s2.306,4.943.4,8.462-5.182,5.436-7.311,4.281-2.306-4.943-.4-8.462" transform="translate(-165.091 -169.586)" fill="#ffe4d9"/>
      <path id="Trazado_612552" data-name="Trazado 612552" d="M232.186,358.265c1.309-3.783,4.225-6.209,6.514-5.417s3.082,4.5,1.773,8.284-4.226,6.209-6.514,5.417-3.082-4.5-1.773-8.284" transform="translate(-146.819 -223.631)" fill="#ffe4d9"/>
      <path id="Trazado_612553" data-name="Trazado 612553" d="M215.231,442.277c.648-3.951,3.111-6.835,5.5-6.443s3.8,3.913,3.153,7.863-3.111,6.835-5.5,6.444-3.8-3.913-3.153-7.863" transform="translate(-136.369 -276.32)" fill="#ffe4d9"/>
      <path id="Trazado_612554" data-name="Trazado 612554" d="M210.823,526.389c.086-4,2.119-7.205,4.54-7.153s4.314,3.339,4.227,7.342-2.119,7.205-4.54,7.153-4.314-3.339-4.227-7.342" transform="translate(-133.672 -329.225)" fill="#ffe4d9"/>
      <path id="Trazado_612555" data-name="Trazado 612555" d="M218.184,610.047c-.576-3.962.9-7.456,3.3-7.8s4.806,2.581,5.382,6.542-.9,7.456-3.3,7.8-4.806-2.581-5.382-6.542" transform="translate(-138.262 -381.838)" fill="#ffe4d9"/>
      <path id="Trazado_612556" data-name="Trazado 612556" d="M651.25,140.226c-3.189-2.42-6.961-2.819-8.425-.89s-.065,5.454,3.124,7.875,6.961,2.819,8.425.89.066-5.455-3.124-7.875" transform="translate(-407.219 -87.572)" fill="#ffe4d9"/>
      <path id="Trazado_612557" data-name="Trazado 612557" d="M706.3,198.227c-2.409-3.2-5.929-4.609-7.863-3.153s-1.55,5.23.859,8.428,5.929,4.609,7.863,3.153,1.55-5.23-.859-8.428" transform="translate(-442.065 -123.324)" fill="#ffe4d9"/>
      <path id="Trazado_612558" data-name="Trazado 612558" d="M753.007,272.079c-1.909-3.519-5.182-5.435-7.311-4.281s-2.306,4.943-.4,8.462,5.182,5.436,7.311,4.281,2.306-4.943.4-8.462" transform="translate(-471.724 -169.586)" fill="#ffe4d9"/>
      <path id="Trazado_612559" data-name="Trazado 612559" d="M784.476,358.362c-1.107-3.848-3.89-6.424-6.217-5.755s-3.316,4.331-2.21,8.178,3.89,6.424,6.217,5.755,3.317-4.331,2.21-8.178" transform="translate(-491.772 -223.506)" fill="#ffe4d9"/>
      <path id="Trazado_612560" data-name="Trazado 612560" d="M798.278,442.386c-.514-3.97-2.877-6.937-5.279-6.626s-3.932,3.781-3.418,7.752,2.877,6.937,5.278,6.626,3.932-3.781,3.418-7.752" transform="translate(-500.577 -276.283)" fill="#ffe4d9"/>
      <path id="Trazado_612561" data-name="Trazado 612561" d="M799.585,526.644c.143-4-1.7-7.315-4.122-7.4s-4.5,3.086-4.642,7.087,1.7,7.315,4.122,7.4,4.5-3.086,4.642-7.087" transform="translate(-501.421 -329.229)" fill="#ffe4d9"/>
      <path id="Trazado_612562" data-name="Trazado 612562" d="M791.179,609.951c.506-3.971-1.03-7.439-3.432-7.746s-4.76,2.665-5.266,6.636,1.03,7.439,3.432,7.746,4.76-2.665,5.266-6.636" transform="translate(-496.076 -381.819)" fill="#ffe4d9"/>
      <path id="Trazado_612563" data-name="Trazado 612563" d="M546.141,145.059c-10.593,1.253-9.28,10.98-15.633,19.068-.491.625-5.969,8.57-6.933,10.193-4,7.285-6.271,17.236-4.564,29.335,3.439,24.382,26.631,32.754,30.484,47.206,1.529,5.735,2.039,11.22,4.332,14.462,4.119,5.822,12.232,5.236,25.994,13.464,12.643,7.559,21.794,12.615,29.052,7.231,7.3-5.413,7.483-47.207-4.607-76.687s-42.315-66.142-58.126-64.271" transform="translate(-328.719 -91.932)" fill="#ff6e81"/>
      <path id="Trazado_612564" data-name="Trazado 612564" d="M330.57,166.926c-5.268-8.249-.839-20.543-14.259-21.3-15.994-.907-44.455,29.674-58.714,71.521s-9.449,68.06-3.861,72.255c8.637,6.483,21.847-10.223,40.137-16.955,20.468-7.534,33.177-7.14,37.651-11.431,4.723-4.53,8.941-14.589,9.507-27.89.916-21.528-.482-38.924-3-51.923-.86-5.2-5.577-11.322-7.462-14.272" transform="translate(-157.385 -92.32)" fill="#ff6e81"/>
      <path id="Trazado_612565" data-name="Trazado 612565" d="M251.586,547.263a40.013,40.013,0,0,1,1.014-16.806,63.044,63.044,0,0,1,6.577-15.624,67.954,67.954,0,0,1,23.787-23.72,82.894,82.894,0,0,1,15.182-7.26,109.714,109.714,0,0,1,16.135-4.2,184.991,184.991,0,0,1,32.778-2.926,162.393,162.393,0,0,1,32.812,3.375,125.7,125.7,0,0,1,15.994,4.452,77.239,77.239,0,0,1,15.259,7.17,73.237,73.237,0,0,1,23.292,24.141,63.568,63.568,0,0,1,6.863,15.407,40.414,40.414,0,0,1,1.425,16.949,2.04,2.04,0,0,1-4.055-.2l0-.058a53.569,53.569,0,0,0-3.123-14.874,74.46,74.46,0,0,0-6.592-13.9,66.79,66.79,0,0,0-21.3-21.865,70.31,70.31,0,0,0-13.992-6.431,119.024,119.024,0,0,0-15.155-4.094,155.48,155.48,0,0,0-31.408-2.99,182.459,182.459,0,0,0-31.551,2.6,103.127,103.127,0,0,0-15.148,3.812,75.482,75.482,0,0,0-13.965,6.583,61.368,61.368,0,0,0-21.648,21.322,59.743,59.743,0,0,0-6.042,14.033,153.665,153.665,0,0,0-3.519,15.1l-.007.037a1.833,1.833,0,0,1-3.606-.037" transform="translate(-159.215 -302.274)" fill="#fff947"/>
      <rect id="Rectángulo_378817" data-name="Rectángulo 378817" width="8.933" height="13.643" transform="translate(183.455 207.674)" fill="#fff947"/>
      <path id="Trazado_612566" data-name="Trazado 612566" d="M507.979,550.837l-7.572-13.114-7.573,13.114Z" transform="translate(-312.485 -340.947)" fill="#fff947"/>
      <rect id="Rectángulo_378818" data-name="Rectángulo 378818" width="8.933" height="13.643" transform="matrix(0.935, -0.354, 0.354, 0.935, 142.337, 215.768)" fill="#fff947"/>
      <path id="Trazado_612567" data-name="Trazado 612567" d="M397.329,567.036l-11.721-9.589-2.446,14.944Z" transform="translate(-242.947 -353.453)" fill="#fff947"/>
      <rect id="Rectángulo_378819" data-name="Rectángulo 378819" width="13.643" height="8.933" transform="translate(220.326 225.37) rotate(-69.29)" fill="#fff947"/>
      <path id="Trazado_612568" data-name="Trazado 612568" d="M619.347,572.391,616.9,557.447l-11.72,9.589Z" transform="translate(-383.719 -353.453)" fill="#fff947"/>
      <path id="Trazado_612569" data-name="Trazado 612569" d="M576.913,211.48h-2.806c0-47.076-26.428-66.662-43.916-79.622-1.822-1.35-3.543-2.626-5.129-3.855-9.081-7.036-16.923-13.112-16.923-27.272V70.4h2.806v30.335c0,12.166,6.018,17.446,15.836,25.054,1.562,1.21,3.271,2.477,5.081,3.818,8.943,6.627,20.072,14.875,29.129,27.647a82.937,82.937,0,0,1,11.372,22.857,103.457,103.457,0,0,1,4.55,31.373" transform="translate(-322.189 -44.636)" fill="#2d44ed"/>
      <path id="Trazado_612570" data-name="Trazado 612570" d="M509.225,53.139l-3.75-13.994-3.751,13.994Z" transform="translate(-318.122 -24.82)" fill="#2d44ed"/>
      <path id="Trazado_612571" data-name="Trazado 612571" d="M565.045,269.029l-2.647-.93c1.693-4.819,1.778-13.343.221-22.247-1.676-9.583-4.854-17.514-8.719-21.759l2.075-1.889c4.214,4.628,7.643,13.071,9.408,23.165,1.635,9.349,1.505,18.415-.338,23.66" transform="translate(-351.204 -140.89)" fill="#2d44ed"/>
      <path id="Trazado_612572" data-name="Trazado 612572" d="M571.265,225.5c-8.585,0-17.223-1.64-22.206-5.631l1.754-2.191c8.88,7.112,31.589,5.87,40.6,1.346l1.259,2.508c-4.845,2.431-13.1,3.968-21.411,3.968" transform="translate(-348.135 -138.022)" fill="#2d44ed"/>
      <path id="Trazado_612573" data-name="Trazado 612573" d="M437.026,269.029c-1.843-5.245-1.973-14.311-.338-23.66,1.765-10.094,5.194-18.537,9.408-23.165l2.075,1.889c-3.865,4.245-7.043,12.176-8.719,21.759-1.557,8.9-1.473,17.428.221,22.247Z" transform="translate(-276.162 -140.89)" fill="#2d44ed"/>
      <path id="Trazado_612574" data-name="Trazado 612574" d="M377.109,225.5c-8.308,0-16.565-1.537-21.411-3.968l1.259-2.509c9.015,4.523,31.723,5.766,40.6-1.346l1.754,2.19c-4.982,3.991-13.622,5.631-22.206,5.631" transform="translate(-225.533 -138.022)" fill="#2d44ed"/>
      <path id="Trazado_612575" data-name="Trazado 612575" d="M352.615,261.882l-2.8-.2c3.889-53.728,25.974-70.84,42.1-83.334,9.819-7.607,15.837-12.887,15.837-25.053h2.806c0,14.159-7.843,20.236-16.924,27.272-15.709,12.171-37.223,28.839-41.021,81.318" transform="translate(-221.803 -97.196)" fill="#2d44ed"/>
    </g>
  </g>
</svg>
