<svg xmlns="http://www.w3.org/2000/svg" xmlns:xlink="http://www.w3.org/1999/xlink" width="1030" height="445.65" viewBox="0 0 1030 445.65">
  <defs>
    <clipPath id="clip-path">
      <path id="Trazado_611005" data-name="Trazado 611005" d="M0,0H1030V444.65H0Z" transform="translate(285 446.5)" fill="#e2f8f4"/>
    </clipPath>
    <clipPath id="clip-path-2">
      <rect id="Rectángulo_378744" data-name="Rectángulo 378744" width="358" height="386.268" transform="translate(0 0)" fill="none"/>
    </clipPath>
  </defs>
  <g id="Grupo_1073696" data-name="Grupo 1073696" transform="translate(-285 -457.492)">
    <g id="Grupo_1073695" data-name="Grupo 1073695" transform="translate(0 10.992)">
      <path id="Trazado_608309" data-name="Trazado 608309" d="M0,0H1030V445.65H0Z" transform="translate(285 446.5)" fill="#d6f6f1"/>
      <g id="Enmascarar_grupo_1073329" data-name="Enmascarar grupo 1073329" transform="translate(0 1)" clip-path="url(#clip-path)">
        <path id="Trazado_611002" data-name="Trazado 611002" d="M1101.162,114.114V279.753a379.192,379.192,0,0,0-36.524,119.027H978.77a286.077,286.077,0,0,1,34.641-74.656c8.152-12.448,17.465-24.642,21.076-39.085s-.29-32.109-13.341-39.264c-18.716-10.266-40.4,6.127-55.732,20.979A1353.3,1353.3,0,0,1,806.476,398.781H596.131c4.244-3.99,8.584-7.877,12.872-11.77A852.77,852.77,0,0,0,729.764,250.957c11.569-16.245,22.9-33.762,25.037-53.6s-7.929-42.383-27.077-47.959c-32.593-9.492-55.873,30.9-85.7,47.111C606,216.1,554.179,191.346,546.772,151.018c-4.765-25.93,6.328-51.734,12.716-77.307S565.7,16.759,545,.447c-16.073-12.671-39.8-11.413-58.151-2.33S454.307,22.722,440.564,37.9q-95.055,104.994-190.11,210c-21.925,24.225-47.513,50.237-80.158,51.481-45.264,1.735-77.984-46.679-81.744-91.817-5.308-63.794,27.575-124.894,68.194-174.379s89.821-91.779,126.9-143.952c14.9-20.957,27.754-49.672,13.527-71.09-11.651-17.547-37.164-20.875-56.93-13.624s-35.333,22.491-50.915,36.658A714.549,714.549,0,0,1-9.83-30.985v-83.426c13.765-9.031,27.2-18.433,40.284-27.605C68.735-168.84,105.475-197.837,142.7-226.15H496.839c-7.14,9.045-14.845,17.637-22.4,25.61q-84.625,89.248-169.25,178.5c-10.9,11.495-22.074,23.429-27.568,38.289s-3.841,33.554,8.167,43.887c21.054,18.113,52.761-.328,73.837-18.418q103.553-88.835,207.1-177.677c12.068-10.348,24.545-20.95,39.636-25.96s33.606-3.149,44.17,8.733c10.862,12.195,10.333,30.434,9.187,46.731Q652.949-10.192,646.167,86.07c34.849-15.7,68.961-32.98,103.84-48.614,40.924-18.351,143.945-49.2,103.475,38.6-10.2,22.126-21.285,44.721-22.4,69.058-1.1,24.359,10.817,51.235,33.859,59.186,25.707,8.874,52.352-8.025,75.4-22.453a547.192,547.192,0,0,1,160.792-67.733Z" transform="translate(233.83 651.063)" fill="#e2f8f4"/>
        <path id="Trazado_611003" data-name="Trazado 611003" d="M1375.513-139.825V-41.7c-48.436-23.9-105.761-29.623-157.837-15.128-22.059,6.135-43.18,15.7-65.67,19.989s-47.654,2.509-65.44-11.912c-23.54-19.088-27-54.63-18.463-83.709s26.548-54.28,40.165-81.349c2.017-4.013,3.96-8.145,5.762-12.366h103.252a128.036,128.036,0,0,1-20.3,32.415c-9.6,11.115-21.858,22.483-21.456,37.157.4,14.346,13.706,25.625,27.687,28.841s28.551.335,42.688-2.114a694.129,694.129,0,0,1,109.714-10.14c6.611-.089,13.259-.067,19.907.171Z" transform="translate(-40.52 651.068)" fill="#e2f8f4"/>
        <path id="Trazado_611004" data-name="Trazado 611004" d="M502.391,565.09H407.307c9.016-19.632,30.769-36.948,23.176-56.744-5.948-15.5-26.98-19.26-42.837-14.324C353.9,504.534,335.576,538.84,311.18,565.09H192.83c.35-.246.692-.484,1.042-.715L344.063,462.024c31.127-21.21,66.936-43.44,103.8-35.713,33.233,6.968,57.809,38.661,62.633,72.267,2.606,18.136-.253,43.991-8.1,66.512Z" transform="translate(182.045 484.748)" fill="#e2f8f4"/>
      </g>
    </g>
    <g id="Grupo_1074544" data-name="Grupo 1074544" transform="translate(620.668 483.496)">
      <g id="Grupo_1074544-2" data-name="Grupo 1074544" transform="translate(0 0.004)" clip-path="url(#clip-path-2)">
        <path id="Trazado_612345" data-name="Trazado 612345" d="M780.335,204.921c-16.008,1.935-14.025,16.96-23.625,29.452-.742.966-9.02,13.237-10.477,15.744-6.051,11.253-9.477,26.624-6.9,45.312,5.2,37.661,41.573,61.308,47.9,83.492s-16.706,40.283-5.491,50.206c8.191,7.249,25.3,6.423,43.571,9.925s43.569,12.576,55.516,5.594,5.622-94.915-12.65-140.451-63.949-102.164-87.843-99.274" transform="translate(-550.93 -152.802)" fill="#ffc2c2"/>
        <path id="Trazado_612346" data-name="Trazado 612346" d="M865.783,300.274c-9.015-22.485-24.713-47.957-42.008-68.136-10.9-12.71-31.474-33.754-47.067-31.893-11.085,1.337-14.176,8.858-17.479,16.8-1.808,4.35-3.669,8.857-6.944,13.129-.76.969-9.042,13.26-10.587,15.88-4.849,9.042-10.01,24.372-7.022,46.044,3.144,22.773,17.295,40.227,29.8,55.635,8.412,10.351,15.646,19.288,18.134,28.015,3.067,10.744-1,20.44-4.559,29.009-3.643,8.727-6.787,16.248-.577,21.751,5.9,5.215,15.934,6.42,27.569,7.81,5.346.655,10.85,1.31,16.563,2.384,4.219.813,8.753,1.913,13.548,3.066,10.56,2.542,21.357,5.137,30.267,5.137,4.848,0,9.146-.76,12.527-2.726,13.208-7.731,5.5-97.932-12.16-141.905m10.955,139.861c-8.754,5.111-25.918,1-41.039-2.647-4.822-1.179-9.382-2.279-13.653-3.092-5.791-1.1-11.347-1.782-16.719-2.411-11.243-1.337-20.939-2.516-26.285-7.233-4.953-4.377-2.253-10.876,1.18-19.078,3.537-8.491,7.94-19.052,4.664-30.582-2.621-9.2-10.01-18.292-18.58-28.853-12.291-15.173-26.233-32.364-29.3-54.456-2.909-21.07,2.1-35.876,6.761-44.577,1.415-2.437,9.67-14.676,10.378-15.619,3.46-4.481,5.477-9.355,7.259-13.653,3.276-7.914,5.869-14.151,15.593-15.33,23.034-2.83,68.371,53.146,86.61,98.534,18.214,45.415,24.424,132.393,13.13,139" transform="translate(-547.443 -149.307)" fill="#8400ff"/>
        <path id="Trazado_612347" data-name="Trazado 612347" d="M217.326,238.628c-8-12.755-1.273-31.765-21.641-32.941-24.273-1.4-67.468,45.883-89.109,110.588S84.934,439.8,93.844,445.687s58.559-7.059,77.653-9.412,39.463-2.352,45.828-9.411,10.095-66.4,10.2-85.883c.177-33.317-.618-63.917-4.44-84.017-.608-3.445-2.9-13.774-5.758-18.336" transform="translate(-65.831 -153.43)" fill="#ffc2c2"/>
        <path id="Trazado_612348" data-name="Trazado 612348" d="M220.764,253.241c-.315-1.808-1.048-5.294-2.07-8.936a41.285,41.285,0,0,0-3.851-9.827c-2.621-4.167-3.591-9.146-4.561-13.942-1.808-9.2-3.7-18.711-18-19.55-29.822-1.756-72.25,57.392-90.306,111.4C80.981,375.177,79.54,436.447,89.708,443.156c1.834,1.206,5.057,1.7,9.25,1.7,11.243,0,29.4-3.564,45.938-6.787,9.068-1.782,17.611-3.433,23.272-4.141,4.324-.524,8.752-.943,13.05-1.363,15.174-1.415,28.277-2.646,33.518-8.438,6.944-7.7,10.4-69.079,10.482-86.664.236-40.882-1.153-66.878-4.455-84.227m2.1,84.227c-.1,22.118-4.061,78.644-9.879,85.091-4.613,5.11-17.926,6.368-32,7.678-4.3.394-8.727.813-13.1,1.363-5.74.708-14.335,2.385-23.429,4.167-20.073,3.9-47.589,9.277-53.433,5.424-8.307-5.477-8.439-63.34,13.208-128.043,21.253-63.576,62.973-109.83,86.873-109.83.367,0,.708.027,1.048.027,12.473.733,13.941,8.2,15.828,17.662,1,5.006,2.018,10.168,4.874,14.728,2.753,4.4,5.032,14.676,5.609,17.925,3.276,17.218,4.638,43.057,4.4,83.808" transform="translate(-62.354 -149.917)" fill="#8400ff"/>
        <path id="Trazado_612349" data-name="Trazado 612349" d="M929.784,1187.758a.128.128,0,0,0,.01-.041.18.18,0,0,0,.02-.046.26.26,0,0,1-.03.087" transform="translate(-693.662 -886.058)" fill="#ef6d6d"/>
        <path id="Trazado_612350" data-name="Trazado 612350" d="M400.953,1191.876c.026-.1.026-.184.053-.288-.76,12.343-1.73,28.591-2.411,37.527-1.6-.734-2.883-2.49-3.223-5.4-1.048-8.753-2.516-15.121-2.621-21.7-.1-4.036-.053-7.705-.367-11.321-.157-1.782-.419-3.512-.708-5.215-.393-1.7-.813-3.354-1.336-4.953a34.614,34.614,0,0,0-11.845-16.09,65.958,65.958,0,0,0-19.184-9.8,136.406,136.406,0,0,0-21.855-5.32,535.168,535.168,0,0,0-92.167-7.521,505.93,505.93,0,0,0-91.958,7.783,173.267,173.267,0,0,0-21.908,5.661,79.753,79.753,0,0,0-19.68,9.408c-5.766,4.036-10.378,9.146-12.448,15.331a44.551,44.551,0,0,0-2.123,9.906c-.288,2.516-.393,5.136-.734,7.967-.419,5.084-1.7,17.532-2.7,25.865-.34,2.8-1.546,4.534-3.066,5.32-.63-9.094-1.468-23.244-2.175-34.487a1.975,1.975,0,0,1,.1.366,41.242,41.242,0,0,1-.655-5.189,34.219,34.219,0,0,1,1.546-13.077,36.467,36.467,0,0,1,6.551-11.793,49.493,49.493,0,0,1,9.619-8.857,88.49,88.49,0,0,1,22.221-10.954,176.848,176.848,0,0,1,23.272-6.263c31.159-6.159,62.658-8.386,94.132-8.438a548.117,548.117,0,0,1,93.975,8.412,147.023,147.023,0,0,1,23.507,5.923,76.049,76.049,0,0,1,22.143,11.609c6.762,5.215,12.553,12.737,14.808,21.41a41.529,41.529,0,0,1,1.231,14.178" transform="translate(-65.548 -843.29)" fill="#f500f5"/>
        <path id="Trazado_612351" data-name="Trazado 612351" d="M99.315,181.655a6.957,6.957,0,0,1-1,9.8C72.874,212.264,47.3,253.04,33.118,295.363c-10.168,30.478-16.85,62.973-18.79,91.537-1.283,18.947.053,65.856,8.622,97.985.708,11.243,1.546,25.394,2.175,34.487-2.752,1.441-6.446-.184-7.547-4.14-1.73-6.211-5.583-17.532-6.814-22.2C.047,457.264-.818,404.511.44,385.957c1.991-29.718,8.91-63.445,19.47-95.023,15.173-45.31,41.826-87.554,69.6-110.249a6.976,6.976,0,0,1,9.8.97" transform="translate(0 -133.626)" fill="#ffc2c2"/>
        <path id="Trazado_612352" data-name="Trazado 612352" d="M1108.592,493.713c-1.231,4.665-5.162,16.248-6.892,22.459-1.1,3.879-4.664,5.529-7.39,4.219.681-8.936,1.651-25.184,2.411-37.527,5.058-25.551,10.875-79.876,7.784-109.358-4.088-39.256-10.222-69.236-18.214-89.179-11.138-27.725-37.161-69.315-63.445-91.695a6.961,6.961,0,1,1,9.042-10.587c28.276,24.083,55.268,67.087,67.323,97.119,8.49,21.1,14.911,52.36,19.157,92.9,3.564,34.173-4.3,100.265-9.776,121.649" transform="translate(-761.263 -134.565)" fill="#ffc2c2"/>
        <path id="Trazado_612353" data-name="Trazado 612353" d="M655.35,0c.225,7.129-.528,40.989-.447,61.836h23.146c.358-21.244-.21-56.506-.062-61.836H655.35Z" transform="translate(-488.583 -0.004)" fill="#f56489"/>
        <path id="Trazado_612354" data-name="Trazado 612354" d="M869.2,361.279c-2.8-33.675-9.749-66.956-18.606-89.022-17.191-42.821-64.44-106.344-94.5-106.344a22.069,22.069,0,0,0-2.646.157c-14.362,1.756-18.449,11.635-22.065,20.362-1.73,4.193-3.538,8.543-6.526,12.4-1.048,1.388-9.7,14.256-11.322,17.06-5.345,9.959-11.058,26.783-7.782,50.421s16.536,42.715,30.372,59.8c1.31,1.6,2.568,3.118,3.8,4.612,6.367,7.678,11.4,13.758,13.313,20.467,2.7,9.434-1.153,18.607-4.534,26.7-5.556,13.313-4.638,23.4,2.778,29.953,7.258,6.421,18.344,7.731,31.185,9.277,5.424.655,11.006,1.31,16.692,2.411,4.246.812,8.859,1.913,13.733,3.092,11.085,2.673,22.538,5.425,32.417,5.425,6.367,0,11.426-1.127,15.488-3.512,8.517-4.979,11.268-26.259,8.2-63.261m-9.407,61.243c-3.67,2.149-8.334,3.171-14.283,3.171-9.592,0-20.912-2.725-31.867-5.346-4.9-1.179-9.538-2.306-13.836-3.118-5.766-1.127-11.4-1.782-16.851-2.437-12.448-1.494-23.218-2.778-29.927-8.727-6.552-5.791-7.259-14.963-2.15-27.28,3.538-8.438,7.548-18.029,4.64-28.25-2.045-7.18-7.234-13.417-13.758-21.306-1.232-1.493-2.49-3.013-3.8-4.612-13.628-16.825-26.678-35.562-29.875-58.649-3.171-23.009,2.333-39.309,7.6-49.11,1.468-2.49,10.09-15.331,11.058-16.589,3.145-4.114,5.006-8.6,6.814-12.946,3.7-8.91,7.181-17.322,20.179-18.894a17.235,17.235,0,0,1,2.358-.157c13.025,0,30.977,12.946,50.5,36.427,17.112,20.624,33.125,46.83,41.8,68.424,8.78,21.856,15.671,54.9,18.448,88.341,2.91,35.011.42,56.684-7.048,61.06" transform="translate(-525.807 -123.78)" fill="#0059ff"/>
        <path id="Trazado_612355" data-name="Trazado 612355" d="M873.778,368.391c-2.777-33.44-9.668-66.485-18.448-88.341-8.674-21.594-24.687-47.8-41.8-68.424-19.523-23.481-37.474-36.427-50.5-36.427a17.236,17.236,0,0,0-2.358.157c-13,1.573-16.484,9.985-20.179,18.894-1.808,4.351-3.669,8.832-6.814,12.946-.969,1.258-9.59,14.1-11.058,16.589-5.267,9.8-10.77,26.1-7.6,49.11,3.2,23.088,16.247,41.825,29.875,58.649,1.31,1.6,2.568,3.119,3.8,4.612,6.525,7.889,11.714,14.125,13.758,21.306,2.909,10.221-1.1,19.812-4.64,28.25-5.109,12.317-4.4,21.489,2.15,27.28,6.709,5.949,17.479,7.233,29.927,8.727,5.451.655,11.085,1.31,16.851,2.437,4.3.813,8.935,1.939,13.836,3.118,10.955,2.621,22.275,5.346,31.867,5.346,5.949,0,10.613-1.022,14.283-3.171,7.468-4.376,9.958-26.049,7.048-61.06m-10.533,55.19c-3.381,1.966-7.679,2.725-12.527,2.725-8.91,0-19.707-2.594-30.267-5.136-4.8-1.153-9.33-2.254-13.548-3.066-5.714-1.074-11.217-1.729-16.563-2.385-11.635-1.389-21.672-2.594-27.569-7.809-6.21-5.5-3.066-13.024.577-21.751,3.564-8.569,7.626-18.265,4.559-29.01-2.489-8.727-9.722-17.663-18.134-28.015-12.5-15.409-26.651-32.862-29.8-55.635-2.988-21.672,2.174-37,7.022-46.044,1.546-2.621,9.827-14.911,10.588-15.88,3.276-4.272,5.136-8.779,6.944-13.129,3.3-7.941,6.394-15.461,17.479-16.8,15.593-1.86,36.165,19.183,47.067,31.893,17.295,20.178,32.993,45.651,42.007,68.136,17.662,43.974,25.368,134.175,12.16,141.906" transform="translate(-532.744 -130.708)" fill="#aae7fa"/>
        <path id="Trazado_612356" data-name="Trazado 612356" d="M206.623,224.935c-.891-4.953-3.433-15.75-6.787-21.122-2.2-3.512-3.093-7.941-4.036-12.658-1.913-9.749-4.559-23.088-23.193-24.162a13.745,13.745,0,0,0-1.466-.052c-30.4,0-75.527,55.216-96.6,118.163-10.115,30.242-16.719,62.5-18.659,90.883-2.358,35.012,3.066,46.28,8.046,49.555,2.725,1.809,6.5,2.621,12.212,2.621,12.054,0,31.342-3.774,48.376-7.1,9.223-1.808,17.95-3.511,23.585-4.193,4.429-.551,8.91-.97,13.286-1.389,16.667-1.572,31.08-2.909,37.789-10.325,1.861-2.07,5.739-6.368,9.25-43.031,1.809-18.816,2.8-39.178,2.857-49.556.235-42.454-1.205-69.472-4.665-87.633m2.307,87.607c-.053,10.351-1.049,30.635-2.857,49.372-3.433,35.876-7.232,40.069-8.648,41.641-6.079,6.762-20.074,8.072-36.27,9.566-4.376.419-8.883.838-13.338,1.388-5.712.708-14.491,2.411-23.769,4.246-16.9,3.3-36.086,7.049-47.9,7.049-5.216,0-8.6-.681-10.9-2.228-2.935-1.939-9.487-10.43-7-47.432,1.913-28.172,8.49-60.248,18.554-90.306C97.555,223.756,141.633,169.3,171.142,169.3c.445,0,.891,0,1.336.026,16.8.97,19.052,12.318,21.017,22.3.97,4.926,1.913,9.565,4.324,13.444,3.2,5.057,5.634,15.488,6.474,20.31,3.433,18,4.874,44.891,4.638,87.161" transform="translate(-41.269 -124.547)" fill="#0059ff"/>
        <path id="Trazado_612357" data-name="Trazado 612357" d="M211.269,232.311c-.84-4.822-3.276-15.252-6.474-20.31-2.411-3.878-3.354-8.517-4.324-13.443-1.965-9.985-4.219-21.332-21.017-22.3-.445-.026-.891-.026-1.336-.026-29.509,0-73.587,54.456-94.342,116.538C73.713,322.826,67.135,354.9,65.222,383.074c-2.49,37,4.061,45.494,7,47.432,2.306,1.547,5.687,2.228,10.9,2.228,11.818,0,31-3.747,47.9-7.049,9.277-1.834,18.056-3.538,23.769-4.246,4.455-.55,8.962-.969,13.338-1.388,16.2-1.494,30.191-2.8,36.27-9.565,1.415-1.572,5.214-5.765,8.648-41.641,1.808-18.738,2.8-39.021,2.857-49.372.235-42.271-1.206-69.157-4.638-87.161m-.157,86.716c-.079,17.584-3.538,78.959-10.482,86.664-5.241,5.791-18.344,7.023-33.518,8.438-4.3.42-8.727.839-13.051,1.363-5.661.708-14.2,2.359-23.272,4.141-16.535,3.223-34.7,6.787-45.939,6.787-4.193,0-7.416-.5-9.25-1.7-10.168-6.709-8.727-67.978,12.263-130.768,18.056-54.01,60.484-113.158,90.306-111.4,14.309.839,16.2,10.351,18,19.55.97,4.8,1.94,9.775,4.561,13.942a41.284,41.284,0,0,1,3.852,9.827c1.022,3.642,1.756,7.128,2.07,8.936,3.3,17.349,4.691,43.345,4.456,84.227" transform="translate(-48.246 -131.477)" fill="#aae7fa"/>
        <path id="Trazado_612358" data-name="Trazado 612358" d="M753.314,301c2.531,1.563,4.334,4.036,6.411,6.155,4.45,4.541,8.751,9.234,13.385,13.592,5.344,5.03,17.577,17.176,18.563,18.553,3.427,4.8,3.083,26.737,2.5,28.912-1.653,6.12-5.823,11.177-8.486,12.887,7.017-1.691,9.43-9.744,10.059-9.115s.155,10.965,8.955,15.992c-4.112-6.511-5.409-14.348-6.169-17.823-1.037-4.734-1.815-23.653-.685-23.653.942,0,13.818,19.872,16.453,25.71.143.317.285.629.424.936,4.577,10.062,17.537,27.09,19.534,37.739.941,5.02,2.884,13.311-8.562,20.675,12.684-1.715,12.477-12.5,14.676-10.924s6.922,27.376-3.364,38.688c15.084-9.6,8.455-28.508,10.971-29.137s4.8,10.284,20.223,7.543c-10.282-1.715-16.316-10.251-18.853-14.054-3.427-5.143-12.3-23.5-14.87-28.542-6.212-12.2-11.81-19.923-10.239-20.867s5.764,1.489,12.052,2.432c4.228.634,12.257-.315,17.287,5.344-2.531-7.717-9.476-7.013-10.1-8.585-.3-.735,9.727-7.794,18.6-10.175-7.575-.867-10.483,2.257-11.688,1.488-1.175-.747,2.651-9-2.975-16.576,2.813,13.42-2.639,20.285-7.834,21.368-5.393,1.124-12.085-1.714-15.809-4.715a12.206,12.206,0,0,1-1.93-1.894c-3.771-4.8-7.08-13.794-14.626-24.8-6.92-10.1-14.3-18.037-15.24-21.182s1.1-9.941,5.5-12.771,10.838.212,15.938-7.65c-6.8,4.888-16.532,2.617-17.667,1.249-2.1-2.525-6.7-18.91-1.671-28.025-7.543,5.973-3.007,15.6-4.578,15.6s-2.86-4.551-9.023-8.164c3.457,4.715,9.981,15.686,9.35,20.4s-5.69,13.336-7.4,12.545c-2.551-1.177-10.985-10.188-18.405-20.558Z" transform="translate(-562.007 -201.27)" fill="#f56489"/>
        <path id="Trazado_612359" data-name="Trazado 612359" d="M379.7,268.954c-6.652-9.3-12.488-19.685-12.538-26.5-3.851-.539-18.013-.4-23.146,0,1.374,14.3-21.423,37.166-27.336,47.513-1.25,2.133-2.507,4.277-3.912,6.313-.474.687-1.339,2.378-2.263,2.579-2.661.578-13.539-5.207-16.084-7.521s-6.711-15.737-4.629-24.994c-5.323,12.5.694,23.605-.694,24.3s-4.4-1.157-5.786-3.009-7.637-6.943-7.868-17.357c-2.777,16.431,6.711,21.754,6.249,23.143s-10.182,0-11.109,9.488c5.092-7.637,16.576-7.094,21.292-2.083,3.7,3.934,9.488,6.017,10.645,8.794.718,1.722-5.339,15.612-8.794,18.282-5.091,3.934-15.969,7.868-24.531,6.017-5.362-1.159-13.654-11.108-15.274-21.754-.926,13.654,8.331,22.449,7.868,23.606s-18.861,5.554-22.1,16.2c5.323-9.026,21.252-12.395,25.341-11.34,14.348,3.7,22.448-.463,23.142.926.891,1.78-5.312,23.8-14.935,27.744-8.992,3.689-11.721-4.027-18.018,7.183,5.322-8.332,10.492-2.53,15.461-3.287,5.854-.893,5.92-.166,6.845.528s-5.322,16.663-9.257,23.374c-2.833,4.833-14.117,23.374-30.085,26.614,15.968,0,26.614-17.357,27.771-16.662s-3.472,17.357-9.025,21.291c8.1-3.24,14.58-23.606,15.505-26.614s12.96-31.705,15.042-31.705,20.386,40.328,20.386,45.419.463,15.737-4.166,20.6c7.869-3.471,7.637-17.125,9.025-17.588s6.711,5.554,12.96,2.314c-8.794.694-17.735-21.946-18.662-24.655-3.008-8.794-16.74-31.525-15.378-35.807a60.76,60.76,0,0,1,3.706-8.053c2.638-5.37,5.383-10.689,8.179-15.978a378.8,378.8,0,0,1,26.836-42.7c7.072-9.858,16.158-20.335,30.808-16.538a28.548,28.548,0,0,1,7.831,3.32Z" transform="translate(-177.698 -180.616)" fill="#f56489"/>
      </g>
    </g>
    <g id="Grupo_1016542" data-name="Grupo 1016542" transform="translate(0 -5162.5)">
      <rect id="Rectángulo_347088" data-name="Rectángulo 347088" width="207.331" height="37" rx="9" transform="translate(1040.669 5664.5)" fill="#624b7e"/>
      <rect id="Rectángulo_347094" data-name="Rectángulo 347094" width="169.668" height="57" rx="9" transform="translate(1060 5964.135)" fill="#eadff7"/>
      <rect id="Rectángulo_347095" data-name="Rectángulo 347095" width="128" height="35" rx="9" transform="translate(735.668 5958.135)" fill="#fff"/>
      <rect id="Rectángulo_347091" data-name="Rectángulo 347091" width="190" height="37" rx="9" transform="translate(357 5758.002)" fill="#cbb1eb"/>
      <rect id="Rectángulo_347096" data-name="Rectángulo 347096" width="55" height="4" transform="translate(1119 5960.135)" fill="#1c534a"/>
      <rect id="Rectángulo_347093" data-name="Rectángulo 347093" width="55" height="4" transform="translate(426 5795.002)" fill="#1c534a"/>
      <path id="Trazado_608059" data-name="Trazado 608059" d="M-7117-5803.338V-6015h-28.16" transform="translate(-4868.5 12848.662) rotate(90)" fill="none" stroke="#1c534a" stroke-width="3"/>
      <path id="Trazado_608061" data-name="Trazado 608061" d="M-7145.159-5803.338V-6015h32.73" transform="translate(-4868.5 13074.563) rotate(90)" fill="none" stroke="#1c534a" stroke-width="3"/>
      <path id="Trazado_608060" data-name="Trazado 608060" d="M28.16,0V211.662H0" transform="translate(665.662 5797.004) rotate(90)" fill="none" stroke="#1c534a" stroke-width="3"/>
      <path id="Trazado_627940" data-name="Trazado 627940" d="M24.66,14.323h6.458V16h-9V14.639l6.25-9.031H22.161V3.914h8.757V5.242Zm7.512-2.9a5.3,5.3,0,0,1,.523-2.378,3.819,3.819,0,0,1,1.469-1.627,4.14,4.14,0,0,1,2.175-.569,3.923,3.923,0,0,1,2.951,1.17,4.6,4.6,0,0,1,1.224,3.1l.008.473a5.343,5.343,0,0,1-.51,2.374,3.773,3.773,0,0,1-1.461,1.619,4.17,4.17,0,0,1-2.2.573A3.9,3.9,0,0,1,33.313,14.9a4.848,4.848,0,0,1-1.141-3.374Zm2.017.174a3.619,3.619,0,0,0,.573,2.171,1.862,1.862,0,0,0,1.594.784,1.842,1.842,0,0,0,1.59-.8,4,4,0,0,0,.569-2.333,3.572,3.572,0,0,0-.585-2.158,1.973,1.973,0,0,0-3.158-.012A3.922,3.922,0,0,0,34.189,11.6ZM44.1,7.019l.058,1.038a3.229,3.229,0,0,1,2.615-1.2q2.806,0,2.855,3.212V16H47.611V10.181a1.85,1.85,0,0,0-.369-1.266A1.554,1.554,0,0,0,46.034,8.5a1.944,1.944,0,0,0-1.818,1.1V16H42.2V7.019ZM57.049,16a3.113,3.113,0,0,1-.232-.838,3.393,3.393,0,0,1-4.565.232,2.47,2.47,0,0,1-.855-1.909,2.55,2.55,0,0,1,1.067-2.2,5.169,5.169,0,0,1,3.051-.768H56.75V9.924a1.573,1.573,0,0,0-.39-1.116,1.547,1.547,0,0,0-1.187-.419,1.777,1.777,0,0,0-1.129.344,1.066,1.066,0,0,0-.44.876H51.587a2.239,2.239,0,0,1,.49-1.382,3.263,3.263,0,0,1,1.332-1.009,4.68,4.68,0,0,1,1.88-.365,3.769,3.769,0,0,1,2.515.793,2.827,2.827,0,0,1,.963,2.229v4.051a4.591,4.591,0,0,0,.34,1.934V16Zm-2.216-1.453a2.294,2.294,0,0,0,1.125-.291,1.941,1.941,0,0,0,.793-.78V11.783H55.663a2.973,2.973,0,0,0-1.685.39,1.264,1.264,0,0,0-.564,1.1,1.179,1.179,0,0,0,.386.926A1.5,1.5,0,0,0,54.833,14.547ZM70.48,16a3.113,3.113,0,0,1-.232-.838,3.393,3.393,0,0,1-4.565.232,2.47,2.47,0,0,1-.855-1.909,2.55,2.55,0,0,1,1.067-2.2,5.169,5.169,0,0,1,3.051-.768h1.237V9.924a1.573,1.573,0,0,0-.39-1.116A1.547,1.547,0,0,0,68.6,8.388a1.777,1.777,0,0,0-1.129.344,1.066,1.066,0,0,0-.44.876H65.018a2.239,2.239,0,0,1,.49-1.382A3.263,3.263,0,0,1,66.84,7.218a4.68,4.68,0,0,1,1.88-.365,3.769,3.769,0,0,1,2.515.793A2.827,2.827,0,0,1,72.2,9.874v4.051a4.591,4.591,0,0,0,.34,1.934V16Zm-2.216-1.453a2.294,2.294,0,0,0,1.125-.291,1.941,1.941,0,0,0,.793-.78V11.783H69.094a2.973,2.973,0,0,0-1.685.39,1.264,1.264,0,0,0-.564,1.1,1.179,1.179,0,0,0,.386.926A1.5,1.5,0,0,0,68.264,14.547ZM76.457,16H74.439V3.25h2.017ZM81.18,4.835V7.019h1.585V8.513H81.18v5.014a1.1,1.1,0,0,0,.2.743.943.943,0,0,0,.726.228,3.107,3.107,0,0,0,.706-.083v1.561a4.968,4.968,0,0,1-1.328.191q-2.324,0-2.324-2.565V8.513H77.685V7.019h1.478V4.835ZM89.671,16a3.113,3.113,0,0,1-.232-.838,3.393,3.393,0,0,1-4.565.232,2.47,2.47,0,0,1-.855-1.909,2.55,2.55,0,0,1,1.067-2.2,5.169,5.169,0,0,1,3.051-.768h1.237V9.924a1.573,1.573,0,0,0-.39-1.116A1.547,1.547,0,0,0,87.8,8.388a1.777,1.777,0,0,0-1.129.344,1.066,1.066,0,0,0-.44.876H84.209a2.239,2.239,0,0,1,.49-1.382,3.263,3.263,0,0,1,1.332-1.009,4.68,4.68,0,0,1,1.88-.365,3.769,3.769,0,0,1,2.515.793,2.827,2.827,0,0,1,.963,2.229v4.051a4.591,4.591,0,0,0,.34,1.934V16Zm-2.216-1.453a2.294,2.294,0,0,0,1.125-.291,1.941,1.941,0,0,0,.793-.78V11.783H88.285a2.973,2.973,0,0,0-1.685.39,1.264,1.264,0,0,0-.564,1.1,1.179,1.179,0,0,0,.386.926A1.5,1.5,0,0,0,87.455,14.547Zm10.31-3.461a12.649,12.649,0,0,1,.515-3.64,9.991,9.991,0,0,1,1.511-3.08A6,6,0,0,1,101.9,2.461l.4,1.179a6.162,6.162,0,0,0-1.9,2.71,12.138,12.138,0,0,0-.793,4.171l-.008.714a13.2,13.2,0,0,0,.71,4.487,6.613,6.613,0,0,0,1.988,3l-.4,1.121a6.009,6.009,0,0,1-2.113-1.913,9.989,9.989,0,0,1-1.511-3.08A13.148,13.148,0,0,1,97.765,11.086Zm9.587,3.47a1.824,1.824,0,0,0,1.253-.44,1.5,1.5,0,0,0,.531-1.087h1.9a2.963,2.963,0,0,1-.523,1.565,3.43,3.43,0,0,1-1.328,1.15,3.958,3.958,0,0,1-1.81.423,3.829,3.829,0,0,1-2.988-1.22,4.84,4.84,0,0,1-1.1-3.37v-.208a4.759,4.759,0,0,1,1.1-3.283,3.8,3.8,0,0,1,2.988-1.233,3.69,3.69,0,0,1,2.611.934,3.345,3.345,0,0,1,1.058,2.453h-1.9a1.847,1.847,0,0,0-.527-1.27,1.7,1.7,0,0,0-1.258-.5,1.775,1.775,0,0,0-1.511.71,3.621,3.621,0,0,0-.54,2.154v.324a3.681,3.681,0,0,0,.527,2.179A1.773,1.773,0,0,0,107.352,14.556ZM114.707,16h-2.017V3.25h2.017Zm7.562,0a3.113,3.113,0,0,1-.232-.838,3.393,3.393,0,0,1-4.565.232,2.47,2.47,0,0,1-.855-1.909,2.55,2.55,0,0,1,1.067-2.2,5.169,5.169,0,0,1,3.051-.768h1.237V9.924a1.573,1.573,0,0,0-.39-1.116,1.547,1.547,0,0,0-1.187-.419,1.777,1.777,0,0,0-1.129.344,1.066,1.066,0,0,0-.44.876h-2.017a2.239,2.239,0,0,1,.49-1.382,3.263,3.263,0,0,1,1.332-1.009,4.68,4.68,0,0,1,1.88-.365,3.769,3.769,0,0,1,2.515.793,2.827,2.827,0,0,1,.963,2.229v4.051a4.591,4.591,0,0,0,.34,1.934V16Zm-2.216-1.453a2.294,2.294,0,0,0,1.125-.291,1.941,1.941,0,0,0,.793-.78V11.783h-1.087a2.973,2.973,0,0,0-1.685.39,1.264,1.264,0,0,0-.564,1.1,1.179,1.179,0,0,0,.386.926A1.5,1.5,0,0,0,120.052,14.547Zm9.089-1.1,1.9-6.425h2.083L130.013,16h-1.751l-3.138-8.981h2.092ZM136.529,16h-2.017V7.019h2.017ZM134.388,4.686a1.07,1.07,0,0,1,.295-.772,1.113,1.113,0,0,1,.843-.307,1.127,1.127,0,0,1,.847.307,1.062,1.062,0,0,1,.3.772,1.038,1.038,0,0,1-.3.76,1.136,1.136,0,0,1-.847.3,1.122,1.122,0,0,1-.843-.3A1.046,1.046,0,0,1,134.388,4.686Zm8.027,9.87a1.824,1.824,0,0,0,1.253-.44,1.5,1.5,0,0,0,.531-1.087h1.9a2.963,2.963,0,0,1-.523,1.565,3.43,3.43,0,0,1-1.328,1.15,3.958,3.958,0,0,1-1.81.423,3.829,3.829,0,0,1-2.988-1.22,4.84,4.84,0,0,1-1.1-3.37v-.208a4.759,4.759,0,0,1,1.1-3.283,3.8,3.8,0,0,1,2.988-1.233,3.69,3.69,0,0,1,2.611.934,3.345,3.345,0,0,1,1.058,2.453h-1.9a1.847,1.847,0,0,0-.527-1.27,1.7,1.7,0,0,0-1.258-.5,1.775,1.775,0,0,0-1.511.71,3.621,3.621,0,0,0-.54,2.154v.324a3.682,3.682,0,0,0,.527,2.179A1.773,1.773,0,0,0,142.415,14.556Zm10.65.564a3.128,3.128,0,0,1-2.523,1.046,2.788,2.788,0,0,1-2.212-.855,3.637,3.637,0,0,1-.751-2.474V7.019h2.017v5.794q0,1.71,1.419,1.71A1.993,1.993,0,0,0,153,13.468V7.019h2.017V16h-1.9Zm6.151.88H157.2V3.25h2.017Zm7.562,0a3.113,3.113,0,0,1-.232-.838,3.393,3.393,0,0,1-4.565.232,2.47,2.47,0,0,1-.855-1.909,2.55,2.55,0,0,1,1.067-2.2,5.169,5.169,0,0,1,3.051-.768h1.237V9.924a1.573,1.573,0,0,0-.39-1.116,1.547,1.547,0,0,0-1.187-.419,1.777,1.777,0,0,0-1.129.344,1.066,1.066,0,0,0-.44.876h-2.017a2.239,2.239,0,0,1,.49-1.382,3.263,3.263,0,0,1,1.332-1.009,4.68,4.68,0,0,1,1.88-.365,3.769,3.769,0,0,1,2.515.793,2.827,2.827,0,0,1,.963,2.229v4.051a4.591,4.591,0,0,0,.34,1.934V16Zm-2.216-1.453a2.294,2.294,0,0,0,1.125-.291,1.941,1.941,0,0,0,.793-.78V11.783h-1.087a2.973,2.973,0,0,0-1.685.39,1.264,1.264,0,0,0-.564,1.1,1.179,1.179,0,0,0,.386.926A1.5,1.5,0,0,0,164.561,14.547Zm10.75-5.686a4.991,4.991,0,0,0-.822-.066,1.85,1.85,0,0,0-1.868,1.063V16H170.6V7.019h1.926l.05,1a2.273,2.273,0,0,1,2.025-1.17,1.888,1.888,0,0,1,.714.116Zm5.163,2.357a12.489,12.489,0,0,1-.506,3.557,10.078,10.078,0,0,1-1.536,3.121,6.014,6.014,0,0,1-2.15,1.947l-.4-1.121a6.379,6.379,0,0,0,1.971-2.943,13.071,13.071,0,0,0,.726-4.52v-.191a13.264,13.264,0,0,0-.631-4.2,7.416,7.416,0,0,0-1.81-3.042l-.257-.232.4-1.129a5.951,5.951,0,0,1,2.059,1.826,9.909,9.909,0,0,1,1.527,2.934,12.222,12.222,0,0,1,.6,3.349Z" transform="translate(1045 5673.5)" fill="#fff"/>
      <path id="Trazado_627939" data-name="Trazado 627939" d="M22.02,14.323h6.458V16h-9V14.639l6.25-9.031H19.521V3.914h8.757V5.242Zm7.512-2.9a5.3,5.3,0,0,1,.523-2.378,3.819,3.819,0,0,1,1.469-1.627A4.14,4.14,0,0,1,33.7,6.853a3.923,3.923,0,0,1,2.951,1.17,4.6,4.6,0,0,1,1.224,3.1l.008.473a5.343,5.343,0,0,1-.51,2.374,3.773,3.773,0,0,1-1.461,1.619,4.17,4.17,0,0,1-2.2.573A3.9,3.9,0,0,1,30.673,14.9a4.848,4.848,0,0,1-1.141-3.374Zm2.017.174a3.619,3.619,0,0,0,.573,2.171,1.862,1.862,0,0,0,1.594.784,1.842,1.842,0,0,0,1.59-.8,4,4,0,0,0,.569-2.333,3.572,3.572,0,0,0-.585-2.158,1.973,1.973,0,0,0-3.158-.012A3.922,3.922,0,0,0,31.549,11.6ZM41.46,7.019l.058,1.038a3.229,3.229,0,0,1,2.615-1.2q2.806,0,2.855,3.212V16H44.971V10.181A1.85,1.85,0,0,0,44.6,8.915,1.554,1.554,0,0,0,43.394,8.5a1.944,1.944,0,0,0-1.818,1.1V16H39.559V7.019ZM54.409,16a3.113,3.113,0,0,1-.232-.838,3.393,3.393,0,0,1-4.565.232,2.47,2.47,0,0,1-.855-1.909,2.55,2.55,0,0,1,1.067-2.2,5.169,5.169,0,0,1,3.051-.768H54.11V9.924a1.573,1.573,0,0,0-.39-1.116,1.547,1.547,0,0,0-1.187-.419,1.777,1.777,0,0,0-1.129.344,1.066,1.066,0,0,0-.44.876H48.947a2.239,2.239,0,0,1,.49-1.382,3.263,3.263,0,0,1,1.332-1.009,4.68,4.68,0,0,1,1.88-.365,3.769,3.769,0,0,1,2.515.793,2.827,2.827,0,0,1,.963,2.229v4.051a4.591,4.591,0,0,0,.34,1.934V16Zm-2.216-1.453a2.294,2.294,0,0,0,1.125-.291,1.941,1.941,0,0,0,.793-.78V11.783H53.023a2.973,2.973,0,0,0-1.685.39,1.264,1.264,0,0,0-.564,1.1,1.179,1.179,0,0,0,.386.926A1.5,1.5,0,0,0,52.193,14.547ZM64.37,7.019l.058.938a3.232,3.232,0,0,1,2.59-1.1A2.483,2.483,0,0,1,69.483,8.23a3.186,3.186,0,0,1,2.756-1.378,2.8,2.8,0,0,1,2.212.822,3.618,3.618,0,0,1,.743,2.424V16H73.177V10.156A1.786,1.786,0,0,0,72.8,8.9a1.635,1.635,0,0,0-1.237-.4,1.679,1.679,0,0,0-1.125.369,1.948,1.948,0,0,0-.61.967L69.84,16H67.823V10.09A1.439,1.439,0,0,0,66.2,8.5a1.776,1.776,0,0,0-1.718.988V16H62.469V7.019Zm16.851,9.147a4.173,4.173,0,0,1-3.109-1.208,4.381,4.381,0,0,1-1.191-3.217v-.249a5.389,5.389,0,0,1,.519-2.4A3.949,3.949,0,0,1,78.9,7.442a3.851,3.851,0,0,1,2.092-.589,3.525,3.525,0,0,1,2.835,1.17,4.949,4.949,0,0,1,1,3.312v.813H78.955a2.7,2.7,0,0,0,.743,1.76,2.23,2.23,0,0,0,1.639.647,2.731,2.731,0,0,0,2.258-1.121l1.087,1.038a3.631,3.631,0,0,1-1.44,1.249A4.509,4.509,0,0,1,81.221,16.166ZM80.98,8.471a1.7,1.7,0,0,0-1.341.581,3.012,3.012,0,0,0-.652,1.619h3.843v-.149a2.452,2.452,0,0,0-.54-1.531A1.686,1.686,0,0,0,80.98,8.471Zm5.03,2.972a5.34,5.34,0,0,1,.963-3.333,3.085,3.085,0,0,1,2.582-1.258,2.931,2.931,0,0,1,2.308,1V3.25h2.017V16H92.053l-.1-.93a2.973,2.973,0,0,1-2.416,1.1,3.068,3.068,0,0,1-2.552-1.27A5.535,5.535,0,0,1,86.01,11.443Zm2.017.174a3.739,3.739,0,0,0,.527,2.137,1.71,1.71,0,0,0,1.5.768,1.9,1.9,0,0,0,1.81-1.1V9.583A1.876,1.876,0,0,0,90.069,8.5a1.723,1.723,0,0,0-1.511.776A4.163,4.163,0,0,0,88.027,11.617ZM98.129,16H96.112V7.019h2.017ZM95.988,4.686a1.071,1.071,0,0,1,.295-.772,1.113,1.113,0,0,1,.843-.307,1.127,1.127,0,0,1,.847.307,1.062,1.062,0,0,1,.3.772,1.038,1.038,0,0,1-.3.76,1.136,1.136,0,0,1-.847.3,1.122,1.122,0,0,1-.843-.3A1.046,1.046,0,0,1,95.988,4.686ZM105.691,16a3.113,3.113,0,0,1-.232-.838,3.393,3.393,0,0,1-4.565.232,2.47,2.47,0,0,1-.855-1.909,2.55,2.55,0,0,1,1.067-2.2,5.169,5.169,0,0,1,3.051-.768h1.237V9.924A1.573,1.573,0,0,0,105,8.807a1.547,1.547,0,0,0-1.187-.419,1.777,1.777,0,0,0-1.129.344,1.066,1.066,0,0,0-.44.876h-2.017a2.239,2.239,0,0,1,.49-1.382,3.263,3.263,0,0,1,1.332-1.009,4.68,4.68,0,0,1,1.88-.365,3.769,3.769,0,0,1,2.515.793,2.827,2.827,0,0,1,.963,2.229v4.051a4.591,4.591,0,0,0,.34,1.934V16Zm-2.216-1.453a2.294,2.294,0,0,0,1.125-.291,1.941,1.941,0,0,0,.793-.78V11.783h-1.087a2.973,2.973,0,0,0-1.685.39,1.264,1.264,0,0,0-.564,1.1,1.179,1.179,0,0,0,.386.926A1.5,1.5,0,0,0,103.475,14.547Zm10.31-3.461a12.649,12.649,0,0,1,.515-3.64,9.991,9.991,0,0,1,1.511-3.08,6,6,0,0,1,2.108-1.905l.4,1.179a6.162,6.162,0,0,0-1.9,2.71,12.138,12.138,0,0,0-.793,4.171l-.008.714a13.2,13.2,0,0,0,.71,4.487,6.613,6.613,0,0,0,1.988,3l-.4,1.121a6.009,6.009,0,0,1-2.113-1.913,9.989,9.989,0,0,1-1.511-3.08A13.148,13.148,0,0,1,113.785,11.086Zm9.587,3.47a1.824,1.824,0,0,0,1.253-.44,1.5,1.5,0,0,0,.531-1.087h1.9a2.963,2.963,0,0,1-.523,1.565,3.43,3.43,0,0,1-1.328,1.15,3.958,3.958,0,0,1-1.81.423,3.829,3.829,0,0,1-2.988-1.22,4.84,4.84,0,0,1-1.1-3.37v-.208a4.759,4.759,0,0,1,1.1-3.283,3.8,3.8,0,0,1,2.988-1.233A3.69,3.69,0,0,1,126,7.786a3.345,3.345,0,0,1,1.058,2.453h-1.9a1.847,1.847,0,0,0-.527-1.27,1.7,1.7,0,0,0-1.258-.5,1.775,1.775,0,0,0-1.511.71,3.621,3.621,0,0,0-.54,2.154v.324a3.681,3.681,0,0,0,.527,2.179A1.773,1.773,0,0,0,123.372,14.556Zm4.831-3.129a5.3,5.3,0,0,1,.523-2.378A3.819,3.819,0,0,1,130.2,7.421a4.14,4.14,0,0,1,2.175-.569,3.923,3.923,0,0,1,2.951,1.17,4.6,4.6,0,0,1,1.224,3.1l.008.473a5.343,5.343,0,0,1-.51,2.374,3.773,3.773,0,0,1-1.461,1.619,4.17,4.17,0,0,1-2.2.573,3.9,3.9,0,0,1-3.042-1.266,4.848,4.848,0,0,1-1.141-3.374Zm2.017.174a3.619,3.619,0,0,0,.573,2.171,1.862,1.862,0,0,0,1.594.784,1.842,1.842,0,0,0,1.59-.8,4,4,0,0,0,.569-2.333,3.572,3.572,0,0,0-.585-2.158,1.973,1.973,0,0,0-3.158-.012A3.922,3.922,0,0,0,130.22,11.6Zm13.074,1.959a.914.914,0,0,0-.444-.822,4.723,4.723,0,0,0-1.473-.5,7.574,7.574,0,0,1-1.718-.548,2.293,2.293,0,0,1-1.511-2.117,2.391,2.391,0,0,1,.979-1.942,3.872,3.872,0,0,1,2.49-.78,4.029,4.029,0,0,1,2.6.8,2.529,2.529,0,0,1,.992,2.067h-2.017a1.243,1.243,0,0,0-.432-.967,1.654,1.654,0,0,0-1.146-.386,1.787,1.787,0,0,0-1.083.307.968.968,0,0,0-.419.822.818.818,0,0,0,.39.722,5.365,5.365,0,0,0,1.577.519,7.466,7.466,0,0,1,1.864.623,2.639,2.639,0,0,1,1,.867,2.212,2.212,0,0,1,.328,1.229,2.34,2.34,0,0,1-1,1.963,4.283,4.283,0,0,1-2.631.751,4.644,4.644,0,0,1-1.967-.4,3.238,3.238,0,0,1-1.345-1.1,2.594,2.594,0,0,1-.481-1.5h1.959a1.421,1.421,0,0,0,.54,1.1,2.1,2.1,0,0,0,1.32.386,2.04,2.04,0,0,0,1.212-.3A.938.938,0,0,0,143.294,13.56Zm6.267-8.724V7.019h1.585V8.513h-1.585v5.014a1.1,1.1,0,0,0,.2.743.943.943,0,0,0,.726.228,3.107,3.107,0,0,0,.706-.083v1.561a4.968,4.968,0,0,1-1.328.191q-2.324,0-2.324-2.565V8.513h-1.478V7.019h1.478V4.835ZM158.053,16a3.113,3.113,0,0,1-.232-.838,3.393,3.393,0,0,1-4.565.232,2.47,2.47,0,0,1-.855-1.909,2.55,2.55,0,0,1,1.067-2.2,5.169,5.169,0,0,1,3.051-.768h1.237V9.924a1.573,1.573,0,0,0-.39-1.116,1.547,1.547,0,0,0-1.187-.419,1.777,1.777,0,0,0-1.129.344,1.066,1.066,0,0,0-.44.876h-2.017a2.239,2.239,0,0,1,.49-1.382,3.263,3.263,0,0,1,1.332-1.009,4.68,4.68,0,0,1,1.88-.365,3.769,3.769,0,0,1,2.515.793,2.827,2.827,0,0,1,.963,2.229v4.051a4.591,4.591,0,0,0,.34,1.934V16Zm-2.216-1.453a2.294,2.294,0,0,0,1.125-.291,1.941,1.941,0,0,0,.793-.78V11.783h-1.087a2.973,2.973,0,0,0-1.685.39,1.264,1.264,0,0,0-.564,1.1,1.179,1.179,0,0,0,.386.926A1.5,1.5,0,0,0,155.836,14.547ZM164.029,16h-2.017V3.25h2.017Zm6.084-4.781a12.489,12.489,0,0,1-.506,3.557,10.078,10.078,0,0,1-1.536,3.121,6.014,6.014,0,0,1-2.15,1.947l-.4-1.121a6.379,6.379,0,0,0,1.971-2.943,13.071,13.071,0,0,0,.726-4.52v-.191a13.264,13.264,0,0,0-.631-4.2,7.416,7.416,0,0,0-1.81-3.042l-.257-.232.4-1.129a5.951,5.951,0,0,1,2.059,1.826,9.909,9.909,0,0,1,1.527,2.934,12.222,12.222,0,0,1,.6,3.349Z" transform="translate(357 5767.002)" fill="#12263f"/>
      <path id="Trazado_627941" data-name="Trazado 627941" d="M59.28,14.323h6.458V16h-9V14.639l6.25-9.031H56.781V3.914h8.757V5.242Zm7.512-2.9a5.3,5.3,0,0,1,.523-2.378,3.819,3.819,0,0,1,1.469-1.627,4.14,4.14,0,0,1,2.175-.569,3.923,3.923,0,0,1,2.951,1.17,4.6,4.6,0,0,1,1.224,3.1l.008.473a5.343,5.343,0,0,1-.51,2.374,3.773,3.773,0,0,1-1.461,1.619,4.17,4.17,0,0,1-2.2.573A3.9,3.9,0,0,1,67.934,14.9a4.848,4.848,0,0,1-1.141-3.374Zm2.017.174a3.619,3.619,0,0,0,.573,2.171,1.862,1.862,0,0,0,1.594.784,1.842,1.842,0,0,0,1.59-.8,4,4,0,0,0,.569-2.333,3.572,3.572,0,0,0-.585-2.158,1.973,1.973,0,0,0-3.158-.012A3.922,3.922,0,0,0,68.809,11.6ZM78.72,7.019l.058,1.038a3.229,3.229,0,0,1,2.615-1.2q2.806,0,2.855,3.212V16H82.232V10.181a1.85,1.85,0,0,0-.369-1.266A1.554,1.554,0,0,0,80.655,8.5a1.944,1.944,0,0,0-1.818,1.1V16H76.82V7.019ZM91.67,16a3.113,3.113,0,0,1-.232-.838,3.393,3.393,0,0,1-4.565.232,2.47,2.47,0,0,1-.855-1.909,2.55,2.55,0,0,1,1.067-2.2,5.169,5.169,0,0,1,3.051-.768h1.237V9.924a1.573,1.573,0,0,0-.39-1.116,1.547,1.547,0,0,0-1.187-.419,1.777,1.777,0,0,0-1.129.344,1.066,1.066,0,0,0-.44.876H86.208a2.239,2.239,0,0,1,.49-1.382A3.263,3.263,0,0,1,88.03,7.218a4.68,4.68,0,0,1,1.88-.365,3.769,3.769,0,0,1,2.515.793,2.827,2.827,0,0,1,.963,2.229v4.051a4.591,4.591,0,0,0,.34,1.934V16Zm-2.216-1.453a2.294,2.294,0,0,0,1.125-.291,1.941,1.941,0,0,0,.793-.78V11.783H90.283a2.973,2.973,0,0,0-1.685.39,1.264,1.264,0,0,0-.564,1.1,1.179,1.179,0,0,0,.386.926A1.5,1.5,0,0,0,89.453,14.547ZM107.615,11.6a5.4,5.4,0,0,1-.934,3.329,3.042,3.042,0,0,1-2.569,1.237,2.93,2.93,0,0,1-2.457-1.137l-.1.971H99.73V3.25h2.017V7.882A2.92,2.92,0,0,1,104.1,6.853a3.077,3.077,0,0,1,2.582,1.22,5.484,5.484,0,0,1,.938,3.412Zm-2.017-.174a3.813,3.813,0,0,0-.515-2.191,1.714,1.714,0,0,0-1.494-.73,1.873,1.873,0,0,0-1.843,1.146v3.7a1.892,1.892,0,0,0,1.859,1.17,1.7,1.7,0,0,0,1.461-.706,3.7,3.7,0,0,0,.531-2.133ZM114.671,16a3.113,3.113,0,0,1-.232-.838,3.393,3.393,0,0,1-4.565.232,2.47,2.47,0,0,1-.855-1.909,2.55,2.55,0,0,1,1.067-2.2,5.169,5.169,0,0,1,3.051-.768h1.237V9.924a1.573,1.573,0,0,0-.39-1.116,1.547,1.547,0,0,0-1.187-.419,1.777,1.777,0,0,0-1.129.344,1.066,1.066,0,0,0-.44.876h-2.017a2.239,2.239,0,0,1,.49-1.382,3.263,3.263,0,0,1,1.332-1.009,4.68,4.68,0,0,1,1.88-.365,3.769,3.769,0,0,1,2.515.793,2.827,2.827,0,0,1,.963,2.229v4.051a4.591,4.591,0,0,0,.34,1.934V16Zm-2.216-1.453a2.294,2.294,0,0,0,1.125-.291,1.941,1.941,0,0,0,.793-.78V11.783h-1.087a2.973,2.973,0,0,0-1.685.39,1.264,1.264,0,0,0-.564,1.1,1.179,1.179,0,0,0,.386.926A1.5,1.5,0,0,0,112.455,14.547Zm8.151-7.529V16.8a2.955,2.955,0,0,1-.685,2.1,2.625,2.625,0,0,1-2,.726,4.031,4.031,0,0,1-1.071-.141V17.893a3.108,3.108,0,0,0,.714.075q1,0,1.029-1.1V7.019Zm-2.191-2.333a1.071,1.071,0,0,1,.295-.772,1.113,1.113,0,0,1,.843-.307,1.127,1.127,0,0,1,.847.307,1.062,1.062,0,0,1,.3.772,1.038,1.038,0,0,1-.3.76,1.136,1.136,0,0,1-.847.3,1.122,1.122,0,0,1-.843-.3A1.046,1.046,0,0,1,118.415,4.686ZM128.127,16a3.113,3.113,0,0,1-.232-.838,3.393,3.393,0,0,1-4.565.232,2.47,2.47,0,0,1-.855-1.909,2.55,2.55,0,0,1,1.067-2.2,5.169,5.169,0,0,1,3.051-.768h1.237V9.924a1.573,1.573,0,0,0-.39-1.116,1.547,1.547,0,0,0-1.187-.419,1.777,1.777,0,0,0-1.129.344,1.066,1.066,0,0,0-.44.876h-2.017a2.239,2.239,0,0,1,.49-1.382,3.263,3.263,0,0,1,1.332-1.009,4.68,4.68,0,0,1,1.88-.365,3.769,3.769,0,0,1,2.515.793,2.827,2.827,0,0,1,.963,2.229v4.051a4.591,4.591,0,0,0,.34,1.934V16Zm-2.216-1.453a2.294,2.294,0,0,0,1.125-.291,1.941,1.941,0,0,0,.793-.78V11.783H126.74a2.973,2.973,0,0,0-1.685.39,1.264,1.264,0,0,0-.564,1.1,1.179,1.179,0,0,0,.386.926A1.5,1.5,0,0,0,125.91,14.547ZM35.7,33.086a12.649,12.649,0,0,1,.515-3.64,9.991,9.991,0,0,1,1.511-3.08,6,6,0,0,1,2.108-1.905l.4,1.179a6.162,6.162,0,0,0-1.9,2.71,12.138,12.138,0,0,0-.793,4.171l-.008.714a13.2,13.2,0,0,0,.71,4.487,6.613,6.613,0,0,0,1.988,3l-.4,1.121a6.009,6.009,0,0,1-2.113-1.913,9.989,9.989,0,0,1-1.511-3.08A13.148,13.148,0,0,1,35.7,33.086Zm5.52.357a5.34,5.34,0,0,1,.963-3.333,3.085,3.085,0,0,1,2.582-1.258,2.931,2.931,0,0,1,2.308,1v-4.6h2.017V38H47.265l-.1-.93a2.973,2.973,0,0,1-2.416,1.1A3.068,3.068,0,0,1,42.2,36.9,5.535,5.535,0,0,1,41.222,33.443Zm2.017.174a3.739,3.739,0,0,0,.527,2.137,1.71,1.71,0,0,0,1.5.768,1.9,1.9,0,0,0,1.81-1.1V31.583A1.876,1.876,0,0,0,45.281,30.5a1.723,1.723,0,0,0-1.511.776A4.163,4.163,0,0,0,43.239,33.617ZM53.341,38H51.324V29.019h2.017ZM51.2,26.686a1.07,1.07,0,0,1,.295-.772,1.113,1.113,0,0,1,.843-.307,1.127,1.127,0,0,1,.847.307,1.062,1.062,0,0,1,.3.772,1.038,1.038,0,0,1-.3.76,1.136,1.136,0,0,1-.847.3,1.122,1.122,0,0,1-.843-.3A1.046,1.046,0,0,1,51.2,26.686ZM60.9,38a3.113,3.113,0,0,1-.232-.838,3.393,3.393,0,0,1-4.565.232,2.47,2.47,0,0,1-.855-1.909,2.55,2.55,0,0,1,1.067-2.2,5.169,5.169,0,0,1,3.051-.768H60.6v-.589a1.573,1.573,0,0,0-.39-1.116,1.547,1.547,0,0,0-1.187-.419,1.777,1.777,0,0,0-1.129.344,1.066,1.066,0,0,0-.44.876H55.441a2.239,2.239,0,0,1,.49-1.382,3.263,3.263,0,0,1,1.332-1.009,4.68,4.68,0,0,1,1.88-.365,3.769,3.769,0,0,1,2.515.793,2.827,2.827,0,0,1,.963,2.229v4.051a4.591,4.591,0,0,0,.34,1.934V38Zm-2.216-1.453a2.294,2.294,0,0,0,1.125-.291,1.941,1.941,0,0,0,.793-.78V33.783H59.517a2.973,2.973,0,0,0-1.685.39,1.264,1.264,0,0,0-.564,1.1,1.179,1.179,0,0,0,.386.926A1.5,1.5,0,0,0,58.687,36.547ZM65.443,38V30.513h-1.37V29.019h1.37V28.2a3.085,3.085,0,0,1,.83-2.308,3.18,3.18,0,0,1,2.324-.813,4.662,4.662,0,0,1,1.129.149l-.05,1.577a3.973,3.973,0,0,0-.772-.066,1.3,1.3,0,0,0-1.444,1.486v.8h1.826v1.494H67.46V38Zm10.019-7.139a4.991,4.991,0,0,0-.822-.066,1.85,1.85,0,0,0-1.868,1.063V38H70.756V29.019h1.926l.05,1a2.273,2.273,0,0,1,2.025-1.17,1.888,1.888,0,0,1,.714.116ZM81.854,38a3.113,3.113,0,0,1-.232-.838,3.393,3.393,0,0,1-4.565.232,2.47,2.47,0,0,1-.855-1.909,2.55,2.55,0,0,1,1.067-2.2,5.169,5.169,0,0,1,3.051-.768h1.237v-.589a1.573,1.573,0,0,0-.39-1.116,1.547,1.547,0,0,0-1.187-.419,1.777,1.777,0,0,0-1.129.344,1.066,1.066,0,0,0-.44.876H76.392a2.239,2.239,0,0,1,.49-1.382,3.263,3.263,0,0,1,1.332-1.009,4.68,4.68,0,0,1,1.88-.365,3.769,3.769,0,0,1,2.515.793,2.827,2.827,0,0,1,.963,2.229v4.051a4.591,4.591,0,0,0,.34,1.934V38Zm-2.216-1.453a2.294,2.294,0,0,0,1.125-.291,1.941,1.941,0,0,0,.793-.78V33.783H80.468a2.973,2.973,0,0,0-1.685.39,1.264,1.264,0,0,0-.564,1.1,1.179,1.179,0,0,0,.386.926A1.5,1.5,0,0,0,79.638,36.547Zm5.694-3.1a5.253,5.253,0,0,1,.984-3.341,3.157,3.157,0,0,1,2.611-1.249,2.958,2.958,0,0,1,2.416,1.071l.091-.9h1.818v8.708a3.619,3.619,0,0,1-1.1,2.789,4.189,4.189,0,0,1-2.968,1.021,4.783,4.783,0,0,1-1.93-.411,3.429,3.429,0,0,1-1.432-1.075l.955-1.212a2.883,2.883,0,0,0,2.291,1.1,2.228,2.228,0,0,0,1.585-.544,2.084,2.084,0,0,0,.581-1.6v-.606a2.97,2.97,0,0,1-2.324.971,3.15,3.15,0,0,1-2.577-1.253A5.423,5.423,0,0,1,85.332,33.443Zm2.009.174a3.616,3.616,0,0,0,.552,2.129,1.775,1.775,0,0,0,1.531.776,1.941,1.941,0,0,0,1.81-1.046V31.525A1.913,1.913,0,0,0,89.441,30.5a1.782,1.782,0,0,0-1.548.789A4.049,4.049,0,0,0,87.341,33.617Zm9.878-4.6.058.938a3.232,3.232,0,0,1,2.59-1.1,2.483,2.483,0,0,1,2.465,1.378,3.186,3.186,0,0,1,2.756-1.378,2.8,2.8,0,0,1,2.212.822,3.618,3.618,0,0,1,.743,2.424V38h-2.017V32.156a1.786,1.786,0,0,0-.374-1.253,1.635,1.635,0,0,0-1.237-.4,1.679,1.679,0,0,0-1.125.369,1.948,1.948,0,0,0-.61.967L102.689,38h-2.017V32.09A1.439,1.439,0,0,0,99.053,30.5a1.776,1.776,0,0,0-1.718.988V38H95.318V29.019ZM115.48,38a3.113,3.113,0,0,1-.232-.838,3.393,3.393,0,0,1-4.565.232,2.47,2.47,0,0,1-.855-1.909,2.55,2.55,0,0,1,1.067-2.2,5.169,5.169,0,0,1,3.051-.768h1.237v-.589a1.573,1.573,0,0,0-.39-1.116,1.547,1.547,0,0,0-1.187-.419,1.777,1.777,0,0,0-1.129.344,1.066,1.066,0,0,0-.44.876h-2.017a2.239,2.239,0,0,1,.49-1.382,3.263,3.263,0,0,1,1.332-1.009,4.68,4.68,0,0,1,1.88-.365,3.769,3.769,0,0,1,2.515.793,2.827,2.827,0,0,1,.963,2.229v4.051a4.591,4.591,0,0,0,.34,1.934V38Zm-2.216-1.453a2.294,2.294,0,0,0,1.125-.291,1.941,1.941,0,0,0,.793-.78V33.783h-1.087a2.973,2.973,0,0,0-1.685.39,1.264,1.264,0,0,0-.564,1.1,1.179,1.179,0,0,0,.386.926A1.5,1.5,0,0,0,113.264,36.547Zm1.121-11.3h2.3l-2.3,2.515-1.619,0Zm7.454,1.585v2.183h1.585v1.494h-1.585v5.014a1.1,1.1,0,0,0,.2.743.943.943,0,0,0,.726.228,3.107,3.107,0,0,0,.706-.083v1.561a4.968,4.968,0,0,1-1.328.191q-2.324,0-2.324-2.565V30.513h-1.478V29.019h1.478V26.835ZM127.11,38h-2.017V29.019h2.017Zm-2.142-11.314a1.071,1.071,0,0,1,.295-.772,1.113,1.113,0,0,1,.843-.307,1.127,1.127,0,0,1,.847.307,1.062,1.062,0,0,1,.3.772,1.038,1.038,0,0,1-.3.76,1.136,1.136,0,0,1-.847.3,1.122,1.122,0,0,1-.843-.3A1.046,1.046,0,0,1,124.968,26.686ZM133,36.556a1.824,1.824,0,0,0,1.253-.44,1.5,1.5,0,0,0,.531-1.087h1.9a2.963,2.963,0,0,1-.523,1.565,3.43,3.43,0,0,1-1.328,1.15,3.958,3.958,0,0,1-1.81.423,3.829,3.829,0,0,1-2.988-1.22,4.84,4.84,0,0,1-1.1-3.37v-.208a4.759,4.759,0,0,1,1.1-3.283,3.8,3.8,0,0,1,2.988-1.233,3.69,3.69,0,0,1,2.611.934,3.345,3.345,0,0,1,1.058,2.453h-1.9a1.847,1.847,0,0,0-.527-1.27,1.7,1.7,0,0,0-1.258-.5,1.775,1.775,0,0,0-1.511.71,3.621,3.621,0,0,0-.54,2.154v.324a3.682,3.682,0,0,0,.527,2.179A1.773,1.773,0,0,0,133,36.556ZM143.57,38a3.113,3.113,0,0,1-.232-.838,3.393,3.393,0,0,1-4.565.232,2.47,2.47,0,0,1-.855-1.909,2.55,2.55,0,0,1,1.067-2.2,5.169,5.169,0,0,1,3.051-.768h1.237v-.589a1.573,1.573,0,0,0-.39-1.116,1.547,1.547,0,0,0-1.187-.419,1.777,1.777,0,0,0-1.129.344,1.066,1.066,0,0,0-.44.876h-2.017a2.239,2.239,0,0,1,.49-1.382,3.263,3.263,0,0,1,1.332-1.009,4.68,4.68,0,0,1,1.88-.365,3.769,3.769,0,0,1,2.515.793,2.827,2.827,0,0,1,.963,2.229v4.051a4.591,4.591,0,0,0,.34,1.934V38Zm-2.216-1.453a2.294,2.294,0,0,0,1.125-.291,1.941,1.941,0,0,0,.793-.78V33.783h-1.087a2.973,2.973,0,0,0-1.685.39,1.264,1.264,0,0,0-.564,1.1,1.179,1.179,0,0,0,.386.926A1.5,1.5,0,0,0,141.354,36.547Zm9.936-3.329a12.489,12.489,0,0,1-.506,3.557,10.078,10.078,0,0,1-1.536,3.121,6.014,6.014,0,0,1-2.15,1.947l-.4-1.121a6.379,6.379,0,0,0,1.971-2.943,13.071,13.071,0,0,0,.726-4.52v-.191a13.264,13.264,0,0,0-.631-4.2,7.416,7.416,0,0,0-1.81-3.042l-.257-.232.4-1.129a5.951,5.951,0,0,1,2.059,1.826,9.909,9.909,0,0,1,1.527,2.934,12.222,12.222,0,0,1,.6,3.349Z" transform="translate(1053 5972.135)" fill="#12263f"/>
      <path id="Trazado_627942" data-name="Trazado 627942" d="M25.617,16V3.914h3.569a5.6,5.6,0,0,1,2.843.714,4.868,4.868,0,0,1,1.922,2.025,6.429,6.429,0,0,1,.681,3v.606a6.4,6.4,0,0,1-.685,3.021A4.809,4.809,0,0,1,32,15.294,5.858,5.858,0,0,1,29.1,16Zm2.1-10.393v8.716h1.37a3.154,3.154,0,0,0,2.536-1.033,4.5,4.5,0,0,0,.9-2.968V9.65a4.619,4.619,0,0,0-.855-3,3.031,3.031,0,0,0-2.482-1.038ZM38.674,16H36.657V7.019h2.017ZM36.533,4.686a1.071,1.071,0,0,1,.295-.772,1.113,1.113,0,0,1,.843-.307,1.127,1.127,0,0,1,.847.307,1.062,1.062,0,0,1,.3.772,1.038,1.038,0,0,1-.3.76,1.136,1.136,0,0,1-.847.3,1.122,1.122,0,0,1-.843-.3A1.046,1.046,0,0,1,36.533,4.686ZM46.236,16A3.113,3.113,0,0,1,46,15.162a3.393,3.393,0,0,1-4.565.232,2.47,2.47,0,0,1-.855-1.909,2.55,2.55,0,0,1,1.067-2.2,5.169,5.169,0,0,1,3.051-.768h1.237V9.924a1.573,1.573,0,0,0-.39-1.116,1.547,1.547,0,0,0-1.187-.419,1.777,1.777,0,0,0-1.129.344,1.066,1.066,0,0,0-.44.876H40.774a2.239,2.239,0,0,1,.49-1.382A3.263,3.263,0,0,1,42.6,7.218a4.68,4.68,0,0,1,1.88-.365,3.769,3.769,0,0,1,2.515.793,2.827,2.827,0,0,1,.963,2.229v4.051a4.591,4.591,0,0,0,.34,1.934V16ZM44.02,14.547a2.294,2.294,0,0,0,1.125-.291,1.941,1.941,0,0,0,.793-.78V11.783H44.85a2.973,2.973,0,0,0-1.685.39,1.264,1.264,0,0,0-.564,1.1,1.179,1.179,0,0,0,.386.926A1.5,1.5,0,0,0,44.02,14.547ZM50.777,16V8.513h-1.37V7.019h1.37V6.2a3.085,3.085,0,0,1,.83-2.308,3.18,3.18,0,0,1,2.324-.813,4.662,4.662,0,0,1,1.129.149L55.01,4.8a3.973,3.973,0,0,0-.772-.066,1.3,1.3,0,0,0-1.444,1.486v.8H54.62V8.513H52.794V16ZM60.8,8.861a4.991,4.991,0,0,0-.822-.066,1.85,1.85,0,0,0-1.868,1.063V16H56.089V7.019h1.926l.05,1a2.273,2.273,0,0,1,2.025-1.17,1.888,1.888,0,0,1,.714.116ZM67.188,16a3.113,3.113,0,0,1-.232-.838,3.393,3.393,0,0,1-4.565.232,2.47,2.47,0,0,1-.855-1.909,2.55,2.55,0,0,1,1.067-2.2,5.169,5.169,0,0,1,3.051-.768h1.237V9.924a1.573,1.573,0,0,0-.39-1.116,1.547,1.547,0,0,0-1.187-.419,1.777,1.777,0,0,0-1.129.344,1.066,1.066,0,0,0-.44.876H61.726a2.239,2.239,0,0,1,.49-1.382,3.263,3.263,0,0,1,1.332-1.009,4.68,4.68,0,0,1,1.88-.365,3.769,3.769,0,0,1,2.515.793,2.827,2.827,0,0,1,.963,2.229v4.051a4.591,4.591,0,0,0,.34,1.934V16Zm-2.216-1.453a2.294,2.294,0,0,0,1.125-.291,1.941,1.941,0,0,0,.793-.78V11.783H65.8a2.973,2.973,0,0,0-1.685.39,1.264,1.264,0,0,0-.564,1.1,1.179,1.179,0,0,0,.386.926A1.5,1.5,0,0,0,64.971,14.547Zm5.694-3.1A5.253,5.253,0,0,1,71.649,8.1,3.157,3.157,0,0,1,74.26,6.853a2.958,2.958,0,0,1,2.416,1.071l.091-.9h1.818v8.708a3.619,3.619,0,0,1-1.1,2.789,4.189,4.189,0,0,1-2.968,1.021,4.783,4.783,0,0,1-1.93-.411,3.429,3.429,0,0,1-1.432-1.075l.955-1.212a2.883,2.883,0,0,0,2.291,1.1,2.228,2.228,0,0,0,1.585-.544,2.084,2.084,0,0,0,.581-1.6v-.606a2.97,2.97,0,0,1-2.324.971,3.15,3.15,0,0,1-2.577-1.253A5.423,5.423,0,0,1,70.666,11.443Zm2.009.174a3.616,3.616,0,0,0,.552,2.129,1.775,1.775,0,0,0,1.531.776,1.941,1.941,0,0,0,1.81-1.046V9.525A1.913,1.913,0,0,0,74.774,8.5a1.782,1.782,0,0,0-1.548.789A4.049,4.049,0,0,0,72.674,11.617Zm9.878-4.6.058.938a3.232,3.232,0,0,1,2.59-1.1A2.483,2.483,0,0,1,87.666,8.23a3.186,3.186,0,0,1,2.756-1.378,2.8,2.8,0,0,1,2.212.822,3.618,3.618,0,0,1,.743,2.424V16H91.359V10.156A1.786,1.786,0,0,0,90.986,8.9a1.635,1.635,0,0,0-1.237-.4,1.679,1.679,0,0,0-1.125.369,1.948,1.948,0,0,0-.61.967L88.022,16H86.005V10.09A1.439,1.439,0,0,0,84.387,8.5a1.776,1.776,0,0,0-1.718.988V16H80.651V7.019ZM100.814,16a3.113,3.113,0,0,1-.232-.838,3.393,3.393,0,0,1-4.565.232,2.47,2.47,0,0,1-.855-1.909,2.55,2.55,0,0,1,1.067-2.2,5.169,5.169,0,0,1,3.051-.768h1.237V9.924a1.573,1.573,0,0,0-.39-1.116,1.547,1.547,0,0,0-1.187-.419,1.777,1.777,0,0,0-1.129.344,1.066,1.066,0,0,0-.44.876H95.352a2.239,2.239,0,0,1,.49-1.382,3.263,3.263,0,0,1,1.332-1.009,4.68,4.68,0,0,1,1.88-.365,3.769,3.769,0,0,1,2.515.793,2.827,2.827,0,0,1,.963,2.229v4.051a4.591,4.591,0,0,0,.34,1.934V16ZM98.6,14.547a2.294,2.294,0,0,0,1.125-.291,1.941,1.941,0,0,0,.793-.78V11.783H99.428a2.973,2.973,0,0,0-1.685.39,1.264,1.264,0,0,0-.564,1.1,1.179,1.179,0,0,0,.386.926A1.5,1.5,0,0,0,98.6,14.547Z" transform="translate(735.668 5966.135)" fill="#12263f"/>
      <rect id="Rectángulo_347092" data-name="Rectángulo 347092" width="55" height="4" transform="translate(1119 5701.5)" fill="#1c534a"/>
    </g>
    <g id="Grupo_1074442" data-name="Grupo 1074442" transform="translate(1209.668 644.249)">
      <path id="Trazado_611008" data-name="Trazado 611008" d="M26.574,66.918,70.111,22.3,0,5.99Z" transform="translate(0 -2.146)" fill="#474747"/>
      <path id="Trazado_611009" data-name="Trazado 611009" d="M32.515,57.284,79.233,13.229,7.771,0Z" transform="translate(-2.786 0)" fill="#79cbbf"/>
    </g>
    <path id="Trazado_611227" data-name="Trazado 611227" d="M89.516,42.124,6.741,2.789l-1.9,50.565Z" transform="translate(321.641 480.711)" fill="none" stroke="#fd3cae" stroke-miterlimit="10" stroke-width="4"/>
    <g id="Grupo_1074443" data-name="Grupo 1074443" transform="translate(474.668 767.769)">
      <path id="Trazado_610799" data-name="Trazado 610799" d="M0,4.866,14.425,30.5,34.206,14.9,46.554,36.854l19.789-15.6L78.717,43.208,101.828,25l-4.473-5.677L80.871,32.308,68.5,10.347l-19.784,15.6L36.364,3.993,16.582,19.6,6.3,1.323Z" transform="translate(0 -0.367)" fill="#474747"/>
      <path id="Trazado_610800" data-name="Trazado 610800" d="M16.685,0l-6.3,3.544L24.81,29.181l19.782-15.6L56.94,35.532,76.73,19.927,89.1,41.885l23.112-18.212L107.741,18,91.258,30.986,78.883,9.025,59.1,24.625,46.749,2.67l-19.782,15.6Z" transform="translate(-2.88 0)" fill="#fff4a9"/>
    </g>
  </g>
</svg>
