<svg xmlns="http://www.w3.org/2000/svg" xmlns:xlink="http://www.w3.org/1999/xlink" width="1410" height="555" viewBox="0 0 1410 555">
  <defs>
    <clipPath id="clip-path">
      <rect id="Rectángulo_377901" data-name="Rectángulo 377901" width="1410" height="555" rx="20" fill="#cbb1eb"/>
    </clipPath>
    <clipPath id="clip-path-2">
      <rect id="Rectángulo_378313" data-name="Rectángulo 378313" width="134.841" height="135.387" fill="none"/>
    </clipPath>
    <clipPath id="clip-path-3">
      <rect id="Rectángulo_378335" data-name="Rectángulo 378335" width="589.604" height="589.604" fill="none" stroke="#fff" stroke-width="1"/>
    </clipPath>
    <clipPath id="clip-path-4">
      <rect id="Rectángulo_378313-2" data-name="Rectángulo 378313" width="189.246" height="190.014" fill="none"/>
    </clipPath>
  </defs>
  <g id="Grupo_1073347" data-name="Grupo 1073347" transform="translate(1410 555) rotate(180)">
    <path id="Trazado_610212" data-name="Trazado 610212" d="M20,555H1390a20,20,0,0,0,20-20V20a20,20,0,0,0-20-20H20A20,20,0,0,0,0,20V535A20,20,0,0,0,20,555Z" transform="translate(1410 555) rotate(180)" fill="#f7e4e3"/>
    <g id="Grupo_154360" data-name="Grupo 154360" clip-path="url(#clip-path)">
      <path id="Trazado_610761" data-name="Trazado 610761" d="M0,0H737.706V1504.932H0Z" transform="translate(1454.46 -107.084) rotate(90)" fill="#cbb1eb"/>
      <g id="Grupo_1073466" data-name="Grupo 1073466" transform="translate(1537.46 625) rotate(180)">
        <path id="Trazado_610747" data-name="Trazado 610747" d="M1560.622,254.832v234.14a536.009,536.009,0,0,0-51.629,168.252H1387.613a404.385,404.385,0,0,1,48.966-105.531c11.523-17.6,24.688-34.833,29.792-55.249,5.125-20.395-.41-45.388-18.858-55.5-26.456-14.512-57.1,8.661-78.78,29.656a1912.95,1912.95,0,0,1-224.669,186.626H846.73c6-5.641,12.134-11.134,18.2-16.638a1205.437,1205.437,0,0,0,170.7-192.319c16.354-22.963,32.371-47.725,35.391-75.77s-11.208-59.911-38.275-67.793c-46.072-13.418-78.98,43.673-121.137,66.594C860.685,399,787.43,364,776.959,307c-6.735-36.654,8.945-73.129,17.974-109.277s8.787-80.506-20.479-103.563c-22.721-17.911-56.259-16.133-82.2-3.294s-46,34.781-65.425,56.238Q492.463,295.517,358.1,443.942c-30.992,34.244-67.162,71.013-113.308,72.771-63.984,2.452-110.235-65.983-115.549-129.788-7.5-90.177,38.98-176.544,96.4-246.495C283.032,70.48,352.6,10.695,405.022-63.055c21.058-29.624,39.232-70.214,19.121-100.49-16.469-24.8-52.534-29.508-80.474-19.258s-49.945,31.792-71.971,51.818A1010.057,1010.057,0,0,1-9.83,49.727V-68.2C9.628-80.966,28.613-94.257,47.113-107.222c54.113-37.917,106.047-78.906,158.665-118.928h500.6c-10.092,12.786-20.984,24.93-31.666,36.2Q555.089-63.791,435.467,62.376C420.06,78.625,404.264,95.494,396.5,116.5s-5.43,47.43,11.544,62.037c29.761,25.6,74.581-.463,104.373-26.035Q658.794,26.928,805.162-98.656c17.059-14.628,34.7-29.614,56.028-36.7s47.5-4.451,62.437,12.344c15.354,17.238,14.607,43.021,12.986,66.057Q927.047,79.119,917.46,215.19c49.261-22.194,97.48-46.62,146.784-68.719,57.848-25.941,203.474-69.54,146.268,54.565-14.417,31.276-30.087,63.215-31.666,97.617-1.557,34.433,15.291,72.424,47.861,83.663,36.338,12.544,74-11.344,106.583-31.739a773.487,773.487,0,0,1,227.289-95.744Z" transform="translate(9.83 226.171)" fill="#c7abe9"/>
        <path id="Trazado_610748" data-name="Trazado 610748" d="M1504.4-104.117V34.6C1435.934.814,1354.9-7.279,1281.289,13.211c-31.182,8.671-61.037,22.194-92.829,28.256s-67.362,3.546-92.5-16.838c-33.276-26.983-38.169-77.222-26.1-118.328s37.527-76.728,56.775-114.992c2.852-5.672,5.6-11.513,8.145-17.48h145.952a180.989,180.989,0,0,1-28.7,45.82c-13.565,15.712-30.9,31.781-30.329,52.523.568,20.279,19.374,36.222,39.137,40.769s40.358.474,60.342-2.989a981.192,981.192,0,0,1,155.087-14.333c9.345-.126,18.743-.095,28.14.242Z" transform="translate(66.051 226.17)" fill="#c7abe9"/>
        <path id="Trazado_610749" data-name="Trazado 610749" d="M630.413,623.131H496.005c12.744-27.751,43.494-52.229,32.76-80.211-8.408-21.91-38.138-27.225-60.553-20.247-47.7,14.859-73.6,63.352-108.088,100.459H192.83c.495-.347.979-.684,1.473-1.01q106.157-72.345,212.3-144.679c44-29.982,94.618-61.405,146.731-50.482,46.977,9.85,81.716,54.649,88.535,102.153,3.683,25.636-.358,62.184-11.45,94.018Z" transform="translate(20.442 260.254)" fill="#c7abe9"/>
      </g>
      <g id="Grupo_1073467" data-name="Grupo 1073467" transform="matrix(-0.978, 0.208, -0.208, -0.978, 1747.426, 729.604)">
        <path id="Trazado_610750" data-name="Trazado 610750" d="M1021.41,795.488l4.742-20.508s18.453,4.266,20.737,4.8c.04-.188.054-.235.054-.235l4.742-20.508s18.453,4.266,20.737,4.8c.04-.188.054-.235.054-.235l4.742-20.508s18.453,4.266,20.737,4.8c.04-.188.054-.235.054-.235l4.742-20.508s18.453,4.266,20.737,4.8c.04-.188.054-.235.054-.235l4.742-20.508s18.453,4.266,20.737,4.8c.04-.188.054-.235.054-.235l4.743-20.508s18.453,4.265,20.737,4.8c.04-.188.053-.235.053-.235l4.743-20.508s18.453,4.266,20.736,4.8c.04-.188.054-.235.054-.235l4.743-20.508s18.452,4.266,20.736,4.8c.04-.188.054-.235.054-.235l4.743-20.508s18.452,4.266,20.763,4.669a.987.987,0,0,1,.027-.107l4.743-20.508s18.453,4.265,20.736,4.8c.04-.188.054-.235.054-.235l4.743-20.508s18.453,4.266,20.736,4.8c.04-.188.054-.235.054-.235l4.743-20.508s18.453,4.266,20.737,4.8c.04-.188.054-.235.054-.235l4.743-20.508s18.452,4.266,20.763,4.669a.979.979,0,0,1,.027-.107l4.742-20.508s18.452,4.266,20.763,4.669a.97.97,0,0,1,.027-.107l4.742-20.508,20.737,4.8.054-.235,4.743-20.508s18.453,4.266,20.737,4.8c.04-.188.054-.235.054-.235l4.743-20.508s18.453,4.266,20.736,4.8c.04-.188.054-.235.054-.235l4.743-20.508s18.453,4.265,20.736,4.8c.04-.188.054-.235.054-.235l4.743-20.508s18.453,4.266,20.763,4.669a1.032,1.032,0,0,1,.027-.108l4.743-20.508s18.453,4.266,20.737,4.8c.04-.188.054-.235.054-.235l4.743-20.508,20.972,4.85" transform="translate(-920.791 -294.904)" fill="none" stroke="#fff4a9" stroke-miterlimit="10" stroke-width="2.5"/>
        <path id="Trazado_610751" data-name="Trazado 610751" d="M1006.43,771.5l4.743-20.508s18.453,4.266,20.736,4.8c.04-.188.054-.235.054-.235l4.742-20.508s18.453,4.266,20.737,4.8c.04-.188.054-.235.054-.235l4.743-20.508s18.453,4.265,20.736,4.8c.04-.188.054-.235.054-.235l4.742-20.508s18.453,4.266,20.736,4.8c.04-.188.054-.235.054-.235L1113.3,687.2s18.453,4.266,20.737,4.8c.04-.188.054-.235.054-.235l4.743-20.508s18.453,4.266,20.737,4.8c.04-.188.054-.235.054-.235l4.742-20.508s18.453,4.266,20.737,4.8c.04-.188.054-.235.054-.235l4.743-20.508s18.453,4.266,20.736,4.8c.041-.188.054-.235.054-.235l4.743-20.508s18.453,4.266,20.763,4.669a.951.951,0,0,1,.027-.107l4.743-20.508s18.453,4.266,20.737,4.8c.04-.188.054-.235.054-.235l4.743-20.508s18.453,4.266,20.737,4.8c.04-.188.054-.235.054-.235l4.743-20.508s18.452,4.266,20.736,4.8c.04-.188.054-.235.054-.235l4.743-20.508s18.452,4.266,20.763,4.669a.987.987,0,0,1,.027-.107l4.743-20.508s18.453,4.266,20.763,4.669a1.008,1.008,0,0,1,.027-.107l4.743-20.508,20.736,4.8.054-.235,4.742-20.508s18.453,4.266,20.737,4.8c.04-.188.054-.235.054-.235l4.743-20.508s18.453,4.266,20.736,4.8c.04-.188.054-.235.054-.235l4.743-20.508s18.453,4.266,20.736,4.8c.04-.188.054-.235.054-.235l4.743-20.508s18.453,4.266,20.763,4.669a1.025,1.025,0,0,1,.027-.107L1496.294,448s18.453,4.266,20.737,4.8c.04-.188.054-.235.054-.235l4.743-20.508,20.972,4.85" transform="translate(-915.873 -287.029)" fill="none" stroke="#fff4a9" stroke-miterlimit="10" stroke-width="2.5"/>
        <path id="Trazado_610752" data-name="Trazado 610752" d="M991.45,747.508,996.193,727s18.453,4.266,20.736,4.8c.04-.188.054-.235.054-.235l4.742-20.508s18.453,4.266,20.737,4.8c.04-.188.054-.235.054-.235l4.743-20.508s18.452,4.266,20.736,4.8c.04-.188.054-.235.054-.235l4.742-20.508s18.453,4.266,20.736,4.8c.04-.188.054-.235.054-.235l4.743-20.508s18.453,4.266,20.736,4.8c.04-.188.054-.235.054-.235l4.742-20.508s18.453,4.266,20.737,4.8c.04-.188.054-.235.054-.235l4.743-20.508s18.453,4.266,20.736,4.8c.04-.188.054-.235.054-.235l4.742-20.508s18.453,4.266,20.736,4.8c.04-.188.054-.235.054-.235l4.742-20.508s18.453,4.266,20.763,4.669a.987.987,0,0,1,.027-.107l4.742-20.508s18.453,4.266,20.737,4.8c.04-.188.054-.235.054-.235l4.742-20.508s18.453,4.265,20.737,4.8c.04-.188.054-.235.054-.235l4.743-20.508s18.453,4.266,20.736,4.8c.04-.188.054-.235.054-.235l4.742-20.508s18.453,4.265,20.763,4.669a.986.986,0,0,1,.027-.107l4.743-20.508s18.453,4.266,20.763,4.669a1,1,0,0,1,.027-.107l4.742-20.508,20.737,4.8.054-.235,4.743-20.508s18.453,4.266,20.736,4.8c.04-.188.054-.235.054-.235l4.742-20.508s18.453,4.266,20.737,4.8c.04-.188.054-.235.054-.235l4.742-20.508s18.453,4.266,20.737,4.8c.04-.188.054-.235.054-.235l4.743-20.508s18.453,4.266,20.763,4.669a1,1,0,0,1,.027-.107l4.742-20.508s18.453,4.266,20.737,4.8c.04-.188.054-.235.054-.235l4.743-20.508,20.972,4.85" transform="translate(-910.956 -279.154)" fill="none" stroke="#fff4a9" stroke-miterlimit="10" stroke-width="2.5"/>
        <path id="Trazado_610753" data-name="Trazado 610753" d="M976.47,723.528l4.742-20.508s18.453,4.265,20.737,4.8c.04-.188.054-.235.054-.235l4.742-20.508s18.453,4.266,20.737,4.8c.04-.188.054-.235.054-.235l4.742-20.508s18.453,4.265,20.736,4.8c.04-.188.054-.235.054-.235l4.742-20.508s18.453,4.266,20.737,4.8c.04-.188.054-.235.054-.235l4.743-20.508s18.453,4.265,20.736,4.8c.04-.188.054-.235.054-.235l4.742-20.508s18.453,4.266,20.736,4.8c.04-.188.054-.235.054-.235l4.743-20.508s18.452,4.266,20.736,4.8c.04-.188.054-.235.054-.235l4.742-20.508s18.453,4.266,20.737,4.8c.04-.188.054-.235.054-.235l4.743-20.508s18.453,4.266,20.763,4.669a.983.983,0,0,1,.027-.108l4.742-20.508s18.453,4.266,20.737,4.8c.04-.188.054-.235.054-.235l4.743-20.508s18.452,4.266,20.736,4.8c.04-.188.054-.235.054-.235l4.743-20.508s18.453,4.266,20.736,4.8c.04-.188.054-.235.054-.235l4.743-20.508s18.453,4.266,20.763,4.669a1.008,1.008,0,0,1,.027-.107l4.743-20.508s18.453,4.266,20.763,4.669a.97.97,0,0,1,.027-.107l4.742-20.508,20.737,4.8.054-.235,4.743-20.508s18.453,4.266,20.736,4.8c.04-.188.054-.235.054-.235l4.742-20.508s18.453,4.266,20.737,4.8c.04-.188.054-.235.054-.235l4.743-20.508s18.453,4.266,20.737,4.8c.04-.188.054-.235.054-.235l4.742-20.508s18.453,4.266,20.763,4.669a1,1,0,0,1,.027-.107l4.743-20.508s18.453,4.266,20.736,4.8c.04-.188.054-.235.054-.235l4.742-20.508,20.972,4.85" transform="translate(-906.038 -271.282)" fill="none" stroke="#fff4a9" stroke-miterlimit="10" stroke-width="2.5"/>
        <path id="Trazado_610754" data-name="Trazado 610754" d="M961.49,699.539l4.742-20.508s18.453,4.266,20.736,4.8c.04-.188.054-.235.054-.235l4.742-20.508s18.453,4.266,20.737,4.8c.04-.188.054-.235.054-.235l4.742-20.508s18.453,4.266,20.737,4.8c.04-.188.054-.235.054-.235l4.742-20.508s18.453,4.266,20.737,4.8c.04-.188.054-.235.054-.235l4.742-20.508s18.453,4.266,20.736,4.8c.04-.188.054-.235.054-.235L1093.9,599.3s18.453,4.266,20.736,4.8c.04-.188.054-.235.054-.235l4.743-20.508s18.453,4.266,20.736,4.8c.04-.188.054-.235.054-.235l4.742-20.508s18.453,4.266,20.737,4.8c.04-.188.054-.235.054-.235l4.742-20.508s18.453,4.266,20.763,4.669a.966.966,0,0,1,.027-.107l4.742-20.508s18.453,4.266,20.736,4.8c.04-.188.054-.235.054-.235l4.743-20.508s18.453,4.266,20.736,4.8c.04-.188.054-.235.054-.235l4.742-20.508s18.453,4.266,20.737,4.8c.04-.188.054-.235.054-.235l4.743-20.508s18.453,4.266,20.763,4.669a.965.965,0,0,1,.027-.107l4.742-20.508s18.453,4.266,20.763,4.669a.965.965,0,0,1,.027-.107l4.743-20.508,20.736,4.8.054-.235,4.742-20.508s18.453,4.266,20.737,4.8c.04-.188.054-.235.054-.235l4.743-20.508s18.453,4.266,20.736,4.8c.04-.188.054-.235.054-.235l4.742-20.508s18.453,4.266,20.737,4.8c.04-.188.054-.235.054-.235l4.743-20.508s18.452,4.266,20.763,4.669a.991.991,0,0,1,.027-.107l4.743-20.508s18.453,4.266,20.736,4.8c.04-.188.054-.235.054-.235l4.742-20.508,20.972,4.85" transform="translate(-901.121 -263.407)" fill="none" stroke="#fff4a9" stroke-miterlimit="10" stroke-width="2.5"/>
        <path id="Trazado_610755" data-name="Trazado 610755" d="M946.51,675.548l4.742-20.508s18.453,4.266,20.736,4.8c.04-.188.054-.235.054-.235l4.742-20.508s18.453,4.266,20.737,4.8c.04-.188.054-.235.054-.235l4.742-20.508s18.453,4.266,20.737,4.8c.04-.188.054-.235.054-.235l4.742-20.508s18.453,4.265,20.737,4.8c.04-.188.054-.235.054-.235l4.742-20.508s18.453,4.266,20.737,4.8c.04-.188.054-.235.054-.235l4.743-20.508s18.453,4.266,20.736,4.8c.041-.188.054-.235.054-.235l4.743-20.508s18.453,4.266,20.737,4.8c.04-.188.053-.235.053-.235l4.743-20.508s18.452,4.266,20.736,4.8c.041-.188.054-.235.054-.235l4.743-20.508s18.452,4.266,20.763,4.669a.987.987,0,0,1,.027-.107l4.743-20.508s18.452,4.265,20.736,4.8c.04-.188.054-.235.054-.235l4.743-20.508s18.453,4.266,20.736,4.8c.04-.188.054-.235.054-.235l4.743-20.508s18.453,4.266,20.737,4.8c.04-.188.054-.235.054-.235l4.743-20.508s18.453,4.266,20.763,4.669a.981.981,0,0,1,.027-.107l4.742-20.508s18.452,4.266,20.763,4.669a.951.951,0,0,1,.027-.108l4.742-20.508,20.736,4.8.054-.235,4.742-20.508s18.453,4.266,20.737,4.8c.04-.188.053-.235.053-.235l4.743-20.508s18.453,4.266,20.736,4.8c.041-.188.054-.235.054-.235l4.742-20.508s18.452,4.266,20.736,4.8c.04-.188.054-.235.054-.235l4.743-20.508s18.452,4.266,20.763,4.669a.986.986,0,0,1,.027-.107l4.742-20.508s18.453,4.266,20.737,4.8c.04-.188.053-.235.053-.235l4.743-20.508,20.971,4.85" transform="translate(-896.204 -255.532)" fill="none" stroke="#fff4a9" stroke-miterlimit="10" stroke-width="2.5"/>
        <path id="Trazado_610756" data-name="Trazado 610756" d="M931.54,651.558l4.742-20.508s18.453,4.265,20.737,4.8c.04-.188.054-.235.054-.235l4.742-20.508s18.453,4.266,20.737,4.8c.04-.188.054-.235.054-.235l4.742-20.508s18.453,4.266,20.736,4.8c.04-.188.054-.235.054-.235l4.742-20.508s18.453,4.266,20.737,4.8c.04-.188.054-.235.054-.235l4.743-20.508s18.453,4.266,20.736,4.8c.04-.188.054-.235.054-.235l4.742-20.508s18.453,4.266,20.737,4.8c.04-.188.054-.235.054-.235l4.742-20.508s18.453,4.265,20.737,4.8c.04-.188.054-.235.054-.235l4.742-20.508s18.453,4.266,20.737,4.8c.04-.188.054-.235.054-.235l4.742-20.508s18.453,4.266,20.763,4.669a.988.988,0,0,1,.027-.107l4.742-20.508s18.453,4.266,20.737,4.8c.04-.188.054-.235.054-.235l4.742-20.508s18.453,4.265,20.737,4.8c.04-.188.054-.235.054-.235l4.742-20.508s18.453,4.266,20.737,4.8c.04-.188.054-.235.054-.235l4.742-20.508s18.453,4.266,20.763,4.669a.988.988,0,0,1,.027-.108l4.742-20.508s18.453,4.266,20.763,4.669a.988.988,0,0,1,.027-.107l4.743-20.508,20.736,4.8.054-.235,4.742-20.508s18.453,4.266,20.737,4.8c.04-.188.054-.235.054-.235l4.742-20.508s18.453,4.266,20.737,4.8c.04-.188.054-.235.054-.235l4.743-20.508s18.453,4.266,20.736,4.8c.04-.188.054-.235.054-.235L1395.871,344s18.453,4.266,20.763,4.669a.954.954,0,0,1,.027-.107l4.743-20.508s18.453,4.266,20.736,4.8c.04-.188.054-.235.054-.235l4.742-20.508,20.972,4.85" transform="translate(-891.29 -247.657)" fill="none" stroke="#fff4a9" stroke-miterlimit="10" stroke-width="2.5"/>
        <path id="Trazado_610757" data-name="Trazado 610757" d="M916.56,627.578,921.3,607.07s18.453,4.266,20.736,4.8c.04-.188.054-.235.054-.235l4.742-20.508s18.453,4.266,20.736,4.8c.04-.188.054-.235.054-.235l4.742-20.508s18.453,4.266,20.737,4.8c.04-.188.054-.235.054-.235l4.743-20.508s18.452,4.266,20.736,4.8c.04-.188.054-.235.054-.235l4.742-20.508s18.453,4.266,20.736,4.8c.04-.188.054-.235.054-.235l4.743-20.508s18.453,4.265,20.736,4.8c.04-.188.054-.235.054-.235l4.742-20.508s18.453,4.266,20.737,4.8c.04-.188.054-.235.054-.235l4.742-20.508s18.453,4.265,20.737,4.8c.04-.188.054-.235.054-.235l4.742-20.508s18.453,4.266,20.763,4.669a.989.989,0,0,1,.027-.107l4.742-20.508s18.453,4.265,20.737,4.8c.04-.188.054-.235.054-.235l4.742-20.508s18.453,4.266,20.737,4.8c.04-.188.054-.235.054-.235l4.742-20.508s18.453,4.266,20.737,4.8c.04-.188.054-.235.054-.235l4.742-20.508s18.453,4.266,20.763,4.669a.988.988,0,0,1,.027-.107l4.742-20.508s18.453,4.266,20.763,4.669a.988.988,0,0,1,.027-.107l4.743-20.508,20.736,4.8.054-.235,4.742-20.508s18.453,4.266,20.737,4.8c.04-.188.054-.235.054-.235l4.743-20.508s18.453,4.266,20.736,4.8c.04-.188.054-.235.054-.235l4.742-20.508s18.453,4.266,20.736,4.8c.04-.188.054-.235.054-.235l4.743-20.508s18.453,4.266,20.763,4.669a1.025,1.025,0,0,1,.027-.107l4.743-20.508s18.453,4.266,20.736,4.8c.04-.188.054-.235.054-.235l4.743-20.508,20.972,4.85" transform="translate(-886.372 -239.785)" fill="none" stroke="#fff4a9" stroke-miterlimit="10" stroke-width="2.5"/>
        <path id="Trazado_610758" data-name="Trazado 610758" d="M901.58,603.588l4.742-20.508s18.453,4.266,20.736,4.8c.04-.188.054-.235.054-.235l4.742-20.508s18.453,4.266,20.736,4.8c.04-.188.054-.235.054-.235l4.742-20.508s18.453,4.266,20.737,4.8c.04-.188.054-.235.054-.235l4.743-20.508s18.453,4.266,20.736,4.8c.04-.188.054-.235.054-.235l4.742-20.508s18.453,4.266,20.737,4.8c.04-.188.054-.235.054-.235l4.743-20.508s18.453,4.266,20.736,4.8c.04-.188.054-.235.054-.235l4.742-20.508s18.453,4.266,20.737,4.8c.04-.188.054-.235.054-.235l4.743-20.508s18.453,4.266,20.736,4.8c.04-.188.054-.235.054-.235l4.743-20.508s18.453,4.266,20.763,4.669a1.023,1.023,0,0,1,.027-.107l4.743-20.508s18.453,4.266,20.737,4.8c.04-.188.054-.235.054-.235l4.743-20.508s18.453,4.266,20.736,4.8c.04-.188.054-.235.054-.235l4.743-20.508s18.453,4.266,20.736,4.8c.04-.188.054-.235.054-.235l4.743-20.508s18.453,4.266,20.763,4.669a.986.986,0,0,1,.027-.107l4.743-20.508s18.453,4.266,20.763,4.669a1.01,1.01,0,0,1,.027-.107l4.743-20.508,20.737,4.8.054-.235,4.742-20.508s18.453,4.266,20.737,4.8c.04-.188.054-.235.054-.235l4.743-20.508s18.453,4.266,20.736,4.8c.04-.188.054-.235.054-.235l4.742-20.508s18.453,4.266,20.736,4.8c.04-.188.054-.235.054-.235l4.743-20.508s18.453,4.266,20.763,4.669a1,1,0,0,1,.027-.107l4.742-20.508s18.453,4.266,20.737,4.8c.04-.188.054-.235.054-.235l4.743-20.508,20.972,4.85" transform="translate(-881.455 -231.91)" fill="none" stroke="#fff4a9" stroke-miterlimit="10" stroke-width="2.5"/>
        <path id="Trazado_610759" data-name="Trazado 610759" d="M886.6,579.6l4.742-20.508s18.453,4.266,20.736,4.8c.04-.188.054-.235.054-.235l4.742-20.508s18.453,4.265,20.737,4.8c.04-.188.054-.235.054-.235l4.742-20.508s18.453,4.266,20.737,4.8c.04-.188.054-.235.054-.235l4.742-20.508s18.453,4.266,20.737,4.8c.04-.188.054-.235.054-.235l4.743-20.508s18.453,4.266,20.736,4.8c.04-.188.054-.235.054-.235l4.742-20.508s18.453,4.265,20.737,4.8c.04-.188.054-.235.054-.235l4.743-20.508s18.453,4.266,20.736,4.8c.04-.188.054-.235.054-.235l4.743-20.508s18.453,4.265,20.736,4.8c.04-.188.054-.235.054-.235l4.742-20.508s18.453,4.266,20.763,4.669a.986.986,0,0,1,.027-.107l4.743-20.508s18.453,4.266,20.736,4.8c.04-.188.054-.235.054-.235l4.743-20.508s18.453,4.266,20.736,4.8c.04-.188.054-.235.054-.235l4.743-20.508s18.453,4.266,20.736,4.8c.04-.188.054-.235.054-.235l4.742-20.508s18.453,4.266,20.763,4.669a.988.988,0,0,1,.027-.107l4.743-20.508s18.453,4.266,20.763,4.669a.979.979,0,0,1,.027-.107l4.742-20.508,20.737,4.8.054-.235,4.743-20.508s18.452,4.266,20.736,4.8c.04-.188.054-.235.054-.235l4.743-20.508s18.453,4.266,20.736,4.8c.04-.188.054-.235.054-.235l4.743-20.508s18.453,4.266,20.736,4.8c.04-.188.054-.235.054-.235l4.742-20.508s18.453,4.266,20.763,4.669a.965.965,0,0,1,.027-.107l4.742-20.508s18.453,4.266,20.736,4.8c.04-.188.054-.235.054-.235L1402,240.15l20.972,4.85" transform="translate(-876.537 -224.035)" fill="none" stroke="#fff4a9" stroke-miterlimit="10" stroke-width="2.5"/>
        <path id="Trazado_610760" data-name="Trazado 610760" d="M871.62,555.608l4.742-20.508s18.453,4.266,20.737,4.8c.04-.188.054-.235.054-.235l4.742-20.508s18.453,4.266,20.736,4.8c.04-.188.054-.235.054-.235l4.742-20.508s18.453,4.266,20.736,4.8c.04-.188.054-.235.054-.235l4.742-20.508s18.453,4.266,20.736,4.8c.04-.188.054-.235.054-.235l4.742-20.508s18.453,4.266,20.736,4.8c.04-.188.054-.235.054-.235l4.742-20.508s18.453,4.266,20.736,4.8c.04-.188.054-.235.054-.235l4.743-20.508s18.453,4.266,20.736,4.8c.04-.188.054-.235.054-.235l4.742-20.508s18.453,4.266,20.737,4.8c.04-.188.054-.235.054-.235l4.743-20.508s18.453,4.266,20.763,4.669a.988.988,0,0,1,.027-.107l4.742-20.508s18.453,4.266,20.737,4.8c.04-.188.054-.235.054-.235l4.743-20.508s18.453,4.266,20.736,4.8c.04-.188.054-.235.054-.235l4.742-20.508s18.453,4.266,20.736,4.8c.04-.188.054-.235.054-.235l4.742-20.508s18.453,4.266,20.763,4.669a.986.986,0,0,1,.027-.107l4.742-20.508s18.453,4.266,20.763,4.669a.967.967,0,0,1,.027-.107l4.742-20.508,20.736,4.8.054-.235,4.743-20.508s18.453,4.266,20.736,4.8c.04-.188.054-.235.054-.235l4.743-20.508s18.453,4.266,20.737,4.8c.04-.188.054-.235.054-.235L1310.419,264s18.453,4.266,20.736,4.8c.04-.188.054-.235.054-.235l4.742-20.508s18.453,4.266,20.763,4.669a1,1,0,0,1,.027-.107l4.743-20.508s18.452,4.266,20.736,4.8c.04-.188.054-.235.054-.235l4.742-20.508,20.972,4.85" transform="translate(-871.62 -216.16)" fill="none" stroke="#fff4a9" stroke-miterlimit="10" stroke-width="2.5"/>
      </g>
      <rect id="Rectángulo_378306" data-name="Rectángulo 378306" width="1484.242" height="586.45" transform="translate(1444.115 555) rotate(180)" fill="none"/>
      <g id="Grupo_1073515" data-name="Grupo 1073515" transform="translate(780.174 76.304) rotate(180)">
        <path id="Trazado_610781" data-name="Trazado 610781" d="M37.242,135.332,141.087,56.459,20.859,5.964Z" transform="translate(-44.018 8.214)" fill="#99e8dc"/>
        <g id="Grupo_1073485" data-name="Grupo 1073485">
          <g id="Grupo_1073484" data-name="Grupo 1073484" transform="translate(-8 3)" clip-path="url(#clip-path-2)">
            <path id="Trazado_610782" data-name="Trazado 610782" d="M19.408,133.35,123.252,54.478,3.024,3.982Z" transform="translate(-0.906 -1.192)" fill="none" stroke="#9550ac" stroke-miterlimit="10" stroke-width="3"/>
          </g>
        </g>
      </g>
      <g id="Grupo_1073514" data-name="Grupo 1073514" transform="translate(1670.938 962.303) rotate(180)">
        <g id="Grupo_1073514-2" data-name="Grupo 1073514" transform="translate(1611.604 407.303)" clip-path="url(#clip-path-3)">
          <line id="Línea_3002" data-name="Línea 3002" x2="588.212" transform="translate(0.696 567.687)" fill="none" stroke="#fff" stroke-miterlimit="10" stroke-width="2"/>
          <line id="Línea_3003" data-name="Línea 3003" x2="588.212" transform="translate(0.696 544.958)" fill="none" stroke="#fff" stroke-miterlimit="10" stroke-width="2"/>
          <line id="Línea_3004" data-name="Línea 3004" x2="588.212" transform="translate(0.696 522.229)" fill="none" stroke="#fff" stroke-miterlimit="10" stroke-width="2"/>
          <line id="Línea_3005" data-name="Línea 3005" x2="588.212" transform="translate(0.696 499.5)" fill="none" stroke="#fff" stroke-miterlimit="10" stroke-width="2"/>
          <line id="Línea_3006" data-name="Línea 3006" x2="588.212" transform="translate(0.696 476.771)" fill="none" stroke="#fff" stroke-miterlimit="10" stroke-width="2"/>
          <line id="Línea_3007" data-name="Línea 3007" x2="588.212" transform="translate(0.696 454.042)" fill="none" stroke="#fff" stroke-miterlimit="10" stroke-width="2"/>
          <line id="Línea_3008" data-name="Línea 3008" x2="588.212" transform="translate(0.696 431.313)" fill="none" stroke="#fff" stroke-miterlimit="10" stroke-width="2"/>
          <line id="Línea_3009" data-name="Línea 3009" x2="588.212" transform="translate(0.696 408.583)" fill="none" stroke="#fff" stroke-miterlimit="10" stroke-width="2"/>
          <line id="Línea_3010" data-name="Línea 3010" x2="588.212" transform="translate(0.696 385.854)" fill="none" stroke="#fff" stroke-miterlimit="10" stroke-width="2"/>
          <line id="Línea_3011" data-name="Línea 3011" x2="588.212" transform="translate(0.696 363.125)" fill="none" stroke="#fff" stroke-miterlimit="10" stroke-width="2"/>
          <line id="Línea_3012" data-name="Línea 3012" x2="588.212" transform="translate(0.696 340.396)" fill="none" stroke="#fff" stroke-miterlimit="10" stroke-width="2"/>
          <line id="Línea_3013" data-name="Línea 3013" x2="588.212" transform="translate(0.696 317.667)" fill="none" stroke="#fff" stroke-miterlimit="10" stroke-width="2"/>
          <line id="Línea_3014" data-name="Línea 3014" x2="588.212" transform="translate(0.696 294.938)" fill="none" stroke="#fff" stroke-miterlimit="10" stroke-width="2"/>
          <line id="Línea_3015" data-name="Línea 3015" x2="588.212" transform="translate(0.696 272.209)" fill="none" stroke="#fff" stroke-miterlimit="10" stroke-width="2"/>
          <line id="Línea_3016" data-name="Línea 3016" x2="588.212" transform="translate(0.696 249.48)" fill="none" stroke="#fff" stroke-miterlimit="10" stroke-width="2"/>
          <line id="Línea_3017" data-name="Línea 3017" x2="588.212" transform="translate(0.696 226.751)" fill="none" stroke="#fff" stroke-miterlimit="10" stroke-width="2"/>
          <line id="Línea_3018" data-name="Línea 3018" x2="588.212" transform="translate(0.696 204.022)" fill="none" stroke="#fff" stroke-miterlimit="10" stroke-width="2"/>
          <line id="Línea_3019" data-name="Línea 3019" x2="588.212" transform="translate(0.696 181.293)" fill="none" stroke="#fff" stroke-miterlimit="10" stroke-width="2"/>
          <line id="Línea_3020" data-name="Línea 3020" x2="588.212" transform="translate(0.696 158.564)" fill="none" stroke="#fff" stroke-miterlimit="10" stroke-width="2"/>
          <line id="Línea_3021" data-name="Línea 3021" x2="588.212" transform="translate(0.696 135.835)" fill="none" stroke="#fff" stroke-miterlimit="10" stroke-width="2"/>
          <line id="Línea_3022" data-name="Línea 3022" x2="588.212" transform="translate(0.696 113.106)" fill="none" stroke="#fff" stroke-miterlimit="10" stroke-width="2"/>
          <line id="Línea_3023" data-name="Línea 3023" x2="588.212" transform="translate(0.696 90.377)" fill="none" stroke="#fff" stroke-miterlimit="10" stroke-width="2"/>
          <line id="Línea_3024" data-name="Línea 3024" x2="588.212" transform="translate(0.696 67.648)" fill="none" stroke="#fff" stroke-miterlimit="10" stroke-width="2"/>
          <line id="Línea_3025" data-name="Línea 3025" x2="588.212" transform="translate(0.696 44.919)" fill="none" stroke="#fff" stroke-miterlimit="10" stroke-width="2"/>
          <line id="Línea_3026" data-name="Línea 3026" x2="588.212" transform="translate(0.696 22.19)" fill="none" stroke="#fff" stroke-miterlimit="10" stroke-width="2"/>
          <rect id="Rectángulo_378334" data-name="Rectángulo 378334" width="588.212" height="588.212" transform="translate(0.696 0.696)" fill="none" stroke="#fff" stroke-miterlimit="10" stroke-width="2"/>
          <line id="Línea_3027" data-name="Línea 3027" y2="588.212" transform="translate(22.054 0.832)" fill="none" stroke="#fff" stroke-miterlimit="10" stroke-width="2"/>
          <line id="Línea_3028" data-name="Línea 3028" y2="588.212" transform="translate(44.783 0.832)" fill="none" stroke="#fff" stroke-miterlimit="10" stroke-width="2"/>
          <line id="Línea_3029" data-name="Línea 3029" y2="588.212" transform="translate(67.512 0.832)" fill="none" stroke="#fff" stroke-miterlimit="10" stroke-width="2"/>
          <line id="Línea_3030" data-name="Línea 3030" y2="588.212" transform="translate(90.241 0.832)" fill="none" stroke="#fff" stroke-miterlimit="10" stroke-width="2"/>
          <line id="Línea_3031" data-name="Línea 3031" y2="588.212" transform="translate(112.97 0.832)" fill="none" stroke="#fff" stroke-miterlimit="10" stroke-width="2"/>
          <line id="Línea_3032" data-name="Línea 3032" y2="588.212" transform="translate(135.699 0.832)" fill="none" stroke="#fff" stroke-miterlimit="10" stroke-width="2"/>
          <line id="Línea_3033" data-name="Línea 3033" y2="588.212" transform="translate(158.428 0.832)" fill="none" stroke="#fff" stroke-miterlimit="10" stroke-width="2"/>
          <line id="Línea_3034" data-name="Línea 3034" y2="588.212" transform="translate(181.157 0.832)" fill="none" stroke="#fff" stroke-miterlimit="10" stroke-width="2"/>
          <line id="Línea_3035" data-name="Línea 3035" y2="588.212" transform="translate(203.886 0.832)" fill="none" stroke="#fff" stroke-miterlimit="10" stroke-width="2"/>
          <line id="Línea_3036" data-name="Línea 3036" y2="588.212" transform="translate(226.615 0.832)" fill="none" stroke="#fff" stroke-miterlimit="10" stroke-width="2"/>
          <line id="Línea_3037" data-name="Línea 3037" y2="588.212" transform="translate(249.344 0.832)" fill="none" stroke="#fff" stroke-miterlimit="10" stroke-width="2"/>
          <line id="Línea_3038" data-name="Línea 3038" y2="588.212" transform="translate(272.073 0.832)" fill="none" stroke="#fff" stroke-miterlimit="10" stroke-width="2"/>
          <line id="Línea_3039" data-name="Línea 3039" y2="588.212" transform="translate(294.802 0.832)" fill="none" stroke="#fff" stroke-miterlimit="10" stroke-width="2"/>
          <line id="Línea_3040" data-name="Línea 3040" y2="588.212" transform="translate(317.531 0.832)" fill="none" stroke="#fff" stroke-miterlimit="10" stroke-width="2"/>
          <line id="Línea_3041" data-name="Línea 3041" y2="588.212" transform="translate(340.261 0.832)" fill="none" stroke="#fff" stroke-miterlimit="10" stroke-width="2"/>
          <line id="Línea_3042" data-name="Línea 3042" y2="588.212" transform="translate(362.989 0.832)" fill="none" stroke="#fff" stroke-miterlimit="10" stroke-width="2"/>
          <line id="Línea_3043" data-name="Línea 3043" y2="588.212" transform="translate(385.719 0.832)" fill="none" stroke="#fff" stroke-miterlimit="10" stroke-width="2"/>
          <line id="Línea_3044" data-name="Línea 3044" y2="588.212" transform="translate(408.448 0.832)" fill="none" stroke="#fff" stroke-miterlimit="10" stroke-width="2"/>
          <line id="Línea_3045" data-name="Línea 3045" y2="588.212" transform="translate(431.177 0.832)" fill="none" stroke="#fff" stroke-miterlimit="10" stroke-width="2"/>
          <line id="Línea_3046" data-name="Línea 3046" y2="588.212" transform="translate(453.906 0.832)" fill="none" stroke="#fff" stroke-miterlimit="10" stroke-width="2"/>
          <line id="Línea_3047" data-name="Línea 3047" y2="588.212" transform="translate(476.635 0.832)" fill="none" stroke="#fff" stroke-miterlimit="10" stroke-width="2"/>
          <line id="Línea_3048" data-name="Línea 3048" y2="588.212" transform="translate(499.364 0.832)" fill="none" stroke="#fff" stroke-miterlimit="10" stroke-width="2"/>
          <line id="Línea_3049" data-name="Línea 3049" y2="588.212" transform="translate(522.093 0.832)" fill="none" stroke="#fff" stroke-miterlimit="10" stroke-width="2"/>
          <line id="Línea_3050" data-name="Línea 3050" y2="588.212" transform="translate(544.822 0.832)" fill="none" stroke="#fff" stroke-miterlimit="10" stroke-width="2"/>
          <line id="Línea_3051" data-name="Línea 3051" y2="588.212" transform="translate(567.551 0.832)" fill="none" stroke="#fff" stroke-miterlimit="10" stroke-width="2"/>
        </g>
      </g>
      <path id="Trazado_610836" data-name="Trazado 610836" d="M22.994,181.566l145.743-110.7L0,0Z" transform="translate(152.071 619.136) rotate(180)" fill="#fff4a9"/>
      <g id="Grupo_1073523" data-name="Grupo 1073523" transform="translate(183.579 625) rotate(180)">
        <g id="Grupo_1073484-2" data-name="Grupo 1073484" clip-path="url(#clip-path-4)">
          <path id="Trazado_610782-2" data-name="Trazado 610782" d="M22.994,181.566,168.737,70.87,0,0Z" transform="translate(2.973 3.915)" fill="none" stroke="#fd3cae" stroke-miterlimit="10" stroke-width="3"/>
        </g>
      </g>
    </g>
  </g>
</svg>
