<svg xmlns="http://www.w3.org/2000/svg" xmlns:xlink="http://www.w3.org/1999/xlink" width="130.574" height="127.272" viewBox="0 0 130.574 127.272">
  <defs>
    <clipPath id="clip-path">
      <rect id="Rectángulo_378397" data-name="Rectángulo 378397" width="130.574" height="127.272" fill="none"/>
    </clipPath>
    <clipPath id="clip-path-2">
      <rect id="Rectángulo_378558" data-name="Rectángulo 378558" width="107.409" height="134.225" fill="none"/>
    </clipPath>
    <clipPath id="clip-path-3">
      <rect id="Rectángulo_378557" data-name="Rectángulo 378557" width="107.409" height="134.226" fill="none"/>
    </clipPath>
    <clipPath id="clip-path-4">
      <rect id="Rectángulo_378555" data-name="Rectángulo 378555" width="43.886" height="42.924" fill="none"/>
    </clipPath>
    <clipPath id="clip-path-5">
      <rect id="Rectángulo_378556" data-name="Rectángulo 378556" width="57.86" height="60.967" fill="none"/>
    </clipPath>
    <clipPath id="clip-path-6">
      <path id="Trazado_611048" data-name="Trazado 611048" d="M464.524,70.1c-12.619-7.459-24.848-1.88-30.345,12.126-4.2,10.716,4.421,22.129,13.528,25.929,11.209,5.044,26.661-2.7,28.926-16.13,1.808-11.061-3.872-17.056-12.109-21.925" transform="translate(-433.083 -66.778)" fill="none"/>
    </clipPath>
  </defs>
  <g id="Grupo_1073660" data-name="Grupo 1073660" clip-path="url(#clip-path)">
    <g id="Grupo_1074175" data-name="Grupo 1074175" transform="translate(25.091 -6.952)">
      <g id="Grupo_1074174" data-name="Grupo 1074174" clip-path="url(#clip-path-2)">
        <g id="Grupo_1074173" data-name="Grupo 1074173" transform="translate(0 -0.001)">
          <g id="Grupo_1074172" data-name="Grupo 1074172" clip-path="url(#clip-path-3)">
            <path id="Trazado_611020" data-name="Trazado 611020" d="M52.67,831.436h1.484c0-3.835-1.19-7.119-4.465-8.919-6.023-3.31-15.026-.754-21.409-.108-8.42.853-18.406,1.073-24.005-6.441C.629,811.077.567,803.795,7.455,802.14c5.963-1.433,8.589,3.949,10.367,8.482.945,2.409,2.7,6.832,6.058,6.16,1.992-.4,3.45-2.1,4.643-3.617,3.051-3.884,5.152-8.553,7.192-13.014.431-.943-.965-1.767-1.4-.817a92.809,92.809,0,0,1-5.54,10.649c-1.141,1.826-2.679,4.286-4.8,5.107-2.652,1.025-4.223-3.939-4.867-5.616-1.526-3.972-3.148-7.437-7.528-8.782a9.455,9.455,0,0,0-10.062,3.443c-3.06,3.979-.964,9.533,1.675,13.073a17.572,17.572,0,0,0,9.221,6.171c8.02,2.414,16.843.437,24.959-.35,4.12-.4,9.877-1.126,13.123,2.084,1.542,1.525,2.13,3.969,2.176,6.323" transform="translate(0 -697.211)" fill="#bc7cff"/>
            <path id="Trazado_611021" data-name="Trazado 611021" d="M228.461,759.043c-.91,1.636-1.764,3.3-2.6,4.975-.942,1.9-2.136,3.185-.153,4.562,1.96,1.078,3.657,2.3,5.737,3.273,2.428,1.133,3.046-.932,4.284-2.761.88-1.3,1.784-2.585,2.614-3.917,1.159-1.856.516-2.359-1.268-3.249-1.392-.694-7.39-4.891-8.616-2.883" transform="translate(-196.04 -661.946)" fill="#ffca6c"/>
            <path id="Trazado_611022" data-name="Trazado 611022" d="M250.73,359.982c-6.059,10.725-10.014,17.9-18.469,33.4-2.374,4.343-6.568,12.066-6.952,14.042-.435,2.232.952,2.178,1.427,2.852a61.182,61.182,0,0,0,5.274,3.439,46.933,46.933,0,0,0,6.211,3.105c1.746.695,4.783-4.7,9.909-13.234,9.713-16.2,13.171-21.866,17.02-28.444,5.517-9.427,6.162-11.635,4.127-12.947-2.644-1.572-5.457-3.026-8.242-4.344-5.754-2.731-5.921-5.41-10.3,2.137" transform="translate(-196.555 -309.857)" fill="#6db0ff"/>
            <path id="Trazado_611023" data-name="Trazado 611023" d="M363.616,505.118l-1.814,3.161-2.871,5-.659,1.148a3.255,3.255,0,0,0-.519,1.626,4.492,4.492,0,0,0,2.088,4.357l1.045.441a4.4,4.4,0,0,0,2.325,0l1.045-.441a4.4,4.4,0,0,0,1.569-1.569l1.814-3.161,2.871-5,.659-1.148a3.256,3.256,0,0,0,.519-1.626,4.493,4.493,0,0,0-2.088-4.357l-1.045-.441a4.405,4.405,0,0,0-2.325,0l-1.045.441a4.395,4.395,0,0,0-1.569,1.569" transform="translate(-312.14 -438.926)" fill="#ffca6c"/>
            <path id="Trazado_611024" data-name="Trazado 611024" d="M381.878,526.293l-1.814,3.161-2.87,5-.659,1.148a.729.729,0,0,0,1.259.736l1.814-3.161,2.87-5,.659-1.148a.729.729,0,0,0-1.259-.736" transform="translate(-328.52 -458.987)" fill="#6027b8"/>
            <path id="Trazado_611025" data-name="Trazado 611025" d="M401.741,537.694l-1.814,3.161-2.871,5-.659,1.148a.729.729,0,0,0,1.259.736l1.814-3.161,2.871-5L403,538.43a.729.729,0,1,0-1.259-.736" transform="translate(-345.853 -468.936)" fill="#6027b8"/>
            <path id="Trazado_611026" data-name="Trazado 611026" d="M464.525,70.1c-12.619-7.459-24.848-1.88-30.345,12.126-4.2,10.716,4.421,22.129,13.528,25.929,11.209,5.044,26.661-2.7,28.926-16.13,1.808-11.061-3.872-17.057-12.109-21.925" transform="translate(-377.953 -58.277)" fill="#480980"/>
            <g id="Grupo_1074166" data-name="Grupo 1074166" transform="translate(55.132 8.501)" opacity="0.6">
              <g id="Grupo_1074165" data-name="Grupo 1074165">
                <g id="Grupo_1074164" data-name="Grupo 1074164" clip-path="url(#clip-path-4)">
                  <path id="Trazado_611027" data-name="Trazado 611027" d="M464.525,70.1c-12.619-7.459-24.848-1.88-30.345,12.126-4.2,10.716,4.421,22.129,13.528,25.929,11.209,5.044,26.661-2.7,28.926-16.13,1.808-11.061-3.872-17.057-12.109-21.925" transform="translate(-433.084 -66.779)" fill="#360760"/>
                </g>
              </g>
            </g>
            <g id="Grupo_1074171" data-name="Grupo 1074171" transform="translate(48.97 0.576)" opacity="0.7">
              <g id="Grupo_1074170" data-name="Grupo 1074170">
                <g id="Grupo_1074169" data-name="Grupo 1074169" clip-path="url(#clip-path-5)">
                  <g id="Grupo_1074168" data-name="Grupo 1074168" transform="translate(6.161 7.925)">
                    <g id="Grupo_1074167" data-name="Grupo 1074167" transform="translate(0 0)" clip-path="url(#clip-path-6)">
                      <path id="Trazado_611028" data-name="Trazado 611028" d="M452.915,157.179l-1.215.651-3.307,1.772-4.873,2.611-5.942,3.184-6.507,3.487L424.5,172.4l-6.124,3.282-5.176,2.774-3.733,2c-.588.315-1.181.621-1.764.945l-.074.04a.641.641,0,1,0,.647,1.108l1.215-.651,3.307-1.772,4.873-2.611,5.942-3.184,6.507-3.487,6.567-3.519,6.124-3.282,5.176-2.774,3.733-2c.588-.315,1.181-.621,1.764-.945l.074-.04a.641.641,0,1,0-.647-1.108" transform="translate(-410.599 -145.6)" fill="#6027b8"/>
                      <path id="Trazado_611029" data-name="Trazado 611029" d="M507.3,230.667l-1.17.672-3.184,1.828-4.708,2.7-5.744,3.3-6.291,3.613-6.33,3.636-5.9,3.39-5,2.874-3.6,2.067c-.568.326-1.139.646-1.7.978l-.073.042a.641.641,0,0,0,.647,1.108l1.17-.672,3.183-1.828,4.708-2.7,5.744-3.3,6.291-3.613,6.33-3.636,5.9-3.39,5-2.874,3.6-2.066c.568-.326,1.139-.646,1.7-.978l.072-.042a.642.642,0,1,0-.647-1.108" transform="translate(-459.431 -209.73)" fill="#6027b8"/>
                      <path id="Trazado_611030" data-name="Trazado 611030" d="M583.88,328.245l-.9.512-2.439,1.382-3.615,2.048-4.41,2.5-4.815,2.729-4.889,2.77-4.531,2.568-3.83,2.17-2.77,1.569c-.434.246-.871.488-1.3.738l-.056.032a.641.641,0,1,0,.647,1.108l.9-.512,2.439-1.382,3.615-2.048,4.41-2.5,4.815-2.729,4.889-2.77,4.531-2.568,3.83-2.17,2.77-1.57c.434-.246.871-.488,1.3-.738l.056-.032a.641.641,0,1,0-.647-1.108" transform="translate(-535.118 -294.886)" fill="#6027b8"/>
                      <path id="Trazado_611031" data-name="Trazado 611031" d="M422.049,98.2l-1.111.577L417.9,100.35l-4.475,2.324-5.459,2.835-6,3.115-6.035,3.134-5.626,2.922-4.753,2.468-3.417,1.774c-.539.28-1.083.551-1.617.84l-.069.036a.642.642,0,1,0,.647,1.108l1.111-.577,3.035-1.576,4.475-2.324,5.459-2.835,6-3.115,6.035-3.134,5.626-2.922,4.753-2.468,3.417-1.774c.539-.28,1.083-.551,1.617-.84l.069-.036a.641.641,0,1,0-.647-1.108" transform="translate(-386.881 -94.127)" fill="#6027b8"/>
                      <path id="Trazado_611032" data-name="Trazado 611032" d="M431.609,57.231l-.746.383-2.021,1.037-2.986,1.532-3.643,1.869-3.99,2.047-4.041,2.073-3.742,1.92-3.185,1.634-2.281,1.17c-.36.185-.724.363-1.081.555l-.046.024a.646.646,0,0,0-.23.878.657.657,0,0,0,.878.23l.746-.383,2.021-1.037,2.986-1.532,3.643-1.869,3.99-2.047,4.041-2.073,3.742-1.92,3.185-1.634,2.281-1.17c.36-.185.724-.363,1.081-.555l.046-.024a.646.646,0,0,0,.23-.877.657.657,0,0,0-.878-.23" transform="translate(-407.292 -58.376)" fill="#6027b8"/>
                      <path id="Trazado_611033" data-name="Trazado 611033" d="M480.132,78.005l.7,1.293,1.912,3.517L485.565,88,489,94.32l3.775,6.944,3.811,7.009,3.532,6.5,3,5.524,2.158,3.97c.339.624.669,1.254,1.018,1.873l.043.08a.642.642,0,0,0,1.108-.647l-.7-1.293-1.912-3.517-2.818-5.183-3.437-6.321-3.776-6.944L491,95.3l-3.532-6.5-3-5.524-2.158-3.97c-.339-.624-.669-1.254-1.018-1.873l-.043-.08a.641.641,0,1,0-1.108.647" transform="translate(-474.071 -75.737)" fill="#6027b8"/>
                      <path id="Trazado_611034" data-name="Trazado 611034" d="M568.934,57.428l.658,1.186,1.778,3.2,2.644,4.761,3.207,5.774,3.533,6.362L584.3,85.1l3.325,5.988,2.793,5.03,2.02,3.638c.317.571.627,1.146.951,1.713l.041.074a.642.642,0,1,0,1.108-.647l-.658-1.186-1.778-3.2-2.644-4.761L586.25,85.97l-3.533-6.362-3.545-6.384-3.325-5.988-2.793-5.03-2.02-3.638c-.317-.571-.627-1.146-.951-1.713l-.041-.074a.642.642,0,0,0-1.108.647" transform="translate(-551.568 -57.779)" fill="#6027b8"/>
                      <path id="Trazado_611035" data-name="Trazado 611035" d="M667.649,63.034l.452.8,1.219,2.148,1.8,3.173,2.212,3.9,2.407,4.24,2.438,4.294,2.273,4,1.915,3.373,1.382,2.434c.218.384.431.771.654,1.152l.028.049a.641.641,0,1,0,1.108-.647l-.452-.8L683.865,89l-1.8-3.173-2.212-3.9-2.407-4.241L675.007,73.4l-2.273-4-1.915-3.373-1.382-2.434c-.218-.384-.431-.771-.654-1.152l-.028-.049a.641.641,0,1,0-1.108.647" transform="translate(-637.715 -62.668)" fill="#6027b8"/>
                      <path id="Trazado_611036" data-name="Trazado 611036" d="M443.561,186.34l.573.994,1.565,2.716,2.308,4.005,2.824,4.9,3.084,5.352,3.112,5.4,2.9,5.035L462.381,219l1.762,3.058c.278.482.551.968.834,1.448l.036.062a.641.641,0,1,0,1.108-.647l-.573-.994-1.565-2.716-2.308-4.006-2.824-4.9-3.084-5.352-3.112-5.4-2.9-5.035L447.3,190.26l-1.762-3.059c-.278-.482-.551-.968-.834-1.447l-.036-.062a.642.642,0,1,0-1.108.647" transform="translate(-442.153 -170.277)" fill="#6027b8"/>
                      <path id="Trazado_611037" data-name="Trazado 611037" d="M386.446,241.211l.413.749L387.982,244l1.648,2.99,2.024,3.671,2.217,4.022,2.231,4.046,2.08,3.772,1.764,3.2,1.264,2.292c.2.362.394.728.6,1.087l.026.047a.648.648,0,0,0,.878.23.655.655,0,0,0,.23-.878l-.413-.749-1.123-2.037-1.648-2.99-2.024-3.671-2.217-4.022-2.231-4.046-2.08-3.772-1.764-3.2L388.18,241.7c-.2-.362-.394-.728-.6-1.087l-.026-.047a.648.648,0,0,0-.877-.23.655.655,0,0,0-.23.878" transform="translate(-392.31 -218.164)" fill="#6027b8"/>
                      <path id="Trazado_611038" data-name="Trazado 611038" d="M472.971,100.721l-1.215.651-3.307,1.772-4.873,2.611-5.942,3.184-6.507,3.486-6.567,3.519-6.124,3.282L433.262,122l-3.733,2c-.588.315-1.181.621-1.764.945l-.074.039a.642.642,0,1,0,.647,1.108l1.215-.651,3.307-1.772,4.872-2.611,5.942-3.184,6.506-3.486,6.567-3.519,6.124-3.282,5.176-2.774,3.733-2c.588-.315,1.181-.621,1.764-.945l.074-.04a.641.641,0,1,0-.647-1.108" transform="translate(-428.103 -96.329)" fill="#6027b8"/>
                      <path id="Trazado_611039" data-name="Trazado 611039" d="M527.348,174.213l-1.17.672-3.183,1.828-4.708,2.7-5.744,3.3-6.29,3.613-6.33,3.635-5.9,3.39-5,2.874-3.6,2.066c-.568.326-1.139.646-1.7.978l-.072.042a.641.641,0,1,0,.647,1.108l1.17-.672,3.183-1.828,4.708-2.7,5.744-3.3,6.29-3.612,6.33-3.635,5.9-3.39,5-2.874,3.6-2.066c.568-.326,1.139-.646,1.7-.978l.072-.042a.641.641,0,0,0-.647-1.108" transform="translate(-476.931 -160.463)" fill="#6027b8"/>
                      <path id="Trazado_611040" data-name="Trazado 611040" d="M603.927,271.785l-.9.512-2.439,1.382-3.614,2.048-4.41,2.5-4.815,2.729-4.889,2.77-4.531,2.567-3.83,2.17-2.77,1.569c-.434.246-.871.487-1.3.738l-.056.032a.641.641,0,1,0,.647,1.108l.9-.512,2.439-1.382,3.614-2.048,4.41-2.5,4.815-2.729,4.889-2.77,4.531-2.567,3.83-2.17,2.769-1.569c.434-.246.871-.488,1.3-.738l.056-.032a.641.641,0,0,0-.647-1.108" transform="translate(-552.615 -245.614)" fill="#6027b8"/>
                      <path id="Trazado_611041" data-name="Trazado 611041" d="M442.1,41.727l-1.111.577-3.035,1.576L433.477,46.2l-5.459,2.835-6,3.115-6.035,3.134-5.626,2.922-4.753,2.468-3.417,1.774c-.539.28-1.083.551-1.617.84l-.069.036a.641.641,0,1,0,.647,1.108l1.111-.577,3.035-1.576,4.476-2.324,5.459-2.835,6-3.115,6.035-3.134,5.626-2.922,4.753-2.468,3.417-1.774c.539-.28,1.083-.551,1.617-.84l.069-.036a.641.641,0,1,0-.647-1.108" transform="translate(-404.377 -44.846)" fill="#6027b8"/>
                      <path id="Trazado_611042" data-name="Trazado 611042" d="M451.657.764l-.746.383L448.89,2.184,445.9,3.716l-3.643,1.869-3.99,2.047L434.23,9.7l-3.742,1.92L427.3,13.258l-2.281,1.17c-.36.185-.725.363-1.081.555l-.046.024a.646.646,0,0,0-.23.878.656.656,0,0,0,.877.23l.746-.383,2.021-1.037,2.986-1.532,3.643-1.869,3.99-2.047,4.041-2.073,3.742-1.92L448.9,3.62l2.281-1.17c.36-.185.724-.363,1.081-.555l.046-.024a.646.646,0,0,0,.23-.878.657.657,0,0,0-.878-.23" transform="translate(-424.788 -9.097)" fill="#6027b8"/>
                      <path id="Trazado_611043" data-name="Trazado 611043" d="M500.173,21.542l.7,1.293,1.912,3.517,2.818,5.184,3.437,6.321L512.82,44.8l3.811,7.009,3.532,6.5,3,5.524,2.158,3.97c.339.624.669,1.254,1.018,1.873.015.026.029.053.044.08a.642.642,0,1,0,1.108-.647l-.7-1.293L524.879,64.3l-2.818-5.184-3.437-6.321-3.776-6.945-3.811-7.009-3.532-6.5-3-5.524-2.158-3.97c-.339-.624-.669-1.254-1.018-1.873l-.043-.08a.641.641,0,1,0-1.108.647" transform="translate(-491.561 -26.462)" fill="#6027b8"/>
                      <path id="Trazado_611044" data-name="Trazado 611044" d="M588.983.957l.658,1.186,1.778,3.2,2.644,4.761,3.206,5.774,3.533,6.362,3.545,6.384,3.325,5.988,2.793,5.03,2.02,3.638c.317.571.627,1.146.951,1.713l.041.074a.641.641,0,1,0,1.108-.647l-.658-1.186-1.778-3.2-2.644-4.761L606.3,29.5l-3.533-6.362-3.545-6.384L595.9,10.765,593.1,5.735,591.083,2.1c-.317-.571-.627-1.146-.951-1.713L590.091.31a.65.65,0,0,0-.877-.23.652.652,0,0,0-.23.878" transform="translate(-569.064 -8.497)" fill="#6027b8"/>
                      <path id="Trazado_611045" data-name="Trazado 611045" d="M687.706,6.563l.452.8,1.219,2.148,1.8,3.173,2.211,3.9,2.407,4.241,2.437,4.294,2.272,4,1.914,3.373L703.8,34.92c.218.384.431.771.654,1.152l.028.049a.641.641,0,1,0,1.108-.647l-.452-.8L703.92,32.53l-1.8-3.173-2.211-3.9L697.5,21.22l-2.437-4.294-2.272-4L690.877,9.55,689.5,7.117c-.218-.384-.431-.771-.654-1.152l-.028-.049a.642.642,0,1,0-1.108.647" transform="translate(-655.219 -13.385)" fill="#6027b8"/>
                      <path id="Trazado_611046" data-name="Trazado 611046" d="M463.6,129.87l.573.994,1.565,2.716,2.308,4.005,2.824,4.9,3.084,5.352,3.112,5.4,2.9,5.035,2.451,4.254,1.762,3.059c.278.482.551.968.834,1.447l.036.062a.642.642,0,1,0,1.108-.648l-.573-.994-1.565-2.716-2.308-4.005-2.824-4.9-3.084-5.352-3.112-5.4-2.9-5.035-2.451-4.254-1.762-3.058c-.278-.482-.551-.968-.834-1.447l-.035-.062a.642.642,0,1,0-1.108.647" transform="translate(-459.642 -120.995)" fill="#6027b8"/>
                      <path id="Trazado_611047" data-name="Trazado 611047" d="M406.486,184.745l.413.749,1.124,2.037,1.649,2.99,2.024,3.671,2.218,4.022,2.231,4.046,2.08,3.772,1.764,3.2,1.264,2.292c.2.362.394.728.6,1.087l.026.047a.648.648,0,0,0,.878.23.654.654,0,0,0,.23-.877l-.413-.749-1.123-2.037-1.649-2.99-2.024-3.671-2.218-4.022-2.231-4.045-2.08-3.773-1.764-3.2-1.264-2.292c-.2-.362-.394-.728-.6-1.087l-.026-.047a.648.648,0,0,0-.877-.23.655.655,0,0,0-.23.878" transform="translate(-409.799 -168.886)" fill="#6027b8"/>
                    </g>
                  </g>
                </g>
              </g>
            </g>
            <path id="Trazado_611049" data-name="Trazado 611049" d="M435.622,131.907q3.655,2.2,7.341,4.344,3.663,2.136,7.346,4.235t7.383,4.191q3.678,2.079,7.357,4.157,3.638,2.058,7.268,4.133l.911.522a2.387,2.387,0,0,0,1.192.381,3.295,3.295,0,0,0,3.2-1.531,3.237,3.237,0,0,0,.323-2.471,3.328,3.328,0,0,0-1.474-1.917q-3.638-2.088-7.29-4.152t-7.32-4.136q-3.694-2.087-7.382-4.185t-7.38-4.244q-3.671-2.134-7.316-4.312l-.919-.551a2.387,2.387,0,0,0-1.192-.381,3.295,3.295,0,0,0-3.2,1.531,3.237,3.237,0,0,0-.323,2.471,3.384,3.384,0,0,0,1.474,1.917" transform="translate(-378.774 -109.897)" fill="#e760c3"/>
            <path id="Trazado_611050" data-name="Trazado 611050" d="M393.962,304.743c-1.854,3.453-2.993,5.813-5.345,10.947-.662,1.435-1.811,4-1.353,4.961.518,1.088,2.009,1.673,2.829,2.274,2.034,1.248,4.031,2.307,6.024,3.372,3.216,1.71,6.322,3.613,9.539,5.327,2.217,1.179,3.049-.405,4.856-3.022,3.418-4.974,4.675-6.688,5.96-8.75,1.839-2.956,1.564-3.936-1.247-5.594-3.588-2.082-7.312-4.164-10.943-6.159-7.508-4.125-8.882-5.738-10.32-3.356" transform="translate(-337.874 -264.981)" fill="#e23db6"/>
            <path id="Trazado_611051" data-name="Trazado 611051" d="M548.409,392.611c-1.565-.9-3.064-.193-3.718,1.542-.5,1.328.578,2.719,1.707,3.173a2.671,2.671,0,0,0,3.538-2.034,2.457,2.457,0,0,0-1.526-2.681" transform="translate(-475.241 -342.29)" fill="#fff"/>
            <path id="Trazado_611052" data-name="Trazado 611052" d="M411.069,410.185a63.387,63.387,0,0,0,6.535,4.126c2.188,1.221,4.421,2.359,6.636,3.531,1.239.655,2.471,1.321,3.687,2.018a.729.729,0,0,0,.736-1.259c-2.157-1.237-4.367-2.375-6.568-3.53-2.24-1.175-4.471-2.371-6.627-3.7-1.252-.769-2.476-1.581-3.662-2.448a.732.732,0,0,0-1,.261.75.75,0,0,0,.261,1" transform="translate(-358.429 -356.779)" fill="#6027b8"/>
            <path id="Trazado_611053" data-name="Trazado 611053" d="M422.469,390.32A63.373,63.373,0,0,0,429,394.446c2.188,1.221,4.421,2.359,6.637,3.53,1.239.655,2.472,1.321,3.688,2.018a.729.729,0,0,0,.736-1.259c-2.157-1.236-4.368-2.375-6.57-3.529-2.24-1.175-4.471-2.371-6.627-3.7-1.251-.769-2.476-1.581-3.662-2.448a.732.732,0,0,0-1,.261.75.75,0,0,0,.261,1" transform="translate(-368.378 -339.442)" fill="#6027b8"/>
          </g>
        </g>
      </g>
    </g>
  </g>
</svg>
