<svg id="Grupo_1074176" data-name="Grupo 1074176" xmlns="http://www.w3.org/2000/svg" xmlns:xlink="http://www.w3.org/1999/xlink" width="67.974" height="84.945" viewBox="0 0 67.974 84.945">
  <defs>
    <clipPath id="clip-path">
      <rect id="Rectángulo_378558" data-name="Rectángulo 378558" width="67.974" height="84.945" fill="none"/>
    </clipPath>
    <clipPath id="clip-path-3">
      <rect id="Rectángulo_378555" data-name="Rectángulo 378555" width="27.773" height="27.165" fill="none"/>
    </clipPath>
    <clipPath id="clip-path-4">
      <rect id="Rectángulo_378556" data-name="Rectángulo 378556" width="36.617" height="38.583" fill="none"/>
    </clipPath>
    <clipPath id="clip-path-5">
      <path id="Trazado_611048" data-name="Trazado 611048" d="M452.98,68.878c-7.986-4.72-15.725-1.19-19.2,7.674-2.661,6.782,2.8,14,8.561,16.409,7.093,3.192,16.873-1.708,18.306-10.208,1.144-7-2.45-10.794-7.663-13.875" transform="translate(-433.083 -66.778)" fill="none"/>
    </clipPath>
  </defs>
  <g id="Grupo_1074174" data-name="Grupo 1074174" clip-path="url(#clip-path)">
    <g id="Grupo_1074173" data-name="Grupo 1074173" transform="translate(0 0)">
      <g id="Grupo_1074172" data-name="Grupo 1074172" clip-path="url(#clip-path)">
        <path id="Trazado_611020" data-name="Trazado 611020" d="M33.332,819.5h.939c0-2.427-.753-4.505-2.826-5.644-3.811-2.1-9.509-.477-13.549-.068-5.328.54-11.648.679-15.192-4.076C.4,806.611.359,802,4.718,800.955c3.773-.907,5.435,2.5,6.561,5.368.6,1.525,1.707,4.324,3.834,3.9a5.48,5.48,0,0,0,2.938-2.289A40.172,40.172,0,0,0,22.6,799.7c.273-.6-.61-1.118-.885-.517a58.74,58.74,0,0,1-3.506,6.739c-.722,1.156-1.7,2.712-3.04,3.232-1.678.648-2.672-2.492-3.08-3.554-.966-2.514-1.992-4.706-4.764-5.558a5.983,5.983,0,0,0-6.367,2.179c-1.937,2.518-.61,6.033,1.06,8.273A11.12,11.12,0,0,0,7.855,814.4c5.076,1.528,10.659.277,15.8-.222,2.607-.253,6.25-.713,8.3,1.319a5.794,5.794,0,0,1,1.377,4" transform="translate(0 -734.55)" fill="#bc7cff"/>
        <path id="Trazado_611021" data-name="Trazado 611021" d="M227.057,758.845c-.576,1.036-1.117,2.088-1.644,3.148-.6,1.2-1.352,2.016-.1,2.887,1.24.682,2.314,1.457,3.631,2.071,1.537.717,1.928-.59,2.711-1.747.557-.823,1.129-1.636,1.655-2.479.733-1.174.327-1.493-.8-2.056-.881-.439-4.677-3.1-5.453-1.825" transform="translate(-206.539 -697.397)" fill="#ffca6c"/>
        <path id="Trazado_611022" data-name="Trazado 611022" d="M241.366,358.173c-3.834,6.788-6.338,11.325-11.688,21.134-1.5,2.749-4.156,7.636-4.4,8.886-.275,1.413.6,1.378.9,1.8a38.714,38.714,0,0,0,3.338,2.176,29.7,29.7,0,0,0,3.93,1.965c1.105.44,3.027-2.972,6.271-8.375,6.147-10.25,8.335-13.838,10.771-18,3.491-5.966,3.9-7.363,2.612-8.194-1.673-.995-3.454-1.915-5.216-2.749-3.641-1.728-3.747-3.423-6.521,1.352" transform="translate(-207.082 -326.452)" fill="#6db0ff"/>
        <path id="Trazado_611023" data-name="Trazado 611023" d="M361.434,504.323l-1.148,2-1.817,3.166-.417.726a2.06,2.06,0,0,0-.328,1.029A2.843,2.843,0,0,0,359.044,514l.661.279a2.787,2.787,0,0,0,1.472,0l.661-.279a2.782,2.782,0,0,0,.993-.993l1.148-2,1.817-3.166.417-.726a2.06,2.06,0,0,0,.328-1.029,2.843,2.843,0,0,0-1.321-2.758l-.661-.279a2.788,2.788,0,0,0-1.471,0l-.661.279a2.781,2.781,0,0,0-.993.993" transform="translate(-328.857 -462.433)" fill="#ffca6c"/>
        <path id="Trazado_611024" data-name="Trazado 611024" d="M379.882,526.164l-1.148,2-1.816,3.166-.417.726a.461.461,0,0,0,.8.466l1.148-2,1.816-3.166.417-.726a.461.461,0,0,0-.8-.466" transform="translate(-346.114 -483.569)" fill="#6027b8"/>
        <path id="Trazado_611025" data-name="Trazado 611025" d="M399.744,537.564l-1.148,2-1.817,3.166-.417.726a.461.461,0,0,0,.8.466l1.148-2,1.817-3.166.417-.726a.461.461,0,1,0-.8-.466" transform="translate(-364.375 -494.051)" fill="#6027b8"/>
        <path id="Trazado_611026" data-name="Trazado 611026" d="M452.981,68.878c-7.986-4.72-15.725-1.19-19.2,7.674-2.661,6.782,2.8,14,8.561,16.409,7.093,3.192,16.873-1.708,18.306-10.208,1.144-7-2.45-10.794-7.663-13.875" transform="translate(-398.194 -61.399)" fill="#480980"/>
        <g id="Grupo_1074166" data-name="Grupo 1074166" transform="translate(34.89 5.38)" opacity="0.6">
          <g id="Grupo_1074165" data-name="Grupo 1074165">
            <g id="Grupo_1074164" data-name="Grupo 1074164" clip-path="url(#clip-path-3)">
              <path id="Trazado_611027" data-name="Trazado 611027" d="M452.981,68.878c-7.986-4.72-15.725-1.19-19.2,7.674-2.661,6.782,2.8,14,8.561,16.409,7.093,3.192,16.873-1.708,18.306-10.208,1.144-7-2.45-10.794-7.663-13.875" transform="translate(-433.084 -66.779)" fill="#360760"/>
            </g>
          </g>
        </g>
        <g id="Grupo_1074171" data-name="Grupo 1074171" transform="translate(30.991 0.364)" opacity="0.7">
          <g id="Grupo_1074170" data-name="Grupo 1074170">
            <g id="Grupo_1074169" data-name="Grupo 1074169" clip-path="url(#clip-path-4)">
              <g id="Grupo_1074168" data-name="Grupo 1074168" transform="translate(3.899 5.016)">
                <g id="Grupo_1074167" data-name="Grupo 1074167" transform="translate(0 0)" clip-path="url(#clip-path-5)">
                  <path id="Trazado_611028" data-name="Trazado 611028" d="M436.174,157.149l-.769.412-2.093,1.121-3.084,1.652-3.76,2.015-4.118,2.207-4.156,2.227-3.875,2.077-3.276,1.755-2.362,1.266c-.372.2-.748.393-1.116.6l-.047.025a.406.406,0,1,0,.41.7l.769-.412,2.093-1.121,3.084-1.652,3.76-2.015,4.118-2.207,4.156-2.227,3.875-2.077,3.276-1.755,2.362-1.266c.372-.2.748-.393,1.116-.6l.047-.025a.406.406,0,1,0-.41-.7" transform="translate(-409.395 -149.821)" fill="#6027b8"/>
                  <path id="Trazado_611029" data-name="Trazado 611029" d="M491.134,230.636l-.74.425-2.015,1.157-2.98,1.711-3.635,2.088-3.981,2.286-4.006,2.3-3.736,2.146-3.167,1.819-2.277,1.308c-.359.206-.721.409-1.078.619l-.046.026a.406.406,0,0,0,.41.7l.74-.425,2.015-1.157,2.98-1.711,3.635-2.088,3.981-2.286,4.006-2.3,3.736-2.146,3.167-1.819,2.277-1.308c.359-.206.721-.409,1.078-.619l.046-.026a.406.406,0,1,0-.41-.7" transform="translate(-460.842 -217.386)" fill="#6027b8"/>
                  <path id="Trazado_611030" data-name="Trazado 611030" d="M571.442,328.213l-.572.324-1.544.875-2.287,1.3-2.791,1.581-3.047,1.727-3.094,1.753-2.867,1.625-2.424,1.374-1.753.993c-.275.156-.551.309-.824.467l-.035.02a.406.406,0,1,0,.41.7l.572-.324,1.544-.875,2.287-1.3,2.791-1.582,3.047-1.727,3.094-1.753,2.867-1.625,2.424-1.374,1.753-.993c.275-.156.551-.309.824-.467l.035-.02a.406.406,0,1,0-.41-.7" transform="translate(-540.583 -307.102)" fill="#6027b8"/>
                  <path id="Trazado_611031" data-name="Trazado 611031" d="M406.663,98.167l-.7.365-1.921,1L401.207,101l-3.455,1.794-3.8,1.971-3.819,1.983-3.56,1.849-3.008,1.562-2.162,1.123c-.341.177-.685.349-1.023.531l-.044.023a.406.406,0,1,0,.41.7l.7-.365,1.921-1,2.832-1.471,3.455-1.794,3.8-1.971,3.819-1.983,3.56-1.849,3.008-1.562,2.162-1.123c.341-.177.685-.349,1.023-.531l.043-.023a.406.406,0,1,0-.41-.7" transform="translate(-384.406 -95.592)" fill="#6027b8"/>
                  <path id="Trazado_611032" data-name="Trazado 611032" d="M421.3,57.2l-.472.242-1.279.656-1.89.97-2.305,1.183-2.525,1.3-2.558,1.312L407.9,64.074l-2.015,1.034-1.444.741c-.228.117-.458.23-.684.351l-.029.015a.409.409,0,0,0-.146.555.416.416,0,0,0,.555.146l.472-.242,1.279-.656,1.89-.97,2.305-1.183,2.525-1.3,2.557-1.312,2.368-1.215,2.015-1.034L421,58.268c.228-.117.458-.23.684-.351l.029-.015a.409.409,0,0,0,.146-.555.416.416,0,0,0-.555-.146" transform="translate(-405.91 -57.926)" fill="#6027b8"/>
                  <path id="Trazado_611033" data-name="Trazado 611033" d="M480.1,77.652l.445.818,1.21,2.226,1.784,3.28,2.175,4,2.389,4.395,2.412,4.436,2.235,4.111,1.9,3.5,1.366,2.512c.215.395.424.794.644,1.185l.027.051a.406.406,0,0,0,.7-.41l-.445-.818-1.21-2.226-1.784-3.28-2.175-4-2.389-4.395L486.977,88.6l-2.235-4.111-1.9-3.5-1.366-2.512c-.215-.395-.423-.794-.644-1.185l-.028-.051a.406.406,0,1,0-.7.41" transform="translate(-476.266 -76.217)" fill="#6027b8"/>
                  <path id="Trazado_611034" data-name="Trazado 611034" d="M568.9,57.075l.417.75,1.125,2.026,1.673,3.013,2.029,3.654,2.236,4.026,2.243,4.04,2.1,3.789,1.768,3.183,1.279,2.3c.2.361.4.725.6,1.084l.026.047a.406.406,0,1,0,.7-.41l-.417-.75-1.125-2.026-1.673-3.013-2.029-3.654-2.236-4.026-2.243-4.04-2.1-3.789L571.511,60.1l-1.279-2.3c-.2-.361-.4-.725-.6-1.084l-.026-.047a.406.406,0,0,0-.7.41" transform="translate(-557.913 -57.297)" fill="#6027b8"/>
                  <path id="Trazado_611035" data-name="Trazado 611035" d="M667.618,62.679l.286.5.772,1.359,1.14,2.008,1.4,2.466,1.523,2.684,1.543,2.717,1.438,2.534,1.212,2.134.874,1.54c.138.243.273.488.414.729l.018.031a.406.406,0,0,0,.7-.41l-.286-.5-.772-1.359L676.74,77.1l-1.4-2.466-1.523-2.684-1.543-2.717L670.836,66.7l-1.212-2.134-.874-1.54c-.138-.243-.273-.488-.414-.729l-.018-.031a.406.406,0,1,0-.7.41" transform="translate(-648.674 -62.448)" fill="#6027b8"/>
                  <path id="Trazado_611036" data-name="Trazado 611036" d="M443.53,185.985l.363.629.99,1.719,1.461,2.535,1.787,3.1,1.952,3.387,1.97,3.418,1.836,3.187,1.551,2.692,1.115,1.936c.176.305.349.613.528.916l.022.039a.406.406,0,1,0,.7-.41l-.363-.629-.99-1.719-1.461-2.535-1.787-3.1-1.952-3.387-1.97-3.418-1.836-3.187-1.551-2.692-1.115-1.936c-.176-.305-.349-.613-.528-.916l-.022-.039a.406.406,0,1,0-.7.41" transform="translate(-442.638 -175.82)" fill="#6027b8"/>
                  <path id="Trazado_611037" data-name="Trazado 611037" d="M386.415,240.857l.261.474.711,1.289,1.043,1.892,1.281,2.323,1.4,2.545,1.412,2.56,1.316,2.387,1.116,2.024.8,1.451c.126.229.25.461.379.688l.016.03a.41.41,0,0,0,.555.146.414.414,0,0,0,.146-.555l-.261-.474-.711-1.289-1.043-1.892-1.281-2.323-1.4-2.545-1.412-2.56-1.316-2.387-1.116-2.024-.8-1.451c-.127-.229-.25-.461-.379-.688l-.017-.03a.41.41,0,0,0-.555-.146.414.414,0,0,0-.146.555" transform="translate(-390.126 -226.271)" fill="#6027b8"/>
                  <path id="Trazado_611038" data-name="Trazado 611038" d="M456.231,100.691l-.769.412-2.093,1.121-3.084,1.652-3.76,2.015-4.118,2.206-4.156,2.227-3.875,2.077-3.276,1.755-2.362,1.266c-.372.2-.748.393-1.116.6l-.047.025a.406.406,0,1,0,.41.7l.769-.412,2.093-1.121,3.084-1.652,3.76-2.015,4.118-2.206,4.156-2.227,3.875-2.077,3.276-1.755,2.362-1.266c.372-.2.747-.393,1.116-.6l.047-.025a.406.406,0,0,0-.41-.7" transform="translate(-427.836 -97.912)" fill="#6027b8"/>
                  <path id="Trazado_611039" data-name="Trazado 611039" d="M511.186,174.182l-.74.425-2.015,1.157-2.979,1.711-3.635,2.087-3.981,2.286-4.006,2.3-3.736,2.145-3.167,1.819-2.277,1.308c-.359.206-.721.409-1.078.619l-.046.026a.406.406,0,1,0,.41.7l.74-.425,2.015-1.157,2.979-1.711,3.635-2.087,3.981-2.286,4.006-2.3,3.736-2.145,3.167-1.819,2.277-1.308c.359-.206.721-.409,1.078-.619l.046-.026a.406.406,0,0,0-.41-.7" transform="translate(-479.28 -165.48)" fill="#6027b8"/>
                  <path id="Trazado_611040" data-name="Trazado 611040" d="M591.49,271.754l-.572.324-1.543.875-2.287,1.3L584.3,275.83l-3.047,1.727-3.094,1.753-2.867,1.625-2.424,1.373-1.753.993c-.275.156-.551.308-.824.467l-.035.02a.406.406,0,0,0,.41.7l.572-.324,1.543-.875,2.287-1.3,2.791-1.581,3.047-1.727L584,276.934l2.867-1.625,2.424-1.373,1.753-.993c.275-.156.551-.309.824-.467l.035-.02a.406.406,0,0,0-.41-.7" transform="translate(-559.016 -255.192)" fill="#6027b8"/>
                  <path id="Trazado_611041" data-name="Trazado 611041" d="M426.712,41.7l-.7.365-1.921,1-2.832,1.471L417.8,46.325l-3.8,1.971-3.819,1.983-3.56,1.849-3.008,1.562-2.162,1.123c-.341.177-.685.349-1.023.531l-.044.023a.406.406,0,0,0,.41.7l.7-.365,1.921-1,2.832-1.471,3.455-1.794,3.8-1.971,3.819-1.983,3.56-1.849,3.008-1.562,2.162-1.123c.341-.177.685-.349,1.023-.531l.044-.023a.406.406,0,1,0-.41-.7" transform="translate(-402.84 -43.671)" fill="#6027b8"/>
                  <path id="Trazado_611042" data-name="Trazado 611042" d="M441.348.734l-.472.242-1.279.656-1.89.97L435.4,3.785l-2.525,1.3-2.558,1.312-2.368,1.215-2.015,1.034-1.444.741c-.228.117-.458.23-.684.351l-.029.015a.409.409,0,0,0-.146.555.415.415,0,0,0,.555.146l.472-.242,1.279-.656,1.89-.97L430.135,7.4l2.525-1.3,2.557-1.312,2.368-1.215L439.6,2.542l1.444-.741c.228-.117.458-.23.684-.351l.029-.015A.409.409,0,0,0,441.9.88a.416.416,0,0,0-.555-.146" transform="translate(-424.343 -6.008)" fill="#6027b8"/>
                  <path id="Trazado_611043" data-name="Trazado 611043" d="M500.143,21.189l.445.818,1.21,2.226,1.784,3.28,2.175,4,2.39,4.395,2.412,4.436,2.235,4.111,1.9,3.5,1.366,2.512c.215.395.423.794.644,1.185l.028.051a.406.406,0,1,0,.7-.41l-.445-.818-1.21-2.226-1.784-3.28-2.175-4-2.39-4.395-2.412-4.436-2.235-4.111-1.9-3.5-1.366-2.512c-.215-.395-.423-.794-.644-1.185l-.027-.051a.406.406,0,1,0-.7.41" transform="translate(-494.692 -24.303)" fill="#6027b8"/>
                  <path id="Trazado_611044" data-name="Trazado 611044" d="M588.952.6l.417.75,1.125,2.026,1.673,3.013,2.029,3.654,2.236,4.026,2.243,4.04,2.1,3.789,1.768,3.183,1.279,2.3c.2.361.4.725.6,1.084l.026.047a.406.406,0,1,0,.7-.41l-.417-.75-1.125-2.026-1.673-3.013-2.029-3.654-2.236-4.026-2.243-4.04-2.1-3.789L591.56,3.628l-1.279-2.3c-.2-.361-.4-.725-.6-1.084l-.026-.047A.412.412,0,0,0,589.1.049a.412.412,0,0,0-.146.555" transform="translate(-576.347 -5.376)" fill="#6027b8"/>
                  <path id="Trazado_611045" data-name="Trazado 611045" d="M687.675,6.208l.286.5.772,1.359,1.14,2.008,1.4,2.466,1.523,2.684,1.542,2.717,1.438,2.534,1.211,2.134.874,1.54c.138.243.273.488.414.729l.018.031a.406.406,0,1,0,.7-.41l-.286-.5-.772-1.359-1.14-2.008-1.4-2.466-1.523-2.684-1.542-2.717-1.438-2.534L689.682,8.1l-.874-1.54c-.138-.243-.273-.488-.414-.729l-.018-.031a.406.406,0,1,0-.7.41" transform="translate(-667.115 -10.526)" fill="#6027b8"/>
                  <path id="Trazado_611046" data-name="Trazado 611046" d="M463.571,129.515l.363.629.99,1.719,1.461,2.535,1.787,3.1,1.952,3.387,1.97,3.418,1.836,3.187,1.551,2.692,1.115,1.936c.176.305.349.613.528.916l.022.039a.406.406,0,1,0,.7-.41l-.363-.629-.99-1.719-1.461-2.535-1.787-3.1-1.952-3.387-1.97-3.418-1.836-3.186L465.937,132l-1.115-1.935c-.176-.305-.349-.613-.528-.916l-.022-.039a.406.406,0,0,0-.7.41" transform="translate(-461.065 -123.899)" fill="#6027b8"/>
                  <path id="Trazado_611047" data-name="Trazado 611047" d="M406.456,184.391l.261.474.711,1.289,1.043,1.892,1.281,2.323,1.4,2.545,1.412,2.56,1.317,2.387L415,199.886l.8,1.451c.126.229.25.461.379.688l.016.03a.41.41,0,0,0,.555.146.414.414,0,0,0,.146-.555l-.261-.474-.711-1.289-1.043-1.892-1.281-2.323-1.4-2.545-1.412-2.56-1.316-2.387-1.116-2.024-.8-1.451c-.126-.229-.25-.461-.379-.688l-.017-.03a.41.41,0,0,0-.555-.146.414.414,0,0,0-.146.555" transform="translate(-408.552 -174.354)" fill="#6027b8"/>
                </g>
              </g>
            </g>
          </g>
        </g>
        <path id="Trazado_611049" data-name="Trazado 611049" d="M435.035,129.712q2.313,1.391,4.646,2.749t4.649,2.68q2.333,1.332,4.673,2.652t4.656,2.631q2.3,1.3,4.6,2.615l.576.33a1.511,1.511,0,0,0,.755.241,2.085,2.085,0,0,0,2.022-.969,2.048,2.048,0,0,0,.2-1.564,2.106,2.106,0,0,0-.933-1.213q-2.3-1.321-4.613-2.627t-4.632-2.618q-2.338-1.321-4.672-2.649t-4.671-2.686q-2.323-1.35-4.63-2.729l-.581-.349a1.511,1.511,0,0,0-.755-.241,2.085,2.085,0,0,0-2.022.969,2.049,2.049,0,0,0-.2,1.564,2.142,2.142,0,0,0,.933,1.213" transform="translate(-399.059 -115.783)" fill="#e760c3"/>
        <path id="Trazado_611050" data-name="Trazado 611050" d="M391.464,304.336c-1.173,2.185-1.894,3.679-3.383,6.928-.419.908-1.146,2.53-.856,3.139.328.689,1.272,1.059,1.79,1.439,1.287.79,2.551,1.46,3.812,2.134,2.035,1.082,4,2.287,6.037,3.371,1.4.746,1.93-.257,3.073-1.913,2.163-3.148,2.959-4.233,3.772-5.537,1.164-1.87.99-2.491-.789-3.54-2.271-1.318-4.628-2.635-6.925-3.9-4.751-2.61-5.621-3.632-6.531-2.124" transform="translate(-355.969 -279.172)" fill="#e23db6"/>
        <path id="Trazado_611051" data-name="Trazado 611051" d="M547,392.467a1.558,1.558,0,0,0-2.353.976,1.7,1.7,0,1,0,3.319.721,1.555,1.555,0,0,0-.966-1.7" transform="translate(-500.693 -360.621)" fill="#fff"/>
        <path id="Trazado_611052" data-name="Trazado 611052" d="M410.938,409.685a40.113,40.113,0,0,0,4.136,2.611c1.385.773,2.8,1.493,4.2,2.234.784.414,1.564.836,2.333,1.277a.461.461,0,0,0,.466-.8c-1.365-.783-2.764-1.5-4.157-2.234-1.418-.744-2.829-1.5-4.194-2.339-.792-.487-1.567-1-2.318-1.549a.463.463,0,0,0-.631.165.474.474,0,0,0,.165.631" transform="translate(-377.625 -375.886)" fill="#6027b8"/>
        <path id="Trazado_611053" data-name="Trazado 611053" d="M422.338,389.82a40.1,40.1,0,0,0,4.135,2.611c1.385.773,2.8,1.493,4.2,2.234.784.414,1.564.836,2.334,1.277a.461.461,0,0,0,.466-.8c-1.365-.782-2.765-1.5-4.158-2.234-1.418-.744-2.829-1.5-4.194-2.339-.792-.487-1.567-1-2.317-1.549a.463.463,0,0,0-.631.165.474.474,0,0,0,.165.631" transform="translate(-388.106 -357.622)" fill="#6027b8"/>
      </g>
    </g>
  </g>
</svg>
