<svg id="Grupo_1074451" data-name="Grupo 1074451" xmlns="http://www.w3.org/2000/svg" xmlns:xlink="http://www.w3.org/1999/xlink" width="505" height="422.032" viewBox="0 0 505 422.032">
  <defs>
    <clipPath id="clip-path">
      <rect id="Rectángulo_378711" data-name="Rectángulo 378711" width="505" height="422.032" fill="none"/>
    </clipPath>
  </defs>
  <rect id="Rectángulo_378705" data-name="Rectángulo 378705" width="252.536" height="422.032" fill="#fcf5e0"/>
  <rect id="Rectángulo_378706" data-name="Rectángulo 378706" width="252.536" height="422.032" transform="translate(252.463)" fill="#f3f9ff"/>
  <g id="Grupo_1074450" data-name="Grupo 1074450">
    <g id="Grupo_1074449" data-name="Grupo 1074449" clip-path="url(#clip-path)">
      <path id="Trazado_611596" data-name="Trazado 611596" d="M456.447,368.934c-5.065.711-19.721-1.978-23.841-9.626a30.409,30.409,0,0,1-1.645-3.576v-.013a16,16,0,0,1-1.248-6.314,5.489,5.489,0,0,1,.239-1.6l-12.391.121-.225.007a34.687,34.687,0,0,1,.765,7.156,7.414,7.414,0,0,1-.036.807,13.058,13.058,0,0,1-.616,3.571c-1.524,4.359-3.089,12.555,2.318,14.5,2.12.766,8.643,1.149,15.858,1.215.411.011.807.022,1.216.02,10.789.059,22.659-.558,23.687-1.642,1.769-1.853,1-5.357-4.082-4.631" transform="translate(6.016 5.03)" fill="#e7b886"/>
      <path id="Trazado_611597" data-name="Trazado 611597" d="M412.742,355.738c-.291,1.23,1.365,2.264,1.183,4.606s-2.961,11.584-.493,13.606,17.523,2.3,19.266,2.221,1.862-1.734,5.3-.828,24.765.419,25.3-2.616,1.284-5.782-.3-6.584-12.6-1.749-14.4-2.928-11.738-6.256-12.594-8.06-2.772-3.269-5.025.522-12.471,1.056-13.506-.35-4.085-2.334-4.732.411" transform="translate(5.964 5.109)" fill="#47494a"/>
      <path id="Trazado_611598" data-name="Trazado 611598" d="M323.955,254.066s-3.625,15.816-.986,24.106c2.416,7.586,11.445,17.464,33.944,11.833,13.628-3.394,10.655-1.563,27.311-3.25,4.679-.474,10.794-.776,19.072-.856,4.049-.049,8.679-.428,13.427-.741,5.876-3.695,9.084-7.47,9.4-13.386.541-10.184-10.389-12.669-10.389-12.669s-12.992-2.7-28.929-4.243c-5.643-.55-11.652-.952-17.586-1.055-12.708-.2-45.264.262-45.264.262" transform="translate(4.657 3.67)" fill="#b0b7d6"/>
      <path id="Trazado_611599" data-name="Trazado 611599" d="M425.015,271.571a15.461,15.461,0,0,1-10.761,5.35c-5.919.228-11.353-3.4-15.047-9.278a97.39,97.39,0,0,1-.007,17.585c-3.788,31.49,13.431,72.951,14.48,78.893,0,0,5.175.243,18.381-2.792,4.865-1.119,4.865-4.111,4.865-4.111Z" transform="translate(5.765 3.871)" fill="#b0b7d6"/>
      <path id="Trazado_611600" data-name="Trazado 611600" d="M393.782,298.379a7.189,7.189,0,0,1-7.189,7.187H318.937a7.188,7.188,0,1,1,0-14.377h67.656a7.19,7.19,0,0,1,7.189,7.19" transform="translate(4.508 4.211)" fill="#b8b3ae"/>
      <path id="Trazado_611601" data-name="Trazado 611601" d="M310.886,254.811a7.187,7.187,0,0,1-7.758-6.569L299.164,195a7.188,7.188,0,1,1,14.327-1.193l3.964,53.247a7.191,7.191,0,0,1-6.569,7.761" transform="translate(4.326 2.707)" fill="#b8b3ae"/>
      <rect id="Rectángulo_378707" data-name="Rectángulo 378707" width="11.567" height="77.86" transform="translate(352.506 307.698)" fill="#b8b3ae"/>
      <rect id="Rectángulo_378708" data-name="Rectángulo 378708" width="66.42" height="4.565" transform="translate(324.636 383.022)" fill="#b8b3ae"/>
      <path id="Trazado_611602" data-name="Trazado 611602" d="M326.328,379.382a6.361,6.361,0,1,1-6.362-6.362,6.361,6.361,0,0,1,6.362,6.362" transform="translate(4.535 5.394)" fill="#b8b3ae"/>
      <path id="Trazado_611603" data-name="Trazado 611603" d="M394.328,379.382a6.361,6.361,0,1,1-6.362-6.362,6.361,6.361,0,0,1,6.362,6.362" transform="translate(5.519 5.394)" fill="#b8b3ae"/>
      <path id="Trazado_611604" data-name="Trazado 611604" d="M359.634,379.382a6.361,6.361,0,1,1-6.362-6.362,6.361,6.361,0,0,1,6.362,6.362" transform="translate(5.017 5.394)" fill="#b8b3ae"/>
      <path id="Trazado_611605" data-name="Trazado 611605" d="M304.561,209.8c0,24.644-40.783,77.5,13.744,89.42" transform="translate(4.193 3.034)" fill="none" stroke="#b8b3ae" stroke-miterlimit="10" stroke-width="7"/>
      <path id="Trazado_611606" data-name="Trazado 611606" d="M212.269,368.934c-5.065.711-19.721-1.978-23.841-9.626a30.414,30.414,0,0,1-1.645-3.576v-.013a16.024,16.024,0,0,1-1.249-6.314,5.5,5.5,0,0,1,.24-1.6l-12.391.121-.225.007a34.688,34.688,0,0,1,.765,7.156,7.414,7.414,0,0,1-.036.807,13.056,13.056,0,0,1-.616,3.571c-1.524,4.359-3.089,12.555,2.318,14.5,2.12.766,8.643,1.149,15.858,1.215.411.011.806.022,1.216.02,10.789.059,22.659-.558,23.687-1.642,1.77-1.853,1-5.357-4.082-4.631" transform="translate(2.485 5.03)" fill="#e7b886"/>
      <path id="Trazado_611607" data-name="Trazado 611607" d="M168.564,355.738c-.291,1.23,1.365,2.264,1.183,4.606s-2.961,11.584-.493,13.606,17.523,2.3,19.266,2.221,1.862-1.734,5.3-.828,24.764.419,25.3-2.616,1.285-5.782-.3-6.584-12.6-1.749-14.4-2.928-11.738-6.256-12.594-8.06-2.772-3.269-5.024.522-12.471,1.056-13.507-.35-4.085-2.334-4.732.411" transform="translate(2.433 5.109)" fill="#47494a"/>
      <path id="Trazado_611608" data-name="Trazado 611608" d="M79.778,254.066s-3.625,15.816-.986,24.106c2.416,7.586,11.445,17.464,33.944,11.833,13.628-3.394,10.655-1.563,27.311-3.25,4.679-.474,10.794-.776,19.072-.856,4.049-.049,8.679-.428,13.427-.741,5.876-3.695,9.083-7.47,9.4-13.386.541-10.184-10.389-12.669-10.389-12.669s-12.992-2.7-28.929-4.243c-5.643-.55-11.652-.952-17.586-1.055-12.708-.2-45.264.262-45.264.262" transform="translate(1.126 3.67)" fill="#b0b7d6"/>
      <path id="Trazado_611609" data-name="Trazado 611609" d="M180.838,271.571a15.461,15.461,0,0,1-10.761,5.35c-5.919.228-11.353-3.4-15.048-9.278a97.386,97.386,0,0,1-.007,17.585c-3.788,31.49,13.431,72.951,14.48,78.893,0,0,5.175.243,18.381-2.792,4.865-1.119,4.865-4.111,4.865-4.111Z" transform="translate(2.234 3.871)" fill="#b0b7d6"/>
      <path id="Trazado_611610" data-name="Trazado 611610" d="M149.605,298.379a7.19,7.19,0,0,1-7.19,7.187H74.759a7.188,7.188,0,1,1,0-14.377h67.655a7.19,7.19,0,0,1,7.19,7.19" transform="translate(0.977 4.211)" fill="#b8b3ae"/>
      <path id="Trazado_611611" data-name="Trazado 611611" d="M66.709,254.811a7.187,7.187,0,0,1-7.758-6.569L54.987,195A7.188,7.188,0,1,1,69.315,193.8l3.964,53.247a7.191,7.191,0,0,1-6.569,7.761" transform="translate(0.795 2.707)" fill="#b8b3ae"/>
      <rect id="Rectángulo_378709" data-name="Rectángulo 378709" width="11.567" height="77.86" transform="translate(104.798 307.698)" fill="#b8b3ae"/>
      <rect id="Rectángulo_378710" data-name="Rectángulo 378710" width="66.42" height="4.565" transform="translate(76.928 383.022)" fill="#b8b3ae"/>
      <path id="Trazado_611612" data-name="Trazado 611612" d="M82.151,379.382a6.361,6.361,0,1,1-6.362-6.362,6.361,6.361,0,0,1,6.362,6.362" transform="translate(1.004 5.394)" fill="#b8b3ae"/>
      <path id="Trazado_611613" data-name="Trazado 611613" d="M150.151,379.382a6.361,6.361,0,1,1-6.361-6.362,6.361,6.361,0,0,1,6.361,6.362" transform="translate(1.987 5.394)" fill="#b8b3ae"/>
      <path id="Trazado_611614" data-name="Trazado 611614" d="M115.456,379.382a6.361,6.361,0,1,1-6.361-6.362,6.361,6.361,0,0,1,6.361,6.362" transform="translate(1.486 5.394)" fill="#b8b3ae"/>
      <path id="Trazado_611615" data-name="Trazado 611615" d="M60.384,209.8c0,24.644-40.783,77.5,13.744,89.42" transform="translate(0.661 3.034)" fill="none" stroke="#b8b3ae" stroke-miterlimit="10" stroke-width="7"/>
      <path id="Trazado_611616" data-name="Trazado 611616" d="M400.978,26.294a4.7,4.7,0,0,0-6.645,0L370.29,50.326l-11.91-11.91a4.7,4.7,0,0,0-6.645,6.655l14.6,14.6a4.638,4.638,0,0,0,1.258,1.258,4.7,4.7,0,0,0,5.955-.568l3.388-3.388,24.043-24.033a4.69,4.69,0,0,0,0-6.645" transform="translate(5.067 0.36)" fill="#74b35f"/>
      <path id="Trazado_611617" data-name="Trazado 611617" d="M272.292,134.27l16.879.025-8.942-13.6Z" transform="translate(3.938 1.745)" fill="#74b35f"/>
      <line id="Línea_3201" data-name="Línea 3201" y1="55.902" transform="translate(284.707 134.015)" fill="none" stroke="#74b35f" stroke-miterlimit="10" stroke-width="5"/>
      <line id="Línea_3202" data-name="Línea 3202" y1="12.324" transform="translate(284.669 177.593)" fill="none" stroke="#74b35f" stroke-miterlimit="10" stroke-width="5"/>
      <line id="Línea_3203" data-name="Línea 3203" y1="12.324" transform="translate(284.669 195.685)" fill="none" stroke="#74b35f" stroke-miterlimit="10" stroke-width="5"/>
      <line id="Línea_3204" data-name="Línea 3204" y1="7.777" transform="translate(284.669 213.777)" fill="none" stroke="#74b35f" stroke-miterlimit="10" stroke-width="5"/>
      <path id="Trazado_611618" data-name="Trazado 611618" d="M43.618,186.838s-.028-37.789,33-54.453" transform="translate(0.631 1.914)" fill="none" stroke="#d46446" stroke-miterlimit="10" stroke-width="5"/>
      <path id="Trazado_611619" data-name="Trazado 611619" d="M67.273,127.937l8.5,14.583L83,127.937Z" transform="translate(0.973 1.85)" fill="#d46446"/>
      <line id="Línea_3205" data-name="Línea 3205" y1="12.324" transform="translate(44.249 195.685)" fill="none" stroke="#d46446" stroke-miterlimit="10" stroke-width="5"/>
      <line id="Línea_3206" data-name="Línea 3206" y1="7.777" transform="translate(44.249 213.777)" fill="none" stroke="#d46446" stroke-miterlimit="10" stroke-width="5"/>
      <path id="Trazado_611620" data-name="Trazado 611620" d="M135.6,53.717a4.7,4.7,0,0,1-6.646,6.646L101.523,32.935a4.7,4.7,0,1,1,6.646-6.647Z" transform="translate(1.448 0.36)" fill="#d46446"/>
      <path id="Trazado_611621" data-name="Trazado 611621" d="M107.455,60.362a4.7,4.7,0,0,1-6.646-6.646l27.427-27.428a4.7,4.7,0,1,1,6.647,6.646Z" transform="translate(1.438 0.36)" fill="#d46446"/>
      <path id="Trazado_611622" data-name="Trazado 611622" d="M206.793,377.374c-5.066.712-19.722-1.977-23.842-9.626a30.163,30.163,0,0,1-1.645-3.575v-.013a16.025,16.025,0,0,1-1.249-6.314,5.522,5.522,0,0,1,.241-1.6l-12.392.121-.225.007a34.73,34.73,0,0,1,.766,7.156,7.684,7.684,0,0,1-.038.807,12.934,12.934,0,0,1-.616,3.571c-1.524,4.358-3.088,12.555,2.319,14.5,2.121.766,8.644,1.149,15.857,1.215.411.011.809.021,1.218.02,10.787.058,22.657-.558,23.687-1.642,1.768-1.853,1-5.357-4.082-4.632" transform="translate(2.406 5.152)" fill="#e7b886"/>
      <path id="Trazado_611623" data-name="Trazado 611623" d="M163.086,364.18c-.291,1.23,1.365,2.264,1.185,4.6s-2.963,11.585-.493,13.607,17.521,2.3,19.266,2.221,1.86-1.734,5.3-.828,24.764.419,25.3-2.616,1.285-5.782-.3-6.584-12.6-1.749-14.4-2.928-11.736-6.256-12.593-8.061-2.77-3.268-5.024.523-12.471,1.057-13.506-.35-4.085-2.335-4.734.411" transform="translate(2.354 5.231)" fill="#47494a"/>
      <path id="Trazado_611624" data-name="Trazado 611624" d="M74.3,262.507s-3.626,15.816-.986,24.106c2.415,7.586,11.445,17.464,33.943,11.833,13.629-3.394,10.654-1.563,27.311-3.25,4.679-.474,10.795-.776,19.072-.856,4.049-.049,8.68-.428,13.428-.742,5.877-3.694,9.084-7.469,9.4-13.385.541-10.185-10.389-12.669-10.389-12.669s-12.991-2.7-28.927-4.243c-5.644-.55-11.653-.952-17.585-1.055-12.709-.2-45.265.262-45.265.262" transform="translate(1.046 3.792)" fill="#cbd3f7"/>
      <path id="Trazado_611625" data-name="Trazado 611625" d="M175.359,280.012a15.453,15.453,0,0,1-10.761,5.35c-5.919.228-11.351-3.4-15.045-9.278a97.2,97.2,0,0,1-.009,17.585c-3.788,31.49,13.431,72.951,14.482,78.892,0,0,5.173.244,18.381-2.791,4.865-1.119,4.865-4.111,4.865-4.111Z" transform="translate(2.155 3.993)" fill="#cbd3f7"/>
      <path id="Trazado_611626" data-name="Trazado 611626" d="M100.4,153.2a13.076,13.076,0,0,0,6.121-9.833c.932-7.133-3.151-11.452,7.455-27.093s22.928-5.891,27.334-3.443,2.359,11.11-.56,25.161c-3.206,15.415-8.022,17.983-11.713,18.749-2.489.517-7.29-1.6-9.254-1.034-.969.277-2.218,2.533-3.225,4.72s-1.772,4.305-1.772,4.305Z" transform="translate(1.452 1.556)" fill="#eac49f"/>
      <path id="Trazado_611627" data-name="Trazado 611627" d="M106.764,144.151s-.882,1.02,2.24-1.485,2.736-6.53,2.789-8.94c0,0,5.068-2.059,5.949-.616,0,0,2.1,2.9,5.529-6.919,1.769-5.074,8.039-6.116,12.2-3.521s12.9,6,19.665-6.67c0,0-2.983.8-8.4-4.8s-14.985-18.438-34.211-7.533c-18.842,10.683-10.462,15.1-5.765,40.48" transform="translate(1.458 1.438)" fill="#47494a"/>
      <path id="Trazado_611628" data-name="Trazado 611628" d="M109.949,131.877a3.82,3.82,0,0,1,3.08-4.51,3.965,3.965,0,0,1,4.562,3.154c.408,2.116-1.025,5.927-3.134,6.3s-4.1-2.831-4.508-4.945" transform="translate(1.589 1.841)" fill="#eac49f"/>
      <path id="Trazado_611629" data-name="Trazado 611629" d="M110.226,167.789s5.614-13.014-9.432-15.236c0,0-9.894,6.288-14.458,11.532C80.2,171.131,75.2,182.18,73.73,199.4c-1.4,16.316.363,43.333.559,64.7l43.212-.312s3.906-60.625-1.112-89.155c-2.367-13.451-6.163-6.836-6.163-6.836" transform="translate(1.059 2.206)" fill="#a21717"/>
      <path id="Trazado_611630" data-name="Trazado 611630" d="M182.2,280.757c-.735.44-2.595-.68-4.041-3.341a6.928,6.928,0,0,0-3.164-3.275s2.4,2.778,2.862,4.743.027,3.294-1.3,2.2c-1.3-1.1-2.857-4.61-4.627-5.165,0,0,2.429,3.715,1.526,4.153-.884.437-3.357-3.063-5.154-3.237a10.755,10.755,0,0,1-2.186-.588c-.01-.012-.021,0-.032-.009-.876-.3-1.925-.715-3.128-1.268a.053.053,0,0,1-.033-.01c-4.628-2.807-9.986-9.117-9.986-9.117s-.253-2.076-.71-5.248l1.326-3.958a37.931,37.931,0,0,0,9.218,5.6.639.639,0,0,0,.156.038c4.084.769,13.037,2.311,16.349,5.444,3.292,3.135,5.366,8.378,4.912,9.071-.435.693-1.891.4-3.277-1.571-1.41-1.948-1.834-2.541-2.8-3.094a49.807,49.807,0,0,1,3.2,5.15c.633,1.443,1.637,3.067.9,3.485" transform="translate(2.201 3.711)" fill="#eac49f"/>
      <path id="Trazado_611631" data-name="Trazado 611631" d="M155.124,267.927c-.112-.017-.24-.043-.353-.063-7.22-1.309-34.892-18.991-41.469-21.619-4.678-1.884-32.733-50.366-32.841-61.888-.017-1.283-.019-1.982-.019-1.982l23.384,6.51c2.736,6.6,20.155,44.7,20.155,44.7l34.629,26.99-2.493,4.155a11.5,11.5,0,0,0-.993,3.2" transform="translate(1.163 2.637)" fill="#eac49f"/>
      <path id="Trazado_611632" data-name="Trazado 611632" d="M140.726,132.1s.705,5.646,1.2,10.9c.163,1.74-7.294-.1-7.294-.1Z" transform="translate(1.947 1.91)" fill="#eac49f"/>
      <path id="Trazado_611633" data-name="Trazado 611633" d="M116.024,174.647S99.167,162.6,98.4,153.917l3.968-2.8,14.218,8.688Z" transform="translate(1.423 2.185)" fill="#eac49f"/>
      <path id="Trazado_611634" data-name="Trazado 611634" d="M114.225,201.883,88.7,211.352s-14.713-25.938-9.049-36.686c0,0-.12,5.914,5.3-5.218s29.267,32.435,29.267,32.435" transform="translate(1.133 2.424)" fill="#a21717"/>
      <path id="Trazado_611635" data-name="Trazado 611635" d="M450.97,377.374c-5.066.712-19.722-1.977-23.842-9.626a30.157,30.157,0,0,1-1.645-3.575v-.013a16.024,16.024,0,0,1-1.249-6.314,5.522,5.522,0,0,1,.241-1.6l-12.392.121-.225.007a34.727,34.727,0,0,1,.766,7.156,7.68,7.68,0,0,1-.038.807,12.933,12.933,0,0,1-.616,3.571c-1.524,4.358-3.088,12.555,2.319,14.5,2.121.766,8.644,1.149,15.857,1.215.411.011.81.021,1.218.02,10.787.058,22.657-.558,23.687-1.642,1.768-1.853,1-5.357-4.082-4.632" transform="translate(5.937 5.152)" fill="#e7b886"/>
      <path id="Trazado_611636" data-name="Trazado 611636" d="M407.263,364.18c-.291,1.23,1.365,2.264,1.185,4.6s-2.963,11.585-.493,13.607,17.521,2.3,19.266,2.221,1.859-1.734,5.3-.828,24.764.419,25.3-2.616,1.285-5.782-.3-6.584-12.6-1.749-14.4-2.928-11.736-6.256-12.592-8.061-2.771-3.268-5.024.523-12.471,1.057-13.505-.35-4.085-2.335-4.735.411" transform="translate(5.885 5.231)" fill="#47494a"/>
      <path id="Trazado_611637" data-name="Trazado 611637" d="M317.921,261.812s-3.069,16.517-.427,24.807c2.415,7.587,11.444,17.464,33.943,11.833,13.629-3.394,10.654-1.563,27.31-3.25,4.68-.474,10.795-.776,19.072-.856,4.049-.049,8.679-.428,13.428-.741,5.877-3.695,9.085-7.468,9.4-13.385.541-10.185-10.39-12.67-10.39-12.67s-12.99-2.7-28.926-4.242c-5.645-.55-11.654-.953-17.586-1.055-12.709-.2-45.823-.44-45.823-.44" transform="translate(4.576 3.786)" fill="#cbd3f7"/>
      <path id="Trazado_611638" data-name="Trazado 611638" d="M419.537,280.012a15.453,15.453,0,0,1-10.761,5.35c-5.919.228-11.351-3.4-15.047-9.278a97.1,97.1,0,0,1-.008,17.585c-3.788,31.49,13.431,72.951,14.482,78.892,0,0,5.173.244,18.381-2.791,4.865-1.119,4.865-4.111,4.865-4.111Z" transform="translate(5.686 3.993)" fill="#cbd3f7"/>
      <path id="Trazado_611639" data-name="Trazado 611639" d="M322.089,158.584a13.074,13.074,0,0,0,2.941-11.2c-1.218-7.088-6.4-10.009-.887-28.085s20.161-12.406,25.094-11.369,5.538,9.915,6.9,24.2c1.493,15.673-2.348,19.552-5.648,21.374-2.225,1.23-7.437.628-9.146,1.748-1.687,1.1-2.106,10.1-2.106,10.1Z" transform="translate(4.652 1.537)" fill="#eac49f"/>
      <path id="Trazado_611640" data-name="Trazado 611640" d="M325.61,148.05s-.541,1.235,1.7-2.081.683-7.047.02-9.366c0,0,4.233-3.466,5.5-2.347,0,0,2.864,2.151,3.237-8.244.189-5.371,5.871-8.219,10.615-6.971s14.1,1.915,16.816-12.186c0,0-2.613,1.651-9.442-2.1s-19.765-13.184-34.909,2.917c-14.842,15.776-5.53,17.52,6.459,40.376" transform="translate(4.505 1.426)" fill="#47494a"/>
      <path id="Trazado_611641" data-name="Trazado 611641" d="M325.08,135.281a3.821,3.821,0,0,1,1.609-5.219,3.965,3.965,0,0,1,5.29,1.665c1.015,1.9.773,5.965-1.131,6.946s-4.755-1.492-5.768-3.391" transform="translate(4.695 1.875)" fill="#eac49f"/>
      <path id="Trazado_611642" data-name="Trazado 611642" d="M323.944,263.734c.577-7.243,1.907-28.5-1.106-42.79-1.917-9.079-4.819-20.928-5.478-33.051a67.5,67.5,0,0,1,1.907-21.588,44.157,44.157,0,0,1,3.165-8.319c.222-.467.467-.933.72-1.39a.228.228,0,0,1,.061-.091c.152-.3.325-.609.5-.9a.124.124,0,0,1,.02-.03H338.1a14.612,14.612,0,0,1,2.252,1.106,30.094,30.094,0,0,1,9.322,8.816,1.632,1.632,0,0,0,.1.142c4.555,6.533,8.663,17.013,8.511,33.467-.041,4.352-.051,8.653-.031,12.863.031,13.36.294,25.717.569,35.212.223,7.8.457,13.665.578,16.556Z" transform="translate(4.587 2.25)" fill="#eac49f"/>
      <path id="Trazado_611643" data-name="Trazado 611643" d="M364.4,225.315c-.112,8.877-.639,17.378-1.187,24.115-.7,8.581-1.451,14.3-1.451,14.3H316.595c-.193-21.364-1.278-50.409-3.946-67.482-2.019-12.965.67-21.1,2.262-25.372a23.5,23.5,0,0,0,1-2.9v-.03c.426-2.445,7.436-11.768,7.872-12.345a.12.12,0,0,1,.02-.031.037.037,0,0,1,.03.01,64.35,64.35,0,0,1,15.947,4.585,58.783,58.783,0,0,1,9.921,5.285l.041.041a1.386,1.386,0,0,0,.1.142c.659.862,3.622,4.981,8.755,15.775,4.859,10.236,6.006,27.695,5.793,43.906" transform="translate(4.511 2.25)" fill="#a21717"/>
      <path id="Trazado_611644" data-name="Trazado 611644" d="M426.377,280.757c-.735.44-2.595-.68-4.041-3.341a6.928,6.928,0,0,0-3.164-3.275s2.4,2.778,2.862,4.743.027,3.294-1.3,2.2c-1.3-1.1-2.857-4.61-4.627-5.165,0,0,2.429,3.715,1.526,4.153-.884.437-3.357-3.063-5.154-3.237a10.753,10.753,0,0,1-2.186-.588c-.01-.012-.021,0-.032-.009-.876-.3-1.925-.715-3.128-1.268a.053.053,0,0,1-.033-.01c-4.628-2.807-9.986-9.117-9.986-9.117s-.253-2.076-.71-5.248l1.326-3.958a37.929,37.929,0,0,0,9.218,5.6.639.639,0,0,0,.156.038c4.084.769,13.037,2.311,16.349,5.444,3.292,3.135,5.366,8.378,4.912,9.071-.435.693-1.891.4-3.277-1.571-1.41-1.948-1.834-2.541-2.8-3.094a49.808,49.808,0,0,1,3.2,5.15c.633,1.443,1.636,3.067.9,3.485" transform="translate(5.733 3.711)" fill="#eac49f"/>
      <path id="Trazado_611645" data-name="Trazado 611645" d="M399.3,267.927c-.113-.017-.24-.043-.353-.063-7.22-1.309-34.892-18.991-41.469-21.619-4.678-1.884-32.733-50.366-32.841-61.888-.017-1.283-.019-1.982-.019-1.982L348,188.884c2.736,6.6,20.155,44.7,20.155,44.7l34.628,26.99-2.493,4.155a11.534,11.534,0,0,0-.992,3.2" transform="translate(4.695 2.637)" fill="#eac49f"/>
      <path id="Trazado_611646" data-name="Trazado 611646" d="M355.253,194.337,324.93,204.563s-14.713-25.938-9.049-36.686c0,0-.12,5.914,5.3-5.218s34.069,31.679,34.069,31.679" transform="translate(4.549 2.326)" fill="#a21717"/>
      <path id="Trazado_611647" data-name="Trazado 611647" d="M354.516,126.407s2.343,5.186,4.366,10.062c.671,1.615-7,2.066-7,2.066Z" transform="translate(5.089 1.828)" fill="#eac49f"/>
    </g>
  </g>
</svg>
