<svg xmlns="http://www.w3.org/2000/svg" width="606.697" height="227.233" viewBox="0 0 606.697 227.233">
  <g id="Grupo_1093879" data-name="Grupo 1093879" transform="translate(-183.303 -2756.465)">
    <g id="Grupo_1077660" data-name="Grupo 1077660" transform="translate(5991.648 11666.869)">
      <rect id="Rectángulo_378680" data-name="Rectángulo 378680" width="39.751" height="34.58" transform="translate(-5687.686 -8906.886)" fill="#aa8372"/>
      <path id="Trazado_611316" data-name="Trazado 611316" d="M799.26,5.467l-39.751-.754V19.472l39.751.754Z" transform="translate(-6447.195 -8912.46)" fill="#8e6656"/>
      <rect id="Rectángulo_378681" data-name="Rectángulo 378681" width="39.751" height="34.58" transform="translate(-5712.104 -8885.232)" fill="#aa8372"/>
      <path id="Trazado_611317" data-name="Trazado 611317" d="M755.956,43.869,716.2,43.115V57.873l39.751.754Z" transform="translate(-6428.309 -8929.208)" fill="#8e6656"/>
      <path id="Trazado_611318" data-name="Trazado 611318" d="M810.948,51.037l-7.385-.089-4.632,9.584,15.1-.043Z" transform="translate(-6464.389 -8932.624)" fill="#8e6656"/>
      <path id="Trazado_611319" data-name="Trazado 611319" d="M785.152,41.914l-7.428-.136V56.532l15.082-.066Z" transform="translate(-6455.139 -8928.625)" fill="#8e6656"/>
      <path id="Trazado_611320" data-name="Trazado 611320" d="M730.424,66.256l-14.22-.215V89.306l28.871-.1Z" transform="translate(-6428.308 -8939.209)" fill="#8e6656"/>
      <path id="Trazado_611321" data-name="Trazado 611321" d="M805.171,28.717c-5.44-2.914-2.233-8.244-2.233-8.244a7.838,7.838,0,0,1,2.88,3.455,5.808,5.808,0,0,1-.646,4.789" transform="translate(-6465.727 -8919.334)" fill="#8f8b09"/>
      <path id="Trazado_611322" data-name="Trazado 611322" d="M807.1,30.115c-2.255-5.833,3.577-7.74,3.577-7.74a8.063,8.063,0,0,1-.028,4.538,5.621,5.621,0,0,1-3.549,3.2" transform="translate(-6467.728 -8920.164)" fill="#9b9610"/>
      <path id="Trazado_611323" data-name="Trazado 611323" d="M807.744,36.047c-1.3-6.43,5.364-6.573,5.364-6.573a8.035,8.035,0,0,1-1.142,4.385,5.546,5.546,0,0,1-4.222,2.188" transform="translate(-6468.16 -8923.259)" fill="#abab1a"/>
      <path id="Trazado_611324" data-name="Trazado 611324" d="M804.369,35.768c-6.12-.472-5.253-6.666-5.253-6.666a7.648,7.648,0,0,1,3.983,2.006,5.814,5.814,0,0,1,1.27,4.661" transform="translate(-6464.451 -8923.097)" fill="#a29d18"/>
      <path id="Trazado_611325" data-name="Trazado 611325" d="M803.63,39.982c-.751-.059-4.792,2.478-6.12,5.133l11.373.354c-.635-1.711-4.5-5.428-5.253-5.487" transform="translate(-6463.769 -8927.842)" fill="#982b23"/>
      <path id="Trazado_611326" data-name="Trazado 611326" d="M809.021,47.844l-14.037-.118s-.5,6.135,2.36,10.855l9.193.118c3.478-3.658,2.484-10.855,2.484-10.855" transform="translate(-6462.652 -8931.22)" fill="#441019"/>
      <path id="Trazado_611327" data-name="Trazado 611327" d="M796.587,47.739c.509,4.063,3.146,7.19,6.331,7.23s5.844-3.049,6.338-7.123Z" transform="translate(-6463.366 -8931.226)" fill="#661e29"/>
      <path id="Trazado_611328" data-name="Trazado 611328" d="M750.431,91.768,742.978,76.75l5.862-1.9,6.835,14.48Z" transform="translate(-6439.986 -8943.048)" fill="#e6c38e"/>
      <path id="Trazado_611329" data-name="Trazado 611329" d="M738.985,89.276,730.053,71l4.361-3.44,9.8,19.584Z" transform="translate(-6434.348 -8939.871)" fill="#e43c4a"/>
      <path id="Trazado_611330" data-name="Trazado 611330" d="M728.01,88.554l-8.24-18.745,4.744-3.191,9.072,20.1Z" transform="translate(-6429.864 -8939.459)" fill="#df8f2b"/>
      <path id="Trazado_611331" data-name="Trazado 611331" d="M728.091,69.348c-2.149,1.112-.72,8.139,3.191,15.695.718,1.388,1.471,2.7,2.234,3.9l3.264-1.074-8.4-18.613a1.315,1.315,0,0,0-.288.09" transform="translate(-6433.057 -8940.609)" fill="#f6b048"/>
      <path id="Trazado_611332" data-name="Trazado 611332" d="M756.24,39.742,712,38.593l.574,40.505,44.24.288ZM716.777,75.228l-.464-32.71,35.726.928L752.5,75.46Z" transform="translate(-6426.475 -8927.237)" fill="#e5c6a5"/>
      <path id="Trazado_611333" data-name="Trazado 611333" d="M755.977,0l-.84,22.392,4.2.109.651-18.656,35.823,1.026-.385,32.914-20.17-.631.059,4.051,24.554.834.363-40.886Z" transform="translate(-6445.289 -8910.404)" fill="#e5c6a5"/>
      <path id="Trazado_611334" data-name="Trazado 611334" d="M716.313,42.518l25.487.662-3.54-3.905L712,38.593l.278,19.61,4.344,6.137Z" transform="translate(-6426.475 -8927.236)" fill="#e7d4be"/>
      <path id="Trazado_611335" data-name="Trazado 611335" d="M766.089,71.847l-4.325-4.77.3,20.806L733.927,87.7l2.771,3.915,29.68.193Z" transform="translate(-6436.038 -8939.659)" fill="#e7d4be"/>
      <path id="Trazado_611336" data-name="Trazado 611336" d="M777.515,4.309l26.933.771-.385,32.915-3.892-.121L803,42.062l5.506.187.363-40.887L774.929.478Z" transform="translate(-6453.921 -8910.612)" fill="#e7d4be"/>
      <path id="Trazado_611337" data-name="Trazado 611337" d="M751.049,89.287l-4.744-9.56,3.732-1.212,4.351,9.217Z" transform="translate(-6441.436 -8944.648)" fill="#f9ddb7"/>
      <path id="Trazado_611338" data-name="Trazado 611338" d="M737.529,74.551l-1.007-2.011-3.231,2.548.786,1.607Z" transform="translate(-6435.76 -8942.043)" fill="#ff4664"/>
      <path id="Trazado_611339" data-name="Trazado 611339" d="M743.565,96.38l.824,1.686,3.878-1.578-1.156-2.31Z" transform="translate(-6440.242 -8951.479)" fill="#ff4664"/>
      <path id="Trazado_611340" data-name="Trazado 611340" d="M776.361,162.758c-7.1-.43-8.492-4.732-6.084-4.3s3.548-.717,0-2.151-4.31-1.434-3.3-2.581,5.07.717,5.324-.43-7.985-7.456-9.506-8.46.608-2.489,3.3-1.577c1.268.43.887-2.294-3.422-3.871s-8.872-12.332-1.774-9.894,9,10.754,11.407,10.611,4.182-15.773,9.886-14.052-1.521,8.89,1.014,9.464,4.563-4.015,7.225-1.291-10.14,11.041-8.365,11.614,3.8-2.007,4.943-.717-8.872,6.6-7.858,7.6,2.535-2.007,3.8-1-4.31,4.875-4.817,5.879,3.042-2.294,4.183-1-5.957,6.166-5.957,6.166" transform="translate(-6446.19 -8965.322)" fill="#a7b231"/>
      <path id="Trazado_611341" data-name="Trazado 611341" d="M797.844,139.974c-2.063-2.112-3.746.169-5.578,1.035-2.449,5.615-4.56,14.366-8.618,18.121-3.289,3.044-5.948,1.927-9.445,1.433a22.424,22.424,0,0,0,3.488,1.493c3.549,1.434,2.408,2.581,0,2.151s-1.014,3.871,6.084,4.3c0,0,7.1-4.875,5.957-6.166s-4.69,2.008-4.183,1,6.084-4.875,4.816-5.879-2.788,2.007-3.8,1,9-6.309,7.858-7.6-3.169,1.291-4.943.717,11.026-8.89,8.365-11.615" transform="translate(-6453.604 -8971.073)" fill="#8f9129"/>
      <path id="Trazado_611342" data-name="Trazado 611342" d="M789.233,169.884a44.782,44.782,0,0,1,2.028-24.335,98.683,98.683,0,0,0-2.028,24.335" transform="translate(-6459.78 -8973.884)" fill="#8f9129"/>
      <path id="Trazado_611343" data-name="Trazado 611343" d="M775.819,152.442a32.97,32.97,0,0,1,7.52,14.956l.845-.761c-1.828-6.223-4.117-11.731-8.365-14.2" transform="translate(-6454.309 -8976.892)" fill="#8f9129"/>
      <path id="Trazado_611344" data-name="Trazado 611344" d="M789.792,182.329a2.136,2.136,0,0,0,.319.317c.081.006.159.014.242.019,0,0,7.1-4.876,5.957-6.166s-4.69,2.007-4.183,1,6.084-4.876,4.817-5.879a.9.9,0,0,0-.109-.064,17.436,17.436,0,0,0-2.828,1.873c-3.81,3.081-5.7,7.064-4.215,8.9" transform="translate(-6460.183 -8985.229)" fill="#a4a42f"/>
      <path id="Trazado_611345" data-name="Trazado 611345" d="M807.226,140.348c-1.511,3.109-1.74,5.9-.34,6.971.032.024.069.039.1.061,2.909-2.674,6.177-5.9,4.7-7.406-1.64-1.679-3.039-.582-4.465.374" transform="translate(-6467.452 -8971.073)" fill="#a4a42f"/>
      <path id="Trazado_611346" data-name="Trazado 611346" d="M790.95,189.608c-1.268-.634-14.576-1.013-15.209-.254s.38,12.294,1.267,14.323h12.928c.634-.381,2.281-13.434,1.014-14.069" transform="translate(-6454.188 -8992.807)" fill="#e4ddbf"/>
      <path id="Trazado_611347" data-name="Trazado 611347" d="M791.132,189.763a16.413,16.413,0,0,0-3.677-.474c-.027,6.641-2.825,12.008-6.272,12.008-2.178,0-4.1-2.143-5.221-5.393a39.5,39.5,0,0,0,1.229,7.928h12.928c.634-.381,2.282-13.434,1.014-14.069" transform="translate(-6454.371 -8992.962)" fill="#d8c6a4"/>
      <path id="Trazado_611348" data-name="Trazado 611348" d="M775.554,193.825c.009.474.029,1,.059,1.557,4.459-.132,11.808.021,15.777.306.024-.559.035-1.088.03-1.565a149.581,149.581,0,0,0-15.866-.3" transform="translate(-6454.193 -8994.898)" fill="#ec2424"/>
      <path id="Trazado_611349" data-name="Trazado 611349" d="M850.624,143.956H810.186l-7.921,33.907-15.98,1.111.277,3.335L845.9,183.7l6.253-38.493Z" transform="translate(-6458.873 -8973.189)" fill="#753c4a"/>
      <path id="Trazado_611350" data-name="Trazado 611350" d="M874.168,143.956l-6.567,35.3H840.5l.387,3.561,28.656.886,6.253-38.493-1.529-1.251Z" transform="translate(-6482.52 -8973.189)" fill="#3d2228"/>
      <rect id="Rectángulo_378682" data-name="Rectángulo 378682" width="69.62" height="1.225" transform="translate(-5678.981 -8777.806)" fill="#512e35"/>
      <rect id="Rectángulo_378683" data-name="Rectángulo 378683" width="1.225" height="98.391" transform="translate(-5609.452 -8785.112) rotate(-0.061)" fill="#512e35"/>
      <rect id="Rectángulo_378684" data-name="Rectángulo 378684" width="1.225" height="98.392" transform="matrix(1, -0.003, 0.003, 1, -5654.059, -8785.111)" fill="#512e35"/>
      <path id="Trazado_611351" data-name="Trazado 611351" d="M853.645,320.59,852.6,222.205l1.224-.013,1.043,98.4Z" transform="translate(-6487.797 -9007.313)" fill="#512e35"/>
      <path id="Trazado_611352" data-name="Trazado 611352" d="M773.795,320.59l-1.042-98.385,1.224-.013,1.043,98.4Z" transform="translate(-6452.971 -9007.313)" fill="#512e35"/>
      <path id="Trazado_611353" data-name="Trazado 611353" d="M759.051,220.654h86.3l-.625-9.172H759.468Z" transform="translate(-6446.995 -9002.642)" fill="#ffc550"/>
      <path id="Trazado_611354" data-name="Trazado 611354" d="M818.076,178.982h38.354l6.393-31.822H825.58Z" transform="translate(-6472.739 -8974.587)" fill="#6ab1d8"/>
      <path id="Trazado_611355" data-name="Trazado 611355" d="M856.856,153.146H838.538a.5.5,0,1,1,0-1h18.317a.5.5,0,1,1,0,1" transform="translate(-6481.446 -8976.764)" fill="#a5d9ef"/>
      <path id="Trazado_611356" data-name="Trazado 611356" d="M847.654,163.975h-1.7a.5.5,0,1,1,0-1h1.7a.5.5,0,0,1,0,1" transform="translate(-6484.682 -8981.486)" fill="#a5d9ef"/>
      <path id="Trazado_611357" data-name="Trazado 611357" d="M860.97,163.975h-7.191a.5.5,0,0,1,0-1h7.191a.5.5,0,1,1,0,1" transform="translate(-6488.093 -8981.486)" fill="#a5d9ef"/>
      <path id="Trazado_611358" data-name="Trazado 611358" d="M848.262,158.561h-9.724a.5.5,0,1,1,0-1h9.724a.5.5,0,1,1,0,1" transform="translate(-6481.446 -8979.125)" fill="#a5d9ef"/>
      <path id="Trazado_611359" data-name="Trazado 611359" d="M852.46,168.938h-4.3a.5.5,0,1,1,0-1h4.3a.5.5,0,1,1,0,1" transform="translate(-6485.645 -8983.65)" fill="#a5d9ef"/>
      <path id="Trazado_611360" data-name="Trazado 611360" d="M857.385,186.8l3.335-15.425h12.4L870,186.8Z" transform="translate(-6489.883 -8985.146)" fill="#a5d9ef"/>
      <path id="Trazado_611361" data-name="Trazado 611361" d="M848.389,220.654h35.922l-.26-9.172H848.563Z" transform="translate(-6485.96 -9002.642)" fill="#ff9c39"/>
      <path id="Trazado_611362" data-name="Trazado 611362" d="M652.265,279.216H602.053l-.39,6.114c6.374,3.643,40.586,4.423,51.643-1.3Z" transform="translate(-6378.352 -9032.183)" fill="#512e35"/>
      <path id="Trazado_611363" data-name="Trazado 611363" d="M743.005,359.045l-5.517,2.981a99.942,99.942,0,0,0,5.741,13.553l3.564-1.994c-2-3.9-3.788-14.54-3.788-14.54" transform="translate(-6437.591 -9067)" fill="#ea8939"/>
      <path id="Trazado_611364" data-name="Trazado 611364" d="M766.248,387.939H744.156s-.585-6.37.075-7.2,1.775-.236,2.838-.354,1.2-4,2.817-3.767,2.76,4.7,4.39,5.366c3.386,1.379,12.132,1.324,11.972,5.951" transform="translate(-6440.395 -9074.661)" fill="#e2cfb0"/>
      <path id="Trazado_611365" data-name="Trazado 611365" d="M754.276,381.989c-1.63-.664-2.775-5.13-4.39-5.366s-1.755,3.649-2.817,3.767-2.179-.472-2.838.354c-.427.535-.333,3.393-.213,5.343h21.7c-1.924-2.792-8.59-2.935-11.446-4.1" transform="translate(-6440.395 -9074.662)" fill="#aa1a3d"/>
      <path id="Trazado_611366" data-name="Trazado 611366" d="M735.309,361.923l-4.683,2.927a84.624,84.624,0,0,0,5.073,11.61l4.2-1.951c-1.756-3.317-4.585-12.586-4.585-12.586" transform="translate(-6434.598 -9068.255)" fill="#eab053"/>
      <path id="Trazado_611367" data-name="Trazado 611367" d="M582.957,148.875c.761-2.465,15.121-2.488,18.244,4.147s13.659,41.756,15.414,45.269,28.171,22.946,28.171,22.946-42.219,6.324-51.585-6.75-12.1-59.611-10.244-65.611" transform="translate(-6369.955 -8974.672)" fill="#f78e39"/>
      <path id="Trazado_611368" data-name="Trazado 611368" d="M641.318,137.534c-3.164-6.342-13.3-31.52-13.3-31.52a45.226,45.226,0,0,1,2.258-4.491c.359-.3,6.212-2.254,6.212-2.254s13.885,22.017,14.754,23.218,1.538,11.069,1.028,12.817-10.947,2.229-10.947,2.229" transform="translate(-6389.844 -8953.701)" fill="#e8d1ac"/>
      <path id="Trazado_611369" data-name="Trazado 611369" d="M606.14,47.8c1.224,8.351,11.931,34.372,12.837,35.448s6.062-.807,6.53-1.484a22.143,22.143,0,0,0,1.437-5.509c-.027-.719-17.39-28.545-18.332-29.5S606.14,47.8,606.14,47.8" transform="translate(-6380.304 -8930.685)" fill="#ffb290"/>
      <path id="Trazado_611370" data-name="Trazado 611370" d="M614.358,92.837c-5.668,5.028-15.021-.629-12.365-9.871s15.565-10.842,15.6-1.016-3.239,10.887-3.239,10.887" transform="translate(-6378.293 -8943.234)" fill="#d34226"/>
      <path id="Trazado_611371" data-name="Trazado 611371" d="M616.383,79.441a11.688,11.688,0,0,1-.965,1.734c-2.818,4.166-7.719,5.773-10.947,3.59a5.654,5.654,0,0,1-1.73-1.888,11.187,11.187,0,0,0-.748,1.906c-2.656,9.243,6.7,14.9,12.365,9.871,0,0,3.277-1.062,3.238-10.887a7.4,7.4,0,0,0-1.213-4.326" transform="translate(-6378.292 -8945.051)" fill="#b52f1d"/>
      <path id="Trazado_611372" data-name="Trazado 611372" d="M641.376,251.707c14.6,5.54,40.051,3.946,40.051,3.946l11.333,49.9,9.464-.878s-7.664-65.626-8.1-66.18c-1.243-1.588-36.387-5.892-36.387-5.892l-12.979-5.3s-14.7,20.106-3.383,24.4" transform="translate(-6393.805 -9009.544)" fill="#aa1a3d"/>
      <path id="Trazado_611373" data-name="Trazado 611373" d="M734.161,311.584l2.738-.254s-7.664-65.625-8.1-66.179c-.47-.6-5.779-1.587-12.2-2.584l5.437,2.844.39,4.162,1.691.13a35.267,35.267,0,0,1,0,3.772c-.107.753,7.424,43.338,10.043,58.109" transform="translate(-6428.48 -9016.197)" fill="#dd2c4e"/>
      <path id="Trazado_611374" data-name="Trazado 611374" d="M619.921,254.129c14.6,5.539,40.051,3.946,40.051,3.946l19.431,53.51,7.512-4.976s-10.6-64.457-12.423-66.017c-1.532-1.312-28.944-5.789-28.944-5.789L623.3,229.73s-14.7,20.106-3.383,24.4" transform="translate(-6384.447 -9010.601)" fill="#dd2c4e"/>
      <path id="Trazado_611375" data-name="Trazado 611375" d="M665.646,253.73c.2-1.561,2.146-4.683,2.146-4.683l-4.683,3.9s1.952-4.488,2.147-5.464-4.878,3.122-4.878,3.122-29.659-5.464-31.025-6.244c-1.106-.632,15.61-7.025,18.081-10.407L623.3,229.73s-14.7,20.106-3.383,24.4c14.6,5.54,40.05,3.946,40.05,3.946l19.431,53.51,5.322-3.525c-4.885-13.427-19.24-53.034-19.078-54.329" transform="translate(-6384.447 -9010.601)" fill="#aa1a3d"/>
      <rect id="Rectángulo_378685" data-name="Rectángulo 378685" width="1.146" height="68.429" transform="translate(-5760.839 -8755.151)" fill="#512e35"/>
      <path id="Trazado_611376" data-name="Trazado 611376" d="M594.756,343.745h-1.145l4.1-68.463,1.144.068Z" transform="translate(-6374.839 -9030.467)" fill="#512e35"/>
      <path id="Trazado_611377" data-name="Trazado 611377" d="M673.145,345.676l-8.586-65.818,1.137-.148,8.586,65.967Z" transform="translate(-6405.783 -9032.398)" fill="#512e35"/>
      <path id="Trazado_611378" data-name="Trazado 611378" d="M706.188,345.628l-16-65.757,1.114-.271,16,66.028Z" transform="translate(-6416.961 -9032.351)" fill="#512e35"/>
      <path id="Trazado_611379" data-name="Trazado 611379" d="M565.46,66.364a1.949,1.949,0,0,1-2.336.014c-2.582-1.917-5.221-2.762-5.643-3.579-.482-.935.24-5.373,1.431-5.217,1.048.138,2.855,1.2,3.915,1.531.7.221,2.241,2.824,3.216,4.579a2.089,2.089,0,0,1-.583,2.672" transform="translate(-6359.016 -8935.517)" fill="#ffb290"/>
      <path id="Trazado_611380" data-name="Trazado 611380" d="M553.637,64.722l1.417,2.207c-3.451-1.384-8.509-2.155-8.779-2.677-.723-1.4,3.914-.62,7.362.47" transform="translate(-6354.162 -8938.098)" fill="#ffb290"/>
      <path id="Trazado_611381" data-name="Trazado 611381" d="M553.757,60.28l.646,2.146c-3.309-1.725-8.746-2.745-8.868-3.265-.326-1.4,4.82-.33,8.222,1.119" transform="translate(-6353.865 -8935.923)" fill="#ffb290"/>
      <path id="Trazado_611382" data-name="Trazado 611382" d="M555.238,56.544l.712,2.183c-3.212-1.881-8.562-3-8.689-3.435-.342-1.167,4.682-.423,7.977,1.252" transform="translate(-6354.616 -8934.271)" fill="#ffb290"/>
      <path id="Trazado_611383" data-name="Trazado 611383" d="M565.88,50.578c.79.173,1,2.175,1.668,3.469a27.721,27.721,0,0,1,2.206,7.355l-3.931-4.572a3.471,3.471,0,0,0-.081-2.658c-.644-1.365-.652-3.768.138-3.6" transform="translate(-6362.479 -8932.46)" fill="#ffb290"/>
      <path id="Trazado_611384" data-name="Trazado 611384" d="M604.46,43.74a1.95,1.95,0,0,1-2.125-.972c-1.533-2.826-3.57-4.706-3.608-5.624-.044-1.05,2.482-4.771,3.5-4.127.893.566,2.085,2.287,2.906,3.038.54.494.842,3.5.987,5.507A2.089,2.089,0,0,1,604.46,43.74Z" transform="translate(-6377.071 -8924.771)" fill="#ffb290"/>
      <path id="Trazado_611385" data-name="Trazado 611385" d="M595.832,37l.355,2.6c-2.546-2.71-6.808-5.54-6.833-6.128-.065-1.576,3.811,1.088,6.478,3.529" transform="translate(-6372.983 -8924.794)" fill="#ffb290"/>
      <path id="Trazado_611386" data-name="Trazado 611386" d="M597.8,33.023l-.319,2.218c-2.274-2.959-6.775-6.175-6.665-6.7.293-1.405,4.51,1.731,6.984,4.48" transform="translate(-6373.621 -8922.702)" fill="#ffb290"/>
      <path id="Trazado_611387" data-name="Trazado 611387" d="M600.751,30.247l-.275,2.279c-2.12-3.059-6.5-6.328-6.432-6.776.182-1.2,4.423,1.589,6.707,4.5" transform="translate(-6375.028 -8921.51)" fill="#ffb290"/>
      <path id="Trazado_611388" data-name="Trazado 611388" d="M611.435,29.29c.644.489-.008,2.395.051,3.849a27.723,27.723,0,0,1-1.1,7.6l-1.638-5.8a3.473,3.473,0,0,0,1.046-2.445c-.008-1.509,1-3.692,1.64-3.2" transform="translate(-6381.442 -8923.148)" fill="#ffb290"/>
      <path id="Trazado_611389" data-name="Trazado 611389" d="M624.982,191.225c10.667,7.415,28.151.352,28.151.352s-3.186-14.616-.323-23.591a71.426,71.426,0,0,1,6.113-14.309c.26-.52-9.207-17.619-10.032-18.211-5.985-4.293-15.009-1.691-16.44-1.041s2.536,30.83,2.536,33.562-10.006,23.239-10.006,23.239" transform="translate(-6388.522 -8968.433)" fill="#f7edda"/>
      <path id="Trazado_611390" data-name="Trazado 611390" d="M667.182,149.754a.19.19,0,0,1-.171-.107c-.036-.073-3.651-7.33-8.634-11.45a.191.191,0,0,1,.244-.295c5.047,4.173,8.7,11.5,8.733,11.575a.191.191,0,0,1-.171.276" transform="translate(-6403.057 -8970.531)" fill="#e0cdaf"/>
      <path id="Trazado_611391" data-name="Trazado 611391" d="M644.745,164.531c.975-2.537-4.1-23.805-4.1-23.805l-6.217-6.352a13.369,13.369,0,0,0-1.978.629c-1.43.651,2.537,30.83,2.537,33.562S624.982,191.8,624.982,191.8a19.968,19.968,0,0,0,9.675,3.264c4.681-11.543,9.348-28.613,10.087-30.536" transform="translate(-6388.522 -8969.012)" fill="#e0cdaf"/>
      <path id="Trazado_611392" data-name="Trazado 611392" d="M643.194,124.341c-.053-6.627-3.7-14.692-3.7-14.692l8.2,2.472,7.284,18.211a56.429,56.429,0,0,0-11.784-5.991" transform="translate(-6394.853 -8958.228)" fill="#ffb290"/>
      <path id="Trazado_611393" data-name="Trazado 611393" d="M651.934,122.724l-4.241-10.6-8.195-2.472s4.1,8.48,3.447,14.374c1.519.281,7.723-1.111,8.99-1.3" transform="translate(-6394.853 -8958.228)" fill="#f96d61"/>
      <path id="Trazado_611394" data-name="Trazado 611394" d="M632.609,106.958c-2.39-1.684-14.008-1.129-16.426-9.978s5-20.139,12.512-19.4c2.678-4.033,15.058,3.156,9.985,11.185a41.19,41.19,0,0,0-6.071,18.193" transform="translate(-6384.48 -8943.737)" fill="#d34226"/>
      <path id="Trazado_611395" data-name="Trazado 611395" d="M639.038,82.149a2.606,2.606,0,0,1-.866,1.573c-1.648,1.361-8.758-4.909-9.119-5.994a2.37,2.37,0,0,0-.359.42c-.13-.012-.26-.014-.39-.019a13.947,13.947,0,0,1,2.444,6.32c.8,5.873-1.86,11.083-5.936,11.636-3.485.473-6.877-2.613-8.286-7.19a15.448,15.448,0,0,0-.345,8.653c2.418,8.849,14.037,8.294,16.426,9.979a41.2,41.2,0,0,1,6.071-18.194,6.846,6.846,0,0,0,.358-7.184" transform="translate(-6384.481 -8944.306)" fill="#b52f1d"/>
      <path id="Trazado_611396" data-name="Trazado 611396" d="M641.791,105.719c4.067,5.005,11.372,6.238,16.3,4.861,0,0,.8-7.436-2.061-13.549A19.848,19.848,0,0,0,644.691,86.98s-.886,10.116-.634,12.132c.716,5.723-3.37,5.249-2.267,6.607" transform="translate(-6395.771 -8948.34)" fill="#ffb290"/>
      <path id="Trazado_611397" data-name="Trazado 611397" d="M638.923,119.1c-5.152,1.433-7.366-1.154-6.078-3.433s4.807.242,5.67,1.2a2.368,2.368,0,0,1,.408,2.235" transform="translate(-6391.795 -8960.447)" fill="#ffb290"/>
      <path id="Trazado_611398" data-name="Trazado 611398" d="M638.049,118.857a1.039,1.039,0,0,1-.927-1.122,1.274,1.274,0,0,1,.183-.663c-.759-.39-1.636-.562-2.074.213-.756,1.337.544,2.855,3.568,2.014a1.528,1.528,0,0,0,0-.9.886.886,0,0,1-.746.462" transform="translate(-6392.899 -8961.321)" fill="#f96d61"/>
      <path id="Trazado_611399" data-name="Trazado 611399" d="M624.814,141.167c-4.813-5.2-21.594-26.537-21.594-26.537a45.364,45.364,0,0,1,.911-4.943c.26-.39,5.333-3.9,5.333-3.9s19.643,17.041,20.813,17.951,3.18,13.1,3.18,14.922-8.644,2.509-8.644,2.509" transform="translate(-6379.03 -8956.543)" fill="#f7edda"/>
      <path id="Trazado_611400" data-name="Trazado 611400" d="M620.716,129.572c-1.756-1.658,5.268,2.537,2.634-.78-2.388-3.007-15.441-9.142-18.223-17.531a7.67,7.67,0,0,0-1,.815,45.385,45.385,0,0,0-.911,4.943s16.488,21.692,21.3,26.895c0,0,7.285-.2,8.911-2.276-4.287-6.192-11.147-10.585-12.715-12.065" transform="translate(-6379.03 -8958.929)" fill="#e0cdaf"/>
      <path id="Trazado_611401" data-name="Trazado 611401" d="M564.75,66.266c3.512,7.675,20.8,29.929,21.971,30.709s5.867-2.741,6.127-3.522a22.144,22.144,0,0,0-.162-5.691c-.228-.683-24.683-22.537-25.854-23.187s-2.081,1.691-2.081,1.691" transform="translate(-6362.252 -8938.519)" fill="#ffb290"/>
      <path id="Trazado_611402" data-name="Trazado 611402" d="M643.459,225.208a1.691,1.691,0,0,0-.08-2.8c-10.765-6.958-38.158-8.872-45.243-19.873-7.415-11.513-12.293-51.123-16.586-52.489-5.463,23.025-1.153,64.574,9.756,75.9,4.628,4.806,44.334,4.9,52.153-.747" transform="translate(-6368.548 -8975.848)" fill="#ffc550"/>
      <path id="Trazado_611403" data-name="Trazado 611403" d="M758.761,388.541H736.668s-1.169-6.312-.585-7.13,1.753-.233,2.806-.351,1.384-3.29,3.021-3.056,4.26,4.318,5.951,4.976c3.512,1.366,10.634.975,10.9,5.561" transform="translate(-6436.907 -9075.265)" fill="#f7edda"/>
      <path id="Trazado_611404" data-name="Trazado 611404" d="M605.562,169.134a.382.382,0,0,1-.368-.279c-.755-2.694-2.916-9.957-3.841-11.191-1.123-1.5-5.283-3.554-7.242-2.86a.382.382,0,0,1-.254-.721c2.494-.88,6.908,1.524,8.107,3.123s3.853,11.042,3.966,11.443a.382.382,0,0,1-.368.485" transform="translate(-6374.835 -8977.524)" fill="#dd2c4e"/>
      <path id="Trazado_611405" data-name="Trazado 611405" d="M620.756,201.951a.383.383,0,0,1-.368-.278l-4.162-14.7a.382.382,0,0,1,.735-.208l4.163,14.7a.382.382,0,0,1-.264.471.37.37,0,0,1-.1.015" transform="translate(-6384.697 -8991.74)" fill="#dd2c4e"/>
      <path id="Trazado_611406" data-name="Trazado 611406" d="M647.424,164.193a.191.191,0,0,1-.009-.382,8.65,8.65,0,0,0,7.316-4.444.191.191,0,0,1,.346.163,9.056,9.056,0,0,1-7.644,4.662h-.009" transform="translate(-6398.227 -8979.863)" fill="#e0cdaf"/>
      <path id="Trazado_611407" data-name="Trazado 611407" d="M661.627,152.733h-.014a.191.191,0,0,1-.177-.2,10.2,10.2,0,0,0-.123-2.6.191.191,0,0,1,.368-.105,10.4,10.4,0,0,1,.137,2.734.192.192,0,0,1-.191.177" transform="translate(-6404.364 -8975.688)" fill="#e0cdaf"/>
      <path id="Trazado_611408" data-name="Trazado 611408" d="M666.691,223.845a.191.191,0,0,1-.185-.143,30.664,30.664,0,0,1-.294-12.675.191.191,0,1,1,.373.083,30.251,30.251,0,0,0,.292,12.5.192.192,0,0,1-.138.233.176.176,0,0,1-.048.006" transform="translate(-6406.274 -9002.378)" fill="#e0cdaf"/>
      <path id="Trazado_611409" data-name="Trazado 611409" d="M668.707,196.5a.17.17,0,0,1-.033,0,.191.191,0,0,1-.155-.222,36.706,36.706,0,0,1,2.161-5.706.191.191,0,1,1,.347.161,37.327,37.327,0,0,0-2.132,5.611.191.191,0,0,1-.188.158" transform="translate(-6407.509 -8993.474)" fill="#e0cdaf"/>
      <path id="Trazado_611410" data-name="Trazado 611410" d="M566.414,65.79a.185.185,0,0,1-.085-.02,4.048,4.048,0,0,1-2.066-2.444,2.637,2.637,0,0,1-.032-1.787.191.191,0,1,1,.334.186,2.31,2.31,0,0,0,.063,1.489,3.671,3.671,0,0,0,1.872,2.215.191.191,0,0,1-.086.362" transform="translate(-6361.965 -8937.2)" fill="#f88868"/>
      <path id="Trazado_611411" data-name="Trazado 611411" d="M643.549,266.233a.376.376,0,0,1-.113-.016c-.273-.081-.78-.223-1.468-.414-4.6-1.281-16.807-4.683-22.11-7.787a.384.384,0,0,1,.388-.663c5.22,3.054,17.363,6.439,21.935,7.712.695.194,1.206.337,1.482.419a.377.377,0,0,1,.249.474.388.388,0,0,1-.362.275" transform="translate(-6386.206 -9022.626)" fill="#f78e39"/>
      <path id="Trazado_611412" data-name="Trazado 611412" d="M675.569,276.83a.381.381,0,0,1-.131-.021c-.036-.014-3.693-1.315-5.472-1.864a.379.379,0,0,1-.245-.477.386.386,0,0,1,.477-.254c1.794.554,5.465,1.86,5.5,1.874a.376.376,0,0,1,.225.487.385.385,0,0,1-.355.255" transform="translate(-6408.026 -9029.995)" fill="#f78e39"/>
      <path id="Trazado_611413" data-name="Trazado 611413" d="M747.862,382.981c-1.692-.658-4.315-4.742-5.951-4.975s-1.969,2.938-3.021,3.056-2.221-.467-2.805.351c-.332.464-.1,2.695.164,4.54,6.258.349,16.331.75,22.038.967-1.684-2.885-7.395-2.76-10.425-3.937" transform="translate(-6436.907 -9075.264)" fill="#dd2c4e"/>
      <path id="Trazado_611414" data-name="Trazado 611414" d="M644.087,168.315a6.474,6.474,0,0,1-.838-.052.191.191,0,0,1,.049-.38,9.345,9.345,0,0,0,4.448-.764.191.191,0,0,1,.161.346,10.123,10.123,0,0,1-3.82.85" transform="translate(-6396.417 -8983.284)" fill="#bfa784"/>
      <path id="Trazado_611415" data-name="Trazado 611415" d="M648.111,182.426a.18.18,0,0,1-.059-.01.19.19,0,0,1-.122-.24c1.718-5.283-.437-13.6-.458-13.682a.191.191,0,1,1,.369-.1c.023.085,2.205,8.507.452,13.9a.191.191,0,0,1-.182.132" transform="translate(-6398.327 -8983.788)" fill="#bfa784"/>
      <path id="Trazado_611416" data-name="Trazado 611416" d="M662.187,117.3c-2.608-.019-4.176-3.3-4.176-3.3l4.851-2.42s1.218,5.731-.675,5.718" transform="translate(-6402.927 -8959.072)" fill="#603130"/>
      <path id="Trazado_611417" data-name="Trazado 611417" d="M662.245,117.2c-2.318-.016-3.711-2.93-3.711-2.93l4.311-2.15s1.082,5.092-.6,5.08" transform="translate(-6403.155 -8959.307)" fill="#fff"/>
      <path id="Trazado_611418" data-name="Trazado 611418" d="M652.5,105.972a2.385,2.385,0,0,1,2.272.2l.174-.122s-1.31-1.582-2.8-.858-.573,3.221-.573,3.221l.007-.005a2.125,2.125,0,0,1,.914-2.437" transform="translate(-6399.999 -8956.202)" fill="#603130"/>
      <path id="Trazado_611419" data-name="Trazado 611419" d="M647.875,103.6a5.906,5.906,0,0,1,2.9-4.492l-1.05-1.469a4.405,4.405,0,0,0-1.847,2.057,8.872,8.872,0,0,0-.714,3.527Z" transform="translate(-6398.195 -8952.987)" fill="#d34226"/>
      <path id="Trazado_611420" data-name="Trazado 611420" d="M660.218,96.285a3.48,3.48,0,0,0-4.038.87l-.861-1.659a2.665,2.665,0,0,1,1.968-.906,5.923,5.923,0,0,1,2.811.836Z" transform="translate(-6401.753 -8951.658)" fill="#d34226"/>
      <path id="Trazado_611421" data-name="Trazado 611421" d="M660.986,100.86c-.712.333-.336,1.715-.048,2.513.036.028.068.058.105.083-.171-.748-.193-1.53.365-1.771a1.87,1.87,0,0,1,1.807.566l.112-.092s-1.327-1.774-2.342-1.3" transform="translate(-6404.047 -8954.358)" fill="#603130"/>
      <path id="Trazado_611422" data-name="Trazado 611422" d="M659.485,104.447s2.778,1.574,3.03,2.288-2.652,1.742-2.652,1.742l-.252-.84s1.689-.275,1.773-.778-1.9-2.413-1.9-2.413" transform="translate(-6403.57 -8955.959)" fill="#f88868"/>
      <path id="Trazado_611423" data-name="Trazado 611423" d="M665.459,123.551c-1.578-.24-1.686-.574-1.686-.574a11.22,11.22,0,0,1,2.254-.629c.418.051-.568,1.2-.568,1.2" transform="translate(-6405.44 -8963.765)" fill="#f88868"/>
    </g>
    <g id="Grupo_1077662" data-name="Grupo 1077662" transform="translate(6707.018 11546.28)">
      <path id="Trazado_611424" data-name="Trazado 611424" d="M110.979,302.206h-2.292l-1.337,45.279h4.584Z" transform="translate(-6351.561 -8919.178)" fill="#d36713"/>
      <path id="Trazado_611425" data-name="Trazado 611425" d="M111.882,315.8l-.287-13.6H109.3l-.5,16.978a15.087,15.087,0,0,1,3.08-3.381" transform="translate(-6352.178 -8919.179)" fill="#c1550f"/>
      <path id="Trazado_611426" data-name="Trazado 611426" d="M101.982,389.8a2.79,2.79,0,1,0,2.79-2.79,2.79,2.79,0,0,0-2.79,2.79" transform="translate(-6349.283 -8955.169)" fill="#422d32"/>
      <path id="Trazado_611427" data-name="Trazado 611427" d="M97.881,377.656c-7.075,0-13.268,2.727-16.676,6.8v.073h33.41c-3.4-4.117-9.617-6.876-16.734-6.876" transform="translate(-6340.465 -8951.201)" fill="#d36713"/>
      <path id="Trazado_611428" data-name="Trazado 611428" d="M44.144,188.4c-11.528,0-3.407,39.957,11.522,61.484l11-1.86C59.275,206.106,53.679,188.4,44.144,188.4" transform="translate(-6322.42 -8870.879)" fill="#ffb33c"/>
      <path id="Trazado_611429" data-name="Trazado 611429" d="M63.813,217.522c-4.85-20.187-9.635-29.118-16.406-29.118a4.451,4.451,0,0,0-1.028.116A72.7,72.7,0,0,0,47.7,202.072c2.388,12.251,7.527,19.493,11.923,18.831,1.525-.23,2.961-1.415,4.193-3.381" transform="translate(-6325.684 -8870.88)" fill="#ffc35d"/>
      <path id="Trazado_611430" data-name="Trazado 611430" d="M47.947,189.471a7.273,7.273,0,0,0-3.8-1.068c-11.528,0-3.407,39.957,11.521,61.484l4.8-.812c-12.937-19.166-23.973-60.153-12.515-59.6" transform="translate(-6322.42 -8870.879)" fill="#ffa40f"/>
      <path id="Trazado_611431" data-name="Trazado 611431" d="M69.778,295.18c5.222,5.918,16.461,9.263,23.955,9.075a40.4,40.4,0,0,0,24.279-8.876Z" transform="translate(-6335.615 -8916.197)" fill="#c1550f"/>
      <path id="Trazado_611432" data-name="Trazado 611432" d="M77.05,389.8a2.79,2.79,0,1,0,2.79-2.79,2.79,2.79,0,0,0-2.79,2.79" transform="translate(-6338.702 -8955.169)" fill="#422d32"/>
      <path id="Trazado_611433" data-name="Trazado 611433" d="M134.705,389.8a2.79,2.79,0,1,0,2.79-2.79,2.79,2.79,0,0,0-2.79,2.79" transform="translate(-6363.171 -8955.169)" fill="#422d32"/>
      <path id="Trazado_611434" data-name="Trazado 611434" d="M117.036,287.215H69.8a2.79,2.79,0,1,0,0,5.581h47.236a2.79,2.79,0,1,0,0-5.581" transform="translate(-6334.44 -8912.817)" fill="#ffa40f"/>
      <path id="Trazado_611435" data-name="Trazado 611435" d="M89.708,380.523a60.732,60.732,0,0,0,11.184.986,59.574,59.574,0,0,0,12.044-1.158,25.641,25.641,0,0,0-23.228.172" transform="translate(-6344.074 -8951.201)" fill="#f07825"/>
      <path id="Trazado_611436" data-name="Trazado 611436" d="M9.527,153.645a12.673,12.673,0,0,1-3.9,1.841c-.5.177-5.219.652-5.507,1.481s-.066,1.785.65,1.957a55.7,55.7,0,0,0,6.177-.4,25.56,25.56,0,0,0,4.317-2Z" transform="translate(-6306 -8856.126)" fill="#ffb290"/>
      <path id="Trazado_611437" data-name="Trazado 611437" d="M10.268,159.9a12.934,12.934,0,0,1-3.511,2.884c-.469.307-5.155,1.928-5.24,2.881s.379,1.92,1.152,1.934a55.684,55.684,0,0,0,6.192-1.891c.835-.268,3.9-3.15,3.9-3.15Z" transform="translate(-6306.64 -8858.781)" fill="#ffb290"/>
      <path id="Trazado_611438" data-name="Trazado 611438" d="M17.695,163.123a12.437,12.437,0,0,1-2.7,3.59c-.378.4-4.481,2.96-4.349,3.931s.793,1.849,1.533,1.71,4.743-2.693,5.48-3.127,3.009-3.934,3.009-3.934Z" transform="translate(-6310.518 -8860.149)" fill="#ffb290"/>
      <path id="Trazado_611439" data-name="Trazado 611439" d="M20.79,147.343c-5.193,2.151-7.514,5.125-7.8,6.505s3.863,6.441,5.344,6.818,3.261-1.315,4.242-2.357,2.5-3.415,3.976-4.442-3.864-7.312-5.766-6.525" transform="translate(-6311.509 -8853.423)" fill="#ffb290"/>
      <path id="Trazado_611440" data-name="Trazado 611440" d="M14.578,150.016c-2.086.278-3.917-2.537-3.917-2.537l-1.739-.28s-3.263.106-4.178-.659c-.554-.463-.526-2.583.5-2.668s3.329.246,4.6.219,7.785,1.783,7.785,1.783-.885,3.853-3.049,4.142" transform="translate(-6307.861 -8851.973)" fill="#ffb290"/>
      <path id="Trazado_611441" data-name="Trazado 611441" d="M17.874,153.041c4.113,3.092,6.658-1.186,6.658-1.186-2.3,1.16-4.533,1.728-6.658,1.186" transform="translate(-6313.585 -8855.366)" fill="#f88868"/>
      <path id="Trazado_611442" data-name="Trazado 611442" d="M315.628,141.291a12.964,12.964,0,0,0,4.079,1.559c.523.14,5.33.279,5.681,1.086s.2,1.776-.516,2a57.4,57.4,0,0,1-6.282.036,26.18,26.18,0,0,1-4.514-1.685Z" transform="translate(-6439.299 -8850.883)" fill="#ffb290"/>
      <path id="Trazado_611443" data-name="Trazado 611443" d="M315.328,147.543a13.114,13.114,0,0,0,3.762,2.627c.5.273,5.357,1.558,5.512,2.5s-.245,1.942-1.026,2.011a57.1,57.1,0,0,1-6.4-1.446c-.865-.207-4.174-2.865-4.174-2.865Z" transform="translate(-6438.842 -8853.537)" fill="#ffb290"/>
      <path id="Trazado_611444" data-name="Trazado 611444" d="M308.932,151.2a12.523,12.523,0,0,0,2.991,3.389c.412.374,4.75,2.633,4.686,3.612s-.669,1.9-1.429,1.814-5-2.349-5.772-2.73-3.33-3.71-3.33-3.71Z" transform="translate(-6435.905 -8855.087)" fill="#ffb290"/>
      <path id="Trazado_611445" data-name="Trazado 611445" d="M302.024,135.733c5.412,1.776,7.975,4.578,8.361,5.934s-3.446,6.7-4.917,7.181-3.4-1.08-4.464-2.049-2.781-3.228-4.346-4.148,3.384-7.569,5.366-6.919" transform="translate(-6431.779 -8848.506)" fill="#ffb290"/>
      <path id="Trazado_611446" data-name="Trazado 611446" d="M308.732,137.587c2.132.129,3.782-2.809,3.782-2.809l1.739-.4s3.311-.126,4.182-.954c.527-.5.345-2.614-.695-2.626s-3.352.482-4.642.545-7.751,2.333-7.751,2.333,1.174,3.78,3.385,3.915" transform="translate(-6435.595 -8846.428)" fill="#ffb290"/>
      <path id="Trazado_611447" data-name="Trazado 611447" d="M310.42,141.132c-3.94,3.377-6.825-.709-6.825-.709,2.408.994,4.713,1.4,6.825.709" transform="translate(-6434.852 -8850.515)" fill="#f88868"/>
      <path id="Trazado_611448" data-name="Trazado 611448" d="M188.684,380.825H178.639a16.209,16.209,0,0,1-1.424-4.383c-.654-3.067-1.511-12.818-.939-14.57s3.469-2.849,5.089-2.52,2.7,3.177,2.972,5.587.505,11.174.505,11.174l1.112,1.315s2.062.109,2.8.876-.066,2.52-.066,2.52" transform="translate(-6380.735 -8943.407)" fill="#eaddcc"/>
      <path id="Trazado_611449" data-name="Trazado 611449" d="M176.093,363.836c.965,10.3,3.927,15.134,3.927,15.134l9.037.153a1.246,1.246,0,0,0-.3-.818c-.734-.767-2.8-.876-2.8-.876l-1.112-1.315s-.235-8.764-.505-11.175-1.353-5.258-2.972-5.587-4.517.767-5.089,2.52a8,8,0,0,0-.185,1.964" transform="translate(-6380.737 -8943.407)" fill="#b24c3f"/>
      <path id="Trazado_611450" data-name="Trazado 611450" d="M156.337,380.825h9.916a15.49,15.49,0,0,0,1.12-4.383c.446-3.067.656-12.818-.022-14.57s-3.61-2.849-5.187-2.52-2.024,2.52-2.134,4.93-.207,11.832-.207,11.832l-1.012,1.315s-2.028.109-2.7.876.229,2.52.229,2.52" transform="translate(-6372.149 -8943.407)" fill="#b24c3f"/>
      <path id="Trazado_611451" data-name="Trazado 611451" d="M167.353,362.83a3.18,3.18,0,0,0-1-1.278c1.1,4.517-.979,17.188-.979,17.188l-.578,1.028s-4.179.4-8.933.351a4.667,4.667,0,0,0,.476,1.665h9.916a15.489,15.489,0,0,0,1.12-4.382c.446-3.068.656-12.818-.022-14.571" transform="translate(-6372.151 -8944.366)" fill="#eaddcc"/>
      <path id="Trazado_611452" data-name="Trazado 611452" d="M186.313,341.732s-1.358,10.02-1.928,14.748c-.3,2.47-4.707-.166-4.434-2.7s-.342-12.049-.342-12.049Z" transform="translate(-6382.229 -8935.953)" fill="#d3b78d"/>
      <path id="Trazado_611453" data-name="Trazado 611453" d="M158.666,343.3s2.23,8.585,3.364,14.012c.491,2.352,4.195-.975,3.757-3.385s-1.1-10.627-1.1-10.627Z" transform="translate(-6373.341 -8936.617)" fill="#d3b78d"/>
      <path id="Trazado_611454" data-name="Trazado 611454" d="M150.1,57.579c-2.711,1.314-4.91-1.068-3.532-3.091s2.785-.419,2.884.487a18.247,18.247,0,0,0,.648,2.6" transform="translate(-6368.028 -8813.628)" fill="#ffb290"/>
      <path id="Trazado_611455" data-name="Trazado 611455" d="M150.543,57.068c-1.536.744-2.781-.6-2-1.75s1.578-.238,1.634.276a10.347,10.347,0,0,0,.367,1.475" transform="translate(-6368.942 -8814.161)" fill="#f96d61"/>
      <path id="Trazado_611456" data-name="Trazado 611456" d="M182.549,55.714c2.628.674,4.416-1.871,2.944-3.428s-2.607.142-2.607.973a17.033,17.033,0,0,1-.337,2.455" transform="translate(-6383.477 -8812.84)" fill="#ffb290"/>
      <path id="Trazado_611457" data-name="Trazado 611457" d="M182.692,55.2c1.8.463,3.03-1.284,2.02-2.352s-1.789.1-1.789.667a11.694,11.694,0,0,1-.231,1.685" transform="translate(-6383.538 -8813.161)" fill="#f96d61"/>
      <path id="Trazado_611458" data-name="Trazado 611458" d="M169.529,27.234c.578-.6.386-4.4-1.253-5.594a3.323,3.323,0,0,0-3.277-.4s.578-2.4-.578-2.9-3.181.9-3.181.9,1.543-3.1-1.446-2.4-8.867,9.09-8.867,9.09a5.823,5.823,0,0,0-2.217,1.9c-.867,1.3-.482,2.1-.482,2.1a5.689,5.689,0,0,0-1.35,3.4c0,1.9,1.784,4.046,3.607,12.335l16.731.3c1.362-6.151,2.506-13.935,2.506-13.935a10.185,10.185,0,0,0,.386-1.9,9.5,9.5,0,0,0-.578-2.9" transform="translate(-6368.337 -8798.022)" fill="#84413e"/>
      <path id="Trazado_611459" data-name="Trazado 611459" d="M169.192,31.593c-2.1,0-3.807-2.784-3.807-6.217a9.54,9.54,0,0,1,.375-2.675,3.013,3.013,0,0,0-.76.217,4.757,4.757,0,0,0,0-2.223,34.545,34.545,0,0,1-3.345,4.222c-4.937,5.339-10.683,8.386-14.185,7.833a4.97,4.97,0,0,0-.594,2.255c0,1.9,1.784,4.046,3.607,12.336l16.731.3c1.362-6.151,2.506-13.935,2.506-13.935a10.185,10.185,0,0,0,.386-1.9,2.559,2.559,0,0,0,0-.406,2.431,2.431,0,0,1-.919.19" transform="translate(-6368.337 -8799.701)" fill="#682e2e"/>
      <path id="Trazado_611460" data-name="Trazado 611460" d="M126.642,135.6a46.932,46.932,0,0,1-4.048-7.133l-.083-24.845-6.278-19.494S137.823,74.3,138.594,74.1a132.821,132.821,0,0,1,14.459.964c1.542.386,18.442,8.032,18.828,8.611s-5.373,18.63-5.373,18.63,1.775,26.93,1.775,27.7-2.892,4.627-2.892,4.627Z" transform="translate(-6355.331 -8822.355)" fill="#f7edda"/>
      <path id="Trazado_611461" data-name="Trazado 611461" d="M160.767,120.829c.525.7,5.387,6.866,5.387,6.866s5.511-6.156,5.511-7.036-5.511-34.3-5.511-34.3l-2.361-.176Z" transform="translate(-6374.232 -8827.494)" fill="#e8d6b8"/>
      <path id="Trazado_611462" data-name="Trazado 611462" d="M166.547,75.068a132.813,132.813,0,0,0-14.459-.964c-.2.05-1.8.748-4.061,1.755a32.364,32.364,0,0,0,8.238,6.084l3.213-3.085,5.269,4.113,6.831-5.827c-2.537-1.114-4.546-1.956-5.032-2.077" transform="translate(-6368.826 -8822.355)" fill="#e8d6b8"/>
      <path id="Trazado_611463" data-name="Trazado 611463" d="M169.315,109.781c-2.763,2.867-4.043,9.639-4.309,10.26-.578,1.35,0,17.735,0,17.735s-12.434-4.723-16.1-5.108-16.423,8.055-20.724,4.916c-4.848-3.539-1.446-20.242-1.832-20.821a142.591,142.591,0,0,0-6.94-14.169l4.447,13.132.083,24.845a46.93,46.93,0,0,0,4.048,7.133l38.748-.964s2.892-3.856,2.892-4.627-1.752-27.36-1.752-27.36.607-2.312,1.435-4.972" transform="translate(-6356.682 -8834.46)" fill="#e8d6b8"/>
      <path id="Trazado_611464" data-name="Trazado 611464" d="M143.662,274.28c-4.048-13.013-11.566-88.485-11.856-102.365,0,0,8.1-5.724,21.687-7.422,7.711-.964,19.664,6.555,19.664,6.555,2.6,29.784-4.041,99.443-4.041,99.443-4.816,2.447-8.18,2.312-12.346.416-4.5,3.3-8.851,4.129-13.109,3.373" transform="translate(-6361.94 -8860.694)" fill="#542b3c"/>
      <path id="Trazado_611465" data-name="Trazado 611465" d="M173.157,171.048s-11.952-7.518-19.663-6.554c-13.587,1.7-21.688,7.422-21.688,7.422.044,2.116.257,5.667.6,10.207,7.4-5.482,21.429-15.768,23.4-16.473,1.765-.63,11.282,5.5,17.655,9.819-.083-1.553-.184-3.031-.306-4.422" transform="translate(-6361.94 -8860.694)" fill="#3f202e"/>
      <path id="Trazado_611466" data-name="Trazado 611466" d="M254.034,110.583l-14.522-6.555s-26.861-12.852-32.9-15.165l-3.855,22.491,24.8,5.269s1.414.771,2.185,1.157S259.174,126,259.174,126l3.342-11.052Z" transform="translate(-6392.053 -8828.632)" fill="#f7edda"/>
      <path id="Trazado_611467" data-name="Trazado 611467" d="M33.508,117.34l13.773-8.012s25.4-15.544,31.168-18.465L84.6,112.839l-24.132,7.79s-1.327.912-2.054,1.374-28.43,11.205-28.43,11.205l-4.46-10.651Z" transform="translate(-6316.831 -8829.481)" fill="#f7edda"/>
      <path id="Trazado_611468" data-name="Trazado 611468" d="M163.614,115.806c.386.7,3.958,6.866,3.958,6.866s4.048-6.156,4.048-7.036-4.048-34.3-4.048-34.3l-1.735-.176Z" transform="translate(-6375.441 -8825.362)" fill="#933a63"/>
      <path id="Trazado_611469" data-name="Trazado 611469" d="M152.962,66.9c.129-2.442.129-9,.129-9l16.921-2.02.172,12.045s-6.3.9-7.968,1.157-9.253-2.185-9.253-2.185" transform="translate(-6370.919 -8814.633)" fill="#f96d61"/>
      <path id="Trazado_611470" data-name="Trazado 611470" d="M153.1,50.97c-1.137-3.124-.113-10.769.235-11.379.386-.675,1.674-6.654,7.457-6.943s8.493,4.157,8.686,6.086,1.067,11.3-.186,12.457-4.858-5.085-7.654-5.085c-1.067,0-7.711,7.133-8.537,4.864" transform="translate(-6370.755 -8804.768)" fill="#ffb290"/>
      <path id="Trazado_611471" data-name="Trazado 611471" d="M164.611,47.561c.057-.4.828-2.514,1.6-2.543s2.085,2.457,1.914,2.572a13.09,13.09,0,0,1-3.514-.029" transform="translate(-6375.864 -8810.024)" fill="#f88868"/>
      <path id="Trazado_611472" data-name="Trazado 611472" d="M157.331,57.563c.132-1.484,1.082-6.742,1.621-7.411s3.661-1.337,4.1-1.337,4.252.593,4.655,1.039,2.944,7,2.235,7.819c-.388.451-4.152-.307-6.22-.233s-6.5,1.328-6.4.121" transform="translate(-6372.773 -8811.634)" fill="#84413e"/>
      <path id="Trazado_611473" data-name="Trazado 611473" d="M163.329,75.119c1.671-.257,7.968-1.157,7.968-1.157v-.032a10.466,10.466,0,0,0-15.712-.528c2.3.7,6.545,1.9,7.744,1.716" transform="translate(-6372.033 -8820.672)" fill="#ffb290"/>
      <path id="Trazado_611474" data-name="Trazado 611474" d="M150.506,74.237a19.569,19.569,0,0,0,1.349-2.12s5.141,2.313,8.932,2.442,8.546-1.735,8.546-1.735l1.543,2.571s-5.4,4.627-6.041,5.076-3.6-2.763-3.6-2.763a19.865,19.865,0,0,1-3.277,2.378c-.9.321-7.454-5.848-7.454-5.848" transform="translate(-6369.877 -8821.524)" fill="#f7edda"/>
      <path id="Trazado_611475" data-name="Trazado 611475" d="M167.874,81.824a10.291,10.291,0,0,1-2.185-2.249l.707-3.535,2.763-.128s.771,3.727.964,3.984-2.249,1.928-2.249,1.928" transform="translate(-6376.321 -8823.135)" fill="#933a63"/>
      <rect id="Rectángulo_378686" data-name="Rectángulo 378686" width="118.077" height="1.96" transform="translate(-6178.856 -8645.991)" fill="#442332"/>
      <rect id="Rectángulo_378687" data-name="Rectángulo 378687" width="117.562" height="1.96" transform="translate(-6178.855 -8634.81)" fill="#442332"/>
      <rect id="Rectángulo_378688" data-name="Rectángulo 378688" width="121.028" height="5.025" transform="translate(-6180.028 -8658.951)" fill="#442332"/>
      <rect id="Rectángulo_378689" data-name="Rectángulo 378689" width="37.603" height="5.518" transform="translate(-6152.386 -8664.458)" fill="#af77aa"/>
      <path id="Trazado_611476" data-name="Trazado 611476" d="M346,326.222l-3.421-95.479,1.72-.1,3.421,95.582Z" transform="translate(-6451.397 -8888.805)" fill="#442332"/>
      <path id="Trazado_611477" data-name="Trazado 611477" d="M221.806,326.222l-3.421-95.479,1.72-.1,3.421,95.582Z" transform="translate(-6398.686 -8888.805)" fill="#442332"/>
      <path id="Trazado_611478" data-name="Trazado 611478" d="M415.923,326.184h-1.715l6.858-95.633,1.714.205Z" transform="translate(-6481.797 -8888.768)" fill="#442332"/>
      <path id="Trazado_611479" data-name="Trazado 611479" d="M294.644,326.184H292.93l6.857-95.633,1.714.205Z" transform="translate(-6430.325 -8888.768)" fill="#442332"/>
      <path id="Trazado_611480" data-name="Trazado 611480" d="M394.271,114.609s-1.43,29.224,6.132,44.142l3.171-15.673c1.022-16.145-9.3-28.469-9.3-28.469" transform="translate(-6473.29 -8839.56)" fill="#99993f"/>
      <path id="Trazado_611481" data-name="Trazado 611481" d="M402.166,145.078l8.24-4.543c1.517-9.224,2.357-18.046,6.265-28.756,0,0-12.692,16.638-14.5,33.3" transform="translate(-6476.687 -8838.357)" fill="#99993f"/>
      <path id="Trazado_611482" data-name="Trazado 611482" d="M387.109,178.483c-5.158-16.94-22.945-25.41-22.945-25.41,14.586,0,21.345,9.371,22.768,12.074s4.625,12.435,4.625,12.435Z" transform="translate(-6460.558 -8855.884)" fill="#99993f"/>
      <path id="Trazado_611483" data-name="Trazado 611483" d="M416.858,173.6c5.927-19.21,26.363-28.815,26.363-28.815-16.758,0-24.524,10.627-26.158,13.693s-5.313,14.1-5.313,14.1Z" transform="translate(-6480.753 -8852.368)" fill="#99993f"/>
      <path id="Trazado_611484" data-name="Trazado 611484" d="M365.236,122.42c7.561,8.992,18.6,26.976,20.028,40.464h5.109l2.248-8.583c-7.691-15.04-16.3-27.256-27.384-31.881" transform="translate(-6461.013 -8842.873)" fill="#b5b243"/>
      <path id="Trazado_611485" data-name="Trazado 611485" d="M409.626,158.244c3.27-27.18,28.815-51.091,28.815-51.091-23.3,13.488-34.946,29.633-35.355,30.859s-1.635,20.232-1.635,20.232Z" transform="translate(-6476.384 -8836.394)" fill="#b5b243"/>
      <path id="Trazado_611486" data-name="Trazado 611486" d="M389.712,187.4l19.823,2.248L403.4,210.08l-17.575.817Z" transform="translate(-6469.753 -8870.451)" fill="#f7edda"/>
      <path id="Trazado_611487" data-name="Trazado 611487" d="M361.647,200.392h-46.7L325.5,163.607h46.7Z" transform="translate(-6439.671 -8860.354)" fill="#af77aa"/>
      <path id="Trazado_611488" data-name="Trazado 611488" d="M319.977,200.392h43.8l10.552-36.785h-43.8Z" transform="translate(-6441.804 -8860.354)" fill="#7f4c7f"/>
      <path id="Trazado_611489" data-name="Trazado 611489" d="M336.315,200.392H349.87l21.992-36.785H358.308Z" transform="translate(-6448.738 -8860.354)" fill="#8c558e"/>
      <rect id="Rectángulo_378690" data-name="Rectángulo 378690" width="133.362" height="4.292" transform="translate(-6185.507 -8661.495)" fill="#682e27"/>
      <rect id="Rectángulo_378691" data-name="Rectángulo 378691" width="45.607" height="4.292" transform="translate(-6185.507 -8661.495)" fill="#894437"/>
      <path id="Trazado_611490" data-name="Trazado 611490" d="M173.334,288.013h-.755c0-1.328-2.61-82.457-2.637-83.276l.755-.025c.108,3.346,2.637,81.961,2.637,83.3" transform="translate(-6378.126 -8877.801)" fill="#3f202e"/>
      <path id="Trazado_611491" data-name="Trazado 611491" d="M165.905,202.758l-.069-.005a59.446,59.446,0,0,1-6.421-.869.378.378,0,1,1,.158-.738,57.727,57.727,0,0,0,6.253.849l8.791-2.577a.377.377,0,1,1,.212.724Z" transform="translate(-6373.532 -8875.547)" fill="#3f202e"/>
      <path id="Trazado_611492" data-name="Trazado 611492" d="M152.408,344.36a7.357,7.357,0,0,1-1.844-.208l.19-.73c4.252,1.109,13.438-3.116,13.53-3.158l.16-.074.159.075c.066.031,6.65,3.054,12.57-.277l.37.658c-5.808,3.268-12,.851-13.1.375-1.125.509-7.58,3.34-12.037,3.34" transform="translate(-6369.902 -8935.214)" fill="#3f202e"/>
      <path id="Trazado_611493" data-name="Trazado 611493" d="M164.038,371.756s-3.759-6.072-2.458-7.567,4.385-.144,4.723,1.06-2.265,6.506-2.265,6.506" transform="translate(-6374.461 -8945.205)" fill="#ce4e45"/>
      <path id="Trazado_611494" data-name="Trazado 611494" d="M184.655,370.732c-2.9-3.423-4.187-8.215-.92-8.748,6.122-1,.92,8.748.92,8.748" transform="translate(-6383.164 -8944.519)" fill="#ce4e45"/>
      <path id="Trazado_611495" data-name="Trazado 611495" d="M172.433,183.457h-.013l-3.237-.108-.019-.345c-.032-.576-.771-14.116-.675-16.231a.383.383,0,0,1,.394-.36.378.378,0,0,1,.36.394c-.086,1.893.538,13.636.656,15.81l2.546.085a.377.377,0,0,1-.013.755" transform="translate(-6377.506 -8861.546)" fill="#3f202e"/>
      <path id="Trazado_611496" data-name="Trazado 611496" d="M160.262,54.959A16.3,16.3,0,0,1,161.4,50.7a8.4,8.4,0,0,1,2.874-.768,14.3,14.3,0,0,1,3.261.6c.283.256,2.062,4.016,1.566,4.488-.272.258-2.908-.176-4.356-.134s-4.554.763-4.479.07" transform="translate(-6374.018 -8812.111)" fill="#ffb290"/>
      <path id="Trazado_611497" data-name="Trazado 611497" d="M252.089,131.716c-.771-.771.9-5.655.9-5.655s-2.7,4.755-3.213,5.013-8.868-2.571-10.8-3.6-15.294-5.141-15.936-5.269-2.313,2.442-3.856,2.313c-1.244-.1-9.678-3.468-15.862-6.452l-1.52,6.71,25.35,4.241s1.414.771,2.185,1.157,29.431,8.225,29.431,8.225l1.243-4.11c-3.155-.858-7.445-2.092-7.926-2.573" transform="translate(-6391.65 -8841.027)" fill="#e8d6b8"/>
      <path id="Trazado_611498" data-name="Trazado 611498" d="M204.271,114.47a.378.378,0,0,1-.366-.287c-2.131-8.62,2.048-16.544,2.09-16.623a.378.378,0,0,1,.665.357c-.041.077-4.081,7.754-2.023,16.085a.377.377,0,0,1-.367.468" transform="translate(-6392.284 -8832.238)" fill="#e8d6b8"/>
      <path id="Trazado_611499" data-name="Trazado 611499" d="M83.418,113.717c-3.154,1.671-14.422,9.471-14.87,9.471-.515,0-9.639,1.928-11.181,3.47s-14.009,8.1-14.009,8.1L41.3,129.871v6.3s-5.783,3.085-7.968,3.47c-.987.174-2.918-1.384-4.775-3.2l2.71,6.474s27.7-10.743,28.43-11.205,2.054-1.375,2.054-1.375l24.786-7.141a21.148,21.148,0,0,0-3.122-9.471" transform="translate(-6318.121 -8839.181)" fill="#e8d6b8"/>
      <path id="Trazado_611500" data-name="Trazado 611500" d="M294.056,146.645c0-.559-.82-1.012-1.831-1.012s-1.831.453-1.831,1.012.82,1.012,1.831,1.012,1.831-.453,1.831-1.012" transform="translate(-6429.249 -8852.727)" fill="#ccb593"/>
      <path id="Trazado_611501" data-name="Trazado 611501" d="M238.556,124.036a.377.377,0,0,1-.372-.32,18.741,18.741,0,0,1,.3-7.1.378.378,0,0,1,.729.2,18.327,18.327,0,0,0-.28,6.784.377.377,0,0,1-.316.43.385.385,0,0,1-.058,0" transform="translate(-6407.002 -8840.294)" fill="#e8d6b8"/>
      <path id="Trazado_611502" data-name="Trazado 611502" d="M130.021,125.194a.378.378,0,0,1-.288-.621c2.58-3.057,4.335-4.913,4.352-4.932a.377.377,0,1,1,.548.519c-.017.018-1.758,1.86-4.323,4.9a.375.375,0,0,1-.288.134" transform="translate(-6361.023 -8841.645)" fill="#e8d6b8"/>
      <path id="Trazado_611503" data-name="Trazado 611503" d="M119.581,97.973a.378.378,0,0,1-.352-.242l-2.12-5.494a.378.378,0,1,1,.7-.272l2.12,5.495a.378.378,0,0,1-.352.513" transform="translate(-6355.692 -8829.846)" fill="#e8d6b8"/>
      <path id="Trazado_611504" data-name="Trazado 611504" d="M80.564,133.63a.378.378,0,0,1-.378-.378c0-1.305.869-5.915.907-6.11a.377.377,0,1,1,.741.14c-.009.047-.893,4.735-.893,5.97a.378.378,0,0,1-.378.378" transform="translate(-6340.033 -8844.748)" fill="#e8d6b8"/>
      <path id="Trazado_611505" data-name="Trazado 611505" d="M170.416,122.649a21.73,21.73,0,0,0-6.3,2.918l-.5,7.847c.093.169.37.653.735,1.289a28.486,28.486,0,0,1,6.715-6.53c-.186-1.6-.408-3.492-.649-5.525" transform="translate(-6375.441 -8842.972)" fill="#772c52"/>
      <path id="Trazado_611506" data-name="Trazado 611506" d="M166.89,86.3l-.348,5.422a26.414,26.414,0,0,1,3.157-.877c-.21-1.742-.395-3.278-.541-4.489-.752-.043-1.513-.064-2.268-.056" transform="translate(-6376.684 -8827.545)" fill="#772c52"/>
      <path id="Trazado_611507" data-name="Trazado 611507" d="M169.826,103.966a28.455,28.455,0,0,0-4.237,1.54l-.342,5.329a16.739,16.739,0,0,1,5.132-2.251c-.185-1.552-.372-3.108-.553-4.618" transform="translate(-6376.134 -8835.041)" fill="#772c52"/>
      <path id="Trazado_611508" data-name="Trazado 611508" d="M163.983,52.409a4.507,4.507,0,0,1-.933-.087.244.244,0,0,1-.216-.3.315.315,0,0,1,.37-.174,6.2,6.2,0,0,0,1.78.014c.277-.024.546-.047.8-.053,1.352-.033,2.369,0,2.379,0a.272.272,0,0,1,.29.254.278.278,0,0,1-.315.234c-.01,0-1.007-.033-2.335,0-.239.006-.493.028-.755.051-.337.029-.7.06-1.064.06" transform="translate(-6375.105 -8812.9)" fill="#f96d61"/>
      <path id="Trazado_611509" data-name="Trazado 611509" d="M167.733,54.628c-2.069.359-3.466-.582-1.238-.662s2.683.411,1.238.662" transform="translate(-6376.182 -8813.817)" fill="#f96d61"/>
      <path id="Trazado_611510" data-name="Trazado 611510" d="M176.09,45.582c-.725-1.736-2.367-3.018-3.684-1.118a3.13,3.13,0,0,1,3.684,1.118" transform="translate(-6379.172 -8809.389)" fill="#682e2e"/>
      <path id="Trazado_611511" data-name="Trazado 611511" d="M156.836,45.625c.913-1.623,2.64-2.672,3.646-.612-1.142-.829-2.614-.326-3.646.612" transform="translate(-6372.564 -8809.536)" fill="#682e2e"/>
      <path id="Trazado_611512" data-name="Trazado 611512" d="M175.614,40.242c-1.044-.454-3.114-.943-4.028-1.257s-.428-2,.228-2.114a7.206,7.206,0,0,1,3.743,1.543c.571.686.714,2.114.057,1.829" transform="translate(-6378.611 -8806.562)" fill="#84413e"/>
      <path id="Trazado_611513" data-name="Trazado 611513" d="M155.286,40.888c1.137-.454,3.392-.943,4.388-1.257s.467-2-.249-2.114a8.246,8.246,0,0,0-4.077,1.543c-.622.686-.778,2.114-.062,1.829" transform="translate(-6371.705 -8806.837)" fill="#84413e"/>
      <path id="Trazado_611514" data-name="Trazado 611514" d="M244.973,182.5c1.336-1.782,1.893-1.782-3.23-3.23s-5.457-6.905-2-9.467,2.99-4.66,1.67-7.351c-2.84-5.792,2.734-7.709,2-10.3-.5-1.782-3.341-3.341-2.228-6.181.39,3.452,2.228,3.285,3.453,5.178,1.978,3.057-3.787,6.961-1,9.411s5.792,5.791,2.45,9.689-3.564,3.786.557,6.125-1.671,6.125-1.671,6.125" transform="translate(-6406.785 -8852.87)" fill="#e4ddbf"/>
      <path id="Trazado_611515" data-name="Trazado 611515" d="M247.746,186.677c-4.121-2.339-3.9-2.228-.557-6.125a4.857,4.857,0,0,0,.957-5.643,8.974,8.974,0,0,1-4.256-2.234,14.419,14.419,0,0,1-2.155-2.434,7.586,7.586,0,0,0,.777,2.515,8.5,8.5,0,0,1,.966,2.9,3.248,3.248,0,0,1,2.108,2.314c.81,3-1.555,7.434-5.283,9.907-.08.054-.16.1-.24.148a6.375,6.375,0,0,0,2.782,1.551c5.123,1.448,4.567,1.448,3.23,3.23,0,0,5.791-3.787,1.67-6.125" transform="translate(-6407.887 -8863.169)" fill="#d4caa9"/>
      <path id="Trazado_611516" data-name="Trazado 611516" d="M251.041,213.379l-6.226.353a1.25,1.25,0,0,0-1.152,1.331l.135,2.614a2.921,2.921,0,0,0,2.92,2.756l2.409,0a3.129,3.129,0,0,0,3.138-2.958l.1-2.812a1.229,1.229,0,0,0-1.326-1.283" transform="translate(-6409.414 -8881.478)" fill="#822d41"/>
      <path id="Trazado_611517" data-name="Trazado 611517" d="M247.077,218.63c2.064,0,3.738-2.3,3.738-5.135,0-.03,0-.06,0-.091l-6,.341a1.25,1.25,0,0,0-1.152,1.33l.031.59c.6,1.75,1.885,2.965,3.384,2.965" transform="translate(-6409.414 -8881.49)" fill="#b23b5b"/>
      <path id="Trazado_611518" data-name="Trazado 611518" d="M257.974,214.612c-.038,0-.075,0-.113,0v1.076c.038,0,.075-.01.113-.01a1.21,1.21,0,1,1,0,2.388c-.039,0-.075-.007-.113-.01v1.076c.038,0,.075,0,.113,0a2.295,2.295,0,1,0,0-4.53" transform="translate(-6415.441 -8882.003)" fill="#822d41"/>
    </g>
    <g id="Grupo_1077663" data-name="Grupo 1077663" transform="translate(665.929 2758)">
      <g id="Grupo_1077661" data-name="Grupo 1077661" transform="translate(0 0)">
        <path id="Trazado_611537" data-name="Trazado 611537" d="M618.527,834.978h16.489a23.243,23.243,0,0,0,.961-3.961c.06-1.21,2.36-9.242-.344-11.113s-6.4-.11-7.32.77-5.04,9.682-5.04,9.682-4.5.22-4.746,4.621" transform="translate(-593.798 -609.387)" fill="#f7edda"/>
        <path id="Trazado_611538" data-name="Trazado 611538" d="M633.261,832.25l-14.076.182a5.535,5.535,0,0,1,3.92-2.074s4.124-8.8,5.039-9.683,4.617-2.641,7.32-.77a2.628,2.628,0,0,1,.923,1.266,32.358,32.358,0,0,1-3.127,11.079" transform="translate(-593.629 -609.387)" fill="#4a6da0"/>
        <path id="Trazado_611539" data-name="Trazado 611539" d="M608.319,614.871l2.658,12.733c-2.239,1.54-4.338,2.939-4.338,2.939s1.12.14,1.679,1.959-2.8,3.078-3.638,3.5-5.317-1.819-5.317-1.819l-.42-14.552Z" transform="translate(-556.234 -526.093)" fill="#f88868"/>
        <path id="Trazado_611540" data-name="Trazado 611540" d="M598.7,835.484h14.8a21.528,21.528,0,0,0,0-3.778c-.21-1.154.1-8.815-2.728-10.6a5.193,5.193,0,0,0-6.4.735c-.63.84-2.414,9.235-2.414,9.235a3.475,3.475,0,0,0-3.253,4.408" transform="translate(-558.647 -609.894)" fill="#f7edda"/>
        <path id="Trazado_611541" data-name="Trazado 611541" d="M603.335,831.077s1.784-8.4,2.414-9.235a5.193,5.193,0,0,1,6.4-.735,5.38,5.38,0,0,1,1.91,3.253,24.465,24.465,0,0,1-1.385,7.941,82.892,82.892,0,0,1-12.525,1.084c.66-2.172,3.186-2.308,3.186-2.308" transform="translate(-560.03 -609.894)" fill="#4a6da0"/>
        <path id="Trazado_611542" data-name="Trazado 611542" d="M611.61,805.425l1.516,9.871a2.6,2.6,0,0,1-5.043,1.21l-3.072-9.318Z" transform="translate(-562.007 -603.818)" fill="#f96d61"/>
        <path id="Trazado_611543" data-name="Trazado 611543" d="M629.945,803.927l2.5,9.773a2.626,2.626,0,0,1-1.789,3.191l-.242.07a2.609,2.609,0,0,1-3.088-1.451l-3.865-8.49Z" transform="translate(-592.308 -603.207)" fill="#f96d61"/>
        <path id="Trazado_611544" data-name="Trazado 611544" d="M626.224,830.006c2.449-2.1,4.128-7.276,4.128-7.276a5.121,5.121,0,0,0-5.807-.14l-1.26,7.206Z" transform="translate(-590.02 -610.466)" fill="#f7edda"/>
        <path id="Trazado_611545" data-name="Trazado 611545" d="M607.414,830.434c1.926-2.123,2.831-6.876,2.831-6.876a4.553,4.553,0,0,0-5.137.523l-.309,6.494Z" transform="translate(-558.968 -610.981)" fill="#f7edda"/>
        <path id="Trazado_611546" data-name="Trazado 611546" d="M624.5,515.739c1.819-5.317.84-12.174.84-12.174s-13.293,4.758-14.832,6.3-3.5,6.716-3.5,6.716Z" transform="translate(-575.63 -480.692)" fill="#f96d61"/>
        <path id="Trazado_611547" data-name="Trazado 611547" d="M616.682,494.116c-.979-.07-1.218,1.469-1.4,1.529a2.953,2.953,0,0,1-1.679,0l-.14.98s-8.955.979-9.655,1.12-.56-.84-.56-.84-.42,1.539-1.259,1.539a3.546,3.546,0,0,1-1.679-.56,9.138,9.138,0,0,1-6.3,0s.979-.419,0-2.1-1.819-5.737-1.54-6.717,4.9-2.659,4.9-2.659,3.078-4.338,3.359-4.757-2.1-4.2-.28-6.577c0,0-1.26-9.515,2.938-10.074s8.536,2.657,9.375,5.036a2.418,2.418,0,0,1,3.219-1.259c2.379.84,7.276,5.6,6.716,13.014,0,0,7.311,8.725,1.819,12.453a14.57,14.57,0,0,1-6.9,2.707s.3-2.749-.932-2.837" transform="translate(-567.955 -464.937)" fill="#663c42"/>
        <path id="Trazado_611548" data-name="Trazado 611548" d="M618.589,480.592l-4.193-2.232c4.5-.876,7.521-5.69,7.992-8.39a5.965,5.965,0,0,1,1.483,2.121,2.67,2.67,0,0,1,.785-.995c-2.179,3.866-5.022,8.7-6.067,9.5" transform="translate(-579.062 -466.99)" fill="#512e35"/>
        <path id="Trazado_611549" data-name="Trazado 611549" d="M592.939,477.821a22.734,22.734,0,0,0,1.745,2.046c5.995,6.236,14.4,8.069,18.779,4.094a7.418,7.418,0,0,0,1.452-1.818,14.636,14.636,0,0,1,.443,4.9s7.311,8.726,1.819,12.454a14.565,14.565,0,0,1-6.9,2.707s.295-2.749-.932-2.836c-.979-.07-1.218,1.468-1.4,1.529a2.951,2.951,0,0,1-1.679,0l-.14.979s-1.74.191-3.746.415a11.1,11.1,0,0,0,2.592-7.062c0-4.666-4.962-9.816-10.451-7.13-1.3-1.149-1.772-2.178-2.07-4.98a3.848,3.848,0,0,1,.662-2.792s-.14-1.069-.171-2.51" transform="translate(-560.615 -470.192)" fill="#512e35"/>
        <path id="Trazado_611550" data-name="Trazado 611550" d="M671.031,525.306c-7.976,3.918-18.05,17.071-19.31,23.508s1.679,18.61,1.679,18.61l12.174-11.334Z" transform="translate(-647.351 -489.561)" fill="#b7762e"/>
        <path id="Trazado_611551" data-name="Trazado 611551" d="M651.807,733.075c-3.881,5.424-13.535,2.695-13.535,2.695l-1.05-2.938a16.321,16.321,0,0,1-12.174,1.679s-15.832-39.671-17.84-50.793c-2.729-15.112-5.247-53.522-5.247-54.152s1.259-9.025,1.259-9.025l22.248-3.778,19.31,10.284s1.889,55.411,1.889,56.461,5.14,49.568,5.14,49.568" transform="translate(-598.85 -526.864)" fill="#844575"/>
        <path id="Trazado_611552" data-name="Trazado 611552" d="M656.426,631.724c-14.19-7.276-29.589-9.281-42.863-3.205.31-2.405,1.146-7.979,1.146-7.979l22.249-3.778,19.31,10.285.159,4.677" transform="translate(-610.339 -526.864)" fill="#6b3461"/>
        <path id="Trazado_611553" data-name="Trazado 611553" d="M621.354,592.233s2.939-2.1,2.728-3.778-1.679-13.223-1.679-15.322,5.247-19.1,6.507-20.569,15.392-22.808,15.182-23.648-13.713-5.946-16.022-7-25.606,1.05-28.545,2.1-6.507,3.988-10.075,8.186-5.877,11.334-6.087,12.8.63,6.927.63,6.927-6.507,22.248-7.137,23.928-1.889,5.666-1.259,6.716,3.778,2.938,3.778,2.938,13.013-4.827,19.73-4.2c8.193.768,22.249,10.914,22.249,10.914" transform="translate(-575.426 -488.062)" fill="#d1a43f"/>
        <path id="Trazado_611554" data-name="Trazado 611554" d="M607.442,535.13c13.695.069,31.634,7.894,37.493,22.436-.174.239-.3.41-.384.5a16.576,16.576,0,0,0-1.487,3.375c-18.1-14.111-32.647-16.515-42.641-15.411a31.1,31.1,0,0,1,4.669-8.323q1.179-1.386,2.35-2.579" transform="translate(-591.067 -493.568)" fill="#f2cc81"/>
        <path id="Trazado_611555" data-name="Trazado 611555" d="M585.245,583.917c2.371,1.805,4.39,3.5,4.39,3.5a41.53,41.53,0,0,1-1.4-12.454c.187-6.537,5.082-21.544,20.564-24.657-3.984,6.167-8.67,13.136-9.37,13.953-1.26,1.47-6.507,18.47-6.507,20.569s1.469,13.643,1.679,15.322-2.728,3.778-2.728,3.778-.167-.12-.472-.333c.882-6.767-1.992-14.391-6.157-19.677" transform="translate(-545.945 -499.757)" fill="#b7762e"/>
        <path id="Trazado_611556" data-name="Trazado 611556" d="M537.463,555.8c3.778,3.5,16.651,12.454,16.651,12.454s-1.4,0-1.819.7a2.919,2.919,0,0,0,0,1.959s-13.433,7.276-14.273,8.535-.7,8.4.56,11.194,2.659,5.6,4.617,5.737,31.764-13.013,33.722-18.05-1.539-17.351-2.939-20.849-16.651-23.367-18.89-24.207-9.794,3.748-12.174,7.276c-4.058,6.017-5.457,15.252-5.457,15.252" transform="translate(-486.357 -492.769)" fill="#d1a43f"/>
        <path id="Trazado_611557" data-name="Trazado 611557" d="M538.723,560.754c4.987,8.739,10.043,13.7,16.581,14.412,7.7.84,13.993,2.239,13.993,2.239s-11.054,0-13.433,1.12-1.12,3.358,1.539,3.218,11.614-2.519,11.614-2.519-11.894,3.918-12.733,5.6,11.194,8.535,16.371,4.058c2.241-1.938,3.773-5.134,4.792-8.08.513,3.41.631,6.71-.174,8.78-1.959,5.037-31.764,18.19-33.722,18.051s-3.359-2.939-4.618-5.737-1.4-9.935-.56-11.194,14.273-8.535,14.273-8.535a2.921,2.921,0,0,1,0-1.959c.42-.7,1.819-.7,1.819-.7s-13.223-8.431-17-11.929a35.5,35.5,0,0,1,1.26-6.822" transform="translate(-486.708 -504.019)" fill="#b7762e"/>
        <path id="Trazado_611558" data-name="Trazado 611558" d="M623.752,489.133a22.757,22.757,0,0,0-4.967,3.918l-1.329-.07s-6.087-3.289-7.486-3.289-3.637,1.185-3.987,1.185-.422-.625-.422-.625,3.289-3.848,3.708-4.338a15.013,15.013,0,0,1,1.469-1.82,15.182,15.182,0,0,1,3.918-1.329l-1.19,1.4s4.268-1.329,6.017-.7c3.689,1.328,4.268,5.667,4.268,5.667" transform="translate(-572.926 -472.208)" fill="#ffb290"/>
        <path id="Trazado_611559" data-name="Trazado 611559" d="M600.978,502.276c.909,1.959,4.758,1.329,5.038-2.169s-2.519-1.889-3.219-1.329-1.819,3.5-1.819,3.5" transform="translate(-552.496 -478.39)" fill="#ffb290"/>
        <path id="Trazado_611560" data-name="Trazado 611560" d="M644.575,750.969l1.257-.551c-3.672-8.365-15.445-50.122-15.66-53.129-.207-2.9-2.5-37.013-2.518-37.357l-1.369.092c.023.344,2.311,34.457,2.518,37.363.217,3.04,12.076,45.161,15.773,53.582" transform="translate(-607.276 -544.474)" fill="#6b3461"/>
        <path id="Trazado_611561" data-name="Trazado 611561" d="M654.659,659.7a37.266,37.266,0,0,0,8.32-1.446.686.686,0,1,0-.385-1.317,32.586,32.586,0,0,1-8.258,1.377c-1.085-.136-9.8-1.8-9.892-1.813a.686.686,0,0,0-.257,1.348c.361.069,8.85,1.685,9.978,1.826a3.98,3.98,0,0,0,.493.025" transform="translate(-635.189 -543.067)" fill="#6b3461"/>
        <path id="Trazado_611562" data-name="Trazado 611562" d="M662.086,642.756a.686.686,0,0,0,.081-1.367l-2.958-.355c-.232-2.173-1.01-10.44.046-14.9a.686.686,0,0,0-1.336-.316c-1.273,5.375-.065,15.485-.013,15.913l.065.534,4.033.484a.63.63,0,0,0,.083,0m-3.5-1.106h0Z" transform="translate(-642.603 -530.345)" fill="#6b3461"/>
        <path id="Trazado_611563" data-name="Trazado 611563" d="M592.623,555.4a.687.687,0,0,0,.684-.646,17.594,17.594,0,0,1,5.84-10.426.686.686,0,0,0-.876-1.056,18.839,18.839,0,0,0-6.334,11.4.686.686,0,0,0,.645.725h.041" transform="translate(-540.503 -496.824)" fill="#b7762e"/>
        <path id="Trazado_611564" data-name="Trazado 611564" d="M579.33,536.021a.688.688,0,0,0,.438-.158,9.956,9.956,0,0,1,3.586-1.85.686.686,0,0,0-.283-1.343,11.207,11.207,0,0,0-4.181,2.139.686.686,0,0,0,.44,1.213" transform="translate(-517.134 -492.558)" fill="#b7762e"/>
        <path id="Trazado_611565" data-name="Trazado 611565" d="M590.682,525.021a12.514,12.514,0,0,1,2.091-1c2.939-1.05,26.236-3.148,28.545-2.1.966.439,3.9,1.59,6.991,2.841-15.45-2.538-31.339-.686-37.627.26" transform="translate(-568.674 -488.062)" fill="#b7762e"/>
        <path id="Trazado_611566" data-name="Trazado 611566" d="M602.869,501.285a.7.7,0,0,0,.515.259c.483,0,.875-.595.875-1.329a1.945,1.945,0,0,0-.072-.526c.709-.345,1.711-.5,1.572,1.232-.186,2.322-2.74,2.74-3.344,1.439,0,0,.2-.52.455-1.075" transform="translate(-553.083 -479.021)" fill="#f96d61"/>
        <path id="Trazado_611567" data-name="Trazado 611567" d="M632.557,515.342c-.382-.139-.285-.827-.285-.827s-.306,1.113-.914,1.445c.59-2.7-.048-7.847-.048-7.847a23.863,23.863,0,0,1,1.247,7.228" transform="translate(-596.978 -482.548)" fill="#512e35"/>
        <path id="Trazado_611568" data-name="Trazado 611568" d="M636.694,513.359a12.06,12.06,0,0,1,.7,4.324,4.129,4.129,0,0,1-.578-.3,6.93,6.93,0,0,1-1.037.315c.945-2.909-.017-6.4.915-4.338" transform="translate(-604.461 -484.435)" fill="#512e35"/>
        <path id="Trazado_611569" data-name="Trazado 611569" d="M645.176,624.156a.686.686,0,0,0,.469-1.187c-4.6-4.307-12.931-6.765-14.545-6.9a39.685,39.685,0,0,0-6.768.85.686.686,0,1,0,.269,1.346,37.758,37.758,0,0,1,6.385-.828c1.464.122,9.43,2.519,13.721,6.534a.685.685,0,0,0,.469.185" transform="translate(-605.825 -526.575)" fill="#b7762e"/>
        <path id="Trazado_611570" data-name="Trazado 611570" d="M668.461,622.156a.691.691,0,0,0,.255-.049,32.975,32.975,0,0,1,3.822-1.351.705.705,0,0,0,.644-.716.667.667,0,0,0-.663-.655,24.733,24.733,0,0,0-4.312,1.448.686.686,0,0,0,.255,1.324" transform="translate(-659.193 -527.934)" fill="#b7762e"/>
        <path id="Trazado_611571" data-name="Trazado 611571" d="M662.513,572.115a.681.681,0,0,0,.468-.185c1.62-1.512,7.412-3.326,9.508-3.9a.686.686,0,0,0-.361-1.324c-.321.088-7.885,2.167-10.082,4.218a.686.686,0,0,0,.468,1.188" transform="translate(-655.485 -506.439)" fill="#b7762e"/>
        <path id="Trazado_611572" data-name="Trazado 611572" d="M617.612,574.828a.686.686,0,0,0,.64-.438c.532-1.369,2.1-5.132,2.952-6.089a.686.686,0,0,0-1.026-.912c-1.168,1.314-3,5.977-3.205,6.5a.687.687,0,0,0,.639.935" transform="translate(-577.281 -506.633)" fill="#b7762e"/>
        <path id="Trazado_611573" data-name="Trazado 611573" d="M598.6,629.414a.679.679,0,0,0,.418-.143.687.687,0,0,0,.126-.962c-2.017-2.621-3.6-7.468-3.535-8.217a.692.692,0,0,0-.614-.751.68.68,0,0,0-.75.6c-.129,1.16,1.629,6.368,3.811,9.2a.686.686,0,0,0,.544.268" transform="translate(-541.759 -527.915)" fill="#995e23"/>
        <path id="Trazado_611574" data-name="Trazado 611574" d="M600.421,613.967a.686.686,0,0,0,.684-.637,17.138,17.138,0,0,1,.3-2.191.686.686,0,0,0-1.332-.333,18.121,18.121,0,0,0-.333,2.426.687.687,0,0,0,.635.734l.05,0" transform="translate(-547.146 -524.223)" fill="#995e23"/>
        <path id="Trazado_611575" data-name="Trazado 611575" d="M613.455,743.558a.668.668,0,0,0,.115-.01.686.686,0,0,0,.563-.791c-2.962-17.533-7.225-44.171-6.979-46.588a7.153,7.153,0,0,0,1.105-2.957l.1-.771h-2.417c-.079-3.078-.4-15.805-.4-17.994,0-2.477,1.246-35.116,1.259-35.446a.686.686,0,0,0-1.371-.052c-.052,1.346-1.26,32.995-1.26,35.5s.4,18.038.42,18.7l.017.669h2.135a4.583,4.583,0,0,1-.743,1.614c-.318.4-.713.892,3.007,24.437,1.816,11.493,3.76,23.006,3.779,23.121a.685.685,0,0,0,.676.572" transform="translate(-562.49 -535.645)" fill="#6b3461"/>
        <path id="Trazado_611576" data-name="Trazado 611576" d="M629.689,498.353a1.9,1.9,0,0,0,.966-.168.171.171,0,1,0-.15-.308c-.746.363-1.807-.066-2.744-.444a4.186,4.186,0,0,0-1.75-.47c-.366.037-.863.133-1.343.226a9.044,9.044,0,0,1-1.611.229.172.172,0,0,0-.118-.118.174.174,0,0,0-.213.118.243.243,0,0,0,.052.236c.178.2.677.12,1.954-.127.474-.091.963-.186,1.313-.222a4.161,4.161,0,0,1,1.587.448,7.024,7.024,0,0,0,2.056.6" transform="translate(-590.085 -477.996)" fill="#44262d"/>
        <path id="Trazado_611577" data-name="Trazado 611577" d="M630.724,499.536c1.422.275,1.752-.613,1.051-.745s-3.766.219-1.051.745" transform="translate(-595.552 -478.734)" fill="#512e35"/>
        <path id="Trazado_611578" data-name="Trazado 611578" d="M619.236,491.67c-.73-2.423-2.132-2.307-3.883-1.2a3.642,3.642,0,0,1,3.883,1.2" transform="translate(-574.209 -475.044)" fill="#512e35"/>
        <path id="Trazado_611579" data-name="Trazado 611579" d="M629.462,490.486c-.773-2.085-1.951-1.586-3.362-.051a2.61,2.61,0,0,1,3.362.051" transform="translate(-590.798 -474.791)" fill="#512e35"/>
        <path id="Trazado_611580" data-name="Trazado 611580" d="M627.282,489.728c-2.594.261-3.715-.111-4.167.107s-.564,2.746-.564,2.746a9.79,9.79,0,0,1,2.789.486s-.732-1.577-.494-2.01a14.4,14.4,0,0,1,2.436-1.328" transform="translate(-586.516 -475.049)" fill="#f88868"/>
        <path id="Trazado_611581" data-name="Trazado 611581" d="M614.764,489.014a15.741,15.741,0,0,0-4.622-2.885c-.1-.1.655-1.7,1.77-1.639s3.508,2,3.868,2.95-.307,2.342-1.016,1.574" transform="translate(-567.764 -472.912)" fill="#663c42"/>
        <path id="Trazado_611582" data-name="Trazado 611582" d="M624.053,487.049a14.607,14.607,0,0,1,5.182-.552c.127-.045.242-1.8-.716-2.222s-3.845.252-4.584.938-.827,2.21.119,1.837" transform="translate(-589.034 -472.77)" fill="#663c42"/>
        <rect id="Rectángulo_378697" data-name="Rectángulo 378697" width="41.419" height="4.478" transform="translate(70.73 148.932)" fill="#512e35"/>
        <path id="Trazado_611583" data-name="Trazado 611583" d="M570.913,789.475l7.06-81.857-1.317-.1-7.083,81.956Z" transform="translate(-505.839 -563.883)" fill="#512e35"/>
        <path id="Trazado_611584" data-name="Trazado 611584" d="M544.786,790.129l5.71-80.922-1.318-.085-5.733,81.007Z" transform="translate(-462.89 -564.538)" fill="#512e35"/>
        <path id="Trazado_611585" data-name="Trazado 611585" d="M524.2,789.489l3.482-81.879-1.32-.057-3.505,81.935Z" transform="translate(-427.884 -563.897)" fill="#512e35"/>
        <path id="Trazado_611586" data-name="Trazado 611586" d="M501.41,789.066l1.184-82.522-1.321-.028-1.207,82.551Z" transform="translate(-389.304 -563.475)" fill="#512e35"/>
        <path id="Trazado_611587" data-name="Trazado 611587" d="M481.874,678.295a2.371,2.371,0,0,0,2.4,2.652c9.66-.2,42.168-.842,42.971-.574.944.315,10.7-54.466,9.76-55.411s-15.427.315-16.371,1.889-15.742,40.614-17.316,41.558-19.205,2.519-20.149,3.778c-.57.759-1.024,3.807-1.3,6.108" transform="translate(-413 -530.077)" fill="#b7183e"/>
        <path id="Trazado_611588" data-name="Trazado 611588" d="M485.708,672.188c.944-1.259,18.575-2.833,20.15-3.778s16.371-39.984,17.315-41.558c.783-1.3,10.859-2.392,14.826-2.188-3.294,13.44-10.709,49.337-12.412,50.358-1.672,1-30.1,1.663-41.011,1.975.275-2.026.665-4.186,1.131-4.809" transform="translate(-415.538 -530.078)" fill="#dd2c4e"/>
        <path id="Trazado_611589" data-name="Trazado 611589" d="M512.307,706.992a.4.4,0,0,0,.146-.027.411.411,0,0,0,.239-.531c-1.609-4.243-9.08-5.158-9.4-5.195a.411.411,0,0,0-.1.817c.073.008,7.291.894,8.723,4.67a.411.411,0,0,0,.384.265" transform="translate(-401.068 -561.321)" fill="#b7183e"/>
        <path id="Trazado_611590" data-name="Trazado 611590" d="M532.816,699.819a.411.411,0,0,0,.043-.82l-3.988-.42a.411.411,0,0,0-.086.818l3.988.42.043,0" transform="translate(-436.725 -560.237)" fill="#b7183e"/>
      </g>
    </g>
  </g>
</svg>
