<svg xmlns="http://www.w3.org/2000/svg" xmlns:xlink="http://www.w3.org/1999/xlink" width="1328" height="562.077" viewBox="0 0 1328 562.077">
  <defs>
    <clipPath id="clip-path">
      <rect id="Rectángulo_377901" data-name="Rectángulo 377901" width="1328" height="562.077" fill="#cbb1eb"/>
    </clipPath>
    <clipPath id="clip-path-2">
      <rect id="Rectángulo_378313" data-name="Rectángulo 378313" width="126.992" height="140.5" fill="none"/>
    </clipPath>
    <clipPath id="clip-path-3">
      <rect id="Rectángulo_378335" data-name="Rectángulo 378335" width="555.284" height="611.869" fill="none" stroke="#fff" stroke-width="1"/>
    </clipPath>
    <clipPath id="clip-path-4">
      <rect id="Rectángulo_378313-2" data-name="Rectángulo 378313" width="178.23" height="197.189" fill="none"/>
    </clipPath>
  </defs>
  <g id="Grupo_1087731" data-name="Grupo 1087731" transform="translate(1327.924 576.771) rotate(180)">
    <g id="Grupo_154360" data-name="Grupo 154360" transform="translate(-0.076 14.694)" clip-path="url(#clip-path)">
      <path id="Trazado_610761" data-name="Trazado 610761" d="M0,0H765.564V1417.331H0Z" transform="translate(1369.873 -125.008) rotate(90)" fill="#cbb1eb"/>
      <g id="Grupo_1073466" data-name="Grupo 1073466" transform="translate(1448.041 634.721) rotate(180)">
        <path id="Trazado_610747" data-name="Trazado 610747" d="M1479.037,499.145V742.127a598.4,598.4,0,0,0-48.624,174.605H1316.1a440.623,440.623,0,0,1,46.116-109.516c10.853-18.26,23.251-36.149,28.058-57.335,4.827-21.165-.387-47.1-17.761-57.6-24.916-15.06-53.777,8.988-74.194,30.775a1854.141,1854.141,0,0,1-211.591,193.673H806.7c5.649-5.854,11.427-11.554,17.136-17.266A1220.726,1220.726,0,0,0,984.6,699.885c15.4-23.83,30.486-49.527,33.331-78.631s-10.555-62.173-36.047-70.353C938.5,536.976,907.506,596.222,867.8,620.008c-47.96,28.744-116.95-7.568-126.812-66.727-6.343-38.038,8.424-75.89,16.928-113.4s8.276-83.546-19.287-107.474c-21.4-18.588-52.985-16.742-77.415-3.418s-43.321,36.094-61.617,58.362Q473.055,541.366,346.51,695.4c-29.188,35.537-63.252,73.7-106.712,75.519C179.539,773.46,135.98,702.44,130.975,636.226c-7.067-93.582,36.711-183.211,90.785-255.8C275.815,307.831,341.337,245.789,390.7,169.254c19.832-30.743,36.948-72.865,18.008-104.285-15.511-25.741-49.476-30.623-75.79-19.985s-47.038,32.992-67.782,53.775C187.061,176.964,97,240.568,0,286.295V163.914c18.326-13.247,36.205-27.04,53.629-40.5C104.591,84.07,153.5,41.533,203.058,0H674.517c-9.5,13.269-19.763,25.872-29.822,37.568Q532.035,168.49,419.376,299.422c-14.51,16.862-29.386,34.368-36.7,56.167s-5.114,49.221,10.872,64.379c28.028,26.571,70.24-.481,98.3-27.019Q629.7,262.634,767.552,132.308c16.066-15.18,32.677-30.732,52.766-38.082s44.739-4.62,58.8,12.81c14.46,17.889,13.756,44.645,12.23,68.551Q882.342,316.8,873.313,458.006c46.394-23.032,91.806-48.38,138.24-71.314,54.481-26.92,191.63-72.166,137.754,56.625-13.578,32.457-28.336,65.6-29.822,101.3-1.467,35.734,14.4,75.159,45.076,86.822,34.223,13.018,69.694-11.773,100.379-32.938A693.953,693.953,0,0,1,1479,499.145Z" transform="translate(0 0.022)" fill="#c7abe9"/>
        <path id="Trazado_610748" data-name="Trazado 610748" d="M414.9,126.662v143.95c-64.481-35.056-140.8-43.455-210.124-22.191-29.366,9-57.484,23.032-87.425,29.323s-63.441,3.68-87.118-17.474c-31.339-28-35.947-80.138-24.58-122.8S41,57.849,59.123,18.14C61.809,12.253,64.4,6.192,66.794,0H204.251a191.627,191.627,0,0,1-27.028,47.55c-12.775,16.305-29.1,32.981-28.564,54.507.535,21.045,18.246,37.59,36.859,42.308s38.009.491,56.83-3.1a841.178,841.178,0,0,1,146.059-14.874c8.8-.131,17.652-.1,26.5.251Z" transform="translate(1064.136)" fill="#c7abe9"/>
        <path id="Trazado_610749" data-name="Trazado 610749" d="M412.112,205.881H285.528c12-28.8,40.962-54.2,30.853-83.24-7.919-22.738-35.918-28.253-57.028-21.012-44.927,15.42-69.318,65.745-101.8,104.252H0c.466-.36.922-.71,1.388-1.048Q101.365,129.756,201.333,54.69C242.771,23.576,290.443-9.034,339.523,2.3c44.243,10.222,76.959,56.713,83.382,106.01,3.469,26.6-.337,64.532-10.783,97.568Z" transform="translate(200.857 710.863)" fill="#c7abe9"/>
      </g>
      <g id="Grupo_1073467" data-name="Grupo 1073467" transform="matrix(-0.978, 0.208, -0.208, -0.978, 1655.369, 752.633)">
        <path id="Trazado_610750" data-name="Trazado 610750" d="M.8,362l4.886-21.29s17.372,4.049,19.522,4.553c.042-.2.055-.244.055-.244l4.886-21.29s17.372,4.049,19.522,4.553c.042-.2.055-.244.055-.244l4.886-21.29S71.988,310.8,74.138,311.3c.042-.2.055-.244.055-.244l4.886-21.29s17.372,4.049,19.522,4.553c.042-.2.055-.244.055-.244l4.886-21.29s17.372,4.049,19.522,4.553c.042-.2.055-.244.055-.244l4.887-21.29s17.372,4.049,19.522,4.553c.042-.2.055-.244.055-.244l4.887-21.29s17.372,4.049,19.522,4.553c.042-.2.055-.244.055-.244l4.887-21.29s17.372,4.049,19.522,4.553c.042-.2.055-.244.055-.244l4.887-21.29s17.372,4.049,19.55,4.42a1.134,1.134,0,0,1,.027-.112l4.887-21.29s17.372,4.049,19.522,4.553c.042-.2.055-.244.055-.244l4.887-21.29s17.372,4.049,19.522,4.553c.042-.2.055-.244.055-.244l4.886-21.29s17.372,4.049,19.522,4.553c.042-.2.055-.244.055-.244l4.887-21.29s17.372,4.049,19.55,4.42a1.11,1.11,0,0,1,.028-.112l4.886-21.29s17.372,4.049,19.55,4.42a1.093,1.093,0,0,1,.028-.112l4.886-21.29,19.522,4.553.055-.244,4.886-21.29s17.372,4.049,19.522,4.553c.042-.2.055-.244.055-.244l4.886-21.29s17.372,4.049,19.522,4.553c.042-.2.055-.244.055-.244l4.886-21.29s17.372,4.049,19.522,4.553c.042-.2.055-.244.055-.244l4.887-21.29s17.372,4.049,19.55,4.42c.014-.07.027-.112.027-.112l4.887-21.29s17.372,4.049,19.522,4.553c.042-.2.055-.244.055-.244l4.886-21.29,19.743,4.6" transform="translate(92.035 164.589)" fill="none" stroke="#fff4a9" stroke-miterlimit="10" stroke-width="2.5"/>
        <path id="Trazado_610751" data-name="Trazado 610751" d="M.8,362l4.886-21.29s17.372,4.049,19.522,4.553c.042-.2.055-.244.055-.244l4.886-21.29s17.372,4.049,19.522,4.553c.042-.2.055-.244.055-.244l4.886-21.29S71.988,310.8,74.138,311.3c.042-.2.055-.244.055-.244l4.886-21.29s17.372,4.049,19.522,4.553c.042-.2.055-.244.055-.244l4.886-21.29s17.372,4.049,19.522,4.553c.042-.2.055-.244.055-.244l4.886-21.29s17.372,4.049,19.522,4.553c.042-.2.055-.244.055-.244l4.886-21.29s17.372,4.049,19.522,4.553c.042-.2.055-.244.055-.244l4.886-21.29s17.372,4.049,19.522,4.553c.042-.2.056-.244.056-.244l4.886-21.29s17.372,4.049,19.55,4.42a1.066,1.066,0,0,1,.028-.112l4.886-21.29s17.372,4.049,19.522,4.553c.042-.2.055-.244.055-.244l4.886-21.29s17.372,4.049,19.522,4.553c.042-.2.055-.244.055-.244l4.886-21.29s17.372,4.049,19.522,4.553c.042-.2.055-.244.055-.244l4.887-21.29s17.372,4.049,19.55,4.42c.014-.07.027-.112.027-.112l4.886-21.29s17.372,4.049,19.55,4.42c.014-.07.027-.112.027-.112l4.887-21.29,19.522,4.553.056-.244,4.886-21.29s17.372,4.049,19.522,4.553c.042-.2.055-.244.055-.244l4.887-21.29s17.372,4.049,19.522,4.553c.042-.2.055-.244.055-.244l4.887-21.29s17.372,4.049,19.522,4.553c.042-.2.055-.244.055-.244l4.887-21.29s17.372,4.049,19.55,4.42c.014-.07.027-.112.027-.112l4.887-21.29s17.372,4.049,19.522,4.553c.042-.2.055-.244.055-.244l4.886-21.29,19.743,4.6" transform="translate(82.831 148.128)" fill="none" stroke="#fff4a9" stroke-miterlimit="10" stroke-width="2.5"/>
        <path id="Trazado_610752" data-name="Trazado 610752" d="M.8,362l4.886-21.29s17.372,4.049,19.522,4.553c.042-.2.055-.244.055-.244l4.886-21.29s17.372,4.049,19.522,4.553c.042-.2.055-.244.055-.244l4.886-21.29S71.988,310.8,74.138,311.3c.042-.2.056-.244.056-.244l4.886-21.29s17.372,4.049,19.522,4.553c.042-.2.055-.244.055-.244l4.886-21.29s17.372,4.049,19.522,4.553c.042-.2.055-.244.055-.244l4.886-21.29s17.372,4.049,19.522,4.553c.042-.2.055-.244.055-.244l4.886-21.29s17.372,4.049,19.522,4.553c.042-.2.055-.244.055-.244l4.886-21.29s17.372,4.049,19.522,4.553c.042-.2.056-.244.056-.244l4.886-21.29s17.372,4.049,19.55,4.42a1.105,1.105,0,0,1,.028-.112l4.886-21.29s17.372,4.049,19.522,4.553c.042-.2.055-.244.055-.244l4.886-21.29s17.372,4.049,19.522,4.553c.042-.2.055-.244.055-.244l4.887-21.29s17.372,4.049,19.522,4.553c.042-.2.056-.244.056-.244l4.886-21.29s17.372,4.049,19.55,4.42c.014-.07.027-.112.027-.112l4.887-21.29s17.372,4.049,19.55,4.42c.014-.07.028-.112.028-.112l4.886-21.29,19.522,4.553.055-.244,4.887-21.29s17.372,4.049,19.522,4.553c.042-.2.055-.244.055-.244l4.886-21.29s17.372,4.049,19.522,4.553c.042-.2.055-.244.055-.244l4.886-21.29s17.372,4.049,19.522,4.553c.042-.2.055-.244.055-.244l4.886-21.29s17.372,4.049,19.55,4.42a1.119,1.119,0,0,1,.028-.112l4.886-21.29s17.372,4.049,19.522,4.553c.042-.2.055-.244.055-.244l4.886-21.29,19.743,4.6" transform="translate(73.627 131.668)" fill="none" stroke="#fff4a9" stroke-miterlimit="10" stroke-width="2.5"/>
        <path id="Trazado_610753" data-name="Trazado 610753" d="M.8,362l4.886-21.29s17.372,4.049,19.522,4.553c.042-.2.055-.244.055-.244l4.886-21.29s17.372,4.049,19.522,4.553c.042-.2.055-.244.055-.244l4.886-21.29S71.988,310.8,74.138,311.3c.042-.2.055-.244.055-.244l4.886-21.29s17.372,4.049,19.522,4.553c.042-.2.055-.244.055-.244l4.886-21.29s17.372,4.049,19.522,4.553c.042-.2.056-.244.056-.244l4.886-21.29s17.372,4.049,19.522,4.553c.042-.2.055-.244.055-.244l4.886-21.29s17.372,4.049,19.522,4.553c.042-.2.056-.244.056-.244l4.886-21.29s17.372,4.049,19.522,4.553c.042-.2.055-.244.055-.244l4.887-21.29s17.372,4.049,19.55,4.42a1.141,1.141,0,0,1,.028-.112l4.886-21.29s17.372,4.049,19.522,4.553c.042-.2.055-.244.055-.244l4.887-21.29s17.372,4.049,19.522,4.553c.042-.2.055-.244.055-.244l4.887-21.29s17.372,4.049,19.522,4.553c.042-.2.055-.244.055-.244l4.887-21.29s17.372,4.049,19.55,4.42a1.141,1.141,0,0,1,.027-.112l4.886-21.29s17.372,4.049,19.55,4.42a1.09,1.09,0,0,1,.028-.112l4.886-21.29,19.522,4.553.055-.244,4.886-21.29s17.372,4.049,19.522,4.553c.042-.2.055-.244.055-.244l4.886-21.29s17.372,4.049,19.522,4.553c.042-.2.055-.244.055-.244l4.886-21.29s17.372,4.049,19.522,4.553c.042-.2.055-.244.055-.244l4.886-21.29s17.372,4.049,19.55,4.42c.014-.07.028-.112.028-.112l4.886-21.29s17.372,4.049,19.522,4.553c.042-.2.055-.244.055-.244l4.886-21.29,19.743,4.6" transform="translate(64.422 115.215)" fill="none" stroke="#fff4a9" stroke-miterlimit="10" stroke-width="2.5"/>
        <path id="Trazado_610754" data-name="Trazado 610754" d="M.8,362l4.886-21.29s17.372,4.049,19.522,4.553c.042-.2.055-.244.055-.244l4.886-21.29s17.372,4.049,19.522,4.553c.042-.2.055-.244.055-.244l4.886-21.29S71.988,310.8,74.138,311.3c.042-.2.055-.244.055-.244l4.886-21.29s17.372,4.049,19.522,4.553c.042-.2.055-.244.055-.244l4.886-21.29s17.372,4.049,19.522,4.553c.042-.2.056-.244.056-.244l4.886-21.29s17.372,4.049,19.522,4.553c.042-.2.055-.244.055-.244l4.887-21.29s17.372,4.049,19.522,4.553c.042-.2.055-.244.055-.244l4.886-21.29s17.372,4.049,19.522,4.553c.042-.2.055-.244.055-.244l4.886-21.29s17.372,4.049,19.55,4.42a1.107,1.107,0,0,1,.028-.112l4.886-21.29s17.372,4.049,19.522,4.553c.042-.2.055-.244.055-.244l4.886-21.29s17.372,4.049,19.522,4.553c.042-.2.055-.244.055-.244l4.886-21.29s17.372,4.049,19.522,4.553c.042-.2.055-.244.055-.244l4.886-21.29s17.372,4.049,19.55,4.42a1.1,1.1,0,0,1,.028-.112l4.886-21.29s17.372,4.049,19.55,4.42a1.074,1.074,0,0,1,.028-.112l4.886-21.29,19.522,4.553.056-.244,4.886-21.29s17.372,4.049,19.522,4.553c.042-.2.055-.244.055-.244l4.886-21.29s17.372,4.049,19.522,4.553c.042-.2.055-.244.055-.244l4.886-21.29s17.372,4.049,19.522,4.553c.042-.2.055-.244.055-.244l4.886-21.29s17.372,4.049,19.55,4.42c.014-.07.027-.112.027-.112l4.887-21.29s17.372,4.049,19.522,4.553c.042-.2.055-.244.055-.244l4.886-21.29,19.743,4.6" transform="translate(55.218 98.755)" fill="none" stroke="#fff4a9" stroke-miterlimit="10" stroke-width="2.5"/>
        <path id="Trazado_610755" data-name="Trazado 610755" d="M.8,362l4.886-21.29s17.372,4.049,19.522,4.553c.042-.2.055-.244.055-.244l4.886-21.29s17.372,4.049,19.522,4.553c.042-.2.055-.244.055-.244l4.886-21.29S71.988,310.8,74.138,311.3c.042-.2.055-.244.055-.244l4.886-21.29s17.372,4.049,19.522,4.553c.042-.2.055-.244.055-.244l4.886-21.29s17.372,4.049,19.522,4.553c.042-.2.055-.244.055-.244l4.886-21.29s17.372,4.049,19.522,4.553c.042-.2.055-.244.055-.244l4.887-21.29s17.372,4.049,19.522,4.553c.042-.2.055-.244.055-.244l4.887-21.29s17.372,4.049,19.522,4.553c.042-.2.055-.244.055-.244l4.887-21.29s17.372,4.049,19.55,4.42a1.107,1.107,0,0,1,.028-.112l4.886-21.29s17.372,4.049,19.522,4.553c.042-.2.055-.244.055-.244l4.887-21.29s17.372,4.049,19.522,4.553c.042-.2.055-.244.055-.244l4.886-21.29s17.372,4.049,19.522,4.553c.042-.2.055-.244.055-.244l4.886-21.29s17.372,4.049,19.55,4.42c.014-.07.028-.112.028-.112l4.886-21.29s17.372,4.049,19.55,4.42a1.107,1.107,0,0,1,.028-.112l4.886-21.29,19.522,4.553.056-.244,4.886-21.29s17.372,4.049,19.522,4.553c.042-.2.055-.244.055-.244l4.887-21.29s17.372,4.049,19.522,4.553c.042-.2.056-.244.056-.244l4.886-21.29s17.372,4.049,19.522,4.553c.042-.2.055-.244.055-.244l4.887-21.29s17.372,4.049,19.55,4.42a1.14,1.14,0,0,1,.027-.112l4.886-21.29s17.372,4.049,19.522,4.553c.042-.2.055-.244.055-.244l4.887-21.29,19.743,4.6" transform="translate(46.014 82.294)" fill="none" stroke="#fff4a9" stroke-miterlimit="10" stroke-width="2.5"/>
        <path id="Trazado_610756" data-name="Trazado 610756" d="M.8,362l4.886-21.29s17.372,4.049,19.522,4.553c.042-.2.055-.244.055-.244l4.886-21.29s17.372,4.049,19.522,4.553c.042-.2.055-.244.055-.244l4.886-21.29S71.988,310.8,74.138,311.3c.042-.2.055-.244.055-.244l4.886-21.29s17.372,4.049,19.522,4.553c.042-.2.055-.244.055-.244l4.886-21.29s17.372,4.049,19.522,4.553c.042-.2.055-.244.055-.244l4.886-21.29s17.372,4.049,19.522,4.553c.042-.2.055-.244.055-.244l4.886-21.29s17.372,4.049,19.522,4.553c.042-.2.055-.244.055-.244l4.886-21.29s17.372,4.049,19.522,4.553c.042-.2.055-.244.055-.244l4.886-21.29s17.372,4.049,19.55,4.42c.014-.07.028-.112.028-.112l4.886-21.29s17.372,4.049,19.522,4.553c.042-.2.055-.244.055-.244l4.886-21.29s17.372,4.049,19.522,4.553c.042-.2.055-.244.055-.244l4.886-21.29s17.372,4.049,19.522,4.553c.042-.2.055-.244.055-.244l4.886-21.29s17.372,4.049,19.55,4.42a1.141,1.141,0,0,1,.027-.112l4.886-21.29s17.372,4.049,19.55,4.42a1.139,1.139,0,0,1,.027-.112l4.887-21.29,19.522,4.553.055-.244,4.886-21.29s17.372,4.049,19.522,4.553c.042-.2.055-.244.055-.244l4.886-21.29s17.372,4.049,19.522,4.553c.042-.2.055-.244.055-.244l4.886-21.29s17.372,4.049,19.522,4.553c.042-.2.056-.244.056-.244l4.886-21.29s17.372,4.049,19.55,4.42a1.063,1.063,0,0,1,.027-.112l4.886-21.29s17.372,4.049,19.522,4.553c.042-.2.055-.244.055-.244l4.886-21.29,19.743,4.6" transform="translate(36.816 65.834)" fill="none" stroke="#fff4a9" stroke-miterlimit="10" stroke-width="2.5"/>
        <path id="Trazado_610757" data-name="Trazado 610757" d="M.8,362l4.886-21.29s17.372,4.049,19.522,4.553c.042-.2.055-.244.055-.244l4.886-21.29s17.372,4.049,19.522,4.553c.042-.2.055-.244.055-.244l4.886-21.29S71.988,310.8,74.138,311.3c.042-.2.055-.244.055-.244l4.886-21.29s17.372,4.049,19.522,4.553c.042-.2.055-.244.055-.244l4.886-21.29s17.372,4.049,19.522,4.553c.042-.2.055-.244.055-.244l4.886-21.29s17.372,4.049,19.522,4.553c.042-.2.055-.244.055-.244l4.886-21.29s17.372,4.049,19.522,4.553c.042-.2.055-.244.055-.244l4.886-21.29s17.372,4.049,19.522,4.553c.042-.2.055-.244.055-.244l4.886-21.29s17.372,4.049,19.55,4.42c.014-.07.028-.112.028-.112l4.886-21.29s17.372,4.049,19.522,4.553c.042-.2.055-.244.055-.244l4.886-21.29s17.372,4.049,19.522,4.553c.042-.2.055-.244.055-.244l4.886-21.29s17.372,4.049,19.522,4.553c.042-.2.055-.244.055-.244l4.886-21.29s17.372,4.049,19.55,4.42a1.119,1.119,0,0,1,.027-.112l4.886-21.29s17.372,4.049,19.55,4.42a1.114,1.114,0,0,1,.028-.112l4.886-21.29,19.522,4.553.055-.244,4.886-21.29s17.372,4.049,19.522,4.553c.042-.2.055-.244.055-.244l4.886-21.29s17.372,4.049,19.522,4.553c.042-.2.055-.244.055-.244l4.886-21.29s17.372,4.049,19.522,4.553c.042-.2.056-.244.056-.244l4.886-21.29s17.372,4.049,19.55,4.42c.014-.07.027-.112.027-.112l4.887-21.29s17.372,4.049,19.522,4.553c.042-.2.055-.244.055-.244l4.887-21.29,19.743,4.6" transform="translate(27.612 49.381)" fill="none" stroke="#fff4a9" stroke-miterlimit="10" stroke-width="2.5"/>
        <path id="Trazado_610758" data-name="Trazado 610758" d="M.8,362l4.886-21.29s17.372,4.049,19.522,4.553c.042-.2.056-.244.056-.244l4.886-21.29s17.372,4.049,19.522,4.553c.042-.2.055-.244.055-.244l4.886-21.29S71.988,310.8,74.138,311.3c.042-.2.055-.244.055-.244l4.886-21.29s17.372,4.049,19.522,4.553c.042-.2.055-.244.055-.244l4.886-21.29s17.372,4.049,19.522,4.553c.042-.2.055-.244.055-.244l4.886-21.29s17.372,4.049,19.522,4.553c.042-.2.056-.244.056-.244l4.886-21.29s17.372,4.049,19.522,4.553c.042-.2.055-.244.055-.244l4.886-21.29s17.372,4.049,19.522,4.553c.042-.2.055-.244.055-.244l4.887-21.29s17.372,4.049,19.55,4.42c.014-.07.028-.112.028-.112l4.886-21.29s17.372,4.049,19.522,4.553c.042-.2.055-.244.055-.244l4.886-21.29s17.372,4.049,19.522,4.553c.042-.2.055-.244.055-.244l4.886-21.29s17.372,4.049,19.522,4.553c.042-.2.055-.244.055-.244l4.886-21.29s17.372,4.049,19.55,4.42a1.12,1.12,0,0,1,.027-.112l4.886-21.29s17.372,4.049,19.55,4.42a1.137,1.137,0,0,1,.027-.112l4.886-21.29,19.522,4.553.055-.244,4.886-21.29s17.372,4.049,19.522,4.553c.042-.2.055-.244.055-.244l4.887-21.29s17.372,4.049,19.522,4.553c.042-.2.056-.244.056-.244l4.886-21.29s17.372,4.049,19.522,4.553c.042-.2.055-.244.055-.244l4.887-21.29s17.372,4.049,19.55,4.42c.014-.07.028-.112.028-.112l4.886-21.29s17.372,4.049,19.522,4.553c.042-.2.055-.244.055-.244l4.887-21.29,19.743,4.6" transform="translate(18.408 32.92)" fill="none" stroke="#fff4a9" stroke-miterlimit="10" stroke-width="2.5"/>
        <path id="Trazado_610759" data-name="Trazado 610759" d="M.8,362l4.886-21.29s17.372,4.049,19.522,4.553c.042-.2.055-.244.055-.244l4.886-21.29s17.372,4.049,19.522,4.553c.042-.2.055-.244.055-.244l4.886-21.29S71.988,310.8,74.138,311.3c.042-.2.055-.244.055-.244l4.886-21.29s17.372,4.049,19.522,4.553c.042-.2.055-.244.055-.244l4.886-21.29s17.372,4.049,19.522,4.553c.042-.2.055-.244.055-.244l4.886-21.29s17.372,4.049,19.522,4.553c.042-.2.055-.244.055-.244l4.886-21.29s17.372,4.049,19.522,4.553c.042-.2.055-.244.055-.244l4.886-21.29s17.372,4.049,19.522,4.553c.042-.2.055-.244.055-.244l4.886-21.29s17.372,4.049,19.55,4.42a1.106,1.106,0,0,1,.028-.112l4.886-21.29s17.372,4.049,19.522,4.553c.042-.2.055-.244.055-.244l4.886-21.29s17.372,4.049,19.522,4.553c.042-.2.055-.244.055-.244l4.886-21.29s17.372,4.049,19.522,4.553c.042-.2.055-.244.055-.244l4.886-21.29s17.372,4.049,19.55,4.42c.014-.07.027-.112.027-.112l4.887-21.29s17.372,4.049,19.55,4.42a1.144,1.144,0,0,1,.028-.112l4.886-21.29,19.522,4.553.055-.244,4.887-21.29s17.372,4.049,19.522,4.553c.042-.2.055-.244.055-.244l4.887-21.29s17.372,4.049,19.522,4.553c.042-.2.055-.244.055-.244l4.887-21.29s17.372,4.049,19.522,4.553c.042-.2.055-.244.055-.244l4.886-21.29s17.372,4.049,19.55,4.42a1.088,1.088,0,0,1,.028-.112l4.886-21.29s17.372,4.049,19.522,4.553c.042-.2.055-.244.055-.244l4.886-21.29,19.743,4.6" transform="translate(9.204 16.46)" fill="none" stroke="#fff4a9" stroke-miterlimit="10" stroke-width="2.5"/>
        <path id="Trazado_610760" data-name="Trazado 610760" d="M.8,362l4.886-21.29s17.372,4.049,19.522,4.553c.042-.2.055-.244.055-.244l4.886-21.29s17.372,4.049,19.522,4.553c.042-.2.055-.244.055-.244l4.886-21.29S71.988,310.8,74.138,311.3c.042-.2.055-.244.055-.244l4.886-21.29s17.372,4.049,19.522,4.553c.042-.2.055-.244.055-.244l4.886-21.29s17.372,4.049,19.522,4.553c.042-.2.055-.244.055-.244l4.886-21.29s17.372,4.049,19.522,4.553c.042-.2.055-.244.055-.244l4.886-21.29s17.372,4.049,19.522,4.553c.042-.2.055-.244.055-.244l4.886-21.29s17.372,4.049,19.522,4.553c.042-.2.055-.244.055-.244l4.886-21.29s17.372,4.049,19.55,4.42c.014-.07.028-.112.028-.112l4.886-21.29s17.372,4.049,19.522,4.553c.042-.2.055-.244.055-.244l4.887-21.29s17.372,4.049,19.522,4.553c.042-.2.055-.244.055-.244l4.886-21.29s17.372,4.049,19.522,4.553c.042-.2.055-.244.055-.244l4.886-21.29s17.372,4.049,19.55,4.42a1.144,1.144,0,0,1,.027-.112l4.886-21.29s17.372,4.049,19.55,4.42a1.112,1.112,0,0,1,.028-.112l4.886-21.29,19.522,4.553.055-.244,4.886-21.29s17.372,4.049,19.522,4.553c.042-.2.055-.244.055-.244l4.886-21.29s17.372,4.049,19.522,4.553c.042-.2.055-.244.055-.244l4.886-21.29s17.372,4.049,19.522,4.553c.042-.2.055-.244.055-.244l4.886-21.29s17.372,4.049,19.55,4.42a1.119,1.119,0,0,1,.028-.112l4.886-21.29s17.372,4.049,19.522,4.553c.042-.2.055-.244.055-.244l4.886-21.29,19.743,4.6" transform="translate(0 0)" fill="none" stroke="#fff4a9" stroke-miterlimit="10" stroke-width="2.5"/>
      </g>
      <rect id="Rectángulo_378306" data-name="Rectángulo 378306" width="1397.845" height="608.596" transform="translate(1360.13 562.078) rotate(180)" fill="none"/>
      <g id="Grupo_1073515" data-name="Grupo 1073515" transform="translate(756.648 62.192) rotate(180)">
        <path id="Trazado_610781" data-name="Trazado 610781" d="M15.43,134.253l97.8-81.851L0,0Z" transform="translate(0 11.6)" fill="#99e8dc"/>
        <g id="Grupo_1073485" data-name="Grupo 1073485" transform="translate(14.277 0)">
          <g id="Grupo_1073484" data-name="Grupo 1073484" transform="translate(0 0)" clip-path="url(#clip-path-2)">
            <path id="Trazado_610782" data-name="Trazado 610782" d="M15.43,134.253l97.8-81.851L0,0Z" transform="translate(1.995 2.895)" fill="none" stroke="#9550ac" stroke-miterlimit="10" stroke-width="3"/>
          </g>
        </g>
      </g>
      <g id="Grupo_1073514" data-name="Grupo 1073514" transform="translate(55.955 562.078) rotate(180)">
        <g id="Grupo_1073514-2" data-name="Grupo 1073514" clip-path="url(#clip-path-3)">
          <line id="Línea_3002" data-name="Línea 3002" x2="553.973" transform="translate(0.656 589.124)" fill="none" stroke="#fff" stroke-miterlimit="10" stroke-width="2"/>
          <line id="Línea_3003" data-name="Línea 3003" x2="553.973" transform="translate(0.656 565.536)" fill="none" stroke="#fff" stroke-miterlimit="10" stroke-width="2"/>
          <line id="Línea_3004" data-name="Línea 3004" x2="553.973" transform="translate(0.656 541.949)" fill="none" stroke="#fff" stroke-miterlimit="10" stroke-width="2"/>
          <line id="Línea_3005" data-name="Línea 3005" x2="553.973" transform="translate(0.656 518.362)" fill="none" stroke="#fff" stroke-miterlimit="10" stroke-width="2"/>
          <line id="Línea_3006" data-name="Línea 3006" x2="553.973" transform="translate(0.656 494.774)" fill="none" stroke="#fff" stroke-miterlimit="10" stroke-width="2"/>
          <line id="Línea_3007" data-name="Línea 3007" x2="553.973" transform="translate(0.656 471.187)" fill="none" stroke="#fff" stroke-miterlimit="10" stroke-width="2"/>
          <line id="Línea_3008" data-name="Línea 3008" x2="553.973" transform="translate(0.656 447.6)" fill="none" stroke="#fff" stroke-miterlimit="10" stroke-width="2"/>
          <line id="Línea_3009" data-name="Línea 3009" x2="553.973" transform="translate(0.656 424.012)" fill="none" stroke="#fff" stroke-miterlimit="10" stroke-width="2"/>
          <line id="Línea_3010" data-name="Línea 3010" x2="553.973" transform="translate(0.656 400.425)" fill="none" stroke="#fff" stroke-miterlimit="10" stroke-width="2"/>
          <line id="Línea_3011" data-name="Línea 3011" x2="553.973" transform="translate(0.656 376.838)" fill="none" stroke="#fff" stroke-miterlimit="10" stroke-width="2"/>
          <line id="Línea_3012" data-name="Línea 3012" x2="553.973" transform="translate(0.656 353.25)" fill="none" stroke="#fff" stroke-miterlimit="10" stroke-width="2"/>
          <line id="Línea_3013" data-name="Línea 3013" x2="553.973" transform="translate(0.656 329.663)" fill="none" stroke="#fff" stroke-miterlimit="10" stroke-width="2"/>
          <line id="Línea_3014" data-name="Línea 3014" x2="553.973" transform="translate(0.656 306.076)" fill="none" stroke="#fff" stroke-miterlimit="10" stroke-width="2"/>
          <line id="Línea_3015" data-name="Línea 3015" x2="553.973" transform="translate(0.656 282.488)" fill="none" stroke="#fff" stroke-miterlimit="10" stroke-width="2"/>
          <line id="Línea_3016" data-name="Línea 3016" x2="553.973" transform="translate(0.656 258.901)" fill="none" stroke="#fff" stroke-miterlimit="10" stroke-width="2"/>
          <line id="Línea_3017" data-name="Línea 3017" x2="553.973" transform="translate(0.656 235.314)" fill="none" stroke="#fff" stroke-miterlimit="10" stroke-width="2"/>
          <line id="Línea_3018" data-name="Línea 3018" x2="553.973" transform="translate(0.656 211.726)" fill="none" stroke="#fff" stroke-miterlimit="10" stroke-width="2"/>
          <line id="Línea_3019" data-name="Línea 3019" x2="553.973" transform="translate(0.656 188.139)" fill="none" stroke="#fff" stroke-miterlimit="10" stroke-width="2"/>
          <line id="Línea_3020" data-name="Línea 3020" x2="553.973" transform="translate(0.656 164.552)" fill="none" stroke="#fff" stroke-miterlimit="10" stroke-width="2"/>
          <line id="Línea_3021" data-name="Línea 3021" x2="553.973" transform="translate(0.656 140.964)" fill="none" stroke="#fff" stroke-miterlimit="10" stroke-width="2"/>
          <line id="Línea_3022" data-name="Línea 3022" x2="553.973" transform="translate(0.656 117.377)" fill="none" stroke="#fff" stroke-miterlimit="10" stroke-width="2"/>
          <line id="Línea_3023" data-name="Línea 3023" x2="553.973" transform="translate(0.656 93.79)" fill="none" stroke="#fff" stroke-miterlimit="10" stroke-width="2"/>
          <line id="Línea_3024" data-name="Línea 3024" x2="553.973" transform="translate(0.656 70.202)" fill="none" stroke="#fff" stroke-miterlimit="10" stroke-width="2"/>
          <line id="Línea_3025" data-name="Línea 3025" x2="553.973" transform="translate(0.656 46.615)" fill="none" stroke="#fff" stroke-miterlimit="10" stroke-width="2"/>
          <line id="Línea_3026" data-name="Línea 3026" x2="553.973" transform="translate(0.656 23.028)" fill="none" stroke="#fff" stroke-miterlimit="10" stroke-width="2"/>
          <rect id="Rectángulo_378334" data-name="Rectángulo 378334" width="553.973" height="610.424" transform="translate(0.656 0.722)" fill="none" stroke="#fff" stroke-miterlimit="10" stroke-width="2"/>
          <line id="Línea_3027" data-name="Línea 3027" y2="610.424" transform="translate(20.77 0.863)" fill="none" stroke="#fff" stroke-miterlimit="10" stroke-width="2"/>
          <line id="Línea_3028" data-name="Línea 3028" y2="610.424" transform="translate(42.176 0.863)" fill="none" stroke="#fff" stroke-miterlimit="10" stroke-width="2"/>
          <line id="Línea_3029" data-name="Línea 3029" y2="610.424" transform="translate(63.582 0.863)" fill="none" stroke="#fff" stroke-miterlimit="10" stroke-width="2"/>
          <line id="Línea_3030" data-name="Línea 3030" y2="610.424" transform="translate(84.988 0.863)" fill="none" stroke="#fff" stroke-miterlimit="10" stroke-width="2"/>
          <line id="Línea_3031" data-name="Línea 3031" y2="610.424" transform="translate(106.394 0.863)" fill="none" stroke="#fff" stroke-miterlimit="10" stroke-width="2"/>
          <line id="Línea_3032" data-name="Línea 3032" y2="610.424" transform="translate(127.8 0.863)" fill="none" stroke="#fff" stroke-miterlimit="10" stroke-width="2"/>
          <line id="Línea_3033" data-name="Línea 3033" y2="610.424" transform="translate(149.206 0.863)" fill="none" stroke="#fff" stroke-miterlimit="10" stroke-width="2"/>
          <line id="Línea_3034" data-name="Línea 3034" y2="610.424" transform="translate(170.612 0.863)" fill="none" stroke="#fff" stroke-miterlimit="10" stroke-width="2"/>
          <line id="Línea_3035" data-name="Línea 3035" y2="610.424" transform="translate(192.018 0.863)" fill="none" stroke="#fff" stroke-miterlimit="10" stroke-width="2"/>
          <line id="Línea_3036" data-name="Línea 3036" y2="610.424" transform="translate(213.424 0.863)" fill="none" stroke="#fff" stroke-miterlimit="10" stroke-width="2"/>
          <line id="Línea_3037" data-name="Línea 3037" y2="610.424" transform="translate(234.83 0.863)" fill="none" stroke="#fff" stroke-miterlimit="10" stroke-width="2"/>
          <line id="Línea_3038" data-name="Línea 3038" y2="610.424" transform="translate(256.236 0.863)" fill="none" stroke="#fff" stroke-miterlimit="10" stroke-width="2"/>
          <line id="Línea_3039" data-name="Línea 3039" y2="610.424" transform="translate(277.642 0.863)" fill="none" stroke="#fff" stroke-miterlimit="10" stroke-width="2"/>
          <line id="Línea_3040" data-name="Línea 3040" y2="610.424" transform="translate(299.048 0.863)" fill="none" stroke="#fff" stroke-miterlimit="10" stroke-width="2"/>
          <line id="Línea_3041" data-name="Línea 3041" y2="610.424" transform="translate(320.454 0.863)" fill="none" stroke="#fff" stroke-miterlimit="10" stroke-width="2"/>
          <line id="Línea_3042" data-name="Línea 3042" y2="610.424" transform="translate(341.86 0.863)" fill="none" stroke="#fff" stroke-miterlimit="10" stroke-width="2"/>
          <line id="Línea_3043" data-name="Línea 3043" y2="610.424" transform="translate(363.266 0.863)" fill="none" stroke="#fff" stroke-miterlimit="10" stroke-width="2"/>
          <line id="Línea_3044" data-name="Línea 3044" y2="610.424" transform="translate(384.672 0.863)" fill="none" stroke="#fff" stroke-miterlimit="10" stroke-width="2"/>
          <line id="Línea_3045" data-name="Línea 3045" y2="610.424" transform="translate(406.078 0.863)" fill="none" stroke="#fff" stroke-miterlimit="10" stroke-width="2"/>
          <line id="Línea_3046" data-name="Línea 3046" y2="610.424" transform="translate(427.484 0.863)" fill="none" stroke="#fff" stroke-miterlimit="10" stroke-width="2"/>
          <line id="Línea_3047" data-name="Línea 3047" y2="610.424" transform="translate(448.89 0.863)" fill="none" stroke="#fff" stroke-miterlimit="10" stroke-width="2"/>
          <line id="Línea_3048" data-name="Línea 3048" y2="610.424" transform="translate(470.296 0.863)" fill="none" stroke="#fff" stroke-miterlimit="10" stroke-width="2"/>
          <line id="Línea_3049" data-name="Línea 3049" y2="610.424" transform="translate(491.702 0.863)" fill="none" stroke="#fff" stroke-miterlimit="10" stroke-width="2"/>
          <line id="Línea_3050" data-name="Línea 3050" y2="610.424" transform="translate(513.108 0.863)" fill="none" stroke="#fff" stroke-miterlimit="10" stroke-width="2"/>
          <line id="Línea_3051" data-name="Línea 3051" y2="610.424" transform="translate(534.514 0.863)" fill="none" stroke="#fff" stroke-miterlimit="10" stroke-width="2"/>
        </g>
      </g>
      <path id="Trazado_610836" data-name="Trazado 610836" d="M21.655,188.422,158.915,73.545,0,0Z" transform="translate(143.295 628.636) rotate(180)" fill="#fff4a9"/>
      <g id="Grupo_1073523" data-name="Grupo 1073523" transform="translate(172.969 634.721) rotate(180)">
        <g id="Grupo_1073484-2" data-name="Grupo 1073484" clip-path="url(#clip-path-4)">
          <path id="Trazado_610782-2" data-name="Trazado 610782" d="M21.655,188.422,158.915,73.546,0,0Z" transform="translate(2.8 4.063)" fill="none" stroke="#fd3cae" stroke-miterlimit="10" stroke-width="3"/>
        </g>
      </g>
    </g>
  </g>
</svg>
