<svg xmlns="http://www.w3.org/2000/svg" xmlns:xlink="http://www.w3.org/1999/xlink" width="1237" height="469" viewBox="0 0 1237 469">
  <defs>
    <clipPath id="clip-path">
      <rect id="Rectángulo_377901" data-name="Rectángulo 377901" width="1237" height="469" fill="#dac8f1"/>
    </clipPath>
    <clipPath id="clip-path-2">
      <rect id="Rectángulo_378313" data-name="Rectángulo 378313" width="166.059" height="166.733" fill="none" stroke="#624b7e" stroke-width="1"/>
    </clipPath>
  </defs>
  <g id="Grupo_1073701" data-name="Grupo 1073701" transform="translate(-0.001)">
    <g id="Grupo_154360" data-name="Grupo 154360" transform="translate(0.001)" clip-path="url(#clip-path)">
      <path id="Trazado_610761" data-name="Trazado 610761" d="M0,0H647.321V1320.544H0Z" transform="translate(-54.343 510.896) rotate(-90)" fill="#d6f6f1" opacity="0.63"/>
      <g id="Grupo_1073466" data-name="Grupo 1073466" transform="translate(-111.846 -136.424)">
        <path id="Trazado_610747" data-name="Trazado 610747" d="M1378.036,422.051V627.5a470.335,470.335,0,0,0-45.3,147.637H1226.225a354.841,354.841,0,0,1,42.967-92.6c10.111-15.44,21.664-30.565,26.142-48.48,4.5-17.9-.36-39.827-16.548-48.7-23.215-12.734-50.105,7.6-69.128,26.022a1678.578,1678.578,0,0,1-197.142,163.76h-260.9c5.263-4.95,10.647-9.77,15.966-14.6A1057.741,1057.741,0,0,0,917.367,591.786c14.35-20.149,28.4-41.877,31.055-66.487s-9.835-52.571-33.585-59.487c-40.427-11.774-69.3,38.322-106.3,58.434-44.685,24.3-108.964-6.4-118.152-56.421-5.91-32.163,7.849-64.169,15.772-95.888s7.711-70.642-17.97-90.874c-19.937-15.717-49.366-14.156-72.129-2.89S575.7,308.692,558.654,327.52q-117.9,130.231-235.806,260.47c-27.195,30.048-58.933,62.313-99.425,63.855-56.144,2.152-96.729-57.9-101.392-113.886-6.584-79.128,34.2-154.914,84.586-216.294,50.364-61.38,111.411-113.84,157.407-178.553C382.5,117.118,398.449,81.5,380.8,54.935c-14.452-21.765-46.1-25.893-70.614-16.9s-43.826,27.9-63.153,45.469A886.3,886.3,0,0,1,0,242.076V138.6c17.074-11.2,33.733-22.864,49.967-34.241C97.449,71.085,143.02,35.118,189.191,0H628.455c-8.856,11.22-18.413,21.876-27.786,31.766Q495.7,142.466,390.738,253.175c-13.519,14.258-27.38,29.06-34.194,47.492s-4.765,41.619,10.13,54.436c26.114,22.467,65.443-.406,91.585-22.846Q586.7,222.07,715.137,111.873c14.969-12.836,30.445-25.985,49.163-32.2s41.683-3.906,54.787,10.832c13.473,15.126,12.817,37.75,11.4,57.963q-8.394,119.4-16.806,238.8c43.226-19.475,85.537-40.908,128.8-60.3,50.761-22.762,178.544-61.02,128.347,47.88-12.651,27.444-26.4,55.47-27.786,85.657-1.367,30.214,13.417,63.55,42,73.412,31.886,11.007,64.935-9.955,93.524-27.85A678.717,678.717,0,0,1,1378,422.051Z" transform="translate(0 0.018)" fill="#daf6f2"/>
        <path id="Trazado_610748" data-name="Trazado 610748" d="M386.568,107.1V228.815c-60.078-29.642-131.182-36.743-195.775-18.764-27.361,7.609-53.559,19.475-81.455,24.794s-59.108,3.112-81.169-14.775c-29.2-23.677-33.493-67.761-22.9-103.83S38.2,48.914,55.086,15.338C57.588,10.361,60,5.236,62.233,0H190.3a158.815,158.815,0,0,1-25.182,40.206c-11.9,13.787-27.112,27.887-26.613,46.088.5,17.794,17,31.784,34.342,35.773s35.413.416,52.949-2.623a860.972,860.972,0,0,1,136.085-12.577c8.2-.111,16.446-.083,24.692.212Z" transform="translate(991.469 0)" fill="#daf6f2"/>
        <path id="Trazado_610749" data-name="Trazado 610749" d="M383.969,174.082H266.029c11.183-24.351,38.165-45.829,28.746-70.383C287.4,84.473,261.311,79.81,241.642,85.932c-41.859,13.039-64.584,55.59-94.845,88.15H0c.434-.3.859-.6,1.293-.887q93.15-63.481,186.292-126.952c38.608-26.308,83.025-53.882,128.753-44.3,41.222,8.643,71.7,47.953,77.688,89.637,3.232,22.495-.314,54.565-10.047,82.5Z" transform="translate(187.141 601.068)" fill="#daf6f2"/>
      </g>
      <rect id="Rectángulo_378306" data-name="Rectángulo 378306" width="1302.389" height="514.597" transform="translate(-29.936 -75)" fill="none"/>
      <path id="Trazado_610836" data-name="Trazado 610836" d="M20.176,159.32,148.063,62.186,0,0Z" transform="translate(1130.804 15.566)" fill="#f8e5b1"/>
      <g id="Grupo_1073523" data-name="Grupo 1073523" transform="translate(1103.156 15.565)">
        <g id="Grupo_1073484" data-name="Grupo 1073484" clip-path="url(#clip-path-2)">
          <path id="Trazado_610782" data-name="Trazado 610782" d="M20.176,159.32,148.063,62.187,0,0Z" transform="translate(2.609 3.436)" fill="none" stroke="#624b7e" stroke-miterlimit="10" stroke-width="3"/>
        </g>
      </g>
    </g>
  </g>
</svg>
