<svg xmlns="http://www.w3.org/2000/svg" xmlns:xlink="http://www.w3.org/1999/xlink" width="121.02" height="121.35" viewBox="0 0 121.02 121.35">
  <defs>
    <clipPath id="clip-path">
      <path id="Trazado_610742" data-name="Trazado 610742" d="M130.381,61.735a60.372,60.372,0,1,0,15.328-1.984,60.68,60.68,0,0,0-15.328,1.984" transform="translate(-85.163 -59.751)" fill="none" stroke="#624b7e" stroke-width="1"/>
    </clipPath>
    <clipPath id="clip-path-2">
      <rect id="Rectángulo_379148" data-name="Rectángulo 379148" width="68.336" height="60.057" fill="none"/>
    </clipPath>
    <clipPath id="clip-path-3">
      <rect id="Rectángulo_379147" data-name="Rectángulo 379147" width="68.336" height="60.056" fill="none"/>
    </clipPath>
    <clipPath id="clip-path-4">
      <rect id="Rectángulo_379146" data-name="Rectángulo 379146" width="61.972" height="53.693" fill="none"/>
    </clipPath>
  </defs>
  <g id="Grupo_1093888" data-name="Grupo 1093888" transform="translate(-11495 9141.448)">
    <g id="Grupo_1075607" data-name="Grupo 1075607" transform="translate(10757.332 -15154.448)">
      <g id="Grupo_1073704" data-name="Grupo 1073704" transform="translate(737.668 6013)">
        <g id="Grupo_1073463" data-name="Grupo 1073463" clip-path="url(#clip-path)">
          <line id="Línea_2945" data-name="Línea 2945" x1="142.922" y2="37.438" transform="translate(-26.41 -14.588)" fill="none" stroke="#624b7e" stroke-miterlimit="10" stroke-width="1.728"/>
          <line id="Línea_2946" data-name="Línea 2946" x1="142.921" y2="37.438" transform="translate(-24.148 -5.903)" fill="none" stroke="#624b7e" stroke-miterlimit="10" stroke-width="1.728"/>
          <line id="Línea_2947" data-name="Línea 2947" x1="142.921" y2="37.439" transform="translate(-21.884 2.782)" fill="none" stroke="#624b7e" stroke-miterlimit="10" stroke-width="1.728"/>
          <line id="Línea_2948" data-name="Línea 2948" x1="142.922" y2="37.44" transform="translate(-19.621 11.468)" fill="none" stroke="#624b7e" stroke-miterlimit="10" stroke-width="1.728"/>
          <line id="Línea_2949" data-name="Línea 2949" x1="142.92" y2="37.44" transform="translate(-17.358 20.154)" fill="none" stroke="#624b7e" stroke-miterlimit="10" stroke-width="1.728"/>
          <line id="Línea_2950" data-name="Línea 2950" x1="142.92" y2="37.439" transform="translate(-15.096 28.839)" fill="none" stroke="#624b7e" stroke-miterlimit="10" stroke-width="1.728"/>
          <line id="Línea_2951" data-name="Línea 2951" x1="142.921" y2="37.438" transform="translate(-12.832 37.525)" fill="none" stroke="#624b7e" stroke-miterlimit="10" stroke-width="1.728"/>
          <line id="Línea_2952" data-name="Línea 2952" x1="142.922" y2="37.438" transform="translate(-10.569 46.21)" fill="none" stroke="#624b7e" stroke-miterlimit="10" stroke-width="1.728"/>
          <line id="Línea_2953" data-name="Línea 2953" x1="142.921" y2="37.439" transform="translate(-8.307 54.895)" fill="none" stroke="#624b7e" stroke-miterlimit="10" stroke-width="1.728"/>
          <line id="Línea_2954" data-name="Línea 2954" x1="142.92" y2="37.439" transform="translate(-6.044 63.581)" fill="none" stroke="#624b7e" stroke-miterlimit="10" stroke-width="1.728"/>
          <line id="Línea_2955" data-name="Línea 2955" x1="142.92" y2="37.438" transform="translate(-3.781 72.267)" fill="none" stroke="#624b7e" stroke-miterlimit="10" stroke-width="1.728"/>
          <line id="Línea_2956" data-name="Línea 2956" x1="142.92" y2="37.438" transform="translate(-1.518 80.954)" fill="none" stroke="#624b7e" stroke-miterlimit="10" stroke-width="1.728"/>
          <line id="Línea_2957" data-name="Línea 2957" x1="142.922" y2="37.44" transform="translate(0.767 89.728)" fill="none" stroke="#624b7e" stroke-miterlimit="10" stroke-width="1.728"/>
          <line id="Línea_2958" data-name="Línea 2958" x1="142.921" y2="37.438" transform="translate(2.965 98.164)" fill="none" stroke="#624b7e" stroke-miterlimit="10" stroke-width="1.728"/>
          <line id="Línea_2959" data-name="Línea 2959" x1="142.921" y2="37.438" transform="translate(-27.613 -19.204)" fill="none" stroke="#624b7e" stroke-miterlimit="10" stroke-width="1.728"/>
          <line id="Línea_2960" data-name="Línea 2960" x1="142.92" y2="37.438" transform="translate(-25.35 -10.518)" fill="none" stroke="#624b7e" stroke-miterlimit="10" stroke-width="1.728"/>
          <line id="Línea_2961" data-name="Línea 2961" x1="142.921" y2="37.439" transform="translate(-23.087 -1.833)" fill="none" stroke="#624b7e" stroke-miterlimit="10" stroke-width="1.728"/>
          <line id="Línea_2962" data-name="Línea 2962" x1="142.922" y2="37.439" transform="translate(-20.824 6.852)" fill="none" stroke="#624b7e" stroke-miterlimit="10" stroke-width="1.728"/>
          <line id="Línea_2963" data-name="Línea 2963" x1="142.92" y2="37.439" transform="translate(-18.56 15.538)" fill="none" stroke="#624b7e" stroke-miterlimit="10" stroke-width="1.728"/>
          <line id="Línea_2964" data-name="Línea 2964" x1="142.921" y2="37.44" transform="translate(-16.299 24.223)" fill="none" stroke="#624b7e" stroke-miterlimit="10" stroke-width="1.728"/>
          <line id="Línea_2965" data-name="Línea 2965" x1="142.921" y2="37.437" transform="translate(-14.035 32.91)" fill="none" stroke="#624b7e" stroke-miterlimit="10" stroke-width="1.728"/>
          <line id="Línea_2966" data-name="Línea 2966" x1="142.922" y2="37.438" transform="translate(-11.772 41.594)" fill="none" stroke="#624b7e" stroke-miterlimit="10" stroke-width="1.728"/>
          <line id="Línea_2967" data-name="Línea 2967" x1="142.921" y2="37.438" transform="translate(-9.509 50.28)" fill="none" stroke="#624b7e" stroke-miterlimit="10" stroke-width="1.728"/>
          <line id="Línea_2968" data-name="Línea 2968" x1="142.92" y2="37.438" transform="translate(-7.247 58.966)" fill="none" stroke="#624b7e" stroke-miterlimit="10" stroke-width="1.728"/>
          <line id="Línea_2969" data-name="Línea 2969" x1="142.92" y2="37.438" transform="translate(-4.983 67.652)" fill="none" stroke="#624b7e" stroke-miterlimit="10" stroke-width="1.728"/>
          <line id="Línea_2970" data-name="Línea 2970" x1="142.92" y2="37.438" transform="translate(-2.72 76.338)" fill="none" stroke="#624b7e" stroke-miterlimit="10" stroke-width="1.728"/>
          <line id="Línea_2971" data-name="Línea 2971" x1="142.922" y2="37.439" transform="translate(-0.435 85.113)" fill="none" stroke="#624b7e" stroke-miterlimit="10" stroke-width="1.728"/>
          <line id="Línea_2972" data-name="Línea 2972" x1="142.921" y2="37.437" transform="translate(1.763 93.548)" fill="none" stroke="#624b7e" stroke-miterlimit="10" stroke-width="1.728"/>
        </g>
      </g>
      <g id="Grupo_1073705" data-name="Grupo 1073705" transform="translate(361.507 3876.837)">
        <path id="Trazado_608385" data-name="Trazado 608385" d="M50.8,0A50.8,50.8,0,1,1,0,50.8,50.8,50.8,0,0,1,50.8,0Z" transform="translate(386 2146)" fill="#fff"/>
      </g>
      <g id="Grupo_1073706" data-name="Grupo 1073706" transform="translate(7.121 35.247)">
        <path id="Trazado_611008" data-name="Trazado 611008" d="M7.84,23.967,20.686,10.8,0,5.99Z" transform="translate(829.012 6012.442)" fill="#474747"/>
        <path id="Trazado_611009" data-name="Trazado 611009" d="M15.072,16.9l13.784-13L7.771,0Z" transform="translate(822.711 6017.298)" fill="#79cbbf"/>
      </g>
      <g id="Grupo_1073707" data-name="Grupo 1073707" transform="translate(737.668 6101.776)">
        <path id="Trazado_610799" data-name="Trazado 610799" d="M0,2.749,5.8,13.065l7.96-6.279,4.969,8.834L26.7,9.341l4.979,8.836,9.3-7.328-1.8-2.285-6.633,5.227L27.563,4.954,19.6,11.232,14.633,2.4,6.673,8.676,2.535,1.323Z" transform="translate(0 -0.938)" fill="#474747"/>
        <path id="Trazado_610800" data-name="Trazado 610800" d="M12.921,0,10.387,1.426l5.8,10.316,7.96-6.279L29.12,14.3l7.964-6.28,4.979,8.836,9.3-7.328-1.8-2.285-6.633,5.227L37.95,3.632,29.989,9.909l-4.97-8.835-7.96,6.279Z" transform="translate(-7.366)" fill="#fff4a9"/>
      </g>
      <path id="Trazado_611010" data-name="Trazado 611010" d="M19.62,9.653,5.176,2.789l-.331,8.823Z" transform="translate(743.426 6026.78)" fill="none" stroke="#fd3cae" stroke-miterlimit="10" stroke-width="2"/>
    </g>
    <g id="Grupo_1075638" data-name="Grupo 1075638" transform="translate(11521.342 -9110.803)">
      <g id="Grupo_1075637" data-name="Grupo 1075637" clip-path="url(#clip-path-2)">
        <g id="Grupo_1075636" data-name="Grupo 1075636" transform="translate(0 0)">
          <g id="Grupo_1075635" data-name="Grupo 1075635" clip-path="url(#clip-path-3)">
            <g id="Grupo_1075634" data-name="Grupo 1075634" transform="translate(6.364 6.364)" opacity="0.3">
              <g id="Grupo_1075633" data-name="Grupo 1075633">
                <g id="Grupo_1075632" data-name="Grupo 1075632" clip-path="url(#clip-path-4)">
                  <path id="Trazado_613545" data-name="Trazado 613545" d="M66.145,24.673a70.652,70.652,0,0,0-5.436-5.745c-2.718-2.718-5.439-6.046-8.762-8.036a17.954,17.954,0,0,0-3.762-1.665A33.842,33.842,0,0,0,37.876,7.863,32.84,32.84,0,0,0,24.7,10.531a29.146,29.146,0,0,0-10.429,7.483A25.522,25.522,0,0,0,8.5,29.04a26.808,26.808,0,0,0-.637,5.493,14.608,14.608,0,0,0,4.013,10.55l.015.015c.04.042.083.083.125.125,2.4,2.4,4.842,4.772,7.272,7.149,2.617,2.559,5.359,5.3,8.7,7,3.812,1.95,8.19,2.179,12.395,2.179A31.717,31.717,0,0,0,53.4,58.889a27.939,27.939,0,0,0,10.151-7.563A26.778,26.778,0,0,0,69.2,39.9a25.485,25.485,0,0,0,.637-5.333,15.234,15.234,0,0,0-3.691-9.9" transform="translate(-7.864 -7.863)"/>
                </g>
              </g>
            </g>
            <path id="Trazado_613546" data-name="Trazado 613546" d="M59.341,17.87a70.653,70.653,0,0,0-5.436-5.745c-2.718-2.718-5.44-6.046-8.762-8.036a17.954,17.954,0,0,0-3.762-1.665A33.842,33.842,0,0,0,31.072,1.06,32.853,32.853,0,0,0,17.9,3.728,29.146,29.146,0,0,0,7.468,11.211,25.522,25.522,0,0,0,1.7,22.237,26.808,26.808,0,0,0,1.06,27.73,14.608,14.608,0,0,0,5.073,38.28l.015.015c.04.042.083.083.125.125,2.4,2.4,4.842,4.773,7.272,7.15,2.617,2.559,5.359,5.3,8.7,7,3.812,1.95,8.19,2.179,12.395,2.179a31.717,31.717,0,0,0,13.016-2.667,27.939,27.939,0,0,0,10.151-7.563A26.778,26.778,0,0,0,62.395,33.1a25.484,25.484,0,0,0,.637-5.333,15.234,15.234,0,0,0-3.691-9.9" transform="translate(-0.202 -0.203)" fill="#ffb1ff"/>
            <path id="Trazado_613547" data-name="Trazado 613547" d="M59.341,17.87a70.653,70.653,0,0,0-5.436-5.745c-2.718-2.718-5.44-6.046-8.762-8.036a17.954,17.954,0,0,0-3.762-1.665A33.842,33.842,0,0,0,31.072,1.06,32.853,32.853,0,0,0,17.9,3.728,29.146,29.146,0,0,0,7.468,11.211,25.522,25.522,0,0,0,1.7,22.237,26.808,26.808,0,0,0,1.06,27.73,14.608,14.608,0,0,0,5.073,38.28l.015.015c.04.042.083.083.125.125,2.4,2.4,4.842,4.773,7.272,7.15,2.617,2.559,5.359,5.3,8.7,7,3.812,1.95,8.19,2.179,12.395,2.179a31.717,31.717,0,0,0,13.016-2.667,27.939,27.939,0,0,0,10.151-7.563A26.778,26.778,0,0,0,62.395,33.1a25.484,25.484,0,0,0,.637-5.333A15.234,15.234,0,0,0,59.341,17.87Z" transform="translate(-0.202 -0.203)" fill="none" stroke="#6522a3" stroke-linecap="round" stroke-linejoin="round" stroke-width="2.12"/>
            <path id="Trazado_613548" data-name="Trazado 613548" d="M47.036,5.439A14.342,14.342,0,0,1,52.17,16.9a25.484,25.484,0,0,1-.637,5.333A26.77,26.77,0,0,1,45.88,33.661a27.929,27.929,0,0,1-10.15,7.563,31.717,31.717,0,0,1-13.016,2.667q-11.067,0-16.361-4.418A14.525,14.525,0,0,1,1.061,27.73,26.809,26.809,0,0,1,1.7,22.237,25.52,25.52,0,0,1,7.469,11.211,29.148,29.148,0,0,1,17.9,3.728,32.85,32.85,0,0,1,31.073,1.061q10.826,0,15.962,4.378M27.292,11.131Q25.42,14.117,22.874,22.4T20.326,34.019a3.565,3.565,0,0,0,.556,2.349,1.969,1.969,0,0,0,1.513.6q1.672.16,3.463-2.867t4.5-11.782q2.468-7.721,2.468-11.225a3.788,3.788,0,0,0-.517-2.309,1.79,1.79,0,0,0-1.473-.637q-1.67,0-3.542,2.986" transform="translate(-0.202 -0.203)" fill="#fff494"/>
            <path id="Trazado_613549" data-name="Trazado 613549" d="M47.036,5.439A14.342,14.342,0,0,1,52.17,16.9a25.484,25.484,0,0,1-.637,5.333A26.77,26.77,0,0,1,45.88,33.661a27.929,27.929,0,0,1-10.15,7.563,31.717,31.717,0,0,1-13.016,2.667q-11.067,0-16.361-4.418A14.525,14.525,0,0,1,1.061,27.73,26.809,26.809,0,0,1,1.7,22.237,25.52,25.52,0,0,1,7.469,11.211,29.148,29.148,0,0,1,17.9,3.728,32.85,32.85,0,0,1,31.073,1.061Q41.9,1.061,47.036,5.439ZM27.292,11.131Q25.42,14.117,22.874,22.4T20.326,34.019a3.565,3.565,0,0,0,.556,2.349,1.969,1.969,0,0,0,1.513.6q1.672.16,3.463-2.867t4.5-11.782q2.468-7.721,2.468-11.225a3.788,3.788,0,0,0-.517-2.309,1.79,1.79,0,0,0-1.473-.637Q29.163,8.146,27.292,11.131Z" transform="translate(-0.202 -0.203)" fill="none" stroke="#6522a3" stroke-linecap="round" stroke-linejoin="round" stroke-width="2.12"/>
          </g>
        </g>
      </g>
    </g>
  </g>
</svg>
