<svg xmlns="http://www.w3.org/2000/svg" xmlns:xlink="http://www.w3.org/1999/xlink" width="121.02" height="121.349" viewBox="0 0 121.02 121.349">
  <defs>
    <clipPath id="clip-path">
      <path id="Trazado_610742" data-name="Trazado 610742" d="M130.381,61.735a60.372,60.372,0,1,0,15.328-1.984,60.68,60.68,0,0,0-15.328,1.984" transform="translate(-85.163 -59.751)" fill="none" stroke="#624b7e" stroke-width="1"/>
    </clipPath>
    <clipPath id="clip-path-2">
      <rect id="Rectángulo_379139" data-name="Rectángulo 379139" width="63.135" height="56.778" fill="none"/>
    </clipPath>
    <clipPath id="clip-path-3">
      <rect id="Rectángulo_379138" data-name="Rectángulo 379138" width="63.135" height="56.777" fill="none"/>
    </clipPath>
    <clipPath id="clip-path-4">
      <rect id="Rectángulo_379137" data-name="Rectángulo 379137" width="57.088" height="50.73" fill="none"/>
    </clipPath>
  </defs>
  <g id="Grupo_1093885" data-name="Grupo 1093885" transform="translate(-391 -2605.552)">
    <g id="Grupo_1073728" data-name="Grupo 1073728" transform="translate(-346.668 -3407.448)">
      <g id="Grupo_1073704" data-name="Grupo 1073704" transform="translate(737.668 6013)">
        <g id="Grupo_1073463" data-name="Grupo 1073463" clip-path="url(#clip-path)">
          <line id="Línea_2945" data-name="Línea 2945" x1="142.922" y2="37.438" transform="translate(-26.41 -14.588)" fill="none" stroke="#624b7e" stroke-miterlimit="10" stroke-width="1.728"/>
          <line id="Línea_2946" data-name="Línea 2946" x1="142.921" y2="37.438" transform="translate(-24.148 -5.903)" fill="none" stroke="#624b7e" stroke-miterlimit="10" stroke-width="1.728"/>
          <line id="Línea_2947" data-name="Línea 2947" x1="142.921" y2="37.439" transform="translate(-21.884 2.782)" fill="none" stroke="#624b7e" stroke-miterlimit="10" stroke-width="1.728"/>
          <line id="Línea_2948" data-name="Línea 2948" x1="142.922" y2="37.44" transform="translate(-19.621 11.468)" fill="none" stroke="#624b7e" stroke-miterlimit="10" stroke-width="1.728"/>
          <line id="Línea_2949" data-name="Línea 2949" x1="142.92" y2="37.44" transform="translate(-17.358 20.154)" fill="none" stroke="#624b7e" stroke-miterlimit="10" stroke-width="1.728"/>
          <line id="Línea_2950" data-name="Línea 2950" x1="142.92" y2="37.439" transform="translate(-15.096 28.839)" fill="none" stroke="#624b7e" stroke-miterlimit="10" stroke-width="1.728"/>
          <line id="Línea_2951" data-name="Línea 2951" x1="142.921" y2="37.438" transform="translate(-12.832 37.525)" fill="none" stroke="#624b7e" stroke-miterlimit="10" stroke-width="1.728"/>
          <line id="Línea_2952" data-name="Línea 2952" x1="142.922" y2="37.438" transform="translate(-10.569 46.21)" fill="none" stroke="#624b7e" stroke-miterlimit="10" stroke-width="1.728"/>
          <line id="Línea_2953" data-name="Línea 2953" x1="142.921" y2="37.439" transform="translate(-8.307 54.895)" fill="none" stroke="#624b7e" stroke-miterlimit="10" stroke-width="1.728"/>
          <line id="Línea_2954" data-name="Línea 2954" x1="142.92" y2="37.439" transform="translate(-6.044 63.581)" fill="none" stroke="#624b7e" stroke-miterlimit="10" stroke-width="1.728"/>
          <line id="Línea_2955" data-name="Línea 2955" x1="142.92" y2="37.438" transform="translate(-3.781 72.267)" fill="none" stroke="#624b7e" stroke-miterlimit="10" stroke-width="1.728"/>
          <line id="Línea_2956" data-name="Línea 2956" x1="142.92" y2="37.438" transform="translate(-1.518 80.954)" fill="none" stroke="#624b7e" stroke-miterlimit="10" stroke-width="1.728"/>
          <line id="Línea_2957" data-name="Línea 2957" x1="142.922" y2="37.44" transform="translate(0.767 89.728)" fill="none" stroke="#624b7e" stroke-miterlimit="10" stroke-width="1.728"/>
          <line id="Línea_2958" data-name="Línea 2958" x1="142.921" y2="37.438" transform="translate(2.965 98.164)" fill="none" stroke="#624b7e" stroke-miterlimit="10" stroke-width="1.728"/>
          <line id="Línea_2959" data-name="Línea 2959" x1="142.921" y2="37.438" transform="translate(-27.613 -19.204)" fill="none" stroke="#624b7e" stroke-miterlimit="10" stroke-width="1.728"/>
          <line id="Línea_2960" data-name="Línea 2960" x1="142.92" y2="37.438" transform="translate(-25.35 -10.518)" fill="none" stroke="#624b7e" stroke-miterlimit="10" stroke-width="1.728"/>
          <line id="Línea_2961" data-name="Línea 2961" x1="142.921" y2="37.439" transform="translate(-23.087 -1.833)" fill="none" stroke="#624b7e" stroke-miterlimit="10" stroke-width="1.728"/>
          <line id="Línea_2962" data-name="Línea 2962" x1="142.922" y2="37.439" transform="translate(-20.824 6.852)" fill="none" stroke="#624b7e" stroke-miterlimit="10" stroke-width="1.728"/>
          <line id="Línea_2963" data-name="Línea 2963" x1="142.92" y2="37.439" transform="translate(-18.56 15.538)" fill="none" stroke="#624b7e" stroke-miterlimit="10" stroke-width="1.728"/>
          <line id="Línea_2964" data-name="Línea 2964" x1="142.921" y2="37.44" transform="translate(-16.299 24.223)" fill="none" stroke="#624b7e" stroke-miterlimit="10" stroke-width="1.728"/>
          <line id="Línea_2965" data-name="Línea 2965" x1="142.921" y2="37.437" transform="translate(-14.035 32.91)" fill="none" stroke="#624b7e" stroke-miterlimit="10" stroke-width="1.728"/>
          <line id="Línea_2966" data-name="Línea 2966" x1="142.922" y2="37.438" transform="translate(-11.772 41.594)" fill="none" stroke="#624b7e" stroke-miterlimit="10" stroke-width="1.728"/>
          <line id="Línea_2967" data-name="Línea 2967" x1="142.921" y2="37.438" transform="translate(-9.509 50.28)" fill="none" stroke="#624b7e" stroke-miterlimit="10" stroke-width="1.728"/>
          <line id="Línea_2968" data-name="Línea 2968" x1="142.92" y2="37.438" transform="translate(-7.247 58.966)" fill="none" stroke="#624b7e" stroke-miterlimit="10" stroke-width="1.728"/>
          <line id="Línea_2969" data-name="Línea 2969" x1="142.92" y2="37.438" transform="translate(-4.983 67.652)" fill="none" stroke="#624b7e" stroke-miterlimit="10" stroke-width="1.728"/>
          <line id="Línea_2970" data-name="Línea 2970" x1="142.92" y2="37.438" transform="translate(-2.72 76.338)" fill="none" stroke="#624b7e" stroke-miterlimit="10" stroke-width="1.728"/>
          <line id="Línea_2971" data-name="Línea 2971" x1="142.922" y2="37.439" transform="translate(-0.435 85.113)" fill="none" stroke="#624b7e" stroke-miterlimit="10" stroke-width="1.728"/>
          <line id="Línea_2972" data-name="Línea 2972" x1="142.921" y2="37.437" transform="translate(1.763 93.548)" fill="none" stroke="#624b7e" stroke-miterlimit="10" stroke-width="1.728"/>
        </g>
      </g>
      <g id="Grupo_1073705" data-name="Grupo 1073705" transform="translate(361.507 3876.837)">
        <path id="Trazado_608385" data-name="Trazado 608385" d="M50.8,0A50.8,50.8,0,1,1,0,50.8,50.8,50.8,0,0,1,50.8,0Z" transform="translate(386 2146)" fill="#fff"/>
      </g>
      <g id="Grupo_1073706" data-name="Grupo 1073706" transform="translate(7.121 35.247)">
        <path id="Trazado_611008" data-name="Trazado 611008" d="M7.84,23.967,20.686,10.8,0,5.99Z" transform="translate(829.012 6012.442)" fill="#474747"/>
        <path id="Trazado_611009" data-name="Trazado 611009" d="M15.072,16.9l13.784-13L7.771,0Z" transform="translate(822.711 6017.298)" fill="#79cbbf"/>
      </g>
      <g id="Grupo_1073707" data-name="Grupo 1073707" transform="translate(737.668 6101.776)">
        <path id="Trazado_610799" data-name="Trazado 610799" d="M0,2.749,5.8,13.065l7.96-6.279,4.969,8.834L26.7,9.341l4.979,8.836,9.3-7.328-1.8-2.285-6.633,5.227L27.563,4.954,19.6,11.232,14.633,2.4,6.673,8.676,2.535,1.323Z" transform="translate(0 -0.938)" fill="#474747"/>
        <path id="Trazado_610800" data-name="Trazado 610800" d="M12.921,0,10.387,1.426l5.8,10.316,7.96-6.279L29.12,14.3l7.964-6.28,4.979,8.836,9.3-7.328-1.8-2.285-6.633,5.227L37.95,3.632,29.989,9.909l-4.97-8.835-7.96,6.279Z" transform="translate(-7.366)" fill="#fff4a9"/>
      </g>
      <path id="Trazado_611010" data-name="Trazado 611010" d="M19.62,9.653,5.176,2.789l-.331,8.823Z" transform="translate(743.426 6026.78)" fill="none" stroke="#fd3cae" stroke-miterlimit="10" stroke-width="2"/>
    </g>
    <g id="Grupo_1075617" data-name="Grupo 1075617" transform="translate(421.203 2637.551)">
      <g id="Grupo_1075616" data-name="Grupo 1075616" clip-path="url(#clip-path-2)">
        <g id="Grupo_1075615" data-name="Grupo 1075615" transform="translate(0 0)">
          <g id="Grupo_1075614" data-name="Grupo 1075614" clip-path="url(#clip-path-3)">
            <g id="Grupo_1075613" data-name="Grupo 1075613" transform="translate(6.047 6.047)" opacity="0.3">
              <g id="Grupo_1075612" data-name="Grupo 1075612">
                <g id="Grupo_1075611" data-name="Grupo 1075611" clip-path="url(#clip-path-4)">
                  <path id="Trazado_613530" data-name="Trazado 613530" d="M64.684,48.381c-.177-.352-.391-.53-.643-.53q-.227,0-.87.794a1.936,1.936,0,0,1-1.551.794q-.984,0-.984-1.211a3.163,3.163,0,0,1,.076-.756l3.1-10.44a20.914,20.914,0,0,0,.908-5.673,11.168,11.168,0,0,0-2.5-7.5h0l-.005-.005A10.517,10.517,0,0,0,61.1,22.737l-9.775-9.815c-.029-.031-.061-.061-.091-.092l-.04-.04h0a11.642,11.642,0,0,0-2.174-1.712Q43.8,7.863,35.1,7.863t-12.936,2.5q-4.238,2.5-4.237,6.279A4.755,4.755,0,0,0,19.17,19.9l0,0,.083.083c.114.123.232.244.361.361l4.175,4.175c-.265-.005-.528-.015-.792-.015a17.222,17.222,0,0,0-9.646,2.648,12.279,12.279,0,0,0-5.257,7.868,11.916,11.916,0,0,0-.227,2.345,10.77,10.77,0,0,0,1.324,5.182,9.353,9.353,0,0,0,1.5,2.044l0,0,.105.105.137.137L21.27,55.185c.045.046.091.092.138.138l.282.282.02,0a11.566,11.566,0,0,0,2.009,1.44,13.424,13.424,0,0,0,6.733,1.55,15.3,15.3,0,0,0,6.657-1.475,15.721,15.721,0,0,0,5.371-4.2,7.717,7.717,0,0,0,3.858,4.236,14.573,14.573,0,0,0,6.733,1.437,13.181,13.181,0,0,0,5.976-1.361,12.309,12.309,0,0,0,4.35-3.48,6.453,6.453,0,0,0,1.55-4.161,2.679,2.679,0,0,0-.265-1.211" transform="translate(-7.864 -7.863)"/>
                </g>
              </g>
            </g>
            <path id="Trazado_613531" data-name="Trazado 613531" d="M57.88,41.578c-.177-.352-.391-.53-.643-.53q-.227,0-.87.794a1.936,1.936,0,0,1-1.551.794q-.984,0-.984-1.211a3.164,3.164,0,0,1,.076-.756l3.1-10.44a20.914,20.914,0,0,0,.908-5.673,11.171,11.171,0,0,0-2.5-7.5h0l-.005-.005a10.669,10.669,0,0,0-1.117-1.121L44.519,6.119c-.029-.031-.061-.061-.091-.092l-.04-.04h0a11.642,11.642,0,0,0-2.174-1.712Q36.994,1.06,28.293,1.06t-12.936,2.5q-4.238,2.5-4.237,6.279A4.756,4.756,0,0,0,12.366,13.1l0,0,.083.083c.114.123.232.244.361.361l4.175,4.175c-.265-.005-.528-.015-.792-.015a17.222,17.222,0,0,0-9.646,2.648,12.279,12.279,0,0,0-5.257,7.868,11.916,11.916,0,0,0-.227,2.345,10.77,10.77,0,0,0,1.324,5.182,9.353,9.353,0,0,0,1.5,2.044l0,0,.105.105.137.137L14.466,48.382c.045.046.091.092.138.138l.282.282.02,0a11.529,11.529,0,0,0,2.009,1.441,13.424,13.424,0,0,0,6.733,1.55,15.3,15.3,0,0,0,6.657-1.475,15.73,15.73,0,0,0,5.371-4.2,7.717,7.717,0,0,0,3.858,4.236,14.573,14.573,0,0,0,6.733,1.437,13.181,13.181,0,0,0,5.976-1.361,12.309,12.309,0,0,0,4.35-3.48,6.453,6.453,0,0,0,1.55-4.161,2.679,2.679,0,0,0-.265-1.211" transform="translate(-0.245 -0.245)" fill="#ffb1ff"/>
            <path id="Trazado_613532" data-name="Trazado 613532" d="M57.88,41.578c-.177-.352-.391-.53-.643-.53q-.227,0-.87.794a1.936,1.936,0,0,1-1.551.794q-.984,0-.984-1.211a3.164,3.164,0,0,1,.076-.756l3.1-10.44a20.914,20.914,0,0,0,.908-5.673,11.171,11.171,0,0,0-2.5-7.5h0l-.005-.005a10.669,10.669,0,0,0-1.117-1.121L44.519,6.119c-.029-.031-.061-.061-.091-.092l-.04-.04h0a11.642,11.642,0,0,0-2.174-1.712Q36.994,1.06,28.293,1.06t-12.936,2.5q-4.238,2.5-4.237,6.279A4.756,4.756,0,0,0,12.366,13.1l0,0,.083.083c.114.123.232.244.361.361l4.175,4.175c-.265-.005-.528-.015-.792-.015a17.222,17.222,0,0,0-9.646,2.648,12.279,12.279,0,0,0-5.257,7.868,11.916,11.916,0,0,0-.227,2.345,10.77,10.77,0,0,0,1.324,5.182,9.353,9.353,0,0,0,1.5,2.044l0,0,.105.105.137.137L14.466,48.382c.045.046.091.092.138.138l.282.282.02,0a11.529,11.529,0,0,0,2.009,1.441,13.424,13.424,0,0,0,6.733,1.55,15.3,15.3,0,0,0,6.657-1.475,15.73,15.73,0,0,0,5.371-4.2,7.717,7.717,0,0,0,3.858,4.236,14.573,14.573,0,0,0,6.733,1.437,13.181,13.181,0,0,0,5.976-1.361,12.309,12.309,0,0,0,4.35-3.48,6.453,6.453,0,0,0,1.55-4.161A2.679,2.679,0,0,0,57.88,41.578Z" transform="translate(-0.245 -0.245)" fill="none" stroke="#6522a3" stroke-linecap="round" stroke-linejoin="round" stroke-width="2.12"/>
            <path id="Trazado_613533" data-name="Trazado 613533" d="M20.616,25.609a5.467,5.467,0,0,0-1.324,3.518,3.191,3.191,0,0,0,.568,1.967,1.909,1.909,0,0,0,1.627.756,3.932,3.932,0,0,0,2.156-.794,4.467,4.467,0,0,0,1.7-2.383l1.589-4.464a16.683,16.683,0,0,0-2.875-.227,4.23,4.23,0,0,0-3.442,1.627m21.6-21.333q5.22,3.216,5.22,9.8a20.924,20.924,0,0,1-.908,5.674l-3.1,10.439a3.166,3.166,0,0,0-.076.757q0,1.211.984,1.211a1.936,1.936,0,0,0,1.551-.794q.641-.795.87-.794.377,0,.643.53A2.674,2.674,0,0,1,47.66,32.3a6.453,6.453,0,0,1-1.55,4.161,12.315,12.315,0,0,1-4.35,3.479,13.171,13.171,0,0,1-5.976,1.362,14.583,14.583,0,0,1-6.733-1.437,7.72,7.72,0,0,1-3.858-4.236,15.74,15.74,0,0,1-5.371,4.2,15.3,15.3,0,0,1-6.657,1.475,13.424,13.424,0,0,1-6.733-1.551,10.13,10.13,0,0,1-4.047-4.009A10.762,10.762,0,0,1,1.06,30.564a11.974,11.974,0,0,1,.227-2.345,12.283,12.283,0,0,1,5.258-7.868A17.219,17.219,0,0,1,16.19,17.7a39.664,39.664,0,0,1,12.331,1.967l1.891-4.994A18.051,18.051,0,0,0,31.4,9.761a3.478,3.478,0,0,0-1.211-2.724,5.524,5.524,0,0,0-3.48-.908,7.049,7.049,0,0,1,.454,2.5,6.5,6.5,0,0,1-2.118,4.841,8.371,8.371,0,0,1-6.052,2.043A9.172,9.172,0,0,1,13.2,13.883a4.948,4.948,0,0,1-2.08-4.047q0-3.782,4.236-6.279t12.937-2.5q8.7,0,13.919,3.215" transform="translate(-0.245 -0.245)" fill="#fff494"/>
            <path id="Trazado_613534" data-name="Trazado 613534" d="M20.616,25.609a5.467,5.467,0,0,0-1.324,3.518,3.191,3.191,0,0,0,.568,1.967,1.909,1.909,0,0,0,1.627.756,3.932,3.932,0,0,0,2.156-.794,4.467,4.467,0,0,0,1.7-2.383l1.589-4.464a16.683,16.683,0,0,0-2.875-.227A4.23,4.23,0,0,0,20.616,25.609Zm21.6-21.333q5.22,3.216,5.22,9.8a20.924,20.924,0,0,1-.908,5.674l-3.1,10.439a3.166,3.166,0,0,0-.076.757q0,1.211.984,1.211a1.936,1.936,0,0,0,1.551-.794q.641-.795.87-.794.377,0,.643.53A2.674,2.674,0,0,1,47.66,32.3a6.453,6.453,0,0,1-1.55,4.161,12.315,12.315,0,0,1-4.35,3.479,13.171,13.171,0,0,1-5.976,1.362,14.583,14.583,0,0,1-6.733-1.437,7.72,7.72,0,0,1-3.858-4.236,15.74,15.74,0,0,1-5.371,4.2,15.3,15.3,0,0,1-6.657,1.475,13.424,13.424,0,0,1-6.733-1.551,10.13,10.13,0,0,1-4.047-4.009A10.762,10.762,0,0,1,1.06,30.564a11.974,11.974,0,0,1,.227-2.345,12.283,12.283,0,0,1,5.258-7.868A17.219,17.219,0,0,1,16.19,17.7a39.664,39.664,0,0,1,12.331,1.967l1.891-4.994A18.051,18.051,0,0,0,31.4,9.761a3.478,3.478,0,0,0-1.211-2.724,5.524,5.524,0,0,0-3.48-.908,7.049,7.049,0,0,1,.454,2.5,6.5,6.5,0,0,1-2.118,4.841,8.371,8.371,0,0,1-6.052,2.043A9.172,9.172,0,0,1,13.2,13.883a4.948,4.948,0,0,1-2.08-4.047q0-3.782,4.236-6.279t12.937-2.5Q36.992,1.061,42.214,4.276Z" transform="translate(-0.245 -0.245)" fill="none" stroke="#6522a3" stroke-linecap="round" stroke-linejoin="round" stroke-width="2.12"/>
          </g>
        </g>
      </g>
    </g>
  </g>
</svg>
