<svg xmlns="http://www.w3.org/2000/svg" width="107" height="107" viewBox="0 0 107 107">
  <g id="Grupo_156312" data-name="Grupo 156312" transform="translate(-288.668 -4448)">
    <path id="Elipse_5845" data-name="Elipse 5845" d="M53.5,0A53.5,53.5,0,1,1,0,53.5,53.5,53.5,0,0,1,53.5,0Z" transform="translate(288.668 4448)" fill="#624b7e"/>
    <g id="Grupo_1074464" data-name="Grupo 1074464" transform="translate(267.711 4467.438)">
      <g id="Grupo_1074463" data-name="Grupo 1074463" transform="translate(44.738 0)">
        <g id="Grupo_1074462" data-name="Grupo 1074462" transform="translate(0 0)">
          <path id="Trazado_611726" data-name="Trazado 611726" d="M100.682,2.14A1.331,1.331,0,0,0,98.57.521c-.1.135-10.478,13.567-20.688,18.214A15.812,15.812,0,0,1,70.6,20.1a1.331,1.331,0,0,0-1.436,1.619c.018.077,1.765,7.742,2.01,9.446,1.189,8.241-4.517,17.91-4.576,18.008-.954,1.6-1,6.235-.072,7.872a1.34,1.34,0,0,0,.222.291,11.747,11.747,0,0,1,1.558,2.015,1.764,1.764,0,0,1-.052,1.917,1.817,1.817,0,0,1-1.8.816l-.074-.008-3.244-.265a1.316,1.316,0,0,0-.4.028L49.026,64.9a26.452,26.452,0,0,0,10.159-11.46,20,20,0,0,0,1.794-8.81c0-.021,0-.043-.005-.064L58.435,20.248a2.009,2.009,0,0,1,.367-1.235l4.176-4.142A1.331,1.331,0,1,0,61.1,12.982L56.854,17.2a1.322,1.322,0,0,0-.122.139,4.676,4.676,0,0,0-.953,3.089c0,.021,0,.043.005.064L58.324,44.8a17.264,17.264,0,0,1-1.574,7.558c-2.061,4.678-5.871,8.578-11.325,11.591a1.33,1.33,0,0,0-.663,1.415,3.041,3.041,0,0,0,3.394,2.442c.038-.005.075-.012.113-.02l14.857-3.313,3.009.246a4.48,4.48,0,0,0,4.341-1.987,4.428,4.428,0,0,0,.12-4.75,14.379,14.379,0,0,0-1.8-2.37,10.547,10.547,0,0,1,.095-5.08c.235-.393,5.328-9.008,5.109-17.537l3.942,9.77a17.225,17.225,0,0,1,.866,7.694c-.5,5.087-2.908,9.98-7.154,14.541a1.331,1.331,0,0,0-.19,1.552,3.043,3.043,0,0,0,3.986,1.264q.053-.026.1-.056l13.014-7.784,3-.69a4.48,4.48,0,0,0,3.513-3.241A4.428,4.428,0,0,0,93.71,51.5a14.37,14.37,0,0,0-2.452-1.69,10.539,10.539,0,0,1-1.491-4.859c0-.017.007-.034.01-.051.109-.593,2.625-14.624-1.481-22.914a42.518,42.518,0,0,0-3.044-4.567c8.268-6,15.078-14.816,15.431-15.277ZM85.911,23.166c3.652,7.372,1.351,20.674,1.251,21.234-.384,1.838,1.01,6.209,2.39,7.47a1.35,1.35,0,0,0,.3.207,11.685,11.685,0,0,1,2.11,1.43,1.764,1.764,0,0,1,.547,1.838,1.816,1.816,0,0,1-1.455,1.335l-.061.013-3.232.743a1.332,1.332,0,0,0-.385.155L75.371,64.771A26.447,26.447,0,0,0,81.45,50.726,20,20,0,0,0,80.412,41.8l-.005-.014L72.724,22.739a18.59,18.59,0,0,0,6.261-1.581,32.955,32.955,0,0,0,4.068-2.239A40.038,40.038,0,0,1,85.911,23.166Z" transform="translate(-44.738 0)" fill="#fff"/>
          <g id="Grupo_1074459" data-name="Grupo 1074459" transform="translate(20.27 8.354)">
            <g id="Grupo_1074458" data-name="Grupo 1074458">
              <g id="Grupo_1074457" data-name="Grupo 1074457">
                <path id="Trazado_611727" data-name="Trazado 611727" d="M198.407,65.443a1.33,1.33,0,1,1,1.305-1.071A1.342,1.342,0,0,1,198.407,65.443Z" transform="translate(-197.079 -62.785)" fill="#fff"/>
              </g>
            </g>
          </g>
          <g id="Grupo_1074461" data-name="Grupo 1074461" transform="translate(24.529)">
            <g id="Grupo_1074460" data-name="Grupo 1074460">
              <path id="Trazado_611728" data-name="Trazado 611728" d="M230.416,6.8a1.331,1.331,0,0,1-.927-2.285l4.264-4.14a1.331,1.331,0,1,1,1.854,1.909l-4.264,4.14a1.327,1.327,0,0,1-.927.376Z" transform="translate(-229.086 0)" fill="#fff"/>
            </g>
          </g>
        </g>
      </g>
    </g>
  </g>
</svg>
