<svg xmlns="http://www.w3.org/2000/svg" xmlns:xlink="http://www.w3.org/1999/xlink" width="121.02" height="121.349" viewBox="0 0 121.02 121.349">
  <defs>
    <clipPath id="clip-path">
      <path id="Trazado_610742" data-name="Trazado 610742" d="M130.381,61.735a60.372,60.372,0,1,0,15.328-1.984,60.68,60.68,0,0,0-15.328,1.984" transform="translate(-85.163 -59.751)" fill="none" stroke="#624b7e" stroke-width="1"/>
    </clipPath>
    <clipPath id="clip-path-2">
      <rect id="Rectángulo_379145" data-name="Rectángulo 379145" width="49.704" height="71.12" fill="none"/>
    </clipPath>
    <clipPath id="clip-path-4">
      <rect id="Rectángulo_379143" data-name="Rectángulo 379143" width="43.821" height="65.237" fill="none"/>
    </clipPath>
  </defs>
  <g id="Grupo_1093887" data-name="Grupo 1093887" transform="translate(-1094 -2605.552)">
    <g id="Grupo_1073725" data-name="Grupo 1073725" transform="translate(356.332 -3407.448)">
      <g id="Grupo_1073704" data-name="Grupo 1073704" transform="translate(737.668 6013)">
        <g id="Grupo_1073463" data-name="Grupo 1073463" clip-path="url(#clip-path)">
          <line id="Línea_2945" data-name="Línea 2945" x1="142.922" y2="37.438" transform="translate(-26.41 -14.588)" fill="none" stroke="#624b7e" stroke-miterlimit="10" stroke-width="1.728"/>
          <line id="Línea_2946" data-name="Línea 2946" x1="142.921" y2="37.438" transform="translate(-24.148 -5.903)" fill="none" stroke="#624b7e" stroke-miterlimit="10" stroke-width="1.728"/>
          <line id="Línea_2947" data-name="Línea 2947" x1="142.921" y2="37.439" transform="translate(-21.884 2.782)" fill="none" stroke="#624b7e" stroke-miterlimit="10" stroke-width="1.728"/>
          <line id="Línea_2948" data-name="Línea 2948" x1="142.922" y2="37.44" transform="translate(-19.621 11.468)" fill="none" stroke="#624b7e" stroke-miterlimit="10" stroke-width="1.728"/>
          <line id="Línea_2949" data-name="Línea 2949" x1="142.92" y2="37.44" transform="translate(-17.358 20.154)" fill="none" stroke="#624b7e" stroke-miterlimit="10" stroke-width="1.728"/>
          <line id="Línea_2950" data-name="Línea 2950" x1="142.92" y2="37.439" transform="translate(-15.096 28.839)" fill="none" stroke="#624b7e" stroke-miterlimit="10" stroke-width="1.728"/>
          <line id="Línea_2951" data-name="Línea 2951" x1="142.921" y2="37.438" transform="translate(-12.832 37.525)" fill="none" stroke="#624b7e" stroke-miterlimit="10" stroke-width="1.728"/>
          <line id="Línea_2952" data-name="Línea 2952" x1="142.922" y2="37.438" transform="translate(-10.569 46.21)" fill="none" stroke="#624b7e" stroke-miterlimit="10" stroke-width="1.728"/>
          <line id="Línea_2953" data-name="Línea 2953" x1="142.921" y2="37.439" transform="translate(-8.307 54.895)" fill="none" stroke="#624b7e" stroke-miterlimit="10" stroke-width="1.728"/>
          <line id="Línea_2954" data-name="Línea 2954" x1="142.92" y2="37.439" transform="translate(-6.044 63.581)" fill="none" stroke="#624b7e" stroke-miterlimit="10" stroke-width="1.728"/>
          <line id="Línea_2955" data-name="Línea 2955" x1="142.92" y2="37.438" transform="translate(-3.781 72.267)" fill="none" stroke="#624b7e" stroke-miterlimit="10" stroke-width="1.728"/>
          <line id="Línea_2956" data-name="Línea 2956" x1="142.92" y2="37.438" transform="translate(-1.518 80.954)" fill="none" stroke="#624b7e" stroke-miterlimit="10" stroke-width="1.728"/>
          <line id="Línea_2957" data-name="Línea 2957" x1="142.922" y2="37.44" transform="translate(0.767 89.728)" fill="none" stroke="#624b7e" stroke-miterlimit="10" stroke-width="1.728"/>
          <line id="Línea_2958" data-name="Línea 2958" x1="142.921" y2="37.438" transform="translate(2.965 98.164)" fill="none" stroke="#624b7e" stroke-miterlimit="10" stroke-width="1.728"/>
          <line id="Línea_2959" data-name="Línea 2959" x1="142.921" y2="37.438" transform="translate(-27.613 -19.204)" fill="none" stroke="#624b7e" stroke-miterlimit="10" stroke-width="1.728"/>
          <line id="Línea_2960" data-name="Línea 2960" x1="142.92" y2="37.438" transform="translate(-25.35 -10.518)" fill="none" stroke="#624b7e" stroke-miterlimit="10" stroke-width="1.728"/>
          <line id="Línea_2961" data-name="Línea 2961" x1="142.921" y2="37.439" transform="translate(-23.087 -1.833)" fill="none" stroke="#624b7e" stroke-miterlimit="10" stroke-width="1.728"/>
          <line id="Línea_2962" data-name="Línea 2962" x1="142.922" y2="37.439" transform="translate(-20.824 6.852)" fill="none" stroke="#624b7e" stroke-miterlimit="10" stroke-width="1.728"/>
          <line id="Línea_2963" data-name="Línea 2963" x1="142.92" y2="37.439" transform="translate(-18.56 15.538)" fill="none" stroke="#624b7e" stroke-miterlimit="10" stroke-width="1.728"/>
          <line id="Línea_2964" data-name="Línea 2964" x1="142.921" y2="37.44" transform="translate(-16.299 24.223)" fill="none" stroke="#624b7e" stroke-miterlimit="10" stroke-width="1.728"/>
          <line id="Línea_2965" data-name="Línea 2965" x1="142.921" y2="37.437" transform="translate(-14.035 32.91)" fill="none" stroke="#624b7e" stroke-miterlimit="10" stroke-width="1.728"/>
          <line id="Línea_2966" data-name="Línea 2966" x1="142.922" y2="37.438" transform="translate(-11.772 41.594)" fill="none" stroke="#624b7e" stroke-miterlimit="10" stroke-width="1.728"/>
          <line id="Línea_2967" data-name="Línea 2967" x1="142.921" y2="37.438" transform="translate(-9.509 50.28)" fill="none" stroke="#624b7e" stroke-miterlimit="10" stroke-width="1.728"/>
          <line id="Línea_2968" data-name="Línea 2968" x1="142.92" y2="37.438" transform="translate(-7.247 58.966)" fill="none" stroke="#624b7e" stroke-miterlimit="10" stroke-width="1.728"/>
          <line id="Línea_2969" data-name="Línea 2969" x1="142.92" y2="37.438" transform="translate(-4.983 67.652)" fill="none" stroke="#624b7e" stroke-miterlimit="10" stroke-width="1.728"/>
          <line id="Línea_2970" data-name="Línea 2970" x1="142.92" y2="37.438" transform="translate(-2.72 76.338)" fill="none" stroke="#624b7e" stroke-miterlimit="10" stroke-width="1.728"/>
          <line id="Línea_2971" data-name="Línea 2971" x1="142.922" y2="37.439" transform="translate(-0.435 85.113)" fill="none" stroke="#624b7e" stroke-miterlimit="10" stroke-width="1.728"/>
          <line id="Línea_2972" data-name="Línea 2972" x1="142.921" y2="37.437" transform="translate(1.763 93.548)" fill="none" stroke="#624b7e" stroke-miterlimit="10" stroke-width="1.728"/>
        </g>
      </g>
      <g id="Grupo_1073705" data-name="Grupo 1073705" transform="translate(361.507 3876.837)">
        <path id="Trazado_608385" data-name="Trazado 608385" d="M50.8,0A50.8,50.8,0,1,1,0,50.8,50.8,50.8,0,0,1,50.8,0Z" transform="translate(386 2146)" fill="#fff"/>
      </g>
      <g id="Grupo_1073706" data-name="Grupo 1073706" transform="translate(7.121 35.247)">
        <path id="Trazado_611008" data-name="Trazado 611008" d="M7.84,23.967,20.686,10.8,0,5.99Z" transform="translate(829.012 6012.442)" fill="#474747"/>
        <path id="Trazado_611009" data-name="Trazado 611009" d="M15.072,16.9l13.784-13L7.771,0Z" transform="translate(822.711 6017.298)" fill="#79cbbf"/>
      </g>
      <g id="Grupo_1073707" data-name="Grupo 1073707" transform="translate(737.668 6101.776)">
        <path id="Trazado_610799" data-name="Trazado 610799" d="M0,2.749,5.8,13.065l7.96-6.279,4.969,8.834L26.7,9.341l4.979,8.836,9.3-7.328-1.8-2.285-6.633,5.227L27.563,4.954,19.6,11.232,14.633,2.4,6.673,8.676,2.535,1.323Z" transform="translate(0 -0.938)" fill="#474747"/>
        <path id="Trazado_610800" data-name="Trazado 610800" d="M12.921,0,10.387,1.426l5.8,10.316,7.96-6.279L29.12,14.3l7.964-6.28,4.979,8.836,9.3-7.328-1.8-2.285-6.633,5.227L37.95,3.632,29.989,9.909l-4.97-8.835-7.96,6.279Z" transform="translate(-7.366)" fill="#fff4a9"/>
      </g>
      <path id="Trazado_611010" data-name="Trazado 611010" d="M19.62,9.653,5.176,2.789l-.331,8.823Z" transform="translate(743.426 6026.78)" fill="none" stroke="#fd3cae" stroke-miterlimit="10" stroke-width="2"/>
    </g>
    <g id="Grupo_1075631" data-name="Grupo 1075631" transform="translate(1132.152 2624.023)">
      <g id="Grupo_1075630" data-name="Grupo 1075630" clip-path="url(#clip-path-2)">
        <g id="Grupo_1075629" data-name="Grupo 1075629" transform="translate(0 0)">
          <g id="Grupo_1075628" data-name="Grupo 1075628" clip-path="url(#clip-path-2)">
            <g id="Grupo_1075627" data-name="Grupo 1075627" transform="translate(5.883 5.883)" opacity="0.3">
              <g id="Grupo_1075626" data-name="Grupo 1075626">
                <g id="Grupo_1075625" data-name="Grupo 1075625" clip-path="url(#clip-path-4)">
                  <path id="Trazado_613540" data-name="Trazado 613540" d="M49.649,19.892c-.795-.908-1.7-1.741-2.5-2.541-2.5-2.513-4.891-5.129-7.421-7.611a6.558,6.558,0,0,0-4.783-1.876A7.132,7.132,0,0,0,30.9,9.042a8.116,8.116,0,0,0-2.723,2.98,7.7,7.7,0,0,0-.957,3.643,6.6,6.6,0,0,0,1.95,4.674l4.1,4.1a15.651,15.651,0,0,0-3.252-.309,29.7,29.7,0,0,0-8.757,1.288Q17.063,26.7,16.621,28.4a1.355,1.355,0,0,0,.073,1.177,4.971,4.971,0,0,0,1.03,1.031,5.057,5.057,0,0,1,1.1.994,2.065,2.065,0,0,1,.367,1.288,3.625,3.625,0,0,1-.221,1.1l-6.4,21.269a6.627,6.627,0,0,1-1.252,2.576,6.723,6.723,0,0,1-1.84,1.4,2.934,2.934,0,0,0-1.545,1.545,1.4,1.4,0,0,0,.589,1.656l9.608,9.608a1.7,1.7,0,0,0,.433.433,4.908,4.908,0,0,0,2.8.625H38.143a9.7,9.7,0,0,0,3.385-.441A2.448,2.448,0,0,0,43,71.261a.984.984,0,0,0-.073-.846,6.156,6.156,0,0,0-.736-.846,4.621,4.621,0,0,1-1.03-1.068,2.683,2.683,0,0,1-.368-1.508,6.518,6.518,0,0,1,.221-1.546l6.771-22A10.187,10.187,0,0,0,48.3,40.2a5.394,5.394,0,0,0-1.987-4.416l-3.632-3.632a7.459,7.459,0,0,0,1.2.1,7.347,7.347,0,0,0,4.011-1.14,7.944,7.944,0,0,0,2.8-2.981,7.807,7.807,0,0,0,.994-3.754,6.892,6.892,0,0,0-2.035-4.489" transform="translate(-7.864 -7.864)"/>
                </g>
              </g>
            </g>
            <path id="Trazado_613541" data-name="Trazado 613541" d="M42.845,13.088c-.794-.908-1.7-1.741-2.5-2.541-2.5-2.513-4.891-5.129-7.42-7.611A6.56,6.56,0,0,0,28.142,1.06a7.133,7.133,0,0,0-4.048,1.178,8.122,8.122,0,0,0-2.723,2.98,7.7,7.7,0,0,0-.957,3.643,6.6,6.6,0,0,0,1.95,4.674l4.1,4.1a15.6,15.6,0,0,0-3.252-.309,29.707,29.707,0,0,0-8.757,1.288Q10.259,19.9,9.817,21.593a1.355,1.355,0,0,0,.073,1.177,4.972,4.972,0,0,0,1.03,1.031,5.057,5.057,0,0,1,1.1.994,2.065,2.065,0,0,1,.367,1.288,3.625,3.625,0,0,1-.221,1.1L5.77,48.454A6.627,6.627,0,0,1,4.518,51.03a6.723,6.723,0,0,1-1.84,1.4,2.936,2.936,0,0,0-1.545,1.545,1.4,1.4,0,0,0,.589,1.656l9.608,9.608a1.7,1.7,0,0,0,.433.433,4.908,4.908,0,0,0,2.8.625H31.339a9.7,9.7,0,0,0,3.385-.441,2.448,2.448,0,0,0,1.472-1.4.984.984,0,0,0-.073-.846,6.155,6.155,0,0,0-.736-.846,4.637,4.637,0,0,1-1.03-1.068,2.683,2.683,0,0,1-.368-1.508,6.518,6.518,0,0,1,.221-1.546l6.771-22A10.191,10.191,0,0,0,41.5,33.4a5.394,5.394,0,0,0-1.987-4.416l-3.632-3.632a7.459,7.459,0,0,0,1.2.1,7.347,7.347,0,0,0,4.011-1.14,7.944,7.944,0,0,0,2.8-2.981,7.807,7.807,0,0,0,.994-3.754,6.892,6.892,0,0,0-2.035-4.489" transform="translate(-0.267 -0.267)" fill="#ffb1ff"/>
            <path id="Trazado_613542" data-name="Trazado 613542" d="M42.845,13.088c-.794-.908-1.7-1.741-2.5-2.541-2.5-2.513-4.891-5.129-7.42-7.611A6.56,6.56,0,0,0,28.142,1.06a7.133,7.133,0,0,0-4.048,1.178,8.122,8.122,0,0,0-2.723,2.98,7.7,7.7,0,0,0-.957,3.643,6.6,6.6,0,0,0,1.95,4.674l4.1,4.1a15.6,15.6,0,0,0-3.252-.309,29.707,29.707,0,0,0-8.757,1.288Q10.259,19.9,9.817,21.593a1.355,1.355,0,0,0,.073,1.177,4.972,4.972,0,0,0,1.03,1.031,5.057,5.057,0,0,1,1.1.994,2.065,2.065,0,0,1,.367,1.288,3.625,3.625,0,0,1-.221,1.1L5.77,48.454A6.627,6.627,0,0,1,4.518,51.03a6.723,6.723,0,0,1-1.84,1.4,2.936,2.936,0,0,0-1.545,1.545,1.4,1.4,0,0,0,.589,1.656l9.608,9.608a1.7,1.7,0,0,0,.433.433,4.908,4.908,0,0,0,2.8.625H31.339a9.7,9.7,0,0,0,3.385-.441,2.448,2.448,0,0,0,1.472-1.4.984.984,0,0,0-.073-.846,6.155,6.155,0,0,0-.736-.846,4.637,4.637,0,0,1-1.03-1.068,2.683,2.683,0,0,1-.368-1.508,6.518,6.518,0,0,1,.221-1.546l6.771-22A10.191,10.191,0,0,0,41.5,33.4a5.394,5.394,0,0,0-1.987-4.416l-3.632-3.632a7.459,7.459,0,0,0,1.2.1,7.347,7.347,0,0,0,4.011-1.14,7.944,7.944,0,0,0,2.8-2.981,7.807,7.807,0,0,0,.994-3.754A6.892,6.892,0,0,0,42.845,13.088Z" transform="translate(-0.267 -0.267)" fill="none" stroke="#6522a3" stroke-linecap="round" stroke-linejoin="round" stroke-width="2.12"/>
            <path id="Trazado_613543" data-name="Trazado 613543" d="M29.467,18.944a5.394,5.394,0,0,1,1.987,4.416,10.187,10.187,0,0,1-.515,3.238L24.168,48.6a6.512,6.512,0,0,0-.221,1.545,2.685,2.685,0,0,0,.368,1.509,4.634,4.634,0,0,0,1.03,1.067,6.2,6.2,0,0,1,.736.846.987.987,0,0,1,.074.846,2.445,2.445,0,0,1-1.472,1.4,9.684,9.684,0,0,1-3.385.442H4.519a4.908,4.908,0,0,1-2.8-.625,1.4,1.4,0,0,1-.589-1.656A2.938,2.938,0,0,1,2.679,52.43a6.734,6.734,0,0,0,1.84-1.4A6.617,6.617,0,0,0,5.77,48.455l6.4-21.269a3.625,3.625,0,0,0,.221-1.1,2.06,2.06,0,0,0-.368-1.288,5.05,5.05,0,0,0-1.1-.994,4.971,4.971,0,0,1-1.03-1.031,1.355,1.355,0,0,1-.074-1.177q.442-1.692,4.636-2.981a29.684,29.684,0,0,1,8.758-1.288q4.267,0,6.255,1.619M32.926,2.937a6.2,6.2,0,0,1,1.913,4.6,7.807,7.807,0,0,1-.994,3.754,7.947,7.947,0,0,1-2.8,2.98,7.342,7.342,0,0,1-4.011,1.141,6.344,6.344,0,0,1-4.674-1.876,6.6,6.6,0,0,1-1.95-4.674,7.7,7.7,0,0,1,.957-3.643,8.108,8.108,0,0,1,2.723-2.98,7.129,7.129,0,0,1,4.048-1.178,6.556,6.556,0,0,1,4.784,1.876" transform="translate(-0.267 -0.267)" fill="#fff494"/>
            <path id="Trazado_613544" data-name="Trazado 613544" d="M29.467,18.944a5.394,5.394,0,0,1,1.987,4.416,10.187,10.187,0,0,1-.515,3.238L24.168,48.6a6.512,6.512,0,0,0-.221,1.545,2.685,2.685,0,0,0,.368,1.509,4.634,4.634,0,0,0,1.03,1.067,6.2,6.2,0,0,1,.736.846.987.987,0,0,1,.074.846,2.445,2.445,0,0,1-1.472,1.4,9.684,9.684,0,0,1-3.385.442H4.519a4.908,4.908,0,0,1-2.8-.625,1.4,1.4,0,0,1-.589-1.656A2.938,2.938,0,0,1,2.679,52.43a6.734,6.734,0,0,0,1.84-1.4A6.617,6.617,0,0,0,5.77,48.455l6.4-21.269a3.625,3.625,0,0,0,.221-1.1,2.06,2.06,0,0,0-.368-1.288,5.05,5.05,0,0,0-1.1-.994,4.971,4.971,0,0,1-1.03-1.031,1.355,1.355,0,0,1-.074-1.177q.442-1.692,4.636-2.981a29.684,29.684,0,0,1,8.758-1.288Q27.479,17.325,29.467,18.944ZM32.926,2.937a6.2,6.2,0,0,1,1.913,4.6,7.807,7.807,0,0,1-.994,3.754,7.947,7.947,0,0,1-2.8,2.98,7.342,7.342,0,0,1-4.011,1.141,6.344,6.344,0,0,1-4.674-1.876,6.6,6.6,0,0,1-1.95-4.674,7.7,7.7,0,0,1,.957-3.643,8.108,8.108,0,0,1,2.723-2.98,7.129,7.129,0,0,1,4.048-1.178A6.556,6.556,0,0,1,32.926,2.937Z" transform="translate(-0.267 -0.267)" fill="none" stroke="#6522a3" stroke-linecap="round" stroke-linejoin="round" stroke-width="2.12"/>
          </g>
        </g>
      </g>
    </g>
  </g>
</svg>
