<svg xmlns="http://www.w3.org/2000/svg" width="107" height="107" viewBox="0 0 107 107">
  <g id="Grupo_156312" data-name="Grupo 156312" transform="translate(-288.668 -4448)">
    <circle id="Elipse_5845" data-name="Elipse 5845" cx="53.5" cy="53.5" r="53.5" transform="translate(288.668 4448)" fill="#624b7e"/>
    <g id="Grupo_1074456" data-name="Grupo 1074456" transform="translate(308.368 4460.52)">
      <path id="Trazado_611719" data-name="Trazado 611719" d="M3.583,75.96A1.583,1.583,0,0,1,2,74.378V27.428a14.2,14.2,0,0,1,9.884-13.559l8.976-2.886a4.731,4.731,0,0,0,3.295-4.52V1.583a1.583,1.583,0,1,1,3.165,0v4.88A7.89,7.89,0,0,1,21.832,14l-8.976,2.886A11.046,11.046,0,0,0,5.165,27.428v46.95A1.583,1.583,0,0,1,3.583,75.96Z" transform="translate(0 0)" fill="#fff"/>
      <path id="Trazado_611720" data-name="Trazado 611720" d="M37.738,75.96a1.583,1.583,0,0,1-1.583-1.583V27.428a11.046,11.046,0,0,0-7.691-10.546L19.488,14A7.89,7.89,0,0,1,14,6.463V1.583a1.583,1.583,0,0,1,3.165,0v4.88a4.731,4.731,0,0,0,3.295,4.52l8.976,2.886A14.2,14.2,0,0,1,39.32,27.428v46.95a1.583,1.583,0,0,1-1.583,1.583Z" transform="translate(25.98)" fill="#fff"/>
      <path id="Trazado_611721" data-name="Trazado 611721" d="M6.587,52.143a1.844,1.844,0,0,1-.187-.009A1.584,1.584,0,0,1,5.01,50.376a46.908,46.908,0,0,1,1.434-7.242,49.072,49.072,0,0,0-.832-28.571L5.105,13.1A1.584,1.584,0,0,1,8.1,12.064l.5,1.456A52.405,52.405,0,0,1,9.492,44a43.406,43.406,0,0,0-1.336,6.751,1.582,1.582,0,0,1-1.57,1.4Z" transform="translate(6.494 23.818)" fill="#fff"/>
      <path id="Trazado_611722" data-name="Trazado 611722" d="M21.745,52.144a1.585,1.585,0,0,1-1.57-1.4A43.365,43.365,0,0,0,18.84,44a52.424,52.424,0,0,1,.893-30.489l.5-1.446A1.584,1.584,0,0,1,23.227,13.1l-.5,1.456a49.116,49.116,0,0,0-.836,28.583,46.793,46.793,0,0,1,1.434,7.238,1.59,1.59,0,0,1-1.389,1.757,1.234,1.234,0,0,1-.187.013Z" transform="translate(32.474 23.817)" fill="#fff"/>
      <path id="Trazado_611723" data-name="Trazado 611723" d="M8.583,18.66a1.581,1.581,0,0,1-1.12-2.7,9.159,9.159,0,0,0,2.7-6.523V7.583a1.583,1.583,0,0,1,3.165,0V9.437A12.308,12.308,0,0,1,9.7,18.2,1.59,1.59,0,0,1,8.583,18.66Z" transform="translate(10.825 12.99)" fill="#fff"/>
      <path id="Trazado_611724" data-name="Trazado 611724" d="M19.748,18.66a1.59,1.59,0,0,1-1.12-.462A12.308,12.308,0,0,1,15,9.437V7.583a1.583,1.583,0,1,1,3.165,0V9.437a9.159,9.159,0,0,0,2.7,6.523,1.581,1.581,0,0,1-1.12,2.7Z" transform="translate(28.145 12.99)" fill="#fff"/>
      <path id="Trazado_611725" data-name="Trazado 611725" d="M13.083,52.31A1.583,1.583,0,0,1,11.5,50.728V9.583a1.583,1.583,0,1,1,3.165,0V50.728A1.583,1.583,0,0,1,13.083,52.31Z" transform="translate(20.568 17.32)" fill="#fff"/>
    </g>
  </g>
</svg>
