<svg xmlns="http://www.w3.org/2000/svg" width="107" height="107" viewBox="0 0 107 107">
  <g id="Grupo_156312" data-name="Grupo 156312" transform="translate(-288.668 -4448)">
    <circle id="Elipse_5845" data-name="Elipse 5845" cx="53.5" cy="53.5" r="53.5" transform="translate(288.668 4448)" fill="#624b7e"/>
    <path id="Trazado_611718" data-name="Trazado 611718" d="M20.522,77.057a1.228,1.228,0,0,1-.275-.031,1.2,1.2,0,0,1-.9-1.445,56.675,56.675,0,0,0,1.456-15.147c-.018-1.253-.2-1.545-1.862-3.813-.382-.521-.83-1.133-1.353-1.868C4.491,36.368,8.367,23.34,11.844,17.21,17.35,7.5,29.171,1.634,41.271,2.6c12.291.988,21.942,8.563,26.478,20.781,1.481,3.992,1.2,8.492-.856,13.739l5.964,8.788a4.555,4.555,0,0,1-3.629,7.108l-.873.026v2.467a1.747,1.747,0,0,1-.859,1.5l-.2.113.285.33a1.742,1.742,0,0,1-.079,2.356l-.832.867a6.815,6.815,0,0,1,.731,3.041,6.921,6.921,0,0,1-2.433,5.249,6.744,6.744,0,0,1-5.5,1.554l-6.99-1.084-.593,6.525a1.218,1.218,0,0,1-1.307,1.089,1.2,1.2,0,0,1-1.089-1.307l.709-7.8a1.2,1.2,0,0,1,1.383-1.08l8.254,1.281a4.369,4.369,0,0,0,3.569-1A4.576,4.576,0,0,0,65,63.719a4.422,4.422,0,0,0-.641-2.266,1.76,1.76,0,0,1,.206-2.05l.8-.835-.42-.485a1.748,1.748,0,0,1,.44-2.641l.568-.319V51.878a1.2,1.2,0,0,1,1.167-1.2l2.039-.059a2.15,2.15,0,0,0,1.708-3.355l-6.323-9.316a1.2,1.2,0,0,1-.116-1.135c2.035-4.921,2.384-9.038,1.067-12.588C61.3,12.918,52.4,5.912,41.079,5,29.9,4.1,18.991,9.486,13.936,18.4c-5.515,9.724-3.521,22.14,5.615,34.96.516.725.957,1.328,1.335,1.843,1.718,2.346,2.3,3.135,2.326,5.2a59.3,59.3,0,0,1-1.519,15.727,1.2,1.2,0,0,1-1.17.929Zm45.262-18.93-.019.02Z" transform="translate(302.149 4459.944)" fill="#fff"/>
  </g>
</svg>
