<svg xmlns="http://www.w3.org/2000/svg" xmlns:xlink="http://www.w3.org/1999/xlink" width="121.02" height="121.35" viewBox="0 0 121.02 121.35">
  <defs>
    <clipPath id="clip-path">
      <path id="Trazado_610742" data-name="Trazado 610742" d="M130.381,61.735a60.372,60.372,0,1,0,15.328-1.984,60.68,60.68,0,0,0-15.328,1.984" transform="translate(-85.163 -59.751)" fill="none" stroke="#624b7e" stroke-width="1"/>
    </clipPath>
    <clipPath id="clip-path-2">
      <rect id="Rectángulo_379149" data-name="Rectángulo 379149" width="65.626" height="55.163" fill="none"/>
    </clipPath>
  </defs>
  <g id="Grupo_1093889" data-name="Grupo 1093889" transform="translate(-11846 9141.448)">
    <g id="Grupo_1075608" data-name="Grupo 1075608" transform="translate(11108.332 -15154.448)">
      <g id="Grupo_1073704" data-name="Grupo 1073704" transform="translate(737.668 6013)">
        <g id="Grupo_1073463" data-name="Grupo 1073463" clip-path="url(#clip-path)">
          <line id="Línea_2945" data-name="Línea 2945" x1="142.922" y2="37.438" transform="translate(-26.41 -14.588)" fill="none" stroke="#624b7e" stroke-miterlimit="10" stroke-width="1.728"/>
          <line id="Línea_2946" data-name="Línea 2946" x1="142.921" y2="37.438" transform="translate(-24.148 -5.903)" fill="none" stroke="#624b7e" stroke-miterlimit="10" stroke-width="1.728"/>
          <line id="Línea_2947" data-name="Línea 2947" x1="142.921" y2="37.439" transform="translate(-21.884 2.782)" fill="none" stroke="#624b7e" stroke-miterlimit="10" stroke-width="1.728"/>
          <line id="Línea_2948" data-name="Línea 2948" x1="142.922" y2="37.44" transform="translate(-19.621 11.468)" fill="none" stroke="#624b7e" stroke-miterlimit="10" stroke-width="1.728"/>
          <line id="Línea_2949" data-name="Línea 2949" x1="142.92" y2="37.44" transform="translate(-17.358 20.154)" fill="none" stroke="#624b7e" stroke-miterlimit="10" stroke-width="1.728"/>
          <line id="Línea_2950" data-name="Línea 2950" x1="142.92" y2="37.439" transform="translate(-15.096 28.839)" fill="none" stroke="#624b7e" stroke-miterlimit="10" stroke-width="1.728"/>
          <line id="Línea_2951" data-name="Línea 2951" x1="142.921" y2="37.438" transform="translate(-12.832 37.525)" fill="none" stroke="#624b7e" stroke-miterlimit="10" stroke-width="1.728"/>
          <line id="Línea_2952" data-name="Línea 2952" x1="142.922" y2="37.438" transform="translate(-10.569 46.21)" fill="none" stroke="#624b7e" stroke-miterlimit="10" stroke-width="1.728"/>
          <line id="Línea_2953" data-name="Línea 2953" x1="142.921" y2="37.439" transform="translate(-8.307 54.895)" fill="none" stroke="#624b7e" stroke-miterlimit="10" stroke-width="1.728"/>
          <line id="Línea_2954" data-name="Línea 2954" x1="142.92" y2="37.439" transform="translate(-6.044 63.581)" fill="none" stroke="#624b7e" stroke-miterlimit="10" stroke-width="1.728"/>
          <line id="Línea_2955" data-name="Línea 2955" x1="142.92" y2="37.438" transform="translate(-3.781 72.267)" fill="none" stroke="#624b7e" stroke-miterlimit="10" stroke-width="1.728"/>
          <line id="Línea_2956" data-name="Línea 2956" x1="142.92" y2="37.438" transform="translate(-1.518 80.954)" fill="none" stroke="#624b7e" stroke-miterlimit="10" stroke-width="1.728"/>
          <line id="Línea_2957" data-name="Línea 2957" x1="142.922" y2="37.44" transform="translate(0.767 89.728)" fill="none" stroke="#624b7e" stroke-miterlimit="10" stroke-width="1.728"/>
          <line id="Línea_2958" data-name="Línea 2958" x1="142.921" y2="37.438" transform="translate(2.965 98.164)" fill="none" stroke="#624b7e" stroke-miterlimit="10" stroke-width="1.728"/>
          <line id="Línea_2959" data-name="Línea 2959" x1="142.921" y2="37.438" transform="translate(-27.613 -19.204)" fill="none" stroke="#624b7e" stroke-miterlimit="10" stroke-width="1.728"/>
          <line id="Línea_2960" data-name="Línea 2960" x1="142.92" y2="37.438" transform="translate(-25.35 -10.518)" fill="none" stroke="#624b7e" stroke-miterlimit="10" stroke-width="1.728"/>
          <line id="Línea_2961" data-name="Línea 2961" x1="142.921" y2="37.439" transform="translate(-23.087 -1.833)" fill="none" stroke="#624b7e" stroke-miterlimit="10" stroke-width="1.728"/>
          <line id="Línea_2962" data-name="Línea 2962" x1="142.922" y2="37.439" transform="translate(-20.824 6.852)" fill="none" stroke="#624b7e" stroke-miterlimit="10" stroke-width="1.728"/>
          <line id="Línea_2963" data-name="Línea 2963" x1="142.92" y2="37.439" transform="translate(-18.56 15.538)" fill="none" stroke="#624b7e" stroke-miterlimit="10" stroke-width="1.728"/>
          <line id="Línea_2964" data-name="Línea 2964" x1="142.921" y2="37.44" transform="translate(-16.299 24.223)" fill="none" stroke="#624b7e" stroke-miterlimit="10" stroke-width="1.728"/>
          <line id="Línea_2965" data-name="Línea 2965" x1="142.921" y2="37.437" transform="translate(-14.035 32.91)" fill="none" stroke="#624b7e" stroke-miterlimit="10" stroke-width="1.728"/>
          <line id="Línea_2966" data-name="Línea 2966" x1="142.922" y2="37.438" transform="translate(-11.772 41.594)" fill="none" stroke="#624b7e" stroke-miterlimit="10" stroke-width="1.728"/>
          <line id="Línea_2967" data-name="Línea 2967" x1="142.921" y2="37.438" transform="translate(-9.509 50.28)" fill="none" stroke="#624b7e" stroke-miterlimit="10" stroke-width="1.728"/>
          <line id="Línea_2968" data-name="Línea 2968" x1="142.92" y2="37.438" transform="translate(-7.247 58.966)" fill="none" stroke="#624b7e" stroke-miterlimit="10" stroke-width="1.728"/>
          <line id="Línea_2969" data-name="Línea 2969" x1="142.92" y2="37.438" transform="translate(-4.983 67.652)" fill="none" stroke="#624b7e" stroke-miterlimit="10" stroke-width="1.728"/>
          <line id="Línea_2970" data-name="Línea 2970" x1="142.92" y2="37.438" transform="translate(-2.72 76.338)" fill="none" stroke="#624b7e" stroke-miterlimit="10" stroke-width="1.728"/>
          <line id="Línea_2971" data-name="Línea 2971" x1="142.922" y2="37.439" transform="translate(-0.435 85.113)" fill="none" stroke="#624b7e" stroke-miterlimit="10" stroke-width="1.728"/>
          <line id="Línea_2972" data-name="Línea 2972" x1="142.921" y2="37.437" transform="translate(1.763 93.548)" fill="none" stroke="#624b7e" stroke-miterlimit="10" stroke-width="1.728"/>
        </g>
      </g>
      <g id="Grupo_1073705" data-name="Grupo 1073705" transform="translate(361.507 3876.837)">
        <path id="Trazado_608385" data-name="Trazado 608385" d="M50.8,0A50.8,50.8,0,1,1,0,50.8,50.8,50.8,0,0,1,50.8,0Z" transform="translate(386 2146)" fill="#fff"/>
      </g>
      <g id="Grupo_1073706" data-name="Grupo 1073706" transform="translate(7.121 35.247)">
        <path id="Trazado_611008" data-name="Trazado 611008" d="M7.84,23.967,20.686,10.8,0,5.99Z" transform="translate(829.012 6012.442)" fill="#474747"/>
        <path id="Trazado_611009" data-name="Trazado 611009" d="M15.072,16.9l13.784-13L7.771,0Z" transform="translate(822.711 6017.298)" fill="#79cbbf"/>
      </g>
      <g id="Grupo_1073707" data-name="Grupo 1073707" transform="translate(737.668 6101.776)">
        <path id="Trazado_610799" data-name="Trazado 610799" d="M0,2.749,5.8,13.065l7.96-6.279,4.969,8.834L26.7,9.341l4.979,8.836,9.3-7.328-1.8-2.285-6.633,5.227L27.563,4.954,19.6,11.232,14.633,2.4,6.673,8.676,2.535,1.323Z" transform="translate(0 -0.938)" fill="#474747"/>
        <path id="Trazado_610800" data-name="Trazado 610800" d="M12.921,0,10.387,1.426l5.8,10.316,7.96-6.279L29.12,14.3l7.964-6.28,4.979,8.836,9.3-7.328-1.8-2.285-6.633,5.227L37.95,3.632,29.989,9.909l-4.97-8.835-7.96,6.279Z" transform="translate(-7.366)" fill="#fff4a9"/>
      </g>
      <path id="Trazado_611010" data-name="Trazado 611010" d="M19.62,9.653,5.176,2.789l-.331,8.823Z" transform="translate(743.426 6026.78)" fill="none" stroke="#fd3cae" stroke-miterlimit="10" stroke-width="2"/>
    </g>
    <g id="Grupo_1075640" data-name="Grupo 1075640" transform="translate(11873.697 -9108.355)">
      <g id="Grupo_1075639" data-name="Grupo 1075639" transform="translate(0 0)" clip-path="url(#clip-path-2)">
        <path id="Trazado_613550" data-name="Trazado 613550" d="M64.977,18.3a5.7,5.7,0,0,0-1.787-4.333L52.558,3.33c-.042-.043-.085-.086-.129-.129l-.421-.421-.038.015q-2.182-1.732-6.763-1.734a31.985,31.985,0,0,0-9.431,1.387q-4.518,1.388-4.914,3.21a1.461,1.461,0,0,0,.08,1.268,5.353,5.353,0,0,0,1.11,1.11,6.253,6.253,0,0,1,1.11,1.07,2.225,2.225,0,0,1,.4,1.387c0,.05,0,.106-.009.16L26.282,3.523A5.936,5.936,0,0,0,25.55,2.8q-2.139-1.743-6.737-1.744A31.993,31.993,0,0,0,9.382,2.448Q4.864,3.835,4.389,5.658a1.464,1.464,0,0,0,.079,1.268,5.394,5.394,0,0,0,1.11,1.11,5.467,5.467,0,0,1,1.189,1.07,2.225,2.225,0,0,1,.4,1.387,3.949,3.949,0,0,1-.237,1.189L1.852,28.246a14.506,14.506,0,0,0-.791,4.6,9.046,9.046,0,0,0,2.265,6.309l.01.009q.307.338.653.653c3.564,3.563,6.982,7.4,10.8,10.7a15.033,15.033,0,0,0,10.166,3.53,16.3,16.3,0,0,0,7.015-1.625,19.4,19.4,0,0,0,5.509-3.959L40,50.985a9.352,9.352,0,0,0,1.83,1.628,12.968,12.968,0,0,0,7.451,1.9,15.54,15.54,0,0,0,6.737-1.427A12.437,12.437,0,0,0,60.7,49.483a6.806,6.806,0,0,0,1.585-4.4c-.068-1.912-2.434-3.226-3.673-4.465l5.733-18.758a12.421,12.421,0,0,0,.634-3.566" transform="translate(-0.206 -0.206)" fill="#ffb1ff"/>
        <path id="Trazado_613551" data-name="Trazado 613551" d="M64.977,18.3a5.7,5.7,0,0,0-1.787-4.333L52.558,3.33c-.042-.043-.085-.086-.129-.129l-.421-.421-.038.015q-2.182-1.732-6.763-1.734a31.985,31.985,0,0,0-9.431,1.387q-4.518,1.388-4.914,3.21a1.461,1.461,0,0,0,.08,1.268,5.353,5.353,0,0,0,1.11,1.11,6.253,6.253,0,0,1,1.11,1.07,2.225,2.225,0,0,1,.4,1.387c0,.05,0,.106-.009.16L26.282,3.523A5.936,5.936,0,0,0,25.55,2.8q-2.139-1.743-6.737-1.744A31.993,31.993,0,0,0,9.382,2.448Q4.864,3.835,4.389,5.658a1.464,1.464,0,0,0,.079,1.268,5.394,5.394,0,0,0,1.11,1.11,5.467,5.467,0,0,1,1.189,1.07,2.225,2.225,0,0,1,.4,1.387,3.949,3.949,0,0,1-.237,1.189L1.852,28.246a14.506,14.506,0,0,0-.791,4.6,9.046,9.046,0,0,0,2.265,6.309l.01.009q.307.338.653.653c3.564,3.563,6.982,7.4,10.8,10.7a15.033,15.033,0,0,0,10.166,3.53,16.3,16.3,0,0,0,7.015-1.625,19.4,19.4,0,0,0,5.509-3.959L40,50.985a9.352,9.352,0,0,0,1.83,1.628,12.968,12.968,0,0,0,7.451,1.9,15.54,15.54,0,0,0,6.737-1.427A12.437,12.437,0,0,0,60.7,49.483a6.806,6.806,0,0,0,1.585-4.4c-.068-1.912-2.434-3.226-3.673-4.465l5.733-18.758A12.421,12.421,0,0,0,64.977,18.3Z" transform="translate(-0.206 -0.206)" fill="none" stroke="#6522a3" stroke-linecap="round" stroke-linejoin="round" stroke-width="2.12"/>
        <path id="Trazado_613552" data-name="Trazado 613552" d="M47.109,32.05a4.3,4.3,0,0,0-.158.951,1.274,1.274,0,0,0,.276.872.947.947,0,0,0,.753.317,2.027,2.027,0,0,0,1.624-.832q.673-.832.911-.832c.264,0,.488.172.674.516a2.552,2.552,0,0,1,.277,1.228,6.8,6.8,0,0,1-1.585,4.4,12.438,12.438,0,0,1-4.677,3.606A15.538,15.538,0,0,1,38.469,43.7a12.959,12.959,0,0,1-7.449-1.9,8.452,8.452,0,0,1-3.568-4.993,19.882,19.882,0,0,1-6.3,4.8,16.288,16.288,0,0,1-7.013,1.625,15.422,15.422,0,0,1-9.314-2.735A8.913,8.913,0,0,1,1.06,32.843a14.5,14.5,0,0,1,.792-4.6L6.926,11.681a3.949,3.949,0,0,0,.237-1.189,2.227,2.227,0,0,0-.4-1.387,5.48,5.48,0,0,0-1.188-1.07,5.381,5.381,0,0,1-1.11-1.11,1.466,1.466,0,0,1-.079-1.268q.475-1.821,4.994-3.21A31.988,31.988,0,0,1,18.813,1.06q4.6,0,6.737,1.744a5.807,5.807,0,0,1,2.14,4.756,10.97,10.97,0,0,1-.554,3.487L22.142,27.532a4.866,4.866,0,0,0-.317,1.665,2.092,2.092,0,0,0,.634,1.665,2.435,2.435,0,0,0,1.665.554,3.492,3.492,0,0,0,2.457-.872,9.3,9.3,0,0,0,1.9-2.932l4.835-15.931a3.9,3.9,0,0,0,.238-1.189,2.227,2.227,0,0,0-.4-1.387,6.253,6.253,0,0,0-1.11-1.07,5.325,5.325,0,0,1-1.109-1.11,1.46,1.46,0,0,1-.081-1.268q.4-1.821,4.915-3.21A31.98,31.98,0,0,1,45.206,1.06q4.6,0,6.776,1.744a5.681,5.681,0,0,1,2.18,4.677,12.4,12.4,0,0,1-.635,3.566Z" transform="translate(-0.206 -0.206)" fill="#fff494"/>
        <path id="Trazado_613553" data-name="Trazado 613553" d="M47.109,32.05a4.3,4.3,0,0,0-.158.951,1.274,1.274,0,0,0,.276.872.947.947,0,0,0,.753.317,2.027,2.027,0,0,0,1.624-.832q.673-.832.911-.832c.264,0,.488.172.674.516a2.552,2.552,0,0,1,.277,1.228,6.8,6.8,0,0,1-1.585,4.4,12.438,12.438,0,0,1-4.677,3.606A15.538,15.538,0,0,1,38.469,43.7a12.959,12.959,0,0,1-7.449-1.9,8.452,8.452,0,0,1-3.568-4.993,19.882,19.882,0,0,1-6.3,4.8,16.288,16.288,0,0,1-7.013,1.625,15.422,15.422,0,0,1-9.314-2.735A8.913,8.913,0,0,1,1.06,32.843a14.5,14.5,0,0,1,.792-4.6L6.926,11.681a3.949,3.949,0,0,0,.237-1.189,2.227,2.227,0,0,0-.4-1.387,5.48,5.48,0,0,0-1.188-1.07,5.381,5.381,0,0,1-1.11-1.11,1.466,1.466,0,0,1-.079-1.268q.475-1.821,4.994-3.21A31.988,31.988,0,0,1,18.813,1.06q4.6,0,6.737,1.744a5.807,5.807,0,0,1,2.14,4.756,10.97,10.97,0,0,1-.554,3.487L22.142,27.532a4.866,4.866,0,0,0-.317,1.665,2.092,2.092,0,0,0,.634,1.665,2.435,2.435,0,0,0,1.665.554,3.492,3.492,0,0,0,2.457-.872,9.3,9.3,0,0,0,1.9-2.932l4.835-15.931a3.9,3.9,0,0,0,.238-1.189,2.227,2.227,0,0,0-.4-1.387,6.253,6.253,0,0,0-1.11-1.07,5.325,5.325,0,0,1-1.109-1.11,1.46,1.46,0,0,1-.081-1.268q.4-1.821,4.915-3.21A31.98,31.98,0,0,1,45.206,1.06q4.6,0,6.776,1.744a5.681,5.681,0,0,1,2.18,4.677,12.4,12.4,0,0,1-.635,3.566Z" transform="translate(-0.206 -0.206)" fill="none" stroke="#6522a3" stroke-linecap="round" stroke-linejoin="round" stroke-width="2.12"/>
      </g>
    </g>
  </g>
</svg>
