<svg xmlns="http://www.w3.org/2000/svg" xmlns:xlink="http://www.w3.org/1999/xlink" width="121.02" height="121.349" viewBox="0 0 121.02 121.349">
  <defs>
    <clipPath id="clip-path">
      <path id="Trazado_610742" data-name="Trazado 610742" d="M130.381,61.735a60.372,60.372,0,1,0,15.328-1.984,60.68,60.68,0,0,0-15.328,1.984" transform="translate(-85.163 -59.751)" fill="none" stroke="#624b7e" stroke-width="1"/>
    </clipPath>
    <clipPath id="clip-path-2">
      <rect id="Rectángulo_379142" data-name="Rectángulo 379142" width="59.906" height="57.835" fill="none"/>
    </clipPath>
    <clipPath id="clip-path-4">
      <rect id="Rectángulo_379140" data-name="Rectángulo 379140" width="53.774" height="51.703" fill="none"/>
    </clipPath>
  </defs>
  <g id="Grupo_1093886" data-name="Grupo 1093886" transform="translate(-743 -2605.552)">
    <g id="Grupo_1073722" data-name="Grupo 1073722" transform="translate(5.332 -3407.448)">
      <g id="Grupo_1073704" data-name="Grupo 1073704" transform="translate(737.668 6013)">
        <g id="Grupo_1073463" data-name="Grupo 1073463" clip-path="url(#clip-path)">
          <line id="Línea_2945" data-name="Línea 2945" x1="142.922" y2="37.438" transform="translate(-26.41 -14.588)" fill="none" stroke="#624b7e" stroke-miterlimit="10" stroke-width="1.728"/>
          <line id="Línea_2946" data-name="Línea 2946" x1="142.921" y2="37.438" transform="translate(-24.148 -5.903)" fill="none" stroke="#624b7e" stroke-miterlimit="10" stroke-width="1.728"/>
          <line id="Línea_2947" data-name="Línea 2947" x1="142.921" y2="37.439" transform="translate(-21.884 2.782)" fill="none" stroke="#624b7e" stroke-miterlimit="10" stroke-width="1.728"/>
          <line id="Línea_2948" data-name="Línea 2948" x1="142.922" y2="37.44" transform="translate(-19.621 11.468)" fill="none" stroke="#624b7e" stroke-miterlimit="10" stroke-width="1.728"/>
          <line id="Línea_2949" data-name="Línea 2949" x1="142.92" y2="37.44" transform="translate(-17.358 20.154)" fill="none" stroke="#624b7e" stroke-miterlimit="10" stroke-width="1.728"/>
          <line id="Línea_2950" data-name="Línea 2950" x1="142.92" y2="37.439" transform="translate(-15.096 28.839)" fill="none" stroke="#624b7e" stroke-miterlimit="10" stroke-width="1.728"/>
          <line id="Línea_2951" data-name="Línea 2951" x1="142.921" y2="37.438" transform="translate(-12.832 37.525)" fill="none" stroke="#624b7e" stroke-miterlimit="10" stroke-width="1.728"/>
          <line id="Línea_2952" data-name="Línea 2952" x1="142.922" y2="37.438" transform="translate(-10.569 46.21)" fill="none" stroke="#624b7e" stroke-miterlimit="10" stroke-width="1.728"/>
          <line id="Línea_2953" data-name="Línea 2953" x1="142.921" y2="37.439" transform="translate(-8.307 54.895)" fill="none" stroke="#624b7e" stroke-miterlimit="10" stroke-width="1.728"/>
          <line id="Línea_2954" data-name="Línea 2954" x1="142.92" y2="37.439" transform="translate(-6.044 63.581)" fill="none" stroke="#624b7e" stroke-miterlimit="10" stroke-width="1.728"/>
          <line id="Línea_2955" data-name="Línea 2955" x1="142.92" y2="37.438" transform="translate(-3.781 72.267)" fill="none" stroke="#624b7e" stroke-miterlimit="10" stroke-width="1.728"/>
          <line id="Línea_2956" data-name="Línea 2956" x1="142.92" y2="37.438" transform="translate(-1.518 80.954)" fill="none" stroke="#624b7e" stroke-miterlimit="10" stroke-width="1.728"/>
          <line id="Línea_2957" data-name="Línea 2957" x1="142.922" y2="37.44" transform="translate(0.767 89.728)" fill="none" stroke="#624b7e" stroke-miterlimit="10" stroke-width="1.728"/>
          <line id="Línea_2958" data-name="Línea 2958" x1="142.921" y2="37.438" transform="translate(2.965 98.164)" fill="none" stroke="#624b7e" stroke-miterlimit="10" stroke-width="1.728"/>
          <line id="Línea_2959" data-name="Línea 2959" x1="142.921" y2="37.438" transform="translate(-27.613 -19.204)" fill="none" stroke="#624b7e" stroke-miterlimit="10" stroke-width="1.728"/>
          <line id="Línea_2960" data-name="Línea 2960" x1="142.92" y2="37.438" transform="translate(-25.35 -10.518)" fill="none" stroke="#624b7e" stroke-miterlimit="10" stroke-width="1.728"/>
          <line id="Línea_2961" data-name="Línea 2961" x1="142.921" y2="37.439" transform="translate(-23.087 -1.833)" fill="none" stroke="#624b7e" stroke-miterlimit="10" stroke-width="1.728"/>
          <line id="Línea_2962" data-name="Línea 2962" x1="142.922" y2="37.439" transform="translate(-20.824 6.852)" fill="none" stroke="#624b7e" stroke-miterlimit="10" stroke-width="1.728"/>
          <line id="Línea_2963" data-name="Línea 2963" x1="142.92" y2="37.439" transform="translate(-18.56 15.538)" fill="none" stroke="#624b7e" stroke-miterlimit="10" stroke-width="1.728"/>
          <line id="Línea_2964" data-name="Línea 2964" x1="142.921" y2="37.44" transform="translate(-16.299 24.223)" fill="none" stroke="#624b7e" stroke-miterlimit="10" stroke-width="1.728"/>
          <line id="Línea_2965" data-name="Línea 2965" x1="142.921" y2="37.437" transform="translate(-14.035 32.91)" fill="none" stroke="#624b7e" stroke-miterlimit="10" stroke-width="1.728"/>
          <line id="Línea_2966" data-name="Línea 2966" x1="142.922" y2="37.438" transform="translate(-11.772 41.594)" fill="none" stroke="#624b7e" stroke-miterlimit="10" stroke-width="1.728"/>
          <line id="Línea_2967" data-name="Línea 2967" x1="142.921" y2="37.438" transform="translate(-9.509 50.28)" fill="none" stroke="#624b7e" stroke-miterlimit="10" stroke-width="1.728"/>
          <line id="Línea_2968" data-name="Línea 2968" x1="142.92" y2="37.438" transform="translate(-7.247 58.966)" fill="none" stroke="#624b7e" stroke-miterlimit="10" stroke-width="1.728"/>
          <line id="Línea_2969" data-name="Línea 2969" x1="142.92" y2="37.438" transform="translate(-4.983 67.652)" fill="none" stroke="#624b7e" stroke-miterlimit="10" stroke-width="1.728"/>
          <line id="Línea_2970" data-name="Línea 2970" x1="142.92" y2="37.438" transform="translate(-2.72 76.338)" fill="none" stroke="#624b7e" stroke-miterlimit="10" stroke-width="1.728"/>
          <line id="Línea_2971" data-name="Línea 2971" x1="142.922" y2="37.439" transform="translate(-0.435 85.113)" fill="none" stroke="#624b7e" stroke-miterlimit="10" stroke-width="1.728"/>
          <line id="Línea_2972" data-name="Línea 2972" x1="142.921" y2="37.437" transform="translate(1.763 93.548)" fill="none" stroke="#624b7e" stroke-miterlimit="10" stroke-width="1.728"/>
        </g>
      </g>
      <g id="Grupo_1073705" data-name="Grupo 1073705" transform="translate(361.507 3876.837)">
        <path id="Trazado_608385" data-name="Trazado 608385" d="M50.8,0A50.8,50.8,0,1,1,0,50.8,50.8,50.8,0,0,1,50.8,0Z" transform="translate(386 2146)" fill="#fff"/>
      </g>
      <g id="Grupo_1073706" data-name="Grupo 1073706" transform="translate(7.121 35.247)">
        <path id="Trazado_611008" data-name="Trazado 611008" d="M7.84,23.967,20.686,10.8,0,5.99Z" transform="translate(829.012 6012.442)" fill="#474747"/>
        <path id="Trazado_611009" data-name="Trazado 611009" d="M15.072,16.9l13.784-13L7.771,0Z" transform="translate(822.711 6017.298)" fill="#79cbbf"/>
      </g>
      <g id="Grupo_1073707" data-name="Grupo 1073707" transform="translate(737.668 6101.776)">
        <path id="Trazado_610799" data-name="Trazado 610799" d="M0,2.749,5.8,13.065l7.96-6.279,4.969,8.834L26.7,9.341l4.979,8.836,9.3-7.328-1.8-2.285-6.633,5.227L27.563,4.954,19.6,11.232,14.633,2.4,6.673,8.676,2.535,1.323Z" transform="translate(0 -0.938)" fill="#474747"/>
        <path id="Trazado_610800" data-name="Trazado 610800" d="M12.921,0,10.387,1.426l5.8,10.316,7.96-6.279L29.12,14.3l7.964-6.28,4.979,8.836,9.3-7.328-1.8-2.285-6.633,5.227L37.95,3.632,29.989,9.909l-4.97-8.835-7.96,6.279Z" transform="translate(-7.366)" fill="#fff4a9"/>
      </g>
      <path id="Trazado_611010" data-name="Trazado 611010" d="M19.62,9.653,5.176,2.789l-.331,8.823Z" transform="translate(743.426 6026.78)" fill="none" stroke="#fd3cae" stroke-miterlimit="10" stroke-width="2"/>
    </g>
    <g id="Grupo_1075624" data-name="Grupo 1075624" transform="translate(775.547 2637.309)">
      <g id="Grupo_1075623" data-name="Grupo 1075623" clip-path="url(#clip-path-2)">
        <g id="Grupo_1075622" data-name="Grupo 1075622" transform="translate(0 0)">
          <g id="Grupo_1075621" data-name="Grupo 1075621" clip-path="url(#clip-path-2)">
            <g id="Grupo_1075620" data-name="Grupo 1075620" transform="translate(6.132 6.132)" opacity="0.3">
              <g id="Grupo_1075619" data-name="Grupo 1075619">
                <g id="Grupo_1075618" data-name="Grupo 1075618" clip-path="url(#clip-path-4)">
                  <path id="Trazado_613535" data-name="Trazado 613535" d="M58.7,22.658,48.465,12.426a12.5,12.5,0,0,0-1.711-1.456Q42.381,7.863,32.64,7.863a25.777,25.777,0,0,0-15.763,4.794q-6.483,4.795-8.4,14.229a27.753,27.753,0,0,0-.613,5.37c0,10.328,8.648,17.248,15.957,23.014q5.445,4.3,13.961,4.3A21.418,21.418,0,0,0,47.6,57.495a16.325,16.325,0,0,0,6.136-5.024,9.42,9.42,0,0,0,1.995-5.637.976.976,0,0,0-.334-.859l-5.185-5.186a26.552,26.552,0,0,0,4.714-1.435,10.01,10.01,0,0,0,6.4-7.249,11.059,11.059,0,0,0,.307-2.684,9,9,0,0,0-2.94-6.763" transform="translate(-7.864 -7.863)"/>
                </g>
              </g>
            </g>
            <path id="Trazado_613536" data-name="Trazado 613536" d="M51.894,15.855,41.662,5.622a12.611,12.611,0,0,0-1.712-1.455Q35.578,1.06,25.837,1.06A25.77,25.77,0,0,0,10.073,5.854q-6.483,4.795-8.4,14.229a27.76,27.76,0,0,0-.614,5.37c0,10.328,8.649,17.248,15.958,23.014q5.445,4.3,13.96,4.3A21.419,21.419,0,0,0,40.8,50.692a16.331,16.331,0,0,0,6.136-5.024,9.425,9.425,0,0,0,1.995-5.637.978.978,0,0,0-.334-.859l-5.185-5.186a26.524,26.524,0,0,0,4.713-1.435,10.01,10.01,0,0,0,6.4-7.249,11.059,11.059,0,0,0,.307-2.684,9.005,9.005,0,0,0-2.94-6.763" transform="translate(-0.233 -0.234)" fill="#ffb1ff"/>
            <path id="Trazado_613537" data-name="Trazado 613537" d="M51.894,15.855,41.662,5.622a12.611,12.611,0,0,0-1.712-1.455Q35.578,1.06,25.837,1.06A25.77,25.77,0,0,0,10.073,5.854q-6.483,4.795-8.4,14.229a27.76,27.76,0,0,0-.614,5.37c0,10.328,8.649,17.248,15.958,23.014q5.445,4.3,13.96,4.3A21.419,21.419,0,0,0,40.8,50.692a16.331,16.331,0,0,0,6.136-5.024,9.425,9.425,0,0,0,1.995-5.637.978.978,0,0,0-.334-.859l-5.185-5.186a26.524,26.524,0,0,0,4.713-1.435,10.01,10.01,0,0,0,6.4-7.249,11.059,11.059,0,0,0,.307-2.684A9.005,9.005,0,0,0,51.894,15.855Z" transform="translate(-0.233 -0.234)" fill="none" stroke="#6522a3" stroke-linecap="round" stroke-linejoin="round" stroke-width="2.12"/>
            <path id="Trazado_613538" data-name="Trazado 613538" d="M39.951,4.167a9.385,9.385,0,0,1,4.372,7.939,11.1,11.1,0,0,1-.307,2.685,10.01,10.01,0,0,1-6.4,7.248,32.119,32.119,0,0,1-12.389,2.187,46.62,46.62,0,0,1-6.75-.461q-.077,3.99,2.148,5.6a10.436,10.436,0,0,0,6.213,1.611,14.486,14.486,0,0,0,3.529-.422q1.687-.421,4.3-1.266a10.952,10.952,0,0,1,2.915-.767c.561,0,.844.333.844,1a9.429,9.429,0,0,1-1.995,5.638,16.351,16.351,0,0,1-6.136,5.024,21.431,21.431,0,0,1-9.819,2.071q-8.515,0-13.961-4.3T1.06,25.454a27.773,27.773,0,0,1,.615-5.37q1.916-9.435,8.4-14.229A25.776,25.776,0,0,1,25.837,1.06q9.74,0,14.114,3.107M19.854,19.24a5.348,5.348,0,0,0,4.91-2.991,12.8,12.8,0,0,0,1.61-6.674Q26.3,7.428,25.146,7.427q-.845,0-1.994,1.342A15.275,15.275,0,0,0,20.889,12.8a35.8,35.8,0,0,0-1.879,6.366,3.615,3.615,0,0,0,.844.076" transform="translate(-0.233 -0.234)" fill="#fff494"/>
            <path id="Trazado_613539" data-name="Trazado 613539" d="M39.951,4.167a9.385,9.385,0,0,1,4.372,7.939,11.1,11.1,0,0,1-.307,2.685,10.01,10.01,0,0,1-6.4,7.248,32.119,32.119,0,0,1-12.389,2.187,46.62,46.62,0,0,1-6.75-.461q-.077,3.99,2.148,5.6a10.436,10.436,0,0,0,6.213,1.611,14.486,14.486,0,0,0,3.529-.422q1.687-.421,4.3-1.266a10.952,10.952,0,0,1,2.915-.767c.561,0,.844.333.844,1a9.429,9.429,0,0,1-1.995,5.638,16.351,16.351,0,0,1-6.136,5.024,21.431,21.431,0,0,1-9.819,2.071q-8.515,0-13.961-4.3T1.06,25.454a27.773,27.773,0,0,1,.615-5.37q1.916-9.435,8.4-14.229A25.776,25.776,0,0,1,25.837,1.06Q35.578,1.06,39.951,4.167ZM19.854,19.24a5.348,5.348,0,0,0,4.91-2.991,12.8,12.8,0,0,0,1.61-6.674Q26.3,7.428,25.146,7.427q-.845,0-1.994,1.342A15.275,15.275,0,0,0,20.889,12.8a35.8,35.8,0,0,0-1.879,6.366A3.615,3.615,0,0,0,19.854,19.24Z" transform="translate(-0.233 -0.234)" fill="none" stroke="#6522a3" stroke-linecap="round" stroke-linejoin="round" stroke-width="2.12"/>
          </g>
        </g>
      </g>
    </g>
  </g>
</svg>
