<svg xmlns="http://www.w3.org/2000/svg" xmlns:xlink="http://www.w3.org/1999/xlink" width="120" height="120" viewBox="0 0 120 120">
  <defs>
    <clipPath id="clip-path">
      <path id="Trazado_610742" data-name="Trazado 610742" d="M130,61.713a59.921,59.921,0,1,0,15.2-1.962A59.99,59.99,0,0,0,130,61.713" transform="translate(-85.163 -59.751)" fill="none" stroke="#624b7e" stroke-width="1"/>
    </clipPath>
    <clipPath id="clip-path-2">
      <rect id="Rectángulo_378827" data-name="Rectángulo 378827" width="58.844" height="46.782" fill="none"/>
    </clipPath>
  </defs>
  <g id="Grupo_1073774" data-name="Grupo 1073774" transform="translate(-757 -4900)">
    <g id="Grupo_1073765" data-name="Grupo 1073765" transform="translate(757 4900)">
      <g id="Grupo_1073704" data-name="Grupo 1073704">
        <g id="Grupo_1073463" data-name="Grupo 1073463" clip-path="url(#clip-path)">
          <line id="Línea_2945" data-name="Línea 2945" x1="141.717" y2="37.022" transform="translate(-26.188 -14.426)" fill="none" stroke="#624b7e" stroke-miterlimit="10" stroke-width="1.728"/>
          <line id="Línea_2946" data-name="Línea 2946" x1="141.716" y2="37.022" transform="translate(-23.944 -5.837)" fill="none" stroke="#624b7e" stroke-miterlimit="10" stroke-width="1.728"/>
          <line id="Línea_2947" data-name="Línea 2947" x1="141.716" y2="37.023" transform="translate(-21.7 2.751)" fill="none" stroke="#624b7e" stroke-miterlimit="10" stroke-width="1.728"/>
          <line id="Línea_2948" data-name="Línea 2948" x1="141.718" y2="37.023" transform="translate(-19.455 11.34)" fill="none" stroke="#624b7e" stroke-miterlimit="10" stroke-width="1.728"/>
          <line id="Línea_2949" data-name="Línea 2949" x1="141.716" y2="37.024" transform="translate(-17.211 19.929)" fill="none" stroke="#624b7e" stroke-miterlimit="10" stroke-width="1.728"/>
          <line id="Línea_2950" data-name="Línea 2950" x1="141.716" y2="37.023" transform="translate(-14.969 28.518)" fill="none" stroke="#624b7e" stroke-miterlimit="10" stroke-width="1.728"/>
          <line id="Línea_2951" data-name="Línea 2951" x1="141.717" y2="37.022" transform="translate(-12.724 37.108)" fill="none" stroke="#624b7e" stroke-miterlimit="10" stroke-width="1.728"/>
          <line id="Línea_2952" data-name="Línea 2952" x1="141.718" y2="37.022" transform="translate(-10.48 45.697)" fill="none" stroke="#624b7e" stroke-miterlimit="10" stroke-width="1.728"/>
          <line id="Línea_2953" data-name="Línea 2953" x1="141.716" y2="37.023" transform="translate(-8.237 54.285)" fill="none" stroke="#624b7e" stroke-miterlimit="10" stroke-width="1.728"/>
          <line id="Línea_2954" data-name="Línea 2954" x1="141.715" y2="37.023" transform="translate(-5.993 62.874)" fill="none" stroke="#624b7e" stroke-miterlimit="10" stroke-width="1.728"/>
          <line id="Línea_2955" data-name="Línea 2955" x1="141.716" y2="37.022" transform="translate(-3.749 71.464)" fill="none" stroke="#624b7e" stroke-miterlimit="10" stroke-width="1.728"/>
          <line id="Línea_2956" data-name="Línea 2956" x1="141.716" y2="37.022" transform="translate(-1.505 80.054)" fill="none" stroke="#624b7e" stroke-miterlimit="10" stroke-width="1.728"/>
          <line id="Línea_2957" data-name="Línea 2957" x1="141.718" y2="37.024" transform="translate(0.761 88.73)" fill="none" stroke="#624b7e" stroke-miterlimit="10" stroke-width="1.728"/>
          <line id="Línea_2958" data-name="Línea 2958" x1="141.717" y2="37.022" transform="translate(2.94 97.072)" fill="none" stroke="#624b7e" stroke-miterlimit="10" stroke-width="1.728"/>
          <line id="Línea_2959" data-name="Línea 2959" x1="141.717" y2="37.022" transform="translate(-27.38 -18.99)" fill="none" stroke="#624b7e" stroke-miterlimit="10" stroke-width="1.728"/>
          <line id="Línea_2960" data-name="Línea 2960" x1="141.716" y2="37.022" transform="translate(-25.136 -10.401)" fill="none" stroke="#624b7e" stroke-miterlimit="10" stroke-width="1.728"/>
          <line id="Línea_2961" data-name="Línea 2961" x1="141.716" y2="37.023" transform="translate(-22.892 -1.813)" fill="none" stroke="#624b7e" stroke-miterlimit="10" stroke-width="1.728"/>
          <line id="Línea_2962" data-name="Línea 2962" x1="141.718" y2="37.023" transform="translate(-20.648 6.776)" fill="none" stroke="#624b7e" stroke-miterlimit="10" stroke-width="1.728"/>
          <line id="Línea_2963" data-name="Línea 2963" x1="141.716" y2="37.023" transform="translate(-18.404 15.365)" fill="none" stroke="#624b7e" stroke-miterlimit="10" stroke-width="1.728"/>
          <line id="Línea_2964" data-name="Línea 2964" x1="141.716" y2="37.024" transform="translate(-16.162 23.954)" fill="none" stroke="#624b7e" stroke-miterlimit="10" stroke-width="1.728"/>
          <line id="Línea_2965" data-name="Línea 2965" x1="141.716" y2="37.021" transform="translate(-13.917 32.544)" fill="none" stroke="#624b7e" stroke-miterlimit="10" stroke-width="1.728"/>
          <line id="Línea_2966" data-name="Línea 2966" x1="141.718" y2="37.022" transform="translate(-11.673 41.132)" fill="none" stroke="#624b7e" stroke-miterlimit="10" stroke-width="1.728"/>
          <line id="Línea_2967" data-name="Línea 2967" x1="141.716" y2="37.022" transform="translate(-9.429 49.721)" fill="none" stroke="#624b7e" stroke-miterlimit="10" stroke-width="1.728"/>
          <line id="Línea_2968" data-name="Línea 2968" x1="141.715" y2="37.022" transform="translate(-7.186 58.31)" fill="none" stroke="#624b7e" stroke-miterlimit="10" stroke-width="1.728"/>
          <line id="Línea_2969" data-name="Línea 2969" x1="141.715" y2="37.022" transform="translate(-4.941 66.9)" fill="none" stroke="#624b7e" stroke-miterlimit="10" stroke-width="1.728"/>
          <line id="Línea_2970" data-name="Línea 2970" x1="141.716" y2="37.022" transform="translate(-2.698 75.489)" fill="none" stroke="#624b7e" stroke-miterlimit="10" stroke-width="1.728"/>
          <line id="Línea_2971" data-name="Línea 2971" x1="141.717" y2="37.023" transform="translate(-0.432 84.166)" fill="none" stroke="#624b7e" stroke-miterlimit="10" stroke-width="1.728"/>
          <line id="Línea_2972" data-name="Línea 2972" x1="141.716" y2="37.021" transform="translate(1.748 92.508)" fill="none" stroke="#624b7e" stroke-miterlimit="10" stroke-width="1.728"/>
        </g>
      </g>
      <g id="Grupo_1073705" data-name="Grupo 1073705" transform="translate(9.797 9.795)">
        <path id="Trazado_608385" data-name="Trazado 608385" d="M50.33,0A50.166,50.166,0,1,1,0,50.166,50.248,50.248,0,0,1,50.33,0Z" transform="translate(0 0)" fill="#fff"/>
      </g>
      <g id="Grupo_1073706" data-name="Grupo 1073706" transform="translate(97.541 39.055)">
        <path id="Trazado_611008" data-name="Trazado 611008" d="M7.807,23.89,20.6,10.78,0,5.99Z" transform="translate(0 -4.861)" fill="#474747"/>
        <path id="Trazado_611009" data-name="Trazado 611009" d="M15.041,16.829,28.765,3.886,7.771,0Z" transform="translate(-6.307 0)" fill="#79cbbf"/>
      </g>
      <g id="Grupo_1073707" data-name="Grupo 1073707" transform="translate(0 87.567)">
        <path id="Trazado_610799" data-name="Trazado 610799" d="M0,2.743,5.78,13.015l7.926-6.252,4.948,8.8,7.929-6.253,4.958,8.8,9.26-7.3L39.008,8.533l-6.6,5.2-4.958-8.8-7.927,6.251-4.948-8.8L6.644,8.645,2.524,1.323Z" transform="translate(0 -0.94)" fill="#474747"/>
        <path id="Trazado_610800" data-name="Trazado 610800" d="M12.91,0,10.387,1.42l5.779,10.272L24.092,5.44l4.947,8.8,7.93-6.253,4.957,8.8,9.26-7.3L49.394,7.211l-6.6,5.2-4.958-8.8L29.9,9.867l-4.948-8.8L17.03,7.323Z" transform="translate(-7.379 0)" fill="#fff4a9"/>
      </g>
      <path id="Trazado_611010" data-name="Trazado 611010" d="M19.556,9.623,5.175,2.789l-.329,8.785Z" transform="translate(5.712 13.709)" fill="none" stroke="#fd3cae" stroke-miterlimit="10" stroke-width="2"/>
    </g>
    <g id="Grupo_1074733" data-name="Grupo 1074733" transform="translate(787.578 4936.609)">
      <g id="Grupo_1074732" data-name="Grupo 1074732" clip-path="url(#clip-path-2)">
        <path id="Trazado_612647" data-name="Trazado 612647" d="M65.689,2.869,53.633,9.827c-2.62,1.515-6.912,3.993-9.535,5.506l-2.822,1.631V33.127l2.822,1.63c2.623,1.513,6.915,3.991,9.535,5.506l12.056,6.956c2.62,1.515,4.767.277,4.767-2.751V5.621c0-3.029-2.147-4.267-4.767-2.752" transform="translate(-30.709 -1.653)" fill="#00b1f1"/>
        <path id="Trazado_612648" data-name="Trazado 612648" d="M66.164,46.782a4.861,4.861,0,0,1-2.4-.726L51.706,39.1c-2.621-1.514-6.912-3.992-9.535-5.506l-2.822-1.63a.567.567,0,0,1-.283-.49V15.312a.567.567,0,0,1,.282-.49l2.822-1.631c2.623-1.513,6.915-3.991,9.535-5.506L63.762.726A3.872,3.872,0,0,1,67.694.4a3.874,3.874,0,0,1,1.684,3.57V42.816a3.873,3.873,0,0,1-1.684,3.569,3.022,3.022,0,0,1-1.53.4M40.2,31.148l2.539,1.466c2.623,1.513,6.914,3.991,9.535,5.506l12.056,6.956a2.361,2.361,0,0,0,3.919-2.261V3.969a2.817,2.817,0,0,0-1.118-2.59,2.814,2.814,0,0,0-2.8.328h0L52.272,8.664c-2.62,1.515-6.912,3.993-9.535,5.506L40.2,15.638ZM64.045,1.216h0Z" transform="translate(-29.064 -0.001)" fill="#482080"/>
        <rect id="Rectángulo_378826" data-name="Rectángulo 378826" width="13.854" height="21.012" transform="translate(0.566 12.879)" fill="#eb7fb1"/>
        <path id="Trazado_612649" data-name="Trazado 612649" d="M14.42,70.237H.566A.566.566,0,0,1,0,69.672V48.66a.566.566,0,0,1,.566-.566H14.42a.566.566,0,0,1,.566.566V69.672a.566.566,0,0,1-.566.566M1.132,69.106H13.854V49.226H1.132Z" transform="translate(0 -35.781)" fill="#482080"/>
        <path id="Trazado_612650" data-name="Trazado 612650" d="M171.485,75.621a.566.566,0,0,1-.317-1.035,9.14,9.14,0,0,0,.063-15.476.566.566,0,0,1,.64-.933,10.443,10.443,0,0,1,4.736,8.648,10.587,10.587,0,0,1-4.806,8.7.561.561,0,0,1-.316.1" transform="translate(-127.161 -43.208)" fill="#482080"/>
        <path id="Trazado_612651" data-name="Trazado 612651" d="M177.307,64.353a.566.566,0,0,1-.317-1.035,16.129,16.129,0,0,0,.112-27.3.566.566,0,0,1,.641-.933,17.574,17.574,0,0,1,7.969,14.545,17.8,17.8,0,0,1-8.088,14.622.562.562,0,0,1-.316.1" transform="translate(-131.492 -26.032)" fill="#482080"/>
        <path id="Trazado_612652" data-name="Trazado 612652" d="M187.509,57.44a.566.566,0,0,1-.317-1.035,20.817,20.817,0,0,0,9.6-17.318,20.825,20.825,0,0,0-9.464-17.229.566.566,0,1,1,.64-.933,21.939,21.939,0,0,1,9.955,18.162,22.22,22.22,0,0,1-10.1,18.256.562.562,0,0,1-.316.1" transform="translate(-139.082 -15.494)" fill="#482080"/>
      </g>
    </g>
  </g>
</svg>
