<svg xmlns="http://www.w3.org/2000/svg" xmlns:xlink="http://www.w3.org/1999/xlink" width="120" height="120" viewBox="0 0 120 120">
  <defs>
    <clipPath id="clip-path">
      <path id="Trazado_610742" data-name="Trazado 610742" d="M130,61.713a59.921,59.921,0,1,0,15.2-1.962A59.99,59.99,0,0,0,130,61.713" transform="translate(-85.163 -59.751)" fill="none" stroke="#624b7e" stroke-width="1"/>
    </clipPath>
    <clipPath id="clip-path-2">
      <rect id="Rectángulo_378825" data-name="Rectángulo 378825" width="44.671" height="67.944" fill="none"/>
    </clipPath>
  </defs>
  <g id="Grupo_1073773" data-name="Grupo 1073773" transform="translate(-757 -4900)">
    <g id="Grupo_1073765" data-name="Grupo 1073765" transform="translate(757 4900)">
      <g id="Grupo_1073704" data-name="Grupo 1073704">
        <g id="Grupo_1073463" data-name="Grupo 1073463" clip-path="url(#clip-path)">
          <line id="Línea_2945" data-name="Línea 2945" x1="141.717" y2="37.022" transform="translate(-26.188 -14.426)" fill="none" stroke="#624b7e" stroke-miterlimit="10" stroke-width="1.728"/>
          <line id="Línea_2946" data-name="Línea 2946" x1="141.716" y2="37.022" transform="translate(-23.944 -5.837)" fill="none" stroke="#624b7e" stroke-miterlimit="10" stroke-width="1.728"/>
          <line id="Línea_2947" data-name="Línea 2947" x1="141.716" y2="37.023" transform="translate(-21.7 2.751)" fill="none" stroke="#624b7e" stroke-miterlimit="10" stroke-width="1.728"/>
          <line id="Línea_2948" data-name="Línea 2948" x1="141.718" y2="37.023" transform="translate(-19.455 11.34)" fill="none" stroke="#624b7e" stroke-miterlimit="10" stroke-width="1.728"/>
          <line id="Línea_2949" data-name="Línea 2949" x1="141.716" y2="37.024" transform="translate(-17.211 19.929)" fill="none" stroke="#624b7e" stroke-miterlimit="10" stroke-width="1.728"/>
          <line id="Línea_2950" data-name="Línea 2950" x1="141.716" y2="37.023" transform="translate(-14.969 28.518)" fill="none" stroke="#624b7e" stroke-miterlimit="10" stroke-width="1.728"/>
          <line id="Línea_2951" data-name="Línea 2951" x1="141.717" y2="37.022" transform="translate(-12.724 37.108)" fill="none" stroke="#624b7e" stroke-miterlimit="10" stroke-width="1.728"/>
          <line id="Línea_2952" data-name="Línea 2952" x1="141.718" y2="37.022" transform="translate(-10.48 45.697)" fill="none" stroke="#624b7e" stroke-miterlimit="10" stroke-width="1.728"/>
          <line id="Línea_2953" data-name="Línea 2953" x1="141.716" y2="37.023" transform="translate(-8.237 54.285)" fill="none" stroke="#624b7e" stroke-miterlimit="10" stroke-width="1.728"/>
          <line id="Línea_2954" data-name="Línea 2954" x1="141.715" y2="37.023" transform="translate(-5.993 62.874)" fill="none" stroke="#624b7e" stroke-miterlimit="10" stroke-width="1.728"/>
          <line id="Línea_2955" data-name="Línea 2955" x1="141.716" y2="37.022" transform="translate(-3.749 71.464)" fill="none" stroke="#624b7e" stroke-miterlimit="10" stroke-width="1.728"/>
          <line id="Línea_2956" data-name="Línea 2956" x1="141.716" y2="37.022" transform="translate(-1.505 80.054)" fill="none" stroke="#624b7e" stroke-miterlimit="10" stroke-width="1.728"/>
          <line id="Línea_2957" data-name="Línea 2957" x1="141.718" y2="37.024" transform="translate(0.761 88.73)" fill="none" stroke="#624b7e" stroke-miterlimit="10" stroke-width="1.728"/>
          <line id="Línea_2958" data-name="Línea 2958" x1="141.717" y2="37.022" transform="translate(2.94 97.072)" fill="none" stroke="#624b7e" stroke-miterlimit="10" stroke-width="1.728"/>
          <line id="Línea_2959" data-name="Línea 2959" x1="141.717" y2="37.022" transform="translate(-27.38 -18.99)" fill="none" stroke="#624b7e" stroke-miterlimit="10" stroke-width="1.728"/>
          <line id="Línea_2960" data-name="Línea 2960" x1="141.716" y2="37.022" transform="translate(-25.136 -10.401)" fill="none" stroke="#624b7e" stroke-miterlimit="10" stroke-width="1.728"/>
          <line id="Línea_2961" data-name="Línea 2961" x1="141.716" y2="37.023" transform="translate(-22.892 -1.813)" fill="none" stroke="#624b7e" stroke-miterlimit="10" stroke-width="1.728"/>
          <line id="Línea_2962" data-name="Línea 2962" x1="141.718" y2="37.023" transform="translate(-20.648 6.776)" fill="none" stroke="#624b7e" stroke-miterlimit="10" stroke-width="1.728"/>
          <line id="Línea_2963" data-name="Línea 2963" x1="141.716" y2="37.023" transform="translate(-18.404 15.365)" fill="none" stroke="#624b7e" stroke-miterlimit="10" stroke-width="1.728"/>
          <line id="Línea_2964" data-name="Línea 2964" x1="141.716" y2="37.024" transform="translate(-16.162 23.954)" fill="none" stroke="#624b7e" stroke-miterlimit="10" stroke-width="1.728"/>
          <line id="Línea_2965" data-name="Línea 2965" x1="141.716" y2="37.021" transform="translate(-13.917 32.544)" fill="none" stroke="#624b7e" stroke-miterlimit="10" stroke-width="1.728"/>
          <line id="Línea_2966" data-name="Línea 2966" x1="141.718" y2="37.022" transform="translate(-11.673 41.132)" fill="none" stroke="#624b7e" stroke-miterlimit="10" stroke-width="1.728"/>
          <line id="Línea_2967" data-name="Línea 2967" x1="141.716" y2="37.022" transform="translate(-9.429 49.721)" fill="none" stroke="#624b7e" stroke-miterlimit="10" stroke-width="1.728"/>
          <line id="Línea_2968" data-name="Línea 2968" x1="141.715" y2="37.022" transform="translate(-7.186 58.31)" fill="none" stroke="#624b7e" stroke-miterlimit="10" stroke-width="1.728"/>
          <line id="Línea_2969" data-name="Línea 2969" x1="141.715" y2="37.022" transform="translate(-4.941 66.9)" fill="none" stroke="#624b7e" stroke-miterlimit="10" stroke-width="1.728"/>
          <line id="Línea_2970" data-name="Línea 2970" x1="141.716" y2="37.022" transform="translate(-2.698 75.489)" fill="none" stroke="#624b7e" stroke-miterlimit="10" stroke-width="1.728"/>
          <line id="Línea_2971" data-name="Línea 2971" x1="141.717" y2="37.023" transform="translate(-0.432 84.166)" fill="none" stroke="#624b7e" stroke-miterlimit="10" stroke-width="1.728"/>
          <line id="Línea_2972" data-name="Línea 2972" x1="141.716" y2="37.021" transform="translate(1.748 92.508)" fill="none" stroke="#624b7e" stroke-miterlimit="10" stroke-width="1.728"/>
        </g>
      </g>
      <g id="Grupo_1073705" data-name="Grupo 1073705" transform="translate(9.797 9.795)">
        <path id="Trazado_608385" data-name="Trazado 608385" d="M50.33,0A50.166,50.166,0,1,1,0,50.166,50.248,50.248,0,0,1,50.33,0Z" transform="translate(0 0)" fill="#fff"/>
      </g>
      <g id="Grupo_1073706" data-name="Grupo 1073706" transform="translate(97.541 39.055)">
        <path id="Trazado_611008" data-name="Trazado 611008" d="M7.807,23.89,20.6,10.78,0,5.99Z" transform="translate(0 -4.861)" fill="#474747"/>
        <path id="Trazado_611009" data-name="Trazado 611009" d="M15.041,16.829,28.765,3.886,7.771,0Z" transform="translate(-6.307 0)" fill="#79cbbf"/>
      </g>
      <g id="Grupo_1073707" data-name="Grupo 1073707" transform="translate(0 87.567)">
        <path id="Trazado_610799" data-name="Trazado 610799" d="M0,2.743,5.78,13.015l7.926-6.252,4.948,8.8,7.929-6.253,4.958,8.8,9.26-7.3L39.008,8.533l-6.6,5.2-4.958-8.8-7.927,6.251-4.948-8.8L6.644,8.645,2.524,1.323Z" transform="translate(0 -0.94)" fill="#474747"/>
        <path id="Trazado_610800" data-name="Trazado 610800" d="M12.91,0,10.387,1.42l5.779,10.272L24.092,5.44l4.947,8.8,7.93-6.253,4.957,8.8,9.26-7.3L49.394,7.211l-6.6,5.2-4.958-8.8L29.9,9.867l-4.948-8.8L17.03,7.323Z" transform="translate(-7.379 0)" fill="#fff4a9"/>
      </g>
      <path id="Trazado_611010" data-name="Trazado 611010" d="M19.556,9.623,5.175,2.789l-.329,8.785Z" transform="translate(5.712 13.709)" fill="none" stroke="#fd3cae" stroke-miterlimit="10" stroke-width="2"/>
    </g>
    <g id="Grupo_1074731" data-name="Grupo 1074731" transform="translate(797 4923.27)">
      <g id="Grupo_1074730" data-name="Grupo 1074730" clip-path="url(#clip-path-2)">
        <path id="Trazado_612643" data-name="Trazado 612643" d="M25.648,171.872c1.352,4.612-2.739,9.87-9.139,11.743s-12.682-.341-14.032-4.951,2.739-9.868,9.139-11.744,12.681.341,14.033,4.952" transform="translate(-1.561 -116.996)" fill="#00b1f1"/>
        <path id="Trazado_612644" data-name="Trazado 612644" d="M10.4,183.4a13.781,13.781,0,0,1-4.577-.749,8.29,8.29,0,0,1-5.533-5.342,8.289,8.289,0,0,1,1.774-7.484A15.329,15.329,0,0,1,9.87,164.75c6.734-1.974,13.395.447,14.845,5.4h0a8.3,8.3,0,0,1-1.774,7.485,15.316,15.316,0,0,1-7.809,5.07,16.873,16.873,0,0,1-4.734.7m4.209-18.033a15.575,15.575,0,0,0-4.368.641,14.018,14.018,0,0,0-7.144,4.621,7.022,7.022,0,0,0-1.551,6.311,7.022,7.022,0,0,0,4.712,4.475,14,14,0,0,0,8.508.031,14,14,0,0,0,7.144-4.617,7.027,7.027,0,0,0,1.551-6.313c-.941-3.21-4.545-5.15-8.852-5.15" transform="translate(0 -115.455)" fill="#482080"/>
        <path id="Trazado_612645" data-name="Trazado 612645" d="M82.174,58.408V2.212s1,2.717,5.022,3.639c5.327,1.222,14.648,4.55,14.648,13.474" transform="translate(-57.828 -1.557)" fill="#fff"/>
        <path id="Trazado_612646" data-name="Trazado 612646" d="M80.619,57.506a.655.655,0,0,1-.655-.655V.655A.655.655,0,0,1,81.233.429c.036.093.959,2.4,4.554,3.226,5.661,1.3,15.157,4.859,15.157,14.113a.655.655,0,0,1-1.31,0c0-8.346-8.859-11.625-14.14-12.836a8.5,8.5,0,0,1-4.221-2.219V56.851a.655.655,0,0,1-.655.655" transform="translate(-56.273 0)" fill="#482080"/>
      </g>
    </g>
  </g>
</svg>
