<svg xmlns="http://www.w3.org/2000/svg" xmlns:xlink="http://www.w3.org/1999/xlink" width="377.26" height="299.168" viewBox="0 0 377.26 299.168">
  <defs>
    <clipPath id="clip-path">
      <rect id="Rectángulo_378816" data-name="Rectángulo 378816" width="377.26" height="299.168" fill="none"/>
    </clipPath>
  </defs>
  <g id="Grupo_1074713" data-name="Grupo 1074713" transform="translate(0 0)">
    <g id="Grupo_1074712" data-name="Grupo 1074712" transform="translate(0 0)" clip-path="url(#clip-path)">
      <path id="Trazado_612493" data-name="Trazado 612493" d="M0,299.168H58.124c.3-2.9.578-5.667.813-8.173.861-9.391,9.8-41.476,13.638-72.7-.468,10.926.711,18.914,5.09,25.106,4,5.669,4.62,44.02,5.855,52.664.147,1.035.265,2.069.394,3.1H292.823c.088-.747.173-1.493.263-2.242,2.152-17.735,3.985-35.677,4.827-53.524,7-6.286,6.959-15.79,6.773-25.106,3.835,31.224,12.778,63.309,13.638,72.7.235,2.506.515,5.268.814,8.173H377.26c-.216-.935-1.821-38.836-2.57-56.683-2.263-53.8-5.033-124.819-38.126-170.13-9.635-13.226-35.377-21.066-58.837-27.276-23.442-6.23-43.964-9.766-51.6-22.6a1.636,1.636,0,0,0-.8-.337l.579-.037C224.5,18.521,223.715,4.548,223.69,0H151.9c0,7.652-1.937,18.85-4.5,22.909l-.018.019c-.411.692-.86,1.346-1.31,1.983-.15.225-.318.43-.468.654-8.044,10.8-27.969,14.8-49.726,20.579C72.425,52.356,49.9,61.28,40.249,74.488,10,115.944,5.1,180.992,2.981,230.886,1.578,264.224.217,298.233,0,299.168" fill="#727997"/>
      <path id="Trazado_612494" data-name="Trazado 612494" d="M222.883,330.3a4.307,4.307,0,0,1-4.121-3.069c-6.637-22.122-7.168-54.714-6.392-66.186,1.241-18.358,5.518-39.21,12.043-58.717,9.366-28.008,25.848-54.12,43.012-68.147a4.3,4.3,0,1,1,5.448,6.666c-15.733,12.857-31.55,38.061-40.3,64.211-6.3,18.831-10.424,38.921-11.617,56.567-.828,12.226.1,43.294,6.047,63.131a4.31,4.31,0,0,1-4.124,5.543" transform="translate(-134.482 -84.461)" fill="#f57a76"/>
      <path id="Trazado_612495" data-name="Trazado 612495" d="M700.089,330.643a4.31,4.31,0,0,1-4.174-5.371c3.244-12.706,7.932-51.914,5.817-72.158-2.533-24.25-6.323-42.79-11.265-55.106-6.882-17.152-22.962-42.843-39.206-56.672a4.3,4.3,0,0,1,5.58-6.556c17.481,14.883,34.167,41.46,41.615,60.022,5.239,13.056,9.223,32.375,11.838,57.418,2.207,21.128-2.664,61.965-6.038,75.183a4.307,4.307,0,0,1-4.168,3.241" transform="translate(-411.977 -84.807)" fill="#f57a76"/>
      <path id="Trazado_612496" data-name="Trazado 612496" d="M610.883,565.829a.078.078,0,0,0,.006-.026.118.118,0,0,0,.012-.028.158.158,0,0,1-.018.054" transform="translate(-387.335 -358.734)" fill="#ef6d6d"/>
      <path id="Trazado_612497" data-name="Trazado 612497" d="M535.2,192.793a22.821,22.821,0,0,1,3.962,3.8c2.75,2.806,5.408,5.707,8.272,8.4,3.3,3.109,10.863,10.616,11.472,11.466,2.118,2.966,1.905,16.524,1.542,17.868A15.054,15.054,0,0,1,555.2,242.3c4.336-1.045,5.828-6.022,6.217-5.633s.1,6.777,5.535,9.884c-2.541-4.024-3.343-8.868-3.812-11.015-.641-2.926-1.122-14.618-.423-14.618.582,0,8.54,12.282,10.168,15.889.088.2.176.389.262.579,2.829,6.218,10.838,16.742,12.072,23.324.582,3.1,1.783,8.226-5.291,12.778,7.839-1.06,7.711-7.723,9.07-6.751s4.278,16.919-2.079,23.91c9.322-5.931,5.225-17.619,6.78-18.008s2.966,6.356,12.5,4.662c-6.355-1.06-10.083-6.335-11.651-8.686-2.118-3.179-7.6-14.525-9.19-17.64-3.839-7.541-7.3-12.313-6.328-12.9s3.563.92,7.449,1.5c2.613.392,7.575-.195,10.684,3.3-1.564-4.77-5.856-4.334-6.245-5.306-.183-.454,7.624-5.483,13.108-6.954-4.682-.536-7.413,2.348-8.158,1.872-.726-.461,3.343-6.956-.134-11.637,1.738,8.294-4.013,13.643-7.224,14.313-3.333.694-7.469-1.06-9.771-2.914a7.568,7.568,0,0,1-1.193-1.171c-2.33-2.966-4.375-8.525-9.039-15.324-4.277-6.24-8.836-11.147-9.419-13.091s2.136-6.993,4.856-8.742,9.131-1.359,11.655-6.41c-2.913,3.109-6.023,2.264-7.769,2.331-2.863.109-5.634,1.748-6.411.972s-1.166-10.88,1.942-16.514c-4.661,3.691-3.108,8.936-4.079,8.936s-1.555-2.72-5.051-5.439c2.137,2.914,4.273,9.52,3.884,12.433s-3.873,8.71-4.932,8.221c-1.577-.727-6.789-6.3-11.375-12.705Z" transform="translate(-339.345 -110.519)" fill="#9696a8"/>
      <path id="Trazado_612498" data-name="Trazado 612498" d="M480.652,48.09c0-6.6-.057-13.563-.093-18.876,0,0,.171-18.8.314-29.214h-14c-.342,21.758-.636,52.7-.609,58.847.018.262.037.524.037.785,0,7.453-9.444,18.167-14.563,25.09A45.348,45.348,0,0,1,454.5,95.211c1.1-1.605,2.209-3.212,3.323-4.766,4.379-6.1,9.992-12.572,19.046-10.215a26.507,26.507,0,0,1,5.775,2.89l5.675-7.885c-4.116-5.743-7.728-12.16-7.746-16.388.057-3.2.075-6.921.075-10.757" transform="translate(-286.429)" fill="#ff6e81"/>
      <path id="Trazado_612499" data-name="Trazado 612499" d="M552.828,231.821a34.649,34.649,0,0,1,6.392-7.09.4.4,0,0,1,.517.12c.641.717,1.848,2.042,2.4,2.676a.387.387,0,0,1,.042.521,83.249,83.249,0,0,0-6.458,6.594.361.361,0,0,1-.535-.023c-.646-.6-1.7-1.736-2.252-2.329a.416.416,0,0,1-.106-.47" transform="translate(-350.501 -142.457)" fill="#ffe4d9"/>
      <path id="Trazado_612500" data-name="Trazado 612500" d="M538,215.035A23.788,23.788,0,0,1,544.339,208a.4.4,0,0,1,.509.113c.626.7,1.806,1.988,2.344,2.606a.379.379,0,0,1,.037.512,84.058,84.058,0,0,0-6.4,6.552.355.355,0,0,1-.527-.017c-.632-.579-1.658-1.69-2.2-2.266a.42.42,0,0,1-.1-.461" transform="translate(-341.102 -131.848)" fill="#ffe4d9"/>
      <path id="Trazado_612501" data-name="Trazado 612501" d="M538,215.035A23.788,23.788,0,0,1,544.339,208a.4.4,0,0,1,.509.113c.626.7,1.806,1.988,2.344,2.606a.379.379,0,0,1,.037.512,84.058,84.058,0,0,0-6.4,6.552.355.355,0,0,1-.527-.017c-.632-.579-1.658-1.69-2.2-2.266a.42.42,0,0,1-.1-.461" transform="translate(-341.102 -131.848)" fill="#ffe4d9"/>
      <path id="Trazado_612502" data-name="Trazado 612502" d="M454.428,237.883a31.841,31.841,0,0,0-6.915-5.99c-.141-.09-.36.007-.488.192-.546.792-1.577,2.258-2.045,2.956a.381.381,0,0,0,.014.514,76.465,76.465,0,0,1,6.927,5.5c.126.132.359.087.516-.1.563-.674,1.461-1.938,1.937-2.6a.419.419,0,0,0,.054-.474" transform="translate(-282.085 -147.012)" fill="#ffe4d9"/>
      <path id="Trazado_612503" data-name="Trazado 612503" d="M251.147,585.167a38.145,38.145,0,0,1-1.312-7.262,21.4,21.4,0,0,1,.964-8.083,22.361,22.361,0,0,1,4.052-7.289,30.574,30.574,0,0,1,5.941-5.457,55.224,55.224,0,0,1,13.751-6.758,111.365,111.365,0,0,1,14.38-3.841A308.214,308.214,0,0,1,347.08,541.2a337.822,337.822,0,0,1,58.077,5.2,90.433,90.433,0,0,1,14.522,3.656,46.931,46.931,0,0,1,13.685,7.165,24.411,24.411,0,0,1,9.987,21.194,44.552,44.552,0,0,1-1.091,7.42l-.019.087a2.039,2.039,0,0,1-4.032-.424c-.014-4.935-.081-9.313-1.493-13.283a21.3,21.3,0,0,0-7.313-9.943,40.632,40.632,0,0,0-11.859-6.06,84.184,84.184,0,0,0-13.5-3.293,330.741,330.741,0,0,0-56.969-4.64,305.033,305.033,0,0,0-56.842,4.743,104.962,104.962,0,0,0-13.545,3.52,48.916,48.916,0,0,0-12.155,5.838,19.485,19.485,0,0,0-7.684,9.483,27.093,27.093,0,0,0-1.312,6.126c-.255,2.211-.28,4.54-.783,7.175a1.837,1.837,0,0,1-3.581.123Z" transform="translate(-158.376 -343.154)" fill="#fff947"/>
      <path id="Trazado_612504" data-name="Trazado 612504" d="M356.628,130.884c3.189-2.42,6.961-2.818,8.425-.89s.065,5.454-3.124,7.875-6.961,2.819-8.425.89-.066-5.455,3.124-7.875" transform="translate(-223.774 -81.649)" fill="#ffe4d9"/>
      <path id="Trazado_612505" data-name="Trazado 612505" d="M304.987,189.192c2.409-3.2,5.929-4.609,7.863-3.153s1.55,5.23-.859,8.428-5.929,4.609-7.863,3.153-1.55-5.23.859-8.428" transform="translate(-192.053 -117.596)" fill="#ffe4d9"/>
      <path id="Trazado_612506" data-name="Trazado 612506" d="M262.786,263.043c1.909-3.519,5.182-5.436,7.311-4.281s2.306,4.943.4,8.462-5.182,5.436-7.311,4.281-2.306-4.944-.4-8.462" transform="translate(-165.782 -163.857)" fill="#ffe4d9"/>
      <path id="Trazado_612507" data-name="Trazado 612507" d="M233.276,349.23c1.309-3.784,4.225-6.209,6.514-5.417s3.082,4.5,1.773,8.284-4.225,6.209-6.513,5.417-3.082-4.5-1.773-8.284" transform="translate(-147.51 -217.902)" fill="#ffe4d9"/>
      <path id="Trazado_612508" data-name="Trazado 612508" d="M216.321,433.242c.648-3.951,3.111-6.835,5.5-6.444s3.8,3.913,3.152,7.863-3.111,6.835-5.5,6.444-3.8-3.913-3.153-7.863" transform="translate(-137.06 -270.592)" fill="#ffe4d9"/>
      <path id="Trazado_612509" data-name="Trazado 612509" d="M211.913,517.355c.086-4,2.119-7.205,4.54-7.153s4.314,3.339,4.227,7.342-2.119,7.205-4.54,7.153-4.314-3.339-4.227-7.342" transform="translate(-134.363 -323.497)" fill="#ffe4d9"/>
      <path id="Trazado_612510" data-name="Trazado 612510" d="M219.275,601.011c-.576-3.962.9-7.456,3.3-7.8s4.806,2.581,5.382,6.542-.9,7.456-3.3,7.8-4.806-2.581-5.382-6.543" transform="translate(-138.954 -376.109)" fill="#ffe4d9"/>
      <path id="Trazado_612511" data-name="Trazado 612511" d="M652.34,131.191c-3.189-2.42-6.961-2.818-8.425-.89s-.065,5.454,3.124,7.875,6.961,2.819,8.425.89.065-5.455-3.124-7.875" transform="translate(-407.911 -81.844)" fill="#ffe4d9"/>
      <path id="Trazado_612512" data-name="Trazado 612512" d="M707.386,189.192c-2.409-3.2-5.929-4.609-7.863-3.153s-1.55,5.23.859,8.428,5.929,4.609,7.864,3.153,1.55-5.23-.859-8.428" transform="translate(-442.756 -117.596)" fill="#ffe4d9"/>
      <path id="Trazado_612513" data-name="Trazado 612513" d="M754.1,263.043c-1.909-3.519-5.183-5.436-7.311-4.281s-2.306,4.943-.4,8.462,5.182,5.436,7.311,4.281,2.306-4.944.4-8.462" transform="translate(-472.415 -163.857)" fill="#ffe4d9"/>
      <path id="Trazado_612514" data-name="Trazado 612514" d="M785.567,349.325c-1.107-3.848-3.89-6.424-6.217-5.755s-3.317,4.331-2.21,8.178,3.89,6.424,6.217,5.755,3.317-4.331,2.21-8.178" transform="translate(-492.464 -217.776)" fill="#ffe4d9"/>
      <path id="Trazado_612515" data-name="Trazado 612515" d="M799.369,433.35c-.514-3.97-2.877-6.937-5.279-6.626s-3.932,3.781-3.418,7.752,2.877,6.937,5.278,6.626,3.932-3.781,3.418-7.752" transform="translate(-501.269 -270.553)" fill="#ffe4d9"/>
      <path id="Trazado_612516" data-name="Trazado 612516" d="M800.676,517.609c.143-4-1.7-7.315-4.122-7.4s-4.5,3.086-4.642,7.087,1.7,7.315,4.122,7.4,4.5-3.086,4.642-7.087" transform="translate(-502.113 -323.499)" fill="#ffe4d9"/>
      <path id="Trazado_612517" data-name="Trazado 612517" d="M792.269,600.916c.506-3.971-1.03-7.439-3.432-7.746s-4.76,2.665-5.266,6.636,1.03,7.439,3.432,7.745,4.76-2.665,5.266-6.636" transform="translate(-496.767 -376.09)" fill="#ffe4d9"/>
      <path id="Trazado_612518" data-name="Trazado 612518" d="M551.948,136.287c-10.275,1.242-9,10.886-15.164,18.9-.476.62-5.79,8.5-6.725,10.105-3.884,7.223-6.083,17.089-4.428,29.084,3.336,24.174,26.685,39.352,30.744,53.591s-10.723,25.856-3.525,32.226c5.257,4.653,16.239,4.122,27.967,6.371s27.966,8.072,35.634,3.59,3.609-60.923-8.12-90.151-41.047-65.576-56.384-63.722" transform="translate(-332.927 -86.37)" fill="#ff6e81"/>
      <path id="Trazado_612519" data-name="Trazado 612519" d="M327.164,157.967c-5.127-8.178-.816-20.368-13.877-21.122-15.564-.9-43.261,29.42-57.137,70.909s-13.876,79.207-8.163,82.979,37.548-4.526,49.791-6.035,25.3-1.508,29.385-6.035,6.473-42.575,6.539-55.068c.113-21.363-.4-40.984-2.847-53.872-.39-2.209-1.858-8.832-3.692-11.757" transform="translate(-154.96 -86.755)" fill="#ff6e81"/>
      <rect id="Rectángulo_378813" data-name="Rectángulo 378813" width="8.933" height="13.643" transform="translate(182.767 218.043)" fill="#fff947"/>
      <path id="Trazado_612520" data-name="Trazado 612520" d="M490.954,627.065l7.572,13.114,7.573-13.114Z" transform="translate(-311.293 -397.595)" fill="#fff947"/>
      <rect id="Rectángulo_378814" data-name="Rectángulo 378814" width="13.643" height="8.933" transform="translate(223.491 235.277) rotate(-69.29)" fill="#fff947"/>
      <path id="Trazado_612521" data-name="Trazado 612521" d="M604.93,634.269l2.446,14.944,11.72-9.589Z" transform="translate(-383.561 -402.163)" fill="#fff947"/>
      <rect id="Rectángulo_378815" data-name="Rectángulo 378815" width="8.933" height="13.643" transform="translate(137.795 225.675) rotate(-20.71)" fill="#fff947"/>
      <path id="Trazado_612522" data-name="Trazado 612522" d="M379.652,639.624l11.72,9.589,2.446-14.944Z" transform="translate(-240.721 -402.163)" fill="#fff947"/>
      <path id="Trazado_612523" data-name="Trazado 612523" d="M575.794,210.689c-2.5-26.242-13.171-48.89-21.683-63.268-6.81-11.5-18.693-27.983-29.769-36.565-9.081-7.036-16.924-13.112-16.924-27.272V45.462h2.806V83.585c0,12.167,6.018,17.446,15.837,25.053,11.388,8.824,23.529,25.637,30.465,37.354,8.657,14.625,19.512,37.674,22.062,64.432Z" transform="translate(-321.733 -28.826)" fill="#2d44ed"/>
      <path id="Trazado_612524" data-name="Trazado 612524" d="M687.262,489.5l4.508,13.768,2.981-14.178Z" transform="translate(-435.764 -310.109)" fill="#2d44ed"/>
      <path id="Trazado_612525" data-name="Trazado 612525" d="M575.5,268.3c-.284-2.972-.434-6.088-.581-9.1-.46-9.5-.936-19.331-5.7-24.566l2.075-1.889c5.446,5.981,5.946,16.32,6.43,26.319.144,2.981.293,6.064.571,8.97Z" transform="translate(-360.919 -147.57)" fill="#2d44ed"/>
      <path id="Trazado_612526" data-name="Trazado 612526" d="M586.557,320.686l-1.068,14.448-6.3-13.046Z" transform="translate(-367.239 -203.333)" fill="#2d44ed"/>
      <path id="Trazado_612527" data-name="Trazado 612527" d="M612.536,264.378c-10.807-21.62-32.058-31.637-47.575-38.95-6.876-3.241-12.815-6.04-16.661-9.2l1.782-2.167c3.576,2.939,9.368,5.669,16.075,8.83,15.888,7.489,37.647,17.745,48.888,40.234Z" transform="translate(-347.654 -135.726)" fill="#2d44ed"/>
      <path id="Trazado_612528" data-name="Trazado 612528" d="M721.773,339.647l1.785,14.377-8.735-11.558Z" transform="translate(-453.238 -215.355)" fill="#2d44ed"/>
      <path id="Trazado_612529" data-name="Trazado 612529" d="M357.363,204.115l-2.806-.037a144.534,144.534,0,0,1,14.321-60.84c7.121-14.676,16.759-27.611,25.781-34.6,9.819-7.607,15.836-12.887,15.836-25.053V45.462H413.3V83.585c0,14.159-7.843,20.236-16.923,27.272-8.7,6.738-18.034,19.3-24.975,33.607a141.7,141.7,0,0,0-14.04,59.652" transform="translate(-224.809 -28.826)" fill="#2d44ed"/>
      <path id="Trazado_612530" data-name="Trazado 612530" d="M348.17,471.915l4.045,13.912,3.454-14.07Z" transform="translate(-220.759 -299.121)" fill="#2d44ed"/>
      <path id="Trazado_612531" data-name="Trazado 612531" d="M438.462,272.667l-2.8-.13c.194-4.188-.007-8.695-.2-13.052-.48-10.812-.934-21.025,4.275-26.746l2.075,1.889c-4.429,4.864-4,14.514-3.546,24.731.2,4.421.4,8.992.2,13.307" transform="translate(-275.932 -147.57)" fill="#2d44ed"/>
      <path id="Trazado_612532" data-name="Trazado 612532" d="M438.319,334.266l-5.978,13.2-1.422-14.418Z" transform="translate(-273.227 -211.17)" fill="#2d44ed"/>
      <path id="Trazado_612533" data-name="Trazado 612533" d="M416.171,208c-4.2,0-8.409-2.036-12.511-4.02-3.56-1.721-7.241-3.5-10.956-4.043l.4-2.777c4.142.6,8.021,2.48,11.772,4.294,5.037,2.436,9.795,4.737,14.134,3.291l.887,2.663a11.714,11.714,0,0,1-3.732.592" transform="translate(-248.997 -125.013)" fill="#2d44ed"/>
      <path id="Trazado_612534" data-name="Trazado 612534" d="M377.232,198.177l-14.446-1.1,13.06-6.272Z" transform="translate(-230.027 -120.981)" fill="#2d44ed"/>
      <path id="Trazado_612535" data-name="Trazado 612535" d="M305.362,263.962l-2.608-1.037c9.631-24.223,30.56-33.751,45.841-40.709,6.247-2.844,11.641-5.3,15.118-8.158l1.782,2.168c-3.761,3.091-9.311,5.618-15.737,8.544-15.675,7.137-35.183,16.019-44.4,39.192" transform="translate(-191.963 -135.725)" fill="#2d44ed"/>
      <path id="Trazado_612536" data-name="Trazado 612536" d="M305.053,341.617,297.3,353.854l.6-14.475Z" transform="translate(-188.503 -215.185)" fill="#2d44ed"/>
      <path id="Trazado_612537" data-name="Trazado 612537" d="M558.791,208a11.713,11.713,0,0,1-3.732-.592l.887-2.663c4.34,1.445,9.1-.855,14.134-3.291,3.751-1.814,7.63-3.69,11.772-4.294l.4,2.777c-3.714.542-7.4,2.322-10.955,4.043-4.1,1.984-8.313,4.02-12.511,4.02" transform="translate(-351.939 -125.013)" fill="#2d44ed"/>
      <path id="Trazado_612538" data-name="Trazado 612538" d="M621.211,190.8l13.06,6.272-14.446,1.1Z" transform="translate(-393.004 -120.981)" fill="#2d44ed"/>
    </g>
  </g>
</svg>
