<svg xmlns="http://www.w3.org/2000/svg" xmlns:xlink="http://www.w3.org/1999/xlink" width="139.02" height="139.398" viewBox="0 0 139.02 139.398">
  <defs>
    <clipPath id="clip-path">
      <path id="Trazado_610742" data-name="Trazado 610742" d="M137.107,62.03a69.352,69.352,0,1,0,17.608-2.279,69.7,69.7,0,0,0-17.608,2.279" transform="translate(-85.163 -59.751)" fill="none" stroke="#624b7e" stroke-width="1"/>
    </clipPath>
  </defs>
  <g id="Grupo_1073730" data-name="Grupo 1073730" transform="translate(-322.49 -6391)">
    <g id="Grupo_1073730-2" data-name="Grupo 1073730" transform="translate(322.49 6391)">
      <g id="Grupo_1073704" data-name="Grupo 1073704">
        <g id="Grupo_1073463" data-name="Grupo 1073463" clip-path="url(#clip-path)">
          <line id="Línea_2945" data-name="Línea 2945" x1="164.179" y2="43.007" transform="translate(-30.339 -16.758)" fill="none" stroke="#624b7e" stroke-miterlimit="10" stroke-width="1.728"/>
          <line id="Línea_2946" data-name="Línea 2946" x1="164.178" y2="43.007" transform="translate(-27.739 -6.781)" fill="none" stroke="#624b7e" stroke-miterlimit="10" stroke-width="1.728"/>
          <line id="Línea_2947" data-name="Línea 2947" x1="164.178" y2="43.008" transform="translate(-25.139 3.196)" fill="none" stroke="#624b7e" stroke-miterlimit="10" stroke-width="1.728"/>
          <line id="Línea_2948" data-name="Línea 2948" x1="164.18" y2="43.008" transform="translate(-22.539 13.173)" fill="none" stroke="#624b7e" stroke-miterlimit="10" stroke-width="1.728"/>
          <line id="Línea_2949" data-name="Línea 2949" x1="164.178" y2="43.009" transform="translate(-19.939 23.151)" fill="none" stroke="#624b7e" stroke-miterlimit="10" stroke-width="1.728"/>
          <line id="Línea_2950" data-name="Línea 2950" x1="164.178" y2="43.008" transform="translate(-17.342 33.128)" fill="none" stroke="#624b7e" stroke-miterlimit="10" stroke-width="1.728"/>
          <line id="Línea_2951" data-name="Línea 2951" x1="164.179" y2="43.007" transform="translate(-14.741 43.106)" fill="none" stroke="#624b7e" stroke-miterlimit="10" stroke-width="1.728"/>
          <line id="Línea_2952" data-name="Línea 2952" x1="164.18" y2="43.007" transform="translate(-12.141 53.083)" fill="none" stroke="#624b7e" stroke-miterlimit="10" stroke-width="1.728"/>
          <line id="Línea_2953" data-name="Línea 2953" x1="164.178" y2="43.008" transform="translate(-9.542 63.06)" fill="none" stroke="#624b7e" stroke-miterlimit="10" stroke-width="1.728"/>
          <line id="Línea_2954" data-name="Línea 2954" x1="164.177" y2="43.007" transform="translate(-6.943 73.038)" fill="none" stroke="#624b7e" stroke-miterlimit="10" stroke-width="1.728"/>
          <line id="Línea_2955" data-name="Línea 2955" x1="164.178" y2="43.007" transform="translate(-4.343 83.016)" fill="none" stroke="#624b7e" stroke-miterlimit="10" stroke-width="1.728"/>
          <line id="Línea_2956" data-name="Línea 2956" x1="164.178" y2="43.006" transform="translate(-1.744 92.995)" fill="none" stroke="#624b7e" stroke-miterlimit="10" stroke-width="1.728"/>
          <line id="Línea_2957" data-name="Línea 2957" x1="164.18" y2="43.009" transform="translate(0.881 103.073)" fill="none" stroke="#624b7e" stroke-miterlimit="10" stroke-width="1.728"/>
          <line id="Línea_2958" data-name="Línea 2958" x1="164.179" y2="43.006" transform="translate(3.407 112.764)" fill="none" stroke="#624b7e" stroke-miterlimit="10" stroke-width="1.728"/>
          <line id="Línea_2959" data-name="Línea 2959" x1="164.179" y2="43.007" transform="translate(-31.72 -22.06)" fill="none" stroke="#624b7e" stroke-miterlimit="10" stroke-width="1.728"/>
          <line id="Línea_2960" data-name="Línea 2960" x1="164.178" y2="43.007" transform="translate(-29.12 -12.083)" fill="none" stroke="#624b7e" stroke-miterlimit="10" stroke-width="1.728"/>
          <line id="Línea_2961" data-name="Línea 2961" x1="164.178" y2="43.007" transform="translate(-26.521 -2.106)" fill="none" stroke="#624b7e" stroke-miterlimit="10" stroke-width="1.728"/>
          <line id="Línea_2962" data-name="Línea 2962" x1="164.18" y2="43.008" transform="translate(-23.921 7.872)" fill="none" stroke="#624b7e" stroke-miterlimit="10" stroke-width="1.728"/>
          <line id="Línea_2963" data-name="Línea 2963" x1="164.178" y2="43.008" transform="translate(-21.321 17.849)" fill="none" stroke="#624b7e" stroke-miterlimit="10" stroke-width="1.728"/>
          <line id="Línea_2964" data-name="Línea 2964" x1="164.178" y2="43.009" transform="translate(-18.723 27.826)" fill="none" stroke="#624b7e" stroke-miterlimit="10" stroke-width="1.728"/>
          <line id="Línea_2965" data-name="Línea 2965" x1="164.178" y2="43.006" transform="translate(-16.123 37.804)" fill="none" stroke="#624b7e" stroke-miterlimit="10" stroke-width="1.728"/>
          <line id="Línea_2966" data-name="Línea 2966" x1="164.18" y2="43.007" transform="translate(-13.523 47.781)" fill="none" stroke="#624b7e" stroke-miterlimit="10" stroke-width="1.728"/>
          <line id="Línea_2967" data-name="Línea 2967" x1="164.178" y2="43.007" transform="translate(-10.924 57.758)" fill="none" stroke="#624b7e" stroke-miterlimit="10" stroke-width="1.728"/>
          <line id="Línea_2968" data-name="Línea 2968" x1="164.177" y2="43.007" transform="translate(-8.325 67.736)" fill="none" stroke="#624b7e" stroke-miterlimit="10" stroke-width="1.728"/>
          <line id="Línea_2969" data-name="Línea 2969" x1="164.177" y2="43.006" transform="translate(-5.724 77.715)" fill="none" stroke="#624b7e" stroke-miterlimit="10" stroke-width="1.728"/>
          <line id="Línea_2970" data-name="Línea 2970" x1="164.178" y2="43.006" transform="translate(-3.125 87.692)" fill="none" stroke="#624b7e" stroke-miterlimit="10" stroke-width="1.728"/>
          <line id="Línea_2971" data-name="Línea 2971" x1="164.18" y2="43.008" transform="translate(-0.5 97.772)" fill="none" stroke="#624b7e" stroke-miterlimit="10" stroke-width="1.728"/>
          <line id="Línea_2972" data-name="Línea 2972" x1="164.178" y2="43.006" transform="translate(2.025 107.462)" fill="none" stroke="#624b7e" stroke-miterlimit="10" stroke-width="1.728"/>
        </g>
      </g>
      <g id="Grupo_1073705" data-name="Grupo 1073705" transform="translate(11.302 11.3)">
        <path id="Trazado_608385" data-name="Trazado 608385" d="M58.354,0A58.354,58.354,0,1,1,0,58.354,58.354,58.354,0,0,1,58.354,0Z" fill="#fff"/>
      </g>
      <g id="Grupo_1073706" data-name="Grupo 1073706" transform="translate(113.11 45.427)">
        <path id="Trazado_611008" data-name="Trazado 611008" d="M9.007,26.64,23.763,11.516,0,5.99Z" transform="translate(0 -4.687)" fill="#474747"/>
        <path id="Trazado_611009" data-name="Trazado 611009" d="M16.158,19.415,31.992,4.484,7.771,0Z" transform="translate(-6.082 0)" fill="#79cbbf"/>
      </g>
      <g id="Grupo_1073707" data-name="Grupo 1073707" transform="translate(0 101.98)">
        <path id="Trazado_610799" data-name="Trazado 610799" d="M0,2.961,6.668,14.811,15.812,7.6,21.52,17.747l9.148-7.213,5.72,10.15,10.683-8.418L45,9.641l-7.62,6L31.663,5.494l-9.145,7.211L16.809,2.557,7.665,9.77,2.912,1.323Z" transform="translate(0 -0.881)" fill="#474747"/>
        <path id="Trazado_610800" data-name="Trazado 610800" d="M13.3,0,10.387,1.638l6.667,11.851L26.2,6.276l5.708,10.149,9.148-7.214,5.719,10.15,10.684-8.418L55.389,8.319l-7.62,6L42.05,4.172,32.9,11.383,27.2,1.235,18.051,8.448Z" transform="translate(-6.917 0)" fill="#fff4a9"/>
      </g>
      <path id="Trazado_611010" data-name="Trazado 611010" d="M21.817,10.674,5.225,2.789l-.38,10.135Z" transform="translate(7.335 16.244)" fill="none" stroke="#fd3cae" stroke-miterlimit="10" stroke-width="2"/>
    </g>
    <g id="Grupo_1074720" data-name="Grupo 1074720" transform="translate(316.616 6418.762)">
      <ellipse id="Elipse_6014" data-name="Elipse 6014" cx="6.054" cy="9.19" rx="6.054" ry="9.19" transform="translate(44.361 71.522) rotate(-71.167)" fill="#de7459"/>
      <ellipse id="Elipse_6015" data-name="Elipse 6015" cx="9.19" cy="6.054" rx="9.19" ry="6.054" transform="translate(85.188 65.977) rotate(-18.833)" fill="#de7459"/>
      <path id="Trazado_612634" data-name="Trazado 612634" d="M104.741,50.472c-2.159-3.169-4.765-6.044-6.586-9.422-2.944-5.46-3.633-11.808-4.685-17.926S90.794,10.645,86.5,6.171C83.534,3.07,78.882,0,75.383,0S67.234,3.07,64.264,6.171c-4.29,4.475-5.917,10.837-6.966,16.953S55.556,35.59,52.613,41.05c-1.821,3.378-4.426,6.253-6.586,9.422s-6.249,9.24-6.018,13.074c.355,5.878,3.642,10.6,6.642,10.6,2.588,0,1.466-6.664,6.846-6.664,2.265,0,5.076.958,6.155,7.709.867,5.405,9.1,8.684,15.731,8.684S90.249,80.6,91.115,75.191c1.079-6.751,3.89-7.709,6.155-7.709,5.381,0,4.258,6.664,6.846,6.664,3,0,6.287-4.723,6.642-10.6.231-3.833-3.858-9.9-6.018-13.074Z" transform="translate(0)" fill="#fdba91"/>
      <g id="Grupo_1074719" data-name="Grupo 1074719" transform="translate(43.348)">
        <path id="Trazado_612635" data-name="Trazado 612635" d="M65.535,411.936c-3.556,0-4.272,2.91-5.1,4.884a4.71,4.71,0,0,0,3.3,1.78c2.095,0,1.759-4.364,4.407-6.029A5.1,5.1,0,0,0,65.535,411.936Z" transform="translate(-60.44 -344.454)" fill="#fc997d"/>
        <path id="Trazado_612636" data-name="Trazado 612636" d="M272.451,50.472c-2.159-3.169-4.765-6.044-6.586-9.422-2.944-5.46-3.633-11.808-4.685-17.926S258.5,10.645,254.215,6.171C251.244,3.07,246.592,0,243.093,0a8.416,8.416,0,0,0-2.527.44,22.7,22.7,0,0,1,8.594,5.731c4.29,4.475,5.917,10.837,6.966,16.953s1.741,12.466,4.685,17.926c1.821,3.378,4.426,6.253,6.586,9.422s6.249,9.24,6.018,13.074a14.728,14.728,0,0,1-3.339,8.821c.423,1.013.874,1.78,1.752,1.78,3,0,6.287-4.723,6.642-10.6.231-3.833-3.859-9.9-6.018-13.074Z" transform="translate(-211.058)" fill="#fc997d"/>
        <path id="Trazado_612637" data-name="Trazado 612637" d="M257.993,420.057c-2.71,6.095-8.652,7.9-14.45,8.3.69.065,1.373.1,2.04.1,6.632,0,14.866-3.279,15.732-8.683.986-6.173,3.421-7.5,5.563-7.684C264.613,412.087,260.77,413.812,257.993,420.057Z" transform="translate(-213.548 -344.58)" fill="#fc997d"/>
      </g>
    </g>
  </g>
</svg>
