<svg xmlns="http://www.w3.org/2000/svg" xmlns:xlink="http://www.w3.org/1999/xlink" width="139.02" height="139.398" viewBox="0 0 139.02 139.398">
  <defs>
    <clipPath id="clip-path">
      <path id="Trazado_610742" data-name="Trazado 610742" d="M137.107,62.03a69.352,69.352,0,1,0,17.608-2.279,69.7,69.7,0,0,0-17.608,2.279" transform="translate(-85.163 -59.751)" fill="none" stroke="#624b7e" stroke-width="1"/>
    </clipPath>
  </defs>
  <g id="Grupo_1073781" data-name="Grupo 1073781" transform="translate(-322.49 -6391)">
    <g id="Grupo_1073730" data-name="Grupo 1073730" transform="translate(322.49 6391)">
      <g id="Grupo_1073704" data-name="Grupo 1073704">
        <g id="Grupo_1073463" data-name="Grupo 1073463" clip-path="url(#clip-path)">
          <line id="Línea_2945" data-name="Línea 2945" x1="164.179" y2="43.007" transform="translate(-30.339 -16.758)" fill="none" stroke="#624b7e" stroke-miterlimit="10" stroke-width="1.728"/>
          <line id="Línea_2946" data-name="Línea 2946" x1="164.178" y2="43.007" transform="translate(-27.739 -6.781)" fill="none" stroke="#624b7e" stroke-miterlimit="10" stroke-width="1.728"/>
          <line id="Línea_2947" data-name="Línea 2947" x1="164.178" y2="43.008" transform="translate(-25.139 3.196)" fill="none" stroke="#624b7e" stroke-miterlimit="10" stroke-width="1.728"/>
          <line id="Línea_2948" data-name="Línea 2948" x1="164.18" y2="43.008" transform="translate(-22.539 13.173)" fill="none" stroke="#624b7e" stroke-miterlimit="10" stroke-width="1.728"/>
          <line id="Línea_2949" data-name="Línea 2949" x1="164.178" y2="43.009" transform="translate(-19.939 23.151)" fill="none" stroke="#624b7e" stroke-miterlimit="10" stroke-width="1.728"/>
          <line id="Línea_2950" data-name="Línea 2950" x1="164.178" y2="43.008" transform="translate(-17.342 33.128)" fill="none" stroke="#624b7e" stroke-miterlimit="10" stroke-width="1.728"/>
          <line id="Línea_2951" data-name="Línea 2951" x1="164.179" y2="43.007" transform="translate(-14.741 43.106)" fill="none" stroke="#624b7e" stroke-miterlimit="10" stroke-width="1.728"/>
          <line id="Línea_2952" data-name="Línea 2952" x1="164.18" y2="43.007" transform="translate(-12.141 53.083)" fill="none" stroke="#624b7e" stroke-miterlimit="10" stroke-width="1.728"/>
          <line id="Línea_2953" data-name="Línea 2953" x1="164.178" y2="43.008" transform="translate(-9.542 63.06)" fill="none" stroke="#624b7e" stroke-miterlimit="10" stroke-width="1.728"/>
          <line id="Línea_2954" data-name="Línea 2954" x1="164.177" y2="43.007" transform="translate(-6.943 73.038)" fill="none" stroke="#624b7e" stroke-miterlimit="10" stroke-width="1.728"/>
          <line id="Línea_2955" data-name="Línea 2955" x1="164.178" y2="43.007" transform="translate(-4.343 83.016)" fill="none" stroke="#624b7e" stroke-miterlimit="10" stroke-width="1.728"/>
          <line id="Línea_2956" data-name="Línea 2956" x1="164.178" y2="43.006" transform="translate(-1.744 92.995)" fill="none" stroke="#624b7e" stroke-miterlimit="10" stroke-width="1.728"/>
          <line id="Línea_2957" data-name="Línea 2957" x1="164.18" y2="43.009" transform="translate(0.881 103.073)" fill="none" stroke="#624b7e" stroke-miterlimit="10" stroke-width="1.728"/>
          <line id="Línea_2958" data-name="Línea 2958" x1="164.179" y2="43.006" transform="translate(3.407 112.764)" fill="none" stroke="#624b7e" stroke-miterlimit="10" stroke-width="1.728"/>
          <line id="Línea_2959" data-name="Línea 2959" x1="164.179" y2="43.007" transform="translate(-31.72 -22.06)" fill="none" stroke="#624b7e" stroke-miterlimit="10" stroke-width="1.728"/>
          <line id="Línea_2960" data-name="Línea 2960" x1="164.178" y2="43.007" transform="translate(-29.12 -12.083)" fill="none" stroke="#624b7e" stroke-miterlimit="10" stroke-width="1.728"/>
          <line id="Línea_2961" data-name="Línea 2961" x1="164.178" y2="43.007" transform="translate(-26.521 -2.106)" fill="none" stroke="#624b7e" stroke-miterlimit="10" stroke-width="1.728"/>
          <line id="Línea_2962" data-name="Línea 2962" x1="164.18" y2="43.008" transform="translate(-23.921 7.872)" fill="none" stroke="#624b7e" stroke-miterlimit="10" stroke-width="1.728"/>
          <line id="Línea_2963" data-name="Línea 2963" x1="164.178" y2="43.008" transform="translate(-21.321 17.849)" fill="none" stroke="#624b7e" stroke-miterlimit="10" stroke-width="1.728"/>
          <line id="Línea_2964" data-name="Línea 2964" x1="164.178" y2="43.009" transform="translate(-18.723 27.826)" fill="none" stroke="#624b7e" stroke-miterlimit="10" stroke-width="1.728"/>
          <line id="Línea_2965" data-name="Línea 2965" x1="164.178" y2="43.006" transform="translate(-16.123 37.804)" fill="none" stroke="#624b7e" stroke-miterlimit="10" stroke-width="1.728"/>
          <line id="Línea_2966" data-name="Línea 2966" x1="164.18" y2="43.007" transform="translate(-13.523 47.781)" fill="none" stroke="#624b7e" stroke-miterlimit="10" stroke-width="1.728"/>
          <line id="Línea_2967" data-name="Línea 2967" x1="164.178" y2="43.007" transform="translate(-10.924 57.758)" fill="none" stroke="#624b7e" stroke-miterlimit="10" stroke-width="1.728"/>
          <line id="Línea_2968" data-name="Línea 2968" x1="164.177" y2="43.007" transform="translate(-8.325 67.736)" fill="none" stroke="#624b7e" stroke-miterlimit="10" stroke-width="1.728"/>
          <line id="Línea_2969" data-name="Línea 2969" x1="164.177" y2="43.006" transform="translate(-5.724 77.715)" fill="none" stroke="#624b7e" stroke-miterlimit="10" stroke-width="1.728"/>
          <line id="Línea_2970" data-name="Línea 2970" x1="164.178" y2="43.006" transform="translate(-3.125 87.692)" fill="none" stroke="#624b7e" stroke-miterlimit="10" stroke-width="1.728"/>
          <line id="Línea_2971" data-name="Línea 2971" x1="164.18" y2="43.008" transform="translate(-0.5 97.772)" fill="none" stroke="#624b7e" stroke-miterlimit="10" stroke-width="1.728"/>
          <line id="Línea_2972" data-name="Línea 2972" x1="164.178" y2="43.006" transform="translate(2.025 107.462)" fill="none" stroke="#624b7e" stroke-miterlimit="10" stroke-width="1.728"/>
        </g>
      </g>
      <g id="Grupo_1073705" data-name="Grupo 1073705" transform="translate(11.302 11.3)">
        <path id="Trazado_608385" data-name="Trazado 608385" d="M58.354,0A58.354,58.354,0,1,1,0,58.354,58.354,58.354,0,0,1,58.354,0Z" fill="#fff"/>
      </g>
      <g id="Grupo_1073706" data-name="Grupo 1073706" transform="translate(113.11 45.427)">
        <path id="Trazado_611008" data-name="Trazado 611008" d="M9.007,26.64,23.763,11.516,0,5.99Z" transform="translate(0 -4.687)" fill="#474747"/>
        <path id="Trazado_611009" data-name="Trazado 611009" d="M16.158,19.415,31.992,4.484,7.771,0Z" transform="translate(-6.082 0)" fill="#79cbbf"/>
      </g>
      <g id="Grupo_1073707" data-name="Grupo 1073707" transform="translate(0 101.98)">
        <path id="Trazado_610799" data-name="Trazado 610799" d="M0,2.961,6.668,14.811,15.812,7.6,21.52,17.747l9.148-7.213,5.72,10.15,10.683-8.418L45,9.641l-7.62,6L31.663,5.494l-9.145,7.211L16.809,2.557,7.665,9.77,2.912,1.323Z" transform="translate(0 -0.881)" fill="#474747"/>
        <path id="Trazado_610800" data-name="Trazado 610800" d="M13.3,0,10.387,1.638l6.667,11.851L26.2,6.276l5.708,10.149,9.148-7.214,5.719,10.15,10.684-8.418L55.389,8.319l-7.62,6L42.05,4.172,32.9,11.383,27.2,1.235,18.051,8.448Z" transform="translate(-6.917 0)" fill="#fff4a9"/>
      </g>
      <path id="Trazado_611010" data-name="Trazado 611010" d="M21.817,10.674,5.225,2.789l-.38,10.135Z" transform="translate(7.335 16.244)" fill="none" stroke="#fd3cae" stroke-miterlimit="10" stroke-width="2"/>
    </g>
    <g id="Grupo_1074721" data-name="Grupo 1074721" transform="translate(331.383 6414.191)">
      <ellipse id="Elipse_6014" data-name="Elipse 6014" cx="3.528" cy="5.355" rx="3.528" ry="5.355" transform="translate(42.541 41.675) rotate(-71.167)" fill="#de7459"/>
      <ellipse id="Elipse_6015" data-name="Elipse 6015" cx="5.355" cy="3.528" rx="5.355" ry="3.528" transform="translate(66.33 38.444) rotate(-18.833)" fill="#de7459"/>
      <path id="Trazado_612634" data-name="Trazado 612634" d="M77.723,29.409a64.689,64.689,0,0,1-3.837-5.49c-1.715-3.181-2.117-6.88-2.73-10.445S69.6,6.2,67.1,3.6C65.366,1.789,62.656,0,60.617,0s-4.748,1.789-6.479,3.6c-2.5,2.607-3.448,6.315-4.059,9.878s-1.014,7.264-2.73,10.445a64.663,64.663,0,0,1-3.837,5.49c-1.258,1.848-3.641,5.384-3.507,7.618.207,3.425,2.122,6.177,3.87,6.177,1.508,0,.854-3.883,3.989-3.883,1.32,0,2.958.558,3.586,4.492.5,3.149,5.3,5.06,9.166,5.06s8.662-1.91,9.167-5.06c.629-3.934,2.267-4.492,3.586-4.492,3.135,0,2.481,3.883,3.989,3.883,1.748,0,3.663-2.752,3.87-6.177.135-2.233-2.248-5.77-3.506-7.618Z" transform="translate(0)" fill="#fdba91"/>
      <g id="Grupo_1074719" data-name="Grupo 1074719" transform="translate(41.951)">
        <path id="Trazado_612635" data-name="Trazado 612635" d="M63.409,411.936c-2.072,0-2.489,1.7-2.969,2.846a2.745,2.745,0,0,0,1.925,1.037c1.221,0,1.025-2.543,2.568-3.513A2.971,2.971,0,0,0,63.409,411.936Z" transform="translate(-60.44 -372.616)" fill="#fc997d"/>
        <path id="Trazado_612636" data-name="Trazado 612636" d="M259.145,29.409a64.7,64.7,0,0,1-3.837-5.49c-1.715-3.181-2.117-6.88-2.73-10.445S251.018,6.2,248.519,3.6c-1.731-1.807-4.441-3.6-6.48-3.6a4.9,4.9,0,0,0-1.473.256A13.227,13.227,0,0,1,245.573,3.6c2.5,2.607,3.448,6.315,4.059,9.878s1.014,7.264,2.73,10.445a64.645,64.645,0,0,0,3.837,5.49c1.258,1.848,3.641,5.384,3.507,7.618a8.582,8.582,0,0,1-1.946,5.14c.246.59.509,1.037,1.021,1.037,1.748,0,3.663-2.752,3.87-6.177.135-2.233-2.248-5.77-3.507-7.618Z" transform="translate(-223.372)" fill="#fc997d"/>
        <path id="Trazado_612637" data-name="Trazado 612637" d="M251.963,416.731c-1.579,3.551-5.041,4.6-8.42,4.835.4.038.8.058,1.188.058,3.864,0,8.662-1.91,9.167-5.06.575-3.6,1.994-4.371,3.241-4.477C255.82,412.087,253.581,413.092,251.963,416.731Z" transform="translate(-226.065 -372.752)" fill="#fc997d"/>
      </g>
    </g>
    <g id="Grupo_1074723" data-name="Grupo 1074723" transform="translate(357.557 6332.065)">
      <path id="Trazado_612638" data-name="Trazado 612638" d="M73.779,147.492,51.295,138.5a9.081,9.081,0,0,0-8.41.876l-.318.212a4.54,4.54,0,0,1-5.037,0l-.318-.212a9.081,9.081,0,0,0-8.41-.876L7.08,147.187l-.6,1.218,10.347,12.287a22.7,22.7,0,0,0,17.366,8.079h12.93l9.292-1.4a22.7,22.7,0,0,0,7.47-5.809l10.347-12.287A1.135,1.135,0,0,0,73.779,147.492Z" transform="translate(-5.605)" fill="#ff5f7a"/>
      <path id="Trazado_612639" data-name="Trazado 612639" d="M126.509,187.907a4.727,4.727,0,0,0-3.95-4.663l-4.4-.733a94.667,94.667,0,0,0-14.381-1.262c-.369,0-1.847,0-2.271,0a94.548,94.548,0,0,0-14.327,1.262l-4.4.733a4.727,4.727,0,0,0-3.95,4.663Z" transform="translate(-68.227 -37.562)" fill="#fb4455"/>
      <path id="Trazado_612640" data-name="Trazado 612640" d="M111.473,215.134l-5.422-.9H64.583l-5.422.9a.454.454,0,0,0-.188.818l4.691,3.323c6.163,4.365,14.451,6.556,21.652,6.774,7.2-.218,15.49-2.409,21.652-6.774l4.692-3.323a.454.454,0,0,0-.188-.818Z" transform="translate(-50.873 -66.105)" fill="#a12e3a"/>
      <path id="Trazado_612641" data-name="Trazado 612641" d="M27.979,227.441A20.386,20.386,0,0,1,12.35,220.17L1.474,207.255l-.762.3a1.135,1.135,0,0,0-.447,1.785l10.347,12.287a22.7,22.7,0,0,0,17.366,8.079h12.93a22.755,22.755,0,0,0,9.9-2.27H27.979Z" transform="translate(0 -60.068)" fill="#fb4455"/>
      <path id="Trazado_612642" data-name="Trazado 612642" d="M122.634,204.782a46.408,46.408,0,0,0,20.734-4.49l-5.618-.936a91.937,91.937,0,0,0-13.981-1.231c-.379,0-1.892,0-2.27,0a91.937,91.937,0,0,0-13.981,1.231l-5.618.936A46.408,46.408,0,0,0,122.634,204.782Z" transform="translate(-88.191 -52.167)" fill="#fff"/>
    </g>
  </g>
</svg>
