<svg xmlns="http://www.w3.org/2000/svg" xmlns:xlink="http://www.w3.org/1999/xlink" width="139.02" height="139.398" viewBox="0 0 139.02 139.398">
  <defs>
    <clipPath id="clip-path">
      <path id="Trazado_610742" data-name="Trazado 610742" d="M137.107,62.03a69.352,69.352,0,1,0,17.608-2.279,69.7,69.7,0,0,0-17.608,2.279" transform="translate(-85.163 -59.751)" fill="none" stroke="#624b7e" stroke-width="1"/>
    </clipPath>
    <clipPath id="clip-path-2">
      <rect id="Rectángulo_378954" data-name="Rectángulo 378954" width="96.149" height="96.149" fill="none"/>
    </clipPath>
    <clipPath id="clip-path-4">
      <rect id="Rectángulo_378946" data-name="Rectángulo 378946" width="32.21" height="46.605" fill="none"/>
    </clipPath>
    <clipPath id="clip-path-5">
      <rect id="Rectángulo_378947" data-name="Rectángulo 378947" width="32.21" height="45.351" fill="none"/>
    </clipPath>
    <clipPath id="clip-path-6">
      <rect id="Rectángulo_378948" data-name="Rectángulo 378948" width="19.648" height="48.107" fill="none"/>
    </clipPath>
    <clipPath id="clip-path-8">
      <rect id="Rectángulo_378951" data-name="Rectángulo 378951" width="89.459" height="39.806" fill="none"/>
    </clipPath>
    <clipPath id="clip-path-9">
      <rect id="Rectángulo_378952" data-name="Rectángulo 378952" width="83.433" height="24.464" fill="none"/>
    </clipPath>
  </defs>
  <g id="Grupo_1093885" data-name="Grupo 1093885" transform="translate(-317 -2100.479)">
    <g id="Grupo_1073730" data-name="Grupo 1073730" transform="translate(-5.49 -4290.521)">
      <g id="Grupo_1073730-2" data-name="Grupo 1073730" transform="translate(322.49 6391)">
        <g id="Grupo_1073704" data-name="Grupo 1073704">
          <g id="Grupo_1073463" data-name="Grupo 1073463" clip-path="url(#clip-path)">
            <line id="Línea_2945" data-name="Línea 2945" x1="164.179" y2="43.007" transform="translate(-30.339 -16.758)" fill="none" stroke="#624b7e" stroke-miterlimit="10" stroke-width="1.728"/>
            <line id="Línea_2946" data-name="Línea 2946" x1="164.178" y2="43.007" transform="translate(-27.739 -6.781)" fill="none" stroke="#624b7e" stroke-miterlimit="10" stroke-width="1.728"/>
            <line id="Línea_2947" data-name="Línea 2947" x1="164.178" y2="43.008" transform="translate(-25.139 3.196)" fill="none" stroke="#624b7e" stroke-miterlimit="10" stroke-width="1.728"/>
            <line id="Línea_2948" data-name="Línea 2948" x1="164.18" y2="43.008" transform="translate(-22.539 13.173)" fill="none" stroke="#624b7e" stroke-miterlimit="10" stroke-width="1.728"/>
            <line id="Línea_2949" data-name="Línea 2949" x1="164.178" y2="43.009" transform="translate(-19.939 23.151)" fill="none" stroke="#624b7e" stroke-miterlimit="10" stroke-width="1.728"/>
            <line id="Línea_2950" data-name="Línea 2950" x1="164.178" y2="43.008" transform="translate(-17.342 33.128)" fill="none" stroke="#624b7e" stroke-miterlimit="10" stroke-width="1.728"/>
            <line id="Línea_2951" data-name="Línea 2951" x1="164.179" y2="43.007" transform="translate(-14.741 43.106)" fill="none" stroke="#624b7e" stroke-miterlimit="10" stroke-width="1.728"/>
            <line id="Línea_2952" data-name="Línea 2952" x1="164.18" y2="43.007" transform="translate(-12.141 53.083)" fill="none" stroke="#624b7e" stroke-miterlimit="10" stroke-width="1.728"/>
            <line id="Línea_2953" data-name="Línea 2953" x1="164.178" y2="43.008" transform="translate(-9.542 63.06)" fill="none" stroke="#624b7e" stroke-miterlimit="10" stroke-width="1.728"/>
            <line id="Línea_2954" data-name="Línea 2954" x1="164.177" y2="43.007" transform="translate(-6.943 73.038)" fill="none" stroke="#624b7e" stroke-miterlimit="10" stroke-width="1.728"/>
            <line id="Línea_2955" data-name="Línea 2955" x1="164.178" y2="43.007" transform="translate(-4.343 83.016)" fill="none" stroke="#624b7e" stroke-miterlimit="10" stroke-width="1.728"/>
            <line id="Línea_2956" data-name="Línea 2956" x1="164.178" y2="43.006" transform="translate(-1.744 92.995)" fill="none" stroke="#624b7e" stroke-miterlimit="10" stroke-width="1.728"/>
            <line id="Línea_2957" data-name="Línea 2957" x1="164.18" y2="43.009" transform="translate(0.881 103.073)" fill="none" stroke="#624b7e" stroke-miterlimit="10" stroke-width="1.728"/>
            <line id="Línea_2958" data-name="Línea 2958" x1="164.179" y2="43.006" transform="translate(3.407 112.764)" fill="none" stroke="#624b7e" stroke-miterlimit="10" stroke-width="1.728"/>
            <line id="Línea_2959" data-name="Línea 2959" x1="164.179" y2="43.007" transform="translate(-31.72 -22.06)" fill="none" stroke="#624b7e" stroke-miterlimit="10" stroke-width="1.728"/>
            <line id="Línea_2960" data-name="Línea 2960" x1="164.178" y2="43.007" transform="translate(-29.12 -12.083)" fill="none" stroke="#624b7e" stroke-miterlimit="10" stroke-width="1.728"/>
            <line id="Línea_2961" data-name="Línea 2961" x1="164.178" y2="43.007" transform="translate(-26.521 -2.106)" fill="none" stroke="#624b7e" stroke-miterlimit="10" stroke-width="1.728"/>
            <line id="Línea_2962" data-name="Línea 2962" x1="164.18" y2="43.008" transform="translate(-23.921 7.872)" fill="none" stroke="#624b7e" stroke-miterlimit="10" stroke-width="1.728"/>
            <line id="Línea_2963" data-name="Línea 2963" x1="164.178" y2="43.008" transform="translate(-21.321 17.849)" fill="none" stroke="#624b7e" stroke-miterlimit="10" stroke-width="1.728"/>
            <line id="Línea_2964" data-name="Línea 2964" x1="164.178" y2="43.009" transform="translate(-18.723 27.826)" fill="none" stroke="#624b7e" stroke-miterlimit="10" stroke-width="1.728"/>
            <line id="Línea_2965" data-name="Línea 2965" x1="164.178" y2="43.006" transform="translate(-16.123 37.804)" fill="none" stroke="#624b7e" stroke-miterlimit="10" stroke-width="1.728"/>
            <line id="Línea_2966" data-name="Línea 2966" x1="164.18" y2="43.007" transform="translate(-13.523 47.781)" fill="none" stroke="#624b7e" stroke-miterlimit="10" stroke-width="1.728"/>
            <line id="Línea_2967" data-name="Línea 2967" x1="164.178" y2="43.007" transform="translate(-10.924 57.758)" fill="none" stroke="#624b7e" stroke-miterlimit="10" stroke-width="1.728"/>
            <line id="Línea_2968" data-name="Línea 2968" x1="164.177" y2="43.007" transform="translate(-8.325 67.736)" fill="none" stroke="#624b7e" stroke-miterlimit="10" stroke-width="1.728"/>
            <line id="Línea_2969" data-name="Línea 2969" x1="164.177" y2="43.006" transform="translate(-5.724 77.715)" fill="none" stroke="#624b7e" stroke-miterlimit="10" stroke-width="1.728"/>
            <line id="Línea_2970" data-name="Línea 2970" x1="164.178" y2="43.006" transform="translate(-3.125 87.692)" fill="none" stroke="#624b7e" stroke-miterlimit="10" stroke-width="1.728"/>
            <line id="Línea_2971" data-name="Línea 2971" x1="164.18" y2="43.008" transform="translate(-0.5 97.772)" fill="none" stroke="#624b7e" stroke-miterlimit="10" stroke-width="1.728"/>
            <line id="Línea_2972" data-name="Línea 2972" x1="164.178" y2="43.006" transform="translate(2.025 107.462)" fill="none" stroke="#624b7e" stroke-miterlimit="10" stroke-width="1.728"/>
          </g>
        </g>
        <g id="Grupo_1073705" data-name="Grupo 1073705" transform="translate(11.302 11.3)">
          <path id="Trazado_608385" data-name="Trazado 608385" d="M58.354,0A58.354,58.354,0,1,1,0,58.354,58.354,58.354,0,0,1,58.354,0Z" fill="#fff"/>
        </g>
        <g id="Grupo_1073706" data-name="Grupo 1073706" transform="translate(113.11 45.427)">
          <path id="Trazado_611008" data-name="Trazado 611008" d="M9.007,26.64,23.763,11.516,0,5.99Z" transform="translate(0 -4.687)" fill="#474747"/>
          <path id="Trazado_611009" data-name="Trazado 611009" d="M16.158,19.415,31.992,4.484,7.771,0Z" transform="translate(-6.082 0)" fill="#79cbbf"/>
        </g>
        <g id="Grupo_1073707" data-name="Grupo 1073707" transform="translate(0 101.98)">
          <path id="Trazado_610799" data-name="Trazado 610799" d="M0,2.961,6.668,14.811,15.812,7.6,21.52,17.747l9.148-7.213,5.72,10.15,10.683-8.418L45,9.641l-7.62,6L31.663,5.494l-9.145,7.211L16.809,2.557,7.665,9.77,2.912,1.323Z" transform="translate(0 -0.881)" fill="#474747"/>
          <path id="Trazado_610800" data-name="Trazado 610800" d="M13.3,0,10.387,1.638l6.667,11.851L26.2,6.276l5.708,10.149,9.148-7.214,5.719,10.15,10.684-8.418L55.389,8.319l-7.62,6L42.05,4.172,32.9,11.383,27.2,1.235,18.051,8.448Z" transform="translate(-6.917 0)" fill="#fff4a9"/>
        </g>
        <path id="Trazado_611010" data-name="Trazado 611010" d="M21.817,10.674,5.225,2.789l-.38,10.135Z" transform="translate(7.335 16.244)" fill="none" stroke="#fd3cae" stroke-miterlimit="10" stroke-width="2"/>
      </g>
    </g>
    <g id="Grupo_1075115" data-name="Grupo 1075115" transform="translate(338.436 2124.092)">
      <g id="Grupo_1075114" data-name="Grupo 1075114" clip-path="url(#clip-path-2)">
        <g id="Grupo_1075113" data-name="Grupo 1075113" transform="translate(0 0)">
          <g id="Grupo_1075112" data-name="Grupo 1075112" clip-path="url(#clip-path-2)">
            <path id="Trazado_613268" data-name="Trazado 613268" d="M535.743,388.295a10.484,10.484,0,0,1-3,4.878c-4.858,4.557-13.147,4.791-13.147,4.791l-9.49-3.955-.543-.226s-.272-2.157-.64-4.724l.844.372c.673-19.062,8.582-38.455,11.7-45.416,3.119,6.96,11.024,26.353,11.7,45.416Z" transform="translate(-473.393 -320)" fill="#ad3434"/>
            <path id="Trazado_613269" data-name="Trazado 613269" d="M548.506,493.712c-4.858,4.557-13.147,4.791-13.147,4.791l-9.49-3.955c1.689-17.344,6.145-30.325,11.362-42.448,5.234,12.123,9.448,24.568,11.275,41.612" transform="translate(-489.157 -420.538)" fill="#c64e4e"/>
            <path id="Trazado_613270" data-name="Trazado 613270" d="M542.575,1006.3l-.2,1.177s10.145-5.919,20.437.323l-.693-1.437s-8.911-7.852-19.539-.063" transform="translate(-504.506 -932.845)" fill="#ad3434"/>
            <path id="Trazado_613271" data-name="Trazado 613271" d="M621.882,563.606a10.014,10.014,0,0,1,4.047,1.537s.024-.535-.711-1.1a8.562,8.562,0,0,0-3.495-1.591,7.341,7.341,0,0,0-2.806-.007,8.654,8.654,0,0,0-3.256,1.4,1.677,1.677,0,0,0-.71,1.112,11.074,11.074,0,0,1,3.415-1.248,10.54,10.54,0,0,1,3.514-.1" transform="translate(-572.022 -523.054)" fill="#ad3434"/>
            <path id="Trazado_613272" data-name="Trazado 613272" d="M604.133,636.588a12.527,12.527,0,0,1,4.995,1.855,2.933,2.933,0,0,0-1.164-1.435,9.892,9.892,0,0,0-3.814-1.729,9.547,9.547,0,0,0-3.057-.1,9.66,9.66,0,0,0-4.424,1.638,2.493,2.493,0,0,0-1.088,1.405,13.845,13.845,0,0,1,4.215-1.506,13.29,13.29,0,0,1,4.337-.125" transform="translate(-554.002 -590.764)" fill="#ad3434"/>
            <path id="Trazado_613273" data-name="Trazado 613273" d="M586.381,709.318a15.05,15.05,0,0,1,5.943,2.174,4.862,4.862,0,0,0-1.618-1.767,11.249,11.249,0,0,0-4.134-1.868,11.481,11.481,0,0,0-3.307-.2,11.073,11.073,0,0,0-5.593,1.873,3.6,3.6,0,0,0-1.465,1.7,16.627,16.627,0,0,1,5.015-1.765,16.043,16.043,0,0,1,5.16-.147" transform="translate(-535.98 -658.221)" fill="#ad3434"/>
            <path id="Trazado_613274" data-name="Trazado 613274" d="M568.629,781.859a17.576,17.576,0,0,1,6.891,2.492,7.179,7.179,0,0,0-2.071-2.1,12.631,12.631,0,0,0-4.453-2.006,13.316,13.316,0,0,0-3.558-.292,12.554,12.554,0,0,0-6.761,2.107,5.053,5.053,0,0,0-1.844,1.99,19.411,19.411,0,0,1,5.814-2.024,18.812,18.812,0,0,1,5.983-.169" transform="translate(-517.958 -725.49)" fill="#ad3434"/>
            <path id="Trazado_613275" data-name="Trazado 613275" d="M550.878,854.248a20.107,20.107,0,0,1,7.838,2.811,9.821,9.821,0,0,0-2.525-2.432,14.033,14.033,0,0,0-4.773-2.145,15.12,15.12,0,0,0-3.809-.386,14.04,14.04,0,0,0-7.93,2.341,6.947,6.947,0,0,0-2.222,2.283,22.2,22.2,0,0,1,6.614-2.282,21.579,21.579,0,0,1,6.806-.19" transform="translate(-499.937 -792.606)" fill="#ad3434"/>
            <path id="Trazado_613276" data-name="Trazado 613276" d="M533.126,926.523a22.637,22.637,0,0,1,8.786,3.129,12.718,12.718,0,0,0-2.979-2.764,15.875,15.875,0,0,0-9.152-2.764,15.509,15.509,0,0,0-9.1,2.576,9.411,9.411,0,0,0-2.6,2.576,24.993,24.993,0,0,1,7.414-2.541,24.356,24.356,0,0,1,7.629-.212" transform="translate(-481.915 -859.609)" fill="#ad3434"/>
            <path id="Trazado_613280" data-name="Trazado 613280" d="M194.066,299.487l-1.4,4.624L180.689,343.8,169.82,335.02a10.692,10.692,0,0,1-1.145-.882c-6.425-5.644-6.818-18.628-6.818-18.628s6.71-5.572,11.379-9.26,14.694-6.346,14.694-6.346Z" transform="translate(-150.556 -278.579)" fill="#febfc0"/>
            <g id="Grupo_1075093" data-name="Grupo 1075093" transform="translate(11.3 20.908)" opacity="0.5" style="mix-blend-mode: multiply;isolation: isolate">
              <g id="Grupo_1075092" data-name="Grupo 1075092">
                <g id="Grupo_1075091" data-name="Grupo 1075091" clip-path="url(#clip-path-4)">
                  <path id="Trazado_613281" data-name="Trazado 613281" d="M194.066,299.488l-6.137.418s-10.029,2.663-14.694,6.346-11.379,9.26-11.379,9.26.393,12.984,6.818,18.628c.322,0,.243-.343-.364-1.116-4.849-6.179-3.507-16.814-3.507-16.814,5.853-3.762,9.2-7.525,15.467-11.287a13.2,13.2,0,0,1,9.318-1.692c-1.684,4.825-7.408,22.125-9.352,39.519l1.473,3.345,11.5-43.324-.124-.034Z" transform="translate(-161.856 -299.488)" fill="#febfc0"/>
                </g>
              </g>
            </g>
            <path id="Trazado_613282" data-name="Trazado 613282" d="M754.251,299.487l1.4,4.624L767.628,343.8,778.5,335.02a10.679,10.679,0,0,0,1.146-.882c6.425-5.644,6.818-18.628,6.818-18.628s-6.71-5.572-11.379-9.26-14.694-6.346-14.694-6.346Z" transform="translate(-701.595 -278.579)" fill="#febfc0"/>
            <g id="Grupo_1075096" data-name="Grupo 1075096" transform="translate(52.656 20.908)" opacity="0.5" style="mix-blend-mode: multiply;isolation: isolate">
              <g id="Grupo_1075095" data-name="Grupo 1075095">
                <g id="Grupo_1075094" data-name="Grupo 1075094" clip-path="url(#clip-path-5)">
                  <path id="Trazado_613283" data-name="Trazado 613283" d="M754.251,299.488l6.137.418s10.029,2.663,14.694,6.346,11.379,9.26,11.379,9.26-.393,12.984-6.818,18.628c-.322,0-.243-.343.364-1.116,4.849-6.179,3.507-16.814,3.507-16.814-5.853-3.762-9.2-7.525-15.468-11.287a13.2,13.2,0,0,0-9.318-1.692c1.683,4.825,7.408,22.125,9.352,39.519l-1.891,2.091-11.082-42.07.124-.034Z" transform="translate(-754.251 -299.488)" fill="#febfc0"/>
                </g>
              </g>
            </g>
            <path id="Trazado_613284" data-name="Trazado 613284" d="M425.13,350.623s3.493-29.691,12.541-44.73l7.107-.418s-12.111,24.312-12.953,48.108Z" transform="translate(-395.451 -284.149)" fill="#f7e2e5"/>
            <g id="Grupo_1075099" data-name="Grupo 1075099" transform="translate(29.68 21.326)" style="mix-blend-mode: multiply;isolation: isolate">
              <g id="Grupo_1075098" data-name="Grupo 1075098">
                <g id="Grupo_1075097" data-name="Grupo 1075097" clip-path="url(#clip-path-6)">
                  <path id="Trazado_613285" data-name="Trazado 613285" d="M437.671,305.894c-9.048,15.04-12.541,44.73-12.541,44.73l6.695,2.959c.842-23.8,12.953-48.107,12.953-48.107Zm-7,41.331a1.334,1.334,0,0,1-1.975,1.094,2.8,2.8,0,0,1-1.254-2.508c.4-7.506,5.27-28.079,9.686-35.258a2.523,2.523,0,0,1,2.623-1.216c.828.174,1.455.8.65,2.613-3.244,7.3-6.487,14.989-9.73,35.276" transform="translate(-425.13 -305.476)" fill="#faeced"/>
                </g>
              </g>
            </g>
            <path id="Trazado_613286" data-name="Trazado 613286" d="M100.333,573.434s-5.524,11.379-5.524,11.777c0,.254-7.682,8.387-11.374,13.9L59.66,612.668,35.312,598.781c-3.768-5.5-11.152-13.321-11.152-13.57,0-.4-5.524-11.777-5.524-11.777s-4.927-.326-6.181,2.182c0,0,7.107,0,9.2,10.869,1.5,7.789,4.5,12.787,8.7,15.456,1.552,2.773,6.831,10.367,19.455,13.592a39.87,39.87,0,0,0,19.714,0c13.241-3.383,18.4-11.57,19.656-13.961,3.908-2.749,6.713-7.643,8.144-15.086,2.09-10.869,9.2-10.869,9.2-10.869-1.254-2.508-6.181-2.182-6.181-2.182" transform="translate(-11.585 -533.389)" fill="#dd6b6b"/>
            <path id="Trazado_613287" data-name="Trazado 613287" d="M690.287,350.623s-3.493-29.691-12.541-44.73l-7.107-.418s12.111,24.312,12.953,48.108Z" transform="translate(-623.82 -284.149)" fill="#f7e2e5"/>
            <path id="Trazado_613294" data-name="Trazado 613294" d="M92.634,568.663v3.265C70.9,571.092,66.3,560.223,66.3,560.223s-8.587-2.174-10.451-13.377C53.757,534.3,47.9,532.632,47.9,532.632l1.3-.51,7.9-3.114s.334,15.02,6.266,18.256c9.2,5.016,10.451,8.779,10.451,8.779a81.134,81.134,0,0,1,11.141,6.542s.038.029.109.079a69.672,69.672,0,0,1,7.562,6" transform="translate(-44.56 -492.077)" fill="#ffabab"/>
            <g id="Grupo_1075105" data-name="Grupo 1075105" transform="translate(46.819 21.326)" style="mix-blend-mode: multiply;isolation: isolate">
              <g id="Grupo_1075104" data-name="Grupo 1075104">
                <g id="Grupo_1075103" data-name="Grupo 1075103" clip-path="url(#clip-path-6)">
                  <path id="Trazado_613295" data-name="Trazado 613295" d="M670.64,305.476s12.111,24.312,12.953,48.107l6.695-2.959s-3.493-29.691-12.541-44.73Zm4.38,6.474c-.805-1.812-.178-2.439.65-2.613a2.523,2.523,0,0,1,2.623,1.216c4.416,7.179,9.291,27.752,9.686,35.258a2.8,2.8,0,0,1-1.254,2.508,1.334,1.334,0,0,1-1.975-1.094c-3.243-20.287-6.487-27.978-9.73-35.276" transform="translate(-670.64 -305.476)" fill="#faeced"/>
                </g>
              </g>
            </g>
            <path id="Trazado_613296" data-name="Trazado 613296" d="M733.333,532.621s-5.852,1.672-7.943,14.213c-1.867,11.2-10.451,13.377-10.451,13.377s-4.6,10.869-26.336,11.7v-3.266a80.594,80.594,0,0,1,18.812-12.62s1.254-3.762,10.451-8.779c5.929-3.234,6.263-18.257,6.263-18.257Z" transform="translate(-640.53 -492.066)" fill="#ffabab"/>
            <g id="Grupo_1075108" data-name="Grupo 1075108" transform="translate(3.344 40.045)" opacity="0.45" style="mix-blend-mode: multiply;isolation: isolate">
              <g id="Grupo_1075107" data-name="Grupo 1075107">
                <g id="Grupo_1075106" data-name="Grupo 1075106" clip-path="url(#clip-path-8)">
                  <path id="Trazado_613297" data-name="Trazado 613297" d="M136.063,573.619c-2.96,1.647-6.225,6.074-7.512,13.469-1.672,9.615-10.869,13.377-10.869,13.377-3.762,9.615-21.32,12.123-21.738,9.615-.38-2.282,3.545-5.38,4.251-5.919a69.688,69.688,0,0,0-7.562,6,69.712,69.712,0,0,0-7.562-6c.707.539,4.632,3.637,4.251,5.919-.418,2.508-17.976,0-21.738-9.615,0,0-9.2-3.762-10.869-13.377-1.288-7.4-4.552-11.822-7.512-13.469l-1.3.51s5.853,1.672,7.943,14.213C57.711,599.546,66.3,601.72,66.3,601.72s4.6,10.869,26.335,11.705h0c21.737-.836,26.335-11.705,26.335-11.705s8.587-2.174,10.451-13.377c2.09-12.541,7.943-14.213,7.943-14.213Z" transform="translate(-47.904 -573.619)" fill="#ffabab"/>
                </g>
              </g>
            </g>
            <path id="Trazado_613298" data-name="Trazado 613298" d="M100.168,150.318a45.638,45.638,0,0,1-6.032-2.044A44.312,44.312,0,0,1,82.518,141.3c-8.361-7.107-10.593-8.879-14.631-10.033-5.853-1.672-23.41-2.09-30.935,0-4.051,1.125-6.271,2.926-14.631,10.033A44.31,44.31,0,0,1,10.7,148.274a45.638,45.638,0,0,1-6.032,2.044c.109-.961.251-1.91.418-2.851q.119-.683.263-1.354c16.713-3.624,20.869-15.819,27.837-22.787a23.29,23.29,0,0,1,6-4.239,29.441,29.441,0,0,1,26.454,0,23.292,23.292,0,0,1,6,4.239c6.969,6.969,11.124,19.163,27.837,22.787.1.456.188.92.268,1.38q.251,1.4.414,2.826" transform="translate(-4.345 -107.854)" fill="#ffabab"/>
            <g id="Grupo_1075111" data-name="Grupo 1075111" transform="translate(6.358 15.957)" opacity="0.45" style="mix-blend-mode: multiply;isolation: isolate">
              <g id="Grupo_1075110" data-name="Grupo 1075110">
                <g id="Grupo_1075109" data-name="Grupo 1075109" clip-path="url(#clip-path-9)">
                  <path id="Trazado_613299" data-name="Trazado 613299" d="M174.51,253.046a44.31,44.31,0,0,1-11.617-6.973c-8.361-7.107-10.593-8.879-14.631-10.033-5.853-1.672-23.41-2.09-30.935,0-4.051,1.125-6.271,2.926-14.631,10.033a44.309,44.309,0,0,1-11.617,6.973,55.4,55.4,0,0,0,16.007-12.407c6.9-7.587,11.517-11.157,19.849-11.822a75.226,75.226,0,0,1,11.768-.008c8.532.66,12.876,4.214,19.8,11.831a55.271,55.271,0,0,0,16.007,12.407" transform="translate(-91.078 -228.581)" fill="#ffabab"/>
                </g>
              </g>
            </g>
          </g>
        </g>
      </g>
    </g>
  </g>
</svg>
