<svg xmlns="http://www.w3.org/2000/svg" xmlns:xlink="http://www.w3.org/1999/xlink" width="1030" height="425" viewBox="0 0 1030 425">
  <defs>
    <clipPath id="clip-path">
      <rect id="Rectángulo_379852" data-name="Rectángulo 379852" width="1030" height="425" transform="translate(285 429)" fill="#fff" stroke="#707070" stroke-width="1"/>
    </clipPath>
    <clipPath id="clip-path-2">
      <path id="Trazado_611005" data-name="Trazado 611005" d="M0,0H1030V709.321H0Z" transform="translate(285 424.898)" fill="#e2f8f4"/>
    </clipPath>
    <clipPath id="clip-path-3">
      <rect id="Rectángulo_378610" data-name="Rectángulo 378610" width="986.719" height="277.003" fill="none" stroke="#ff00f5" stroke-width="1"/>
    </clipPath>
    <clipPath id="clip-path-4">
      <rect id="Rectángulo_378606" data-name="Rectángulo 378606" width="401.349" height="676.57" fill="none"/>
    </clipPath>
    <clipPath id="clip-path-6">
      <path id="Trazado_611055" data-name="Trazado 611055" d="M169.528,18.484c-2.54,6.855-1.016,25.885-1.016,25.885s-1.538-4.06-3.809-4.06c-3.379,0-4.818,2.538-3.042,12.435s7.867,14.718,7.867,14.718a12.037,12.037,0,0,0,3.805,8.371l2.793,22.588s-25.632,13.449-38.573,15.477-29.181,9.391-32.227,30.96-2.54,39.331-3.807,51.006,1.814,19.345-13.292,30.12-35.358,56.641-41.192,63-9.675,9.028-16.572,9.344-11.5,6.984-14.484,10.408-7.322,7.019-9.968,7.12-5.954,5.8-.8,7.132S21.206,316.9,21.206,316.9s-11.068,36.711-9.792,38.882,2.756,1.5,2.756,1.5-.4,3.561,1.752,4.379,4.69-1.929,4.69-1.929a4.77,4.77,0,0,0,3.615,2.246c2.767.449,8.312-7.816,8.312-7.816,5.959,1.281,10.138-5.764,15.694-15.076s9.961-29.4,9.961-29.4,50.472-46.184,60.2-61.493c7.715-12.147,17.893-30,19.1-45.227,2.37,9.433,5.538,31.178,7.165,36.795,2.791,9.642-4.062,44.41-11.164,79.933s4.058,97.7,8.879,119.771,11.927,54.305,11.168,62.682-9.9,35.021-7.867,49.23,21.061,69.025,21.314,82.725-12.941,24.613-15.73,25.634-3.044,6.336-1.779,8.626,12.69,2.28,19.033,1.519,8.122-2.536,8.122-2.536c.759,2.794,9.389,2.026,13.447,0s.508-21.822.508-29.944-7.612-15.732-7.106-24.362,7.106-45.168,7.614-62.933-6.6-33.494-6.6-33.494.508-6.092,5.582-16.75S191.1,426.276,191.1,408s7.713-51.766,7.713-51.766,7.715,33.494,7.715,51.766-4.062,81.209,1.014,91.863,5.582,16.75,5.582,16.75-7.1,15.734-6.6,33.494,7.1,54.305,7.614,62.933-7.108,16.243-7.108,24.362-3.554,27.914.508,29.944,12.688,2.794,13.451,0c0,0,1.773,1.775,8.12,2.536s17.766.761,19.033-1.519,1.016-7.614-1.779-8.626-15.989-11.932-15.732-25.634,19.288-68.515,21.316-82.725-7.106-40.856-7.869-49.23,6.348-40.6,11.166-62.682,15.989-84.242,8.886-119.771-13.96-70.291-11.168-79.933c1.625-5.617,4.8-27.362,7.165-36.795,1.206,15.224,11.384,33.08,19.1,45.227,9.724,15.31,60.2,61.493,60.2,61.493s4.411,20.09,9.961,29.4,9.738,16.357,15.7,15.076c0,0,5.542,8.265,8.309,7.816a4.759,4.759,0,0,0,3.613-2.246s2.543,2.747,4.694,1.929,1.749-4.379,1.749-4.379,1.484.66,2.756-1.5-9.79-38.882-9.79-38.882,10.829,7.422,15.989,6.085,1.85-7.027-.794-7.132-6.985-3.7-9.97-7.12-7.588-10.092-14.484-10.408-10.733-2.992-16.57-9.344-26.088-52.228-41.192-63-12.025-18.448-13.292-30.12-.759-29.436-3.809-51.006-19.284-28.928-32.227-30.96S221.5,98.422,221.5,98.422l1.775-22.588a12.036,12.036,0,0,0,3.807-8.371s6.09-4.823,7.865-14.718.34-12.435-3.046-12.435c-2.269,0-3.807,4.06-3.807,4.06s1.524-19.031-1.012-25.885S213.531,2.5,198.81,2.5s-26.744,9.136-29.282,15.985" transform="translate(-2.501 -2.499)" fill="#ecd0d0"/>
    </clipPath>
    <clipPath id="clip-path-7">
      <rect id="Rectángulo_378608" data-name="Rectángulo 378608" width="22.937" height="8.316" fill="#a21717"/>
    </clipPath>
  </defs>
  <g id="Enmascarar_grupo_1074381" data-name="Enmascarar grupo 1074381" transform="translate(-285 -429)" clip-path="url(#clip-path)">
    <g id="Grupo_1074299" data-name="Grupo 1074299">
      <g id="Grupo_1073696" data-name="Grupo 1073696" transform="translate(0.332 -17.363)">
        <g id="Grupo_1073695" data-name="Grupo 1073695">
          <path id="Trazado_608309" data-name="Trazado 608309" d="M0,0H1030V708.72H0Z" transform="translate(285 446.5)" fill="#d6f6f1"/>
          <g id="Enmascarar_grupo_1073329" data-name="Enmascarar grupo 1073329" transform="translate(0 21)" clip-path="url(#clip-path-2)">
            <path id="Trazado_611002" data-name="Trazado 611002" d="M1101.162,158.822v187.4a471.126,471.126,0,0,0-36.524,134.667H978.77a344.819,344.819,0,0,1,34.641-84.466c8.152-14.083,17.465-27.88,21.076-44.221,3.626-16.324-.29-36.328-13.341-44.423-18.716-11.615-40.4,6.932-55.732,23.736A1407.073,1407.073,0,0,1,806.476,480.892H596.131c4.244-4.515,8.584-8.912,12.872-13.317a937.444,937.444,0,0,0,120.762-153.93c11.569-18.379,22.9-38.2,25.037-60.645s-7.929-47.952-27.077-54.261c-32.593-10.739-55.873,34.955-85.7,53.3C606,274.209,554.179,246.2,546.772,200.575c-4.765-29.337,6.328-58.531,12.716-87.464S565.7,48.675,545,30.22c-16.073-14.336-39.8-12.912-58.151-2.636S454.307,55.422,440.564,72.6q-95.055,118.789-190.11,237.587c-21.925,27.408-47.513,56.838-80.158,58.245-45.264,1.963-77.984-52.812-81.744-103.881-5.308-72.177,27.575-141.3,68.194-197.291s89.821-103.839,126.9-162.867c14.9-23.711,27.754-56.2,13.527-80.431-11.651-19.853-37.164-23.618-56.93-15.414s-35.333,25.446-50.915,41.475C130.683-89.664,63.032-40.609-9.83-5.342V-99.729c13.765-10.217,27.2-20.855,40.284-31.232C68.735-161.31,105.475-194.117,142.7-226.15H496.839c-7.14,10.234-14.845,19.954-22.4,28.975Q389.813-96.2,305.188,4.783C294.289,17.788,283.115,31.29,277.62,48.1s-3.841,37.962,8.167,49.653c21.054,20.493,52.761-.371,73.837-20.838Q463.178-23.59,566.724-124.106c12.068-11.708,24.545-23.7,39.636-29.371s33.606-3.563,44.17,9.88c10.862,13.8,10.333,34.433,9.187,52.871q-6.767,108.909-13.549,217.818c34.849-17.764,68.961-37.314,103.84-55,40.924-20.763,143.945-55.659,103.475,43.673-10.2,25.033-21.285,50.6-22.4,78.132-1.1,27.56,10.817,57.967,33.859,66.963,25.707,10.04,52.352-9.08,75.4-25.4a515.141,515.141,0,0,1,160.792-76.632Z" transform="translate(233.83 651.065)" fill="#e2f8f4"/>
            <path id="Trazado_611003" data-name="Trazado 611003" d="M1375.513-128.48V-17.457c-48.436-27.038-105.761-33.515-157.837-17.116-22.059,6.941-43.18,17.764-65.67,22.616s-47.654,2.839-65.44-13.477c-23.54-21.6-27-61.808-18.463-94.708s26.548-61.412,40.165-92.038c2.017-4.54,3.96-9.215,5.762-13.991h103.252a148.871,148.871,0,0,1-20.3,36.674c-9.6,12.575-21.858,25.437-21.456,42.039.4,16.231,13.706,28.992,27.687,32.631s28.551.379,42.688-2.392a615.967,615.967,0,0,1,109.714-11.472c6.611-.1,13.259-.076,19.907.194Z" transform="translate(-40.52 651.068)" fill="#e2f8f4"/>
            <path id="Trazado_611004" data-name="Trazado 611004" d="M502.391,583.53H407.307c9.016-22.211,30.769-41.8,23.176-64.2-5.948-17.537-26.98-21.79-42.837-16.206-33.747,11.893-52.069,50.706-76.465,80.406H192.83c.35-.278.692-.547,1.042-.809l150.191-115.8c31.127-24,66.936-49.148,103.8-40.405,33.233,7.884,57.809,43.741,62.633,81.762,2.606,20.518-.253,49.771-8.1,75.251Z" transform="translate(182.045 548.42)" fill="#e2f8f4"/>
            <g id="Grupo_1074303" data-name="Grupo 1074303" transform="translate(307.161 757.159)">
              <g id="Grupo_1074302" data-name="Grupo 1074302" clip-path="url(#clip-path-3)">
                <path id="Trazado_611092" data-name="Trazado 611092" d="M0,157.539H23.021v-28.2a12.87,12.87,0,1,1,25.74,0v80.322a13.861,13.861,0,0,0,27.722,0V64.164a16.83,16.83,0,0,1,33.66,0v194.9a15.84,15.84,0,0,0,31.68,0V21.289a20.79,20.79,0,0,1,41.581,0v236.7a16.831,16.831,0,1,0,33.663,0V69.367a19.8,19.8,0,1,1,39.6,0V208.514a14.85,14.85,0,0,0,29.7,0V132.872a14.168,14.168,0,1,1,28.336,0v24.643h26.353" transform="translate(0 0.799)" fill="none" stroke="#ff00f5" stroke-miterlimit="10" stroke-width="1"/>
                <path id="Trazado_611093" data-name="Trazado 611093" d="M124.231,157.539h23.021v-28.2a12.87,12.87,0,1,1,25.74,0v80.322a13.861,13.861,0,1,0,27.722,0V64.164a16.83,16.83,0,0,1,33.66,0v194.9a15.84,15.84,0,0,0,31.68,0V21.289a20.79,20.79,0,0,1,41.581,0v236.7a16.83,16.83,0,1,0,33.66,0V69.367a19.8,19.8,0,0,1,39.6,0V208.514a14.85,14.85,0,0,0,29.7,0V132.872a14.168,14.168,0,1,1,28.336,0v24.643h26.35" transform="translate(198.601 0.799)" fill="none" stroke="#ff00f5" stroke-miterlimit="10" stroke-width="1"/>
                <path id="Trazado_611094" data-name="Trazado 611094" d="M248.462,157.539h23.019v-28.2a12.87,12.87,0,1,1,25.74,0v80.322a13.861,13.861,0,1,0,27.722,0V64.164a16.83,16.83,0,0,1,33.66,0v194.9a15.841,15.841,0,0,0,31.683,0V21.289a20.79,20.79,0,0,1,41.581,0v236.7a16.83,16.83,0,1,0,33.66,0V69.367a19.8,19.8,0,1,1,39.6,0V208.514a14.849,14.849,0,1,0,29.7,0V132.872a14.169,14.169,0,0,1,28.338,0v24.643h26.353" transform="translate(397.203 0.799)" fill="none" stroke="#ff00f5" stroke-miterlimit="10" stroke-width="1"/>
              </g>
            </g>
          </g>
        </g>
        <g id="Grupo_1016542" data-name="Grupo 1016542" transform="translate(0 -5162.5)">
          <rect id="Rectángulo_347086" data-name="Rectángulo 347086" width="155" height="37" rx="11" transform="translate(920.5 5627.5)" fill="#624b7e"/>
          <rect id="Rectángulo_347088" data-name="Rectángulo 347088" width="194" height="37" rx="9" transform="translate(909 5818)" fill="#eadff7"/>
          <rect id="Rectángulo_347091" data-name="Rectángulo 347091" width="145" height="37" rx="9" transform="translate(497.331 5664.5)" fill="#cbb1eb"/>
          <path id="Trazado_627891" data-name="Trazado 627891" d="M10.824,16H8.732V10.638h-5.4V16h-2.1V3.914h2.1v5.03h5.4V3.914h2.092Zm4.433,0H13.24V7.019h2.017ZM13.115,4.686a1.071,1.071,0,0,1,.295-.772,1.113,1.113,0,0,1,.843-.307,1.127,1.127,0,0,1,.847.307,1.062,1.062,0,0,1,.3.772,1.038,1.038,0,0,1-.3.76,1.136,1.136,0,0,1-.847.3,1.122,1.122,0,0,1-.843-.3A1.046,1.046,0,0,1,13.115,4.686ZM17.1,11.443A5.253,5.253,0,0,1,18.083,8.1a3.157,3.157,0,0,1,2.611-1.249,2.958,2.958,0,0,1,2.416,1.071l.091-.9h1.818v8.708a3.619,3.619,0,0,1-1.1,2.789,4.189,4.189,0,0,1-2.968,1.021,4.783,4.783,0,0,1-1.93-.411,3.429,3.429,0,0,1-1.432-1.075l.955-1.212a2.883,2.883,0,0,0,2.291,1.1A2.228,2.228,0,0,0,22.42,17.4,2.084,2.084,0,0,0,23,15.8v-.606a2.97,2.97,0,0,1-2.324.971A3.15,3.15,0,0,1,18.1,14.913,5.423,5.423,0,0,1,17.1,11.443Zm2.009.174a3.616,3.616,0,0,0,.552,2.129,1.775,1.775,0,0,0,1.531.776A1.941,1.941,0,0,0,23,13.477V9.525A1.913,1.913,0,0,0,21.208,8.5a1.782,1.782,0,0,0-1.548.789A4.049,4.049,0,0,0,19.108,11.617ZM29.235,16H27.218V7.019h2.017ZM27.094,4.686a1.071,1.071,0,0,1,.295-.772,1.113,1.113,0,0,1,.843-.307,1.127,1.127,0,0,1,.847.307,1.062,1.062,0,0,1,.3.772,1.038,1.038,0,0,1-.3.76,1.136,1.136,0,0,1-.847.3,1.122,1.122,0,0,1-.843-.3A1.046,1.046,0,0,1,27.094,4.686Zm8.292,11.48a4.173,4.173,0,0,1-3.109-1.208,4.381,4.381,0,0,1-1.191-3.217v-.249a5.389,5.389,0,0,1,.519-2.4,3.949,3.949,0,0,1,1.457-1.648,3.851,3.851,0,0,1,2.092-.589,3.525,3.525,0,0,1,2.835,1.17,4.949,4.949,0,0,1,1,3.312v.813H33.12a2.7,2.7,0,0,0,.743,1.76,2.23,2.23,0,0,0,1.639.647,2.731,2.731,0,0,0,2.258-1.121l1.087,1.038a3.631,3.631,0,0,1-1.44,1.249A4.509,4.509,0,0,1,35.386,16.166Zm-.241-7.695a1.7,1.7,0,0,0-1.341.581,3.012,3.012,0,0,0-.652,1.619H37v-.149a2.452,2.452,0,0,0-.54-1.531A1.686,1.686,0,0,0,35.146,8.471Zm7.28-1.453.058,1.038a3.229,3.229,0,0,1,2.615-1.2q2.806,0,2.855,3.212V16H45.937V10.181a1.85,1.85,0,0,0-.369-1.266A1.554,1.554,0,0,0,44.359,8.5a1.944,1.944,0,0,0-1.818,1.1V16H40.524V7.019Zm11.538,9.147a4.173,4.173,0,0,1-3.109-1.208,4.381,4.381,0,0,1-1.191-3.217v-.249a5.389,5.389,0,0,1,.519-2.4,3.949,3.949,0,0,1,1.457-1.648,3.851,3.851,0,0,1,2.092-.589,3.525,3.525,0,0,1,2.835,1.17,4.949,4.949,0,0,1,1,3.312v.813H51.7a2.7,2.7,0,0,0,.743,1.76,2.23,2.23,0,0,0,1.639.647,2.731,2.731,0,0,0,2.258-1.121l1.087,1.038a3.631,3.631,0,0,1-1.44,1.249A4.509,4.509,0,0,1,53.963,16.166Zm-.241-7.695a1.7,1.7,0,0,0-1.341.581,3.012,3.012,0,0,0-.652,1.619h3.843v-.149a2.452,2.452,0,0,0-.54-1.531A1.686,1.686,0,0,0,53.723,8.471ZM71.246,11.6a5.4,5.4,0,0,1-.934,3.329,3.042,3.042,0,0,1-2.569,1.237,2.93,2.93,0,0,1-2.457-1.137l-.1.971H63.36V3.25h2.017V7.882a2.92,2.92,0,0,1,2.349-1.029,3.077,3.077,0,0,1,2.582,1.22,5.484,5.484,0,0,1,.938,3.412Zm-2.017-.174a3.813,3.813,0,0,0-.515-2.191A1.714,1.714,0,0,0,67.22,8.5,1.873,1.873,0,0,0,65.377,9.65v3.7a1.892,1.892,0,0,0,1.859,1.17,1.7,1.7,0,0,0,1.461-.706,3.7,3.7,0,0,0,.531-2.133Zm9.147,3.694a3.128,3.128,0,0,1-2.523,1.046,2.788,2.788,0,0,1-2.212-.855,3.637,3.637,0,0,1-.751-2.474V7.019h2.017v5.794q0,1.71,1.419,1.71a1.993,1.993,0,0,0,1.984-1.054V7.019h2.017V16h-1.9Zm7.695-.564a1.824,1.824,0,0,0,1.253-.44,1.5,1.5,0,0,0,.531-1.087h1.9a2.963,2.963,0,0,1-.523,1.565,3.43,3.43,0,0,1-1.328,1.15,3.958,3.958,0,0,1-1.81.423,3.829,3.829,0,0,1-2.988-1.22,4.84,4.84,0,0,1-1.1-3.37v-.208a4.759,4.759,0,0,1,1.1-3.283,3.8,3.8,0,0,1,2.988-1.233,3.69,3.69,0,0,1,2.611.934,3.345,3.345,0,0,1,1.058,2.453h-1.9a1.847,1.847,0,0,0-.527-1.27,1.7,1.7,0,0,0-1.258-.5,1.775,1.775,0,0,0-1.511.71,3.621,3.621,0,0,0-.54,2.154v.324a3.681,3.681,0,0,0,.527,2.179A1.773,1.773,0,0,0,86.071,14.556ZM96.646,16a3.113,3.113,0,0,1-.232-.838,3.393,3.393,0,0,1-4.565.232,2.47,2.47,0,0,1-.855-1.909,2.55,2.55,0,0,1,1.067-2.2,5.169,5.169,0,0,1,3.051-.768h1.237V9.924a1.573,1.573,0,0,0-.39-1.116,1.547,1.547,0,0,0-1.187-.419,1.777,1.777,0,0,0-1.129.344,1.066,1.066,0,0,0-.44.876H91.184a2.239,2.239,0,0,1,.49-1.382,3.263,3.263,0,0,1,1.332-1.009,4.68,4.68,0,0,1,1.88-.365,3.769,3.769,0,0,1,2.515.793,2.827,2.827,0,0,1,.963,2.229v4.051a4.591,4.591,0,0,0,.34,1.934V16ZM94.43,14.547a2.294,2.294,0,0,0,1.125-.291,1.941,1.941,0,0,0,.793-.78V11.783H95.26a2.973,2.973,0,0,0-1.685.39,1.264,1.264,0,0,0-.564,1.1,1.179,1.179,0,0,0,.386.926A1.5,1.5,0,0,0,94.43,14.547ZM102.623,16h-2.017V3.25h2.017Z" transform="translate(946 5636.5)" fill="#fff"/>
          <path id="Trazado_627893" data-name="Trazado 627893" d="M10.824,16H8.732V10.638h-5.4V16h-2.1V3.914h2.1v5.03h5.4V3.914h2.092Zm4.433,0H13.24V7.019h2.017ZM13.115,4.686a1.071,1.071,0,0,1,.295-.772,1.113,1.113,0,0,1,.843-.307,1.127,1.127,0,0,1,.847.307,1.062,1.062,0,0,1,.3.772,1.038,1.038,0,0,1-.3.76,1.136,1.136,0,0,1-.847.3,1.122,1.122,0,0,1-.843-.3A1.046,1.046,0,0,1,13.115,4.686ZM17.1,11.443A5.253,5.253,0,0,1,18.083,8.1a3.157,3.157,0,0,1,2.611-1.249,2.958,2.958,0,0,1,2.416,1.071l.091-.9h1.818v8.708a3.619,3.619,0,0,1-1.1,2.789,4.189,4.189,0,0,1-2.968,1.021,4.783,4.783,0,0,1-1.93-.411,3.429,3.429,0,0,1-1.432-1.075l.955-1.212a2.883,2.883,0,0,0,2.291,1.1A2.228,2.228,0,0,0,22.42,17.4,2.084,2.084,0,0,0,23,15.8v-.606a2.97,2.97,0,0,1-2.324.971A3.15,3.15,0,0,1,18.1,14.913,5.423,5.423,0,0,1,17.1,11.443Zm2.009.174a3.616,3.616,0,0,0,.552,2.129,1.775,1.775,0,0,0,1.531.776A1.941,1.941,0,0,0,23,13.477V9.525A1.913,1.913,0,0,0,21.208,8.5a1.782,1.782,0,0,0-1.548.789A4.049,4.049,0,0,0,19.108,11.617ZM29.235,16H27.218V7.019h2.017ZM27.094,4.686a1.071,1.071,0,0,1,.295-.772,1.113,1.113,0,0,1,.843-.307,1.127,1.127,0,0,1,.847.307,1.062,1.062,0,0,1,.3.772,1.038,1.038,0,0,1-.3.76,1.136,1.136,0,0,1-.847.3,1.122,1.122,0,0,1-.843-.3A1.046,1.046,0,0,1,27.094,4.686Zm8.292,11.48a4.173,4.173,0,0,1-3.109-1.208,4.381,4.381,0,0,1-1.191-3.217v-.249a5.389,5.389,0,0,1,.519-2.4,3.949,3.949,0,0,1,1.457-1.648,3.851,3.851,0,0,1,2.092-.589,3.525,3.525,0,0,1,2.835,1.17,4.949,4.949,0,0,1,1,3.312v.813H33.12a2.7,2.7,0,0,0,.743,1.76,2.23,2.23,0,0,0,1.639.647,2.731,2.731,0,0,0,2.258-1.121l1.087,1.038a3.631,3.631,0,0,1-1.44,1.249A4.509,4.509,0,0,1,35.386,16.166Zm-.241-7.695a1.7,1.7,0,0,0-1.341.581,3.012,3.012,0,0,0-.652,1.619H37v-.149a2.452,2.452,0,0,0-.54-1.531A1.686,1.686,0,0,0,35.146,8.471Zm7.28-1.453.058,1.038a3.229,3.229,0,0,1,2.615-1.2q2.806,0,2.855,3.212V16H45.937V10.181a1.85,1.85,0,0,0-.369-1.266A1.554,1.554,0,0,0,44.359,8.5a1.944,1.944,0,0,0-1.818,1.1V16H40.524V7.019Zm11.538,9.147a4.173,4.173,0,0,1-3.109-1.208,4.381,4.381,0,0,1-1.191-3.217v-.249a5.389,5.389,0,0,1,.519-2.4,3.949,3.949,0,0,1,1.457-1.648,3.851,3.851,0,0,1,2.092-.589,3.525,3.525,0,0,1,2.835,1.17,4.949,4.949,0,0,1,1,3.312v.813H51.7a2.7,2.7,0,0,0,.743,1.76,2.23,2.23,0,0,0,1.639.647,2.731,2.731,0,0,0,2.258-1.121l1.087,1.038a3.631,3.631,0,0,1-1.44,1.249A4.509,4.509,0,0,1,53.963,16.166Zm-.241-7.695a1.7,1.7,0,0,0-1.341.581,3.012,3.012,0,0,0-.652,1.619h3.843v-.149a2.452,2.452,0,0,0-.54-1.531A1.686,1.686,0,0,0,53.723,8.471Zm13.6,7.695a4.173,4.173,0,0,1-3.109-1.208,4.381,4.381,0,0,1-1.191-3.217v-.249a5.389,5.389,0,0,1,.519-2.4A3.949,3.949,0,0,1,65,7.442a3.851,3.851,0,0,1,2.092-.589,3.525,3.525,0,0,1,2.835,1.17,4.949,4.949,0,0,1,1,3.312v.813H65.053a2.7,2.7,0,0,0,.743,1.76,2.23,2.23,0,0,0,1.639.647,2.731,2.731,0,0,0,2.258-1.121l1.087,1.038a3.631,3.631,0,0,1-1.44,1.249A4.509,4.509,0,0,1,67.319,16.166Zm-.241-7.695a1.7,1.7,0,0,0-1.341.581,3.012,3.012,0,0,0-.652,1.619H68.93v-.149a2.452,2.452,0,0,0-.54-1.531A1.686,1.686,0,0,0,67.079,8.471Zm10.11.39a4.991,4.991,0,0,0-.822-.066A1.85,1.85,0,0,0,74.5,9.857V16H72.482V7.019h1.926l.05,1a2.273,2.273,0,0,1,2.025-1.17,1.888,1.888,0,0,1,.714.116Zm.764,2.582A5.253,5.253,0,0,1,78.936,8.1a3.157,3.157,0,0,1,2.611-1.249,2.958,2.958,0,0,1,2.416,1.071l.091-.9h1.818v8.708a3.619,3.619,0,0,1-1.1,2.789A4.189,4.189,0,0,1,81.8,19.536a4.783,4.783,0,0,1-1.93-.411,3.429,3.429,0,0,1-1.432-1.075l.955-1.212a2.883,2.883,0,0,0,2.291,1.1,2.228,2.228,0,0,0,1.585-.544,2.084,2.084,0,0,0,.581-1.6v-.606a2.97,2.97,0,0,1-2.324.971,3.15,3.15,0,0,1-2.577-1.253A5.423,5.423,0,0,1,77.953,11.443Zm2.009.174a3.616,3.616,0,0,0,.552,2.129,1.775,1.775,0,0,0,1.531.776,1.941,1.941,0,0,0,1.81-1.046V9.525A1.913,1.913,0,0,0,82.062,8.5a1.782,1.782,0,0,0-1.548.789A4.049,4.049,0,0,0,79.961,11.617Zm7.6-.191a5.3,5.3,0,0,1,.523-2.378,3.819,3.819,0,0,1,1.469-1.627,4.14,4.14,0,0,1,2.175-.569,3.923,3.923,0,0,1,2.951,1.17,4.6,4.6,0,0,1,1.224,3.1l.008.473a5.343,5.343,0,0,1-.51,2.374,3.773,3.773,0,0,1-1.461,1.619,4.17,4.17,0,0,1-2.2.573A3.9,3.9,0,0,1,88.706,14.9a4.848,4.848,0,0,1-1.141-3.374Zm2.017.174a3.619,3.619,0,0,0,.573,2.171,1.862,1.862,0,0,0,1.594.784,1.842,1.842,0,0,0,1.59-.8,4,4,0,0,0,.569-2.333,3.572,3.572,0,0,0-.585-2.158,1.973,1.973,0,0,0-3.158-.012A3.922,3.922,0,0,0,89.582,11.6Zm9.911-4.582.058,1.038a3.229,3.229,0,0,1,2.615-1.2q2.806,0,2.855,3.212V16H103V10.181a1.85,1.85,0,0,0-.369-1.266,1.554,1.554,0,0,0-1.208-.411,1.944,1.944,0,0,0-1.818,1.1V16H97.592V7.019Zm7.205,4.408a5.3,5.3,0,0,1,.523-2.378,3.819,3.819,0,0,1,1.469-1.627,4.14,4.14,0,0,1,2.175-.569,3.923,3.923,0,0,1,2.951,1.17,4.6,4.6,0,0,1,1.224,3.1l.008.473a5.343,5.343,0,0,1-.51,2.374,3.773,3.773,0,0,1-1.461,1.619,4.17,4.17,0,0,1-2.2.573A3.9,3.9,0,0,1,107.84,14.9a4.848,4.848,0,0,1-1.141-3.374Zm2.017.174a3.619,3.619,0,0,0,.573,2.171,1.862,1.862,0,0,0,1.594.784,1.842,1.842,0,0,0,1.59-.8,4,4,0,0,0,.569-2.333,3.572,3.572,0,0,0-.585-2.158,1.973,1.973,0,0,0-3.158-.012A3.922,3.922,0,0,0,108.715,11.6Zm2.706-8.351h2.3l-2.3,2.515-1.619,0Zm7.23,3.769.058.938a3.232,3.232,0,0,1,2.59-1.1,2.483,2.483,0,0,1,2.465,1.378,3.186,3.186,0,0,1,2.756-1.378,2.8,2.8,0,0,1,2.212.822,3.618,3.618,0,0,1,.743,2.424V16h-2.017V10.156a1.786,1.786,0,0,0-.374-1.253,1.635,1.635,0,0,0-1.237-.4,1.679,1.679,0,0,0-1.125.369,1.948,1.948,0,0,0-.61.967L124.122,16H122.1V10.09A1.439,1.439,0,0,0,120.486,8.5a1.776,1.776,0,0,0-1.718.988V16H116.75V7.019ZM133.692,16h-2.017V7.019h2.017ZM131.551,4.686a1.07,1.07,0,0,1,.295-.772,1.113,1.113,0,0,1,.843-.307,1.127,1.127,0,0,1,.847.307,1.062,1.062,0,0,1,.3.772,1.038,1.038,0,0,1-.3.76,1.136,1.136,0,0,1-.847.3,1.122,1.122,0,0,1-.843-.3A1.046,1.046,0,0,1,131.551,4.686Zm8.027,9.87a1.824,1.824,0,0,0,1.253-.44,1.5,1.5,0,0,0,.531-1.087h1.9a2.963,2.963,0,0,1-.523,1.565,3.43,3.43,0,0,1-1.328,1.15,3.958,3.958,0,0,1-1.81.423,3.829,3.829,0,0,1-2.988-1.22,4.84,4.84,0,0,1-1.1-3.37v-.208a4.759,4.759,0,0,1,1.1-3.283,3.8,3.8,0,0,1,2.988-1.233,3.69,3.69,0,0,1,2.611.934,3.345,3.345,0,0,1,1.058,2.453h-1.9a1.847,1.847,0,0,0-.527-1.27,1.7,1.7,0,0,0-1.258-.5,1.775,1.775,0,0,0-1.511.71,3.621,3.621,0,0,0-.54,2.154v.324a3.682,3.682,0,0,0,.527,2.179A1.773,1.773,0,0,0,139.578,14.556ZM150.153,16a3.113,3.113,0,0,1-.232-.838,3.393,3.393,0,0,1-4.565.232,2.47,2.47,0,0,1-.855-1.909,2.55,2.55,0,0,1,1.067-2.2,5.169,5.169,0,0,1,3.051-.768h1.237V9.924a1.573,1.573,0,0,0-.39-1.116,1.547,1.547,0,0,0-1.187-.419,1.777,1.777,0,0,0-1.129.344,1.066,1.066,0,0,0-.44.876h-2.017a2.239,2.239,0,0,1,.49-1.382,3.263,3.263,0,0,1,1.332-1.009,4.68,4.68,0,0,1,1.88-.365,3.769,3.769,0,0,1,2.515.793,2.827,2.827,0,0,1,.963,2.229v4.051a4.591,4.591,0,0,0,.34,1.934V16Zm-2.216-1.453a2.294,2.294,0,0,0,1.125-.291,1.941,1.941,0,0,0,.793-.78V11.783h-1.087a2.973,2.973,0,0,0-1.685.39,1.264,1.264,0,0,0-.564,1.1,1.179,1.179,0,0,0,.386.926A1.5,1.5,0,0,0,147.937,14.547Z" transform="translate(929.5 5826.5)" fill="#12263f"/>
          <path id="Trazado_627892" data-name="Trazado 627892" d="M10.824,16H8.732V10.638h-5.4V16h-2.1V3.914h2.1v5.03h5.4V3.914h2.092Zm4.433,0H13.24V7.019h2.017ZM13.115,4.686a1.071,1.071,0,0,1,.295-.772,1.113,1.113,0,0,1,.843-.307,1.127,1.127,0,0,1,.847.307,1.062,1.062,0,0,1,.3.772,1.038,1.038,0,0,1-.3.76,1.136,1.136,0,0,1-.847.3,1.122,1.122,0,0,1-.843-.3A1.046,1.046,0,0,1,13.115,4.686ZM17.1,11.443A5.253,5.253,0,0,1,18.083,8.1a3.157,3.157,0,0,1,2.611-1.249,2.958,2.958,0,0,1,2.416,1.071l.091-.9h1.818v8.708a3.619,3.619,0,0,1-1.1,2.789,4.189,4.189,0,0,1-2.968,1.021,4.783,4.783,0,0,1-1.93-.411,3.429,3.429,0,0,1-1.432-1.075l.955-1.212a2.883,2.883,0,0,0,2.291,1.1A2.228,2.228,0,0,0,22.42,17.4,2.084,2.084,0,0,0,23,15.8v-.606a2.97,2.97,0,0,1-2.324.971A3.15,3.15,0,0,1,18.1,14.913,5.423,5.423,0,0,1,17.1,11.443Zm2.009.174a3.616,3.616,0,0,0,.552,2.129,1.775,1.775,0,0,0,1.531.776A1.941,1.941,0,0,0,23,13.477V9.525A1.913,1.913,0,0,0,21.208,8.5a1.782,1.782,0,0,0-1.548.789A4.049,4.049,0,0,0,19.108,11.617ZM29.235,16H27.218V7.019h2.017ZM27.094,4.686a1.071,1.071,0,0,1,.295-.772,1.113,1.113,0,0,1,.843-.307,1.127,1.127,0,0,1,.847.307,1.062,1.062,0,0,1,.3.772,1.038,1.038,0,0,1-.3.76,1.136,1.136,0,0,1-.847.3,1.122,1.122,0,0,1-.843-.3A1.046,1.046,0,0,1,27.094,4.686Zm8.292,11.48a4.173,4.173,0,0,1-3.109-1.208,4.381,4.381,0,0,1-1.191-3.217v-.249a5.389,5.389,0,0,1,.519-2.4,3.949,3.949,0,0,1,1.457-1.648,3.851,3.851,0,0,1,2.092-.589,3.525,3.525,0,0,1,2.835,1.17,4.949,4.949,0,0,1,1,3.312v.813H33.12a2.7,2.7,0,0,0,.743,1.76,2.23,2.23,0,0,0,1.639.647,2.731,2.731,0,0,0,2.258-1.121l1.087,1.038a3.631,3.631,0,0,1-1.44,1.249A4.509,4.509,0,0,1,35.386,16.166Zm-.241-7.695a1.7,1.7,0,0,0-1.341.581,3.012,3.012,0,0,0-.652,1.619H37v-.149a2.452,2.452,0,0,0-.54-1.531A1.686,1.686,0,0,0,35.146,8.471Zm7.28-1.453.058,1.038a3.229,3.229,0,0,1,2.615-1.2q2.806,0,2.855,3.212V16H45.937V10.181a1.85,1.85,0,0,0-.369-1.266A1.554,1.554,0,0,0,44.359,8.5a1.944,1.944,0,0,0-1.818,1.1V16H40.524V7.019Zm11.538,9.147a4.173,4.173,0,0,1-3.109-1.208,4.381,4.381,0,0,1-1.191-3.217v-.249a5.389,5.389,0,0,1,.519-2.4,3.949,3.949,0,0,1,1.457-1.648,3.851,3.851,0,0,1,2.092-.589,3.525,3.525,0,0,1,2.835,1.17,4.949,4.949,0,0,1,1,3.312v.813H51.7a2.7,2.7,0,0,0,.743,1.76,2.23,2.23,0,0,0,1.639.647,2.731,2.731,0,0,0,2.258-1.121l1.087,1.038a3.631,3.631,0,0,1-1.44,1.249A4.509,4.509,0,0,1,53.963,16.166Zm-.241-7.695a1.7,1.7,0,0,0-1.341.581,3.012,3.012,0,0,0-.652,1.619h3.843v-.149a2.452,2.452,0,0,0-.54-1.531A1.686,1.686,0,0,0,53.723,8.471Zm12.808,4.972,1.9-6.425h2.083L67.4,16H65.651L62.513,7.019H64.6Zm4.74-2.017a5.3,5.3,0,0,1,.523-2.378,3.819,3.819,0,0,1,1.469-1.627,4.14,4.14,0,0,1,2.175-.569,3.923,3.923,0,0,1,2.951,1.17,4.6,4.6,0,0,1,1.224,3.1l.008.473a5.343,5.343,0,0,1-.51,2.374,3.773,3.773,0,0,1-1.461,1.619,4.17,4.17,0,0,1-2.2.573A3.9,3.9,0,0,1,72.412,14.9a4.848,4.848,0,0,1-1.141-3.374Zm2.017.174a3.619,3.619,0,0,0,.573,2.171,1.862,1.862,0,0,0,1.594.784,1.842,1.842,0,0,0,1.59-.8,4,4,0,0,0,.569-2.333,3.572,3.572,0,0,0-.585-2.158,1.973,1.973,0,0,0-3.158-.012A3.922,3.922,0,0,0,73.288,11.6Zm11.729,2.955a1.824,1.824,0,0,0,1.253-.44,1.5,1.5,0,0,0,.531-1.087h1.9a2.963,2.963,0,0,1-.523,1.565,3.43,3.43,0,0,1-1.328,1.15,3.958,3.958,0,0,1-1.81.423,3.829,3.829,0,0,1-2.988-1.22,4.84,4.84,0,0,1-1.1-3.37v-.208a4.759,4.759,0,0,1,1.1-3.283,3.8,3.8,0,0,1,2.988-1.233,3.69,3.69,0,0,1,2.611.934A3.345,3.345,0,0,1,88.7,10.239H86.8a1.847,1.847,0,0,0-.527-1.27,1.7,1.7,0,0,0-1.258-.5,1.775,1.775,0,0,0-1.511.71,3.621,3.621,0,0,0-.54,2.154v.324a3.681,3.681,0,0,0,.527,2.179A1.773,1.773,0,0,0,85.017,14.556ZM95.592,16a3.113,3.113,0,0,1-.232-.838,3.393,3.393,0,0,1-4.565.232,2.47,2.47,0,0,1-.855-1.909,2.55,2.55,0,0,1,1.067-2.2,5.169,5.169,0,0,1,3.051-.768h1.237V9.924a1.573,1.573,0,0,0-.39-1.116,1.547,1.547,0,0,0-1.187-.419,1.777,1.777,0,0,0-1.129.344,1.066,1.066,0,0,0-.44.876H90.13a2.239,2.239,0,0,1,.49-1.382,3.263,3.263,0,0,1,1.332-1.009,4.68,4.68,0,0,1,1.88-.365,3.769,3.769,0,0,1,2.515.793,2.827,2.827,0,0,1,.963,2.229v4.051a4.591,4.591,0,0,0,.34,1.934V16Zm-2.216-1.453a2.294,2.294,0,0,0,1.125-.291,1.941,1.941,0,0,0,.793-.78V11.783H94.206a2.973,2.973,0,0,0-1.685.39,1.264,1.264,0,0,0-.564,1.1,1.179,1.179,0,0,0,.386.926A1.5,1.5,0,0,0,93.375,14.547ZM101.568,16H99.551V3.25h2.017Z" transform="translate(520.331 5673.5)" fill="#12263f"/>
        </g>
        <g id="Grupo_1074293" data-name="Grupo 1074293" transform="translate(582.668 459.363)">
          <g id="Grupo_1074292" data-name="Grupo 1074292" clip-path="url(#clip-path-4)">
            <g id="Grupo_1074178" data-name="Grupo 1074178">
              <g id="Grupo_1074177" data-name="Grupo 1074177" clip-path="url(#clip-path-4)">
                <path id="Trazado_611054" data-name="Trazado 611054" d="M401.3,321.129c-.436-4.069-3.945-7.626-7.553-7.762-1-.192-4.056-2.311-6.956-5.634-.351-.4-.726-.854-1.124-1.334-3.175-3.817-8.487-10.2-16.451-10.569-5.195-.237-7.982-1.869-13.554-7.935-1.6-1.744-5.579-9.057-9.426-16.132-9.12-16.771-21.609-39.738-32.447-47.468-10.527-7.509-10.728-12.414-11.065-20.541-.082-2.042-.169-4.156-.424-6.5-.463-4.243-.682-9.38-.939-15.329a357.339,357.339,0,0,0-2.885-35.814c-3.645-25.83-24.039-32.8-35.873-34.662-9.782-1.534-27.978-10.361-34.669-13.728l1.426-18.139a16.333,16.333,0,0,0,3.807-8.256,30.931,30.931,0,0,0,7.933-15.948c1.409-7.849,1.042-12.175-1.264-14.933a7.369,7.369,0,0,0-5.1-2.59c.148-6.364-.051-14.557-1.7-19.026C229.606,9.575,216.564,0,200.675,0c-15.79,0-30,9.738-33.374,18.832-1.655,4.468-1.854,12.662-1.707,19.026a7.382,7.382,0,0,0-5.1,2.589c-2.306,2.758-2.672,7.083-1.264,14.934a30.909,30.909,0,0,0,7.935,15.948,16.368,16.368,0,0,0,3.878,8.345l2.241,18.115c-6.792,3.412-24.821,12.14-34.545,13.664-11.831,1.859-32.223,8.832-35.871,34.66a357.68,357.68,0,0,0-2.885,35.83c-.257,5.943-.477,11.075-.937,15.317-.255,2.341-.342,4.456-.426,6.5-.337,8.125-.538,13.028-11.061,20.536-10.845,7.731-23.334,30.7-32.454,47.475-3.844,7.071-7.82,14.381-9.417,16.123-5.579,6.067-8.366,7.7-13.561,7.937-7.965.365-13.28,6.757-16.456,10.576-.4.478-.77.927-1.117,1.327-2.9,3.325-5.952,5.442-6.849,5.626-3.714.145-7.223,3.7-7.659,7.771-.407,3.789,1.925,6.909,5.942,7.947,2.8.723,6.477-.063,9.9-1.45-8.389,28.8-7.324,30.617-6.371,32.239a8.1,8.1,0,0,0,2.424,2.637,7,7,0,0,0,4.289,5.1,7.8,7.8,0,0,0,6.032-.47,10.476,10.476,0,0,0,3.126,1.016c3.2.531,7.022-1.983,11.192-7.638,7.226-.5,11.655-7.924,17.263-17.324,5.043-8.457,9.042-24.534,10.166-29.336,7.389-6.8,50.664-46.868,59.928-61.45a172.842,172.842,0,0,0,14.819-27.914c.089.5.178,1.005.265,1.5,1.316,7.455,2.452,13.892,3.309,16.853,2.554,8.822-5.1,47.1-11.253,77.862-8.2,41.015,7.123,113.437,8.9,121.559l.358,1.639c4.266,19.528,11.407,52.216,10.726,59.718a114.5,114.5,0,0,1-2.623,12.279c-2.988,12.271-6.706,27.544-5.217,37.961.918,6.432,4.828,19.684,9.354,35.03,5.25,17.8,11.785,39.947,11.918,47.158C164.7,647.2,153.777,656.5,151.634,657.5a7.906,7.906,0,0,0-4.619,4.845,12.828,12.828,0,0,0,.515,10.005c1.218,2.191,3.828,4.219,14.582,4.219a77.592,77.592,0,0,0,8.785-.489,28.736,28.736,0,0,0,7.08-1.643,13.221,13.221,0,0,0,5.369.958,25.52,25.52,0,0,0,10.55-2.281c5.277-2.637,4.814-10.729,3.542-24.812-.318-3.519-.62-6.844-.62-9.033,0-4.835-1.979-9.127-3.894-13.278-1.759-3.81-3.421-7.411-3.22-10.829.18-3.048,1.238-10.277,2.463-18.649,2.154-14.728,4.833-33.059,5.158-44.417.454-15.877-4.758-30.017-6.465-34.192a59.57,59.57,0,0,1,5.025-14.3c3.924-8.233,3.233-37.851,2.013-72.822-.307-8.766-.571-16.336-.571-20.918,0-8.125,1.611-19.534,3.35-29.479,1.74,9.946,3.351,21.354,3.351,29.479,0,4.582-.264,12.156-.571,20.925-1.22,34.967-1.911,64.583,2.009,72.815a59.418,59.418,0,0,1,5.027,14.3c-1.7,4.17-6.917,18.315-6.464,34.2.325,11.36,3.006,29.692,5.158,44.424,1.225,8.368,2.281,15.594,2.461,18.64.2,3.418-1.461,7.02-3.22,10.831-1.915,4.151-3.894,8.443-3.894,13.278,0,2.189-.3,5.514-.62,9.035-1.272,14.081-1.735,22.173,3.542,24.81A25.533,25.533,0,0,0,218,675.4a13.221,13.221,0,0,0,5.369-.958,28.754,28.754,0,0,0,7.081,1.643,77.646,77.646,0,0,0,8.787.489c10.752,0,13.363-2.028,14.587-4.229a12.84,12.84,0,0,0,.506-10,7.858,7.858,0,0,0-4.516-4.8c-2.246-1.046-13.168-10.34-12.96-21.492.134-7.212,6.669-29.364,11.922-47.165,4.526-15.343,8.434-28.591,9.351-35.021,1.491-10.421-2.229-25.7-5.219-37.969a115.22,115.22,0,0,1-2.622-12.271c-.677-7.481,6.437-40.073,10.688-59.545l.4-1.814c1.775-8.122,17.1-80.54,8.9-121.559-6.153-30.757-13.81-69.034-11.255-77.864.857-2.959,1.993-9.4,3.309-16.851.087-.5.175-.993.264-1.5A172.6,172.6,0,0,0,277.411,252.4c9.265,14.582,52.539,54.653,59.928,61.45,1.124,4.8,5.13,20.888,10.209,29.408,5.559,9.319,9.989,16.746,17.223,17.252,4.17,5.655,7.9,8.179,11.2,7.636a10.417,10.417,0,0,0,3.117-1.012,7.824,7.824,0,0,0,6.031.47,7,7,0,0,0,4.289-5.1,8.106,8.106,0,0,0,2.428-2.646c.948-1.615,2.011-3.428-6.373-32.23a20.756,20.756,0,0,0,7.424,1.751,9.964,9.964,0,0,0,2.475-.3c4.016-1.039,6.35-4.158,5.943-7.947" transform="translate(0 -0.001)" fill="#fff"/>
              </g>
            </g>
            <g id="Grupo_1074180" data-name="Grupo 1074180" transform="translate(4.365 4.362)" style="isolation: isolate">
              <g id="Grupo_1074179" data-name="Grupo 1074179" clip-path="url(#clip-path-6)">
                <path id="Trazado_611080" data-name="Trazado 611080" d="M-3.692-41.554,520.409,0V732.945H0Z" transform="matrix(0.981, -0.195, 0.195, 0.981, -130.492, 25.514)" fill="#ecd0d0"/>
              </g>
            </g>
          </g>
          <g id="Grupo_1074297" data-name="Grupo 1074297" transform="translate(189.206 71.508)">
            <g id="Grupo_1074296" data-name="Grupo 1074296" transform="translate(0 0)" clip-path="url(#clip-path-7)">
              <path id="Trazado_611081" data-name="Trazado 611081" d="M7.106,7.384a4.38,4.38,0,0,1-2.066-.538,6.944,6.944,0,0,1-1.989-1.7A4.8,4.8,0,0,0,1.437,3.787a.329.329,0,0,1-.213-.308.333.333,0,0,1,.214-.307,17.875,17.875,0,0,1,9.506-.613,17.859,17.859,0,0,1,9.506.613.329.329,0,0,1,.213.307.326.326,0,0,1-.211.308,4.8,4.8,0,0,0-1.614,1.361,6.944,6.944,0,0,1-1.989,1.7,4.824,4.824,0,0,1-3.261.446,21.353,21.353,0,0,0-5.286,0,10.876,10.876,0,0,1-1.2.093m3.838-.914a22.184,22.184,0,0,1,2.716.168,4.214,4.214,0,0,0,2.9-.381,6.469,6.469,0,0,0,1.793-1.551,8.456,8.456,0,0,1,1.185-1.152,17.685,17.685,0,0,0-8.513-.338.325.325,0,0,1-.157,0,17.685,17.685,0,0,0-8.513.338A8.456,8.456,0,0,1,3.537,4.707,6.469,6.469,0,0,0,5.331,6.257a4.206,4.206,0,0,0,2.9.381,22.184,22.184,0,0,1,2.716-.168" transform="translate(0.524 0.933)" fill="#a21717"/>
              <path id="Trazado_611082" data-name="Trazado 611082" d="M11.369,1.711C8.913-2.148,4.624,2.653.23,3.862a7.018,7.018,0,0,0,6.807.173,3.328,3.328,0,0,1,2.849.041,7.49,7.49,0,0,0,1.484.548,7.49,7.49,0,0,0,1.484-.548A3.325,3.325,0,0,1,15.7,4.035a7.02,7.02,0,0,0,6.808-.173c-4.394-1.209-8.683-6.01-11.139-2.152" transform="translate(0.098 0.101)" fill="#a21717" fill-rule="evenodd"/>
              <path id="Trazado_611083" data-name="Trazado 611083" d="M3.767,5.259a7.236,7.236,0,0,1-3.6-1.008.328.328,0,0,1,.073-.6A20.212,20.212,0,0,0,4.332,1.8C7.062.313,9.65-1.091,11.469,1.242c1.819-2.333,4.405-.93,7.135.554A20.212,20.212,0,0,0,22.7,3.648a.328.328,0,0,1,.073.6,7.34,7.34,0,0,1-7.1.186,2.99,2.99,0,0,0-2.567.034,7.773,7.773,0,0,1-1.548.574.337.337,0,0,1-.168,0,7.74,7.74,0,0,1-1.548-.574,2.991,2.991,0,0,0-2.567-.034,8.663,8.663,0,0,1-3.5.822M1.191,4.034a6.733,6.733,0,0,0,5.815-.2,3.645,3.645,0,0,1,3.129.05,7.053,7.053,0,0,0,1.335.5,7,7,0,0,0,1.334-.5,3.648,3.648,0,0,1,3.13-.05,6.73,6.73,0,0,0,5.813.2,25.71,25.71,0,0,1-3.454-1.661c-3.129-1.7-5.119-2.627-6.546-.384a.331.331,0,0,1-.277.151.328.328,0,0,1-.277-.151C9.764-.254,7.775.674,4.646,2.373A25.81,25.81,0,0,1,1.191,4.034" transform="translate(0 0)" fill="#a21717"/>
            </g>
          </g>
        </g>
        <rect id="Rectángulo_378607" data-name="Rectángulo 378607" width="55" height="4" transform="translate(543.68 536.5)" fill="#1c534a"/>
        <path id="Trazado_611079" data-name="Trazado 611079" d="M28.16,0V211.662H0" transform="translate(783.343 538.502) rotate(90)" fill="none" stroke="#1c534a" stroke-width="3"/>
        <g id="Grupo_1074294" data-name="Grupo 1074294" transform="translate(-153.076 -5354)">
          <path id="Trazado_608059" data-name="Trazado 608059" d="M-7117-5819.309V-6015h-28.16" transform="translate(-4866.919 13003.162) rotate(90)" fill="none" stroke="#1c534a" stroke-width="3"/>
          <rect id="Rectángulo_347092" data-name="Rectángulo 347092" width="55" height="4" transform="translate(1120.581 5856)" fill="#1c534a"/>
        </g>
        <g id="Grupo_1074295" data-name="Grupo 1074295" transform="translate(-153.076 -5163)">
          <path id="Trazado_608059-2" data-name="Trazado 608059" d="M-7117-5803.338V-6015h-28.16" transform="translate(-4866.919 13003.162) rotate(90)" fill="none" stroke="#1c534a" stroke-width="3"/>
          <rect id="Rectángulo_347092-2" data-name="Rectángulo 347092" width="55" height="4" transform="translate(1120.581 5856)" fill="#1c534a"/>
        </g>
      </g>
    </g>
  </g>
</svg>
